<svg width="43" height="47" viewBox="0 0 43 47" fill="none" xmlns="http://www.w3.org/2000/svg">
<path d="M31.8329 27.4418C31.5801 27.4382 31.3291 27.4849 31.0945 27.5792C30.8599 27.6734 30.6464 27.8134 30.4664 27.9909C30.2863 28.1684 30.1433 28.3799 30.0458 28.6132C29.9482 28.8464 29.8979 29.0967 29.8979 29.3496C29.8979 29.6024 29.9482 29.8527 30.0458 30.086C30.1433 30.3192 30.2863 30.5307 30.4664 30.7083C30.6464 30.8858 30.8599 31.0257 31.0945 31.12C31.3291 31.2143 31.5801 31.261 31.8329 31.2574H35.8125L26.5864 40.4835L16.4884 30.3855C16.1306 30.0278 15.6454 29.8269 15.1395 29.8269C14.6336 29.8269 14.1484 30.0278 13.7906 30.3855L0.912744 43.2633C0.729644 43.4391 0.583462 43.6497 0.482758 43.8827C0.382054 44.1157 0.328853 44.3664 0.326271 44.6202C0.323688 44.874 0.371777 45.1258 0.46772 45.3608C0.563663 45.5958 0.705531 45.8093 0.885017 45.9888C1.0645 46.1683 1.278 46.3102 1.513 46.4061C1.748 46.502 1.99978 46.5501 2.2536 46.5476C2.50742 46.545 2.75817 46.4918 2.99117 46.3911C3.22417 46.2904 3.43473 46.1442 3.61053 45.9611L15.1395 34.4321L25.2375 44.5302C25.5953 44.8879 26.0805 45.0888 26.5864 45.0888C27.0923 45.0888 27.5775 44.8879 27.9353 44.5302L38.5103 33.9552V37.9348C38.5068 38.1876 38.5535 38.4386 38.6477 38.6732C38.742 38.9078 38.882 39.1213 39.0595 39.3014C39.237 39.4814 39.4485 39.6244 39.6818 39.722C39.915 39.8195 40.1653 39.8698 40.4182 39.8698C40.671 39.8698 40.9213 39.8195 41.1545 39.722C41.3878 39.6244 41.5993 39.4814 41.7768 39.3014C41.9543 39.1213 42.0943 38.9078 42.1886 38.6732C42.2828 38.4386 42.3296 38.1876 42.326 37.9348V29.3496C42.3259 28.8436 42.1249 28.3584 41.7671 28.0006C41.4094 27.6428 40.9241 27.4418 40.4182 27.4418H31.8329Z" fill="white"/>
<path d="M38.9485 27.442C39.0722 28.0804 38.3832 28.3134 38.3832 28.9879C38.3832 34.6833 33.7652 39.3014 28.0698 39.3014C27.5991 39.3013 27.8915 39.6924 27.4376 39.6312L32.5368 34.532C32.5454 34.5405 32.5524 34.5475 32.5567 34.5519C32.989 34.9843 33.69 34.9845 34.1232 34.5519C34.5565 34.1197 34.5562 33.4178 34.1232 32.9843L34.1044 32.9644L35.8125 31.2574L32.3965 31.2577L30.4733 29.3333C30.4862 29.3203 31.4353 28.3704 32.3634 27.442H38.9485Z" fill="white"/>
<path d="M15.1395 29.8269C15.6454 29.8269 16.1306 30.0278 16.4884 30.3855L16.6955 30.5937C16.965 33.3791 18.1777 35.8863 20.0018 37.8052C19.5267 37.8343 19.0453 37.8496 18.5569 37.8505L15.1395 34.4321L12.501 37.0695C11.0868 36.6813 9.79197 36.1577 8.65109 35.524L13.7906 30.3855C14.1484 30.0278 14.6336 29.8269 15.1395 29.8269Z" fill="white"/>
<path d="M28.2606 31.5449C28.4345 31.8258 28.6417 32.0861 28.8781 32.3193C29.2716 32.7072 29.7385 33.0136 30.2512 33.2196C30.3481 33.2585 30.4469 33.292 30.5462 33.3234L26.5858 37.2838L24.1202 34.8181C24.5054 34.9462 24.9474 34.8587 25.2547 34.5519C25.3786 34.4279 27.2457 32.5593 28.2606 31.5449Z" fill="white"/>
<path d="M18.5657 22.852C17.6119 24.3404 16.9693 26.0468 16.7364 27.8817C16.2348 27.6738 15.6923 27.5647 15.139 27.5647C14.0334 27.5648 12.9725 28.0038 12.1905 28.7853L6.73665 34.2392C4.71207 32.5953 3.51327 30.5032 3.51315 28.1954V27.0709C3.51336 24.745 5.40724 22.852 7.73309 22.852H18.5657Z" fill="white"/>
<path d="M28.8251 19.1027C33.0104 19.1027 36.6105 21.5973 38.2271 25.1796H34.4104C34.5069 24.8113 34.4121 24.4037 34.1232 24.1147C33.691 23.6816 32.9901 23.6818 32.5567 24.1147C32.4979 24.1735 32.0448 24.6253 31.4774 25.1929C31.1257 25.2204 30.7785 25.2929 30.4445 25.4083L30.2512 25.4801C29.8025 25.6604 29.3883 25.9176 29.0283 26.239L28.8781 26.3804C28.6475 26.6079 28.4463 26.8619 28.2749 27.1349C27.2643 26.1241 25.3827 24.2419 25.2547 24.1147C24.8223 23.6818 24.1204 23.6814 23.6871 24.1147C23.2538 24.5469 23.2542 25.2488 23.6871 25.6822L27.3381 29.3333C27.3219 29.3495 23.8563 32.8139 23.6871 32.9843C23.3802 33.2908 23.2915 33.732 23.4198 34.1177L18.5182 29.2162C18.624 23.6127 23.1964 19.1032 28.8251 19.1027Z" fill="white"/>
<path d="M18.5138 0.351562C23.6829 0.351779 27.8879 4.55701 27.8883 9.72602C27.8883 14.8954 23.6831 19.1025 18.5138 19.1027C13.3444 19.1027 9.13716 14.8955 9.13716 9.72602C9.13755 4.55687 13.3446 0.351562 18.5138 0.351562Z" fill="white"/>
</svg>
