<svg width="43" height="47" viewBox="0 0 43 47" fill="none" xmlns="http://www.w3.org/2000/svg">
<path fill-rule="evenodd" clip-rule="evenodd" d="M30.1676 22.3811C36.8819 22.3811 42.3258 27.8238 42.3262 34.538C42.3262 41.2524 36.8821 46.6965 30.1676 46.6965C23.4534 46.6962 18.0108 41.2522 18.0108 34.538C18.0111 27.824 23.4536 22.3815 30.1676 22.3811ZM36.4137 28.29C35.9042 27.7793 35.0769 27.7796 34.5659 28.29C34.3649 28.4911 30.2722 32.5855 30.2624 32.5952C30.2624 32.5952 26.1585 28.49 25.9572 28.29C25.4475 27.7796 24.6202 27.7792 24.1094 28.29C23.5986 28.7995 23.599 29.6268 24.1094 30.1379L28.4146 34.4431C28.4048 34.4528 24.3091 38.5455 24.1094 38.7466C23.5989 39.2563 23.5987 40.0836 24.1094 40.5944C24.6189 41.1052 25.4462 41.1049 25.9572 40.5944C26.1582 40.3934 30.2527 36.3007 30.2624 36.291C30.326 36.3545 34.3662 40.396 34.5659 40.5944C35.0756 41.1049 35.9029 41.1053 36.4137 40.5944C36.9246 40.0849 36.9243 39.2576 36.4137 38.7466L32.1103 34.4431C32.1201 34.4333 36.214 30.3389 36.4137 30.1379C36.9242 29.6282 36.9245 28.8009 36.4137 28.29Z" fill="white"/>
<path d="M18.0722 26.8023C16.6402 29.0368 15.7994 31.6869 15.7993 34.538C15.7993 38.3754 17.3151 41.8532 19.7655 44.4306C19.1887 44.466 18.6042 44.4851 18.0108 44.4851C8.09447 44.4851 0.326394 39.485 0.326172 33.1011V31.775C0.326412 29.033 2.55861 26.8023 5.30062 26.8023H18.0722Z" fill="white"/>
<path d="M18.0108 0.275391C24.1048 0.275592 29.0624 5.23337 29.0627 11.3274C29.0627 17.4217 24.105 22.3809 18.0108 22.3811C11.9163 22.3811 6.95701 17.4218 6.95701 11.3274C6.95736 5.23325 11.9165 0.275391 18.0108 0.275391Z" fill="white"/>
</svg>
