<svg width="33" height="36" viewBox="0 0 33 36" fill="none" xmlns="http://www.w3.org/2000/svg">
<path d="M12.0027 0.451172C9.97656 0.451172 8.30231 2.00978 8.07741 3.98017H4.94473C2.75587 3.98017 0.974609 5.76143 0.974609 7.9503V31.771C0.974609 33.9599 2.75587 35.7412 4.94473 35.7412H13.8017C12.96 34.8033 12.4439 33.5691 12.4439 32.2122V17.2139C12.4439 14.2946 14.818 11.9204 17.7374 11.9204H29.2066V7.9503C29.2066 5.76143 27.4253 3.98017 25.2365 3.98017H22.1038C21.8789 2.00978 20.2047 0.451172 18.1785 0.451172H12.0027ZM12.0027 3.09792H18.1785C18.9253 3.09792 19.5019 3.67447 19.5019 4.4213C19.5019 5.16812 18.9253 5.74467 18.1785 5.74467H12.0027C11.2559 5.74467 10.6794 5.16812 10.6794 4.4213C10.6794 3.67447 11.2559 3.09792 12.0027 3.09792ZM17.7374 13.6849C15.7885 13.6849 14.2084 15.265 14.2084 17.2139V32.2122C14.2084 34.1611 15.7885 35.7412 17.7374 35.7412H29.2066C31.1555 35.7412 32.7356 34.1611 32.7356 32.2122V17.2139C32.7356 15.265 31.1555 13.6849 29.2066 13.6849H17.7374ZM19.5019 18.0962H27.4421C27.9291 18.0962 28.3244 18.4914 28.3244 18.9784V20.7429C28.3244 21.2299 27.9291 21.6252 27.4421 21.6252H19.5019C19.0149 21.6252 18.6196 21.2299 18.6196 20.7429V18.9784C18.6196 18.4914 19.0149 18.0962 19.5019 18.0962ZM19.0607 24.2719C19.7912 24.2719 20.3841 24.8648 20.3841 25.5953C20.3841 26.3258 19.7912 26.9187 19.0607 26.9187C18.3302 26.9187 17.7374 26.3258 17.7374 25.5953C17.7374 24.8648 18.3302 24.2719 19.0607 24.2719ZM23.472 24.2719C24.2025 24.2719 24.7954 24.8648 24.7954 25.5953C24.7954 26.3258 24.2025 26.9187 23.472 26.9187C22.7415 26.9187 22.1486 26.3258 22.1486 25.5953C22.1486 24.8648 22.7415 24.2719 23.472 24.2719ZM27.8832 24.2719C28.6137 24.2719 29.2066 24.8648 29.2066 25.5953V30.0065C29.2066 30.7371 28.6137 31.3299 27.8832 31.3299C27.1527 31.3299 26.5599 30.7371 26.5599 30.0065V25.5953C26.5599 24.8648 27.1527 24.2719 27.8832 24.2719ZM19.0607 28.6832C19.7912 28.6832 20.3841 29.276 20.3841 30.0065C20.3841 30.7371 19.7912 31.3299 19.0607 31.3299C18.3302 31.3299 17.7374 30.7371 17.7374 30.0065C17.7374 29.276 18.3302 28.6832 19.0607 28.6832ZM23.472 28.6832C24.2025 28.6832 24.7954 29.276 24.7954 30.0065C24.7954 30.7371 24.2025 31.3299 23.472 31.3299C22.7415 31.3299 22.1486 30.7371 22.1486 30.0065C22.1486 29.276 22.7415 28.6832 23.472 28.6832Z" fill="#69B0B2"/>
</svg>
