<svg width="37" height="44" viewBox="0 0 37 44" fill="none" xmlns="http://www.w3.org/2000/svg">
<path d="M33.2378 0.0634766H4.03597C2.02834 0.0634766 0.385742 1.70608 0.385742 3.7137V40.216C0.385742 42.2236 2.02834 43.8662 4.03597 43.8662H33.2378C35.2454 43.8662 36.888 42.2236 36.888 40.216V3.7137C36.888 1.70608 35.2454 0.0634766 33.2378 0.0634766ZM11.3364 36.5658C11.3364 37.5696 10.5151 38.3909 9.51131 38.3909H5.86108C4.85727 38.3909 4.03597 37.5696 4.03597 36.5658V35.6532C4.03597 34.6494 4.85727 33.8281 5.86108 33.8281H9.51131C10.5151 33.8281 11.3364 34.6494 11.3364 35.6532V36.5658ZM11.3364 29.2653C11.3364 30.2691 10.5151 31.0904 9.51131 31.0904H5.86108C4.85727 31.0904 4.03597 30.2691 4.03597 29.2653V28.3527C4.03597 27.3489 4.85727 26.5276 5.86108 26.5276H9.51131C10.5151 26.5276 11.3364 27.3489 11.3364 28.3527V29.2653ZM11.3364 21.9648C11.3364 22.9687 10.5151 23.79 9.51131 23.79H5.86108C4.85727 23.79 4.03597 22.9687 4.03597 21.9648V21.0523C4.03597 20.0485 4.85727 19.2272 5.86108 19.2272H9.51131C10.5151 19.2272 11.3364 20.0485 11.3364 21.0523V21.9648ZM22.2871 36.5658C22.2871 37.5696 21.4658 38.3909 20.462 38.3909H16.8118C15.808 38.3909 14.9867 37.5696 14.9867 36.5658V35.6532C14.9867 34.6494 15.808 33.8281 16.8118 33.8281H20.462C21.4658 33.8281 22.2871 34.6494 22.2871 35.6532V36.5658ZM22.2871 29.2653C22.2871 30.2691 21.4658 31.0904 20.462 31.0904H16.8118C15.808 31.0904 14.9867 30.2691 14.9867 29.2653V28.3527C14.9867 27.3489 15.808 26.5276 16.8118 26.5276H20.462C21.4658 26.5276 22.2871 27.3489 22.2871 28.3527V29.2653ZM22.2871 21.9648C22.2871 22.9687 21.4658 23.79 20.462 23.79H16.8118C15.808 23.79 14.9867 22.9687 14.9867 21.9648V21.0523C14.9867 20.0485 15.808 19.2272 16.8118 19.2272H20.462C21.4658 19.2272 22.2871 20.0485 22.2871 21.0523V21.9648ZM33.2378 36.5658C33.2378 37.5696 32.4165 38.3909 31.4127 38.3909H27.7625C26.7586 38.3909 25.9373 37.5696 25.9373 36.5658V35.6532C25.9373 34.6494 26.7586 33.8281 27.7625 33.8281H31.4127C32.4165 33.8281 33.2378 34.6494 33.2378 35.6532V36.5658ZM33.2378 29.2653C33.2378 30.2691 32.4165 31.0904 31.4127 31.0904H27.7625C26.7586 31.0904 25.9373 30.2691 25.9373 29.2653V28.3527C25.9373 27.3489 26.7586 26.5276 27.7625 26.5276H31.4127C32.4165 26.5276 33.2378 27.3489 33.2378 28.3527V29.2653ZM33.2378 21.9648C33.2378 22.9687 32.4165 23.79 31.4127 23.79H27.7625C26.7586 23.79 25.9373 22.9687 25.9373 21.9648V21.0523C25.9373 20.0485 26.7586 19.2272 27.7625 19.2272H31.4127C32.4165 19.2272 33.2378 20.0485 33.2378 21.0523V21.9648ZM33.2378 13.7518C33.2378 14.7556 32.4165 15.5769 31.4127 15.5769H5.86108C4.85727 15.5769 4.03597 14.7556 4.03597 13.7518V6.45138C4.03597 5.44756 4.85727 4.62626 5.86108 4.62626H31.4127C32.4165 4.62626 33.2378 5.44756 33.2378 6.45138V13.7518Z" fill="#69B0B2"/>
</svg>
