<svg width="47" height="46" viewBox="0 0 47 46" fill="none" xmlns="http://www.w3.org/2000/svg">
<path d="M23.9085 0.421875C21.9507 0.421875 20.365 1.97384 20.365 3.88995V4.39797C15.243 5.89073 11.5064 10.5302 11.5064 16.0282V20.8104C11.5064 25.5217 9.59468 30.0375 6.19118 33.3686C5.72128 33.3686 5.27064 33.5513 4.93837 33.8765C4.60611 34.2017 4.41944 34.6427 4.41944 35.1026C4.41944 35.5625 4.60611 36.0036 4.93837 36.3288C5.27064 36.654 5.72128 36.8367 6.19118 36.8367H41.6258C42.0957 36.8367 42.5464 36.654 42.8787 36.3288C43.2109 36.0036 43.3976 35.5625 43.3976 35.1026C43.3976 34.6427 43.2109 34.2017 42.8787 33.8765C42.5464 33.5513 42.0957 33.3686 41.6258 33.3686C38.2223 30.0375 36.3106 25.5217 36.3106 20.8104V16.0282C36.3106 10.5302 32.574 5.89073 27.452 4.39797V3.88995C27.452 1.97384 25.8663 0.421875 23.9085 0.421875ZM4.33985 9.07174C4.0223 9.08769 3.71498 9.18698 3.45013 9.35919C3.18528 9.5314 2.97266 9.7702 2.83457 10.0505C2.83457 10.0505 0.875977 13.7162 0.875977 17.7622C0.875977 21.8083 2.83457 25.474 2.83457 25.474C3.04482 25.8852 3.41335 26.1979 3.85912 26.3433C4.30489 26.4887 4.79141 26.4548 5.21167 26.2491C5.63193 26.0435 5.95152 25.6829 6.10017 25.2466C6.24881 24.8104 6.21433 24.3342 6.00431 23.9228C6.00431 23.9228 4.41944 20.6523 4.41944 17.7622C4.41944 14.8722 6.00431 11.6017 6.00431 11.6017C6.14787 11.3306 6.21575 11.0272 6.20111 10.7223C6.18647 10.4173 6.08982 10.1215 5.92093 9.86477C5.75205 9.60807 5.51691 9.39955 5.23928 9.2603C4.96166 9.12105 4.6514 9.05601 4.33985 9.07174ZM43.4253 9.07174C43.118 9.06522 42.8144 9.13701 42.5441 9.28006C42.2738 9.4231 42.0461 9.63249 41.8835 9.88765C41.7209 10.1428 41.6288 10.435 41.6164 10.7355C41.604 11.036 41.6716 11.3345 41.8127 11.6017C41.8127 11.6017 43.3976 14.8722 43.3976 17.7622C43.3976 20.6523 41.8127 23.9228 41.8127 23.9228C41.7086 24.1265 41.6465 24.3483 41.63 24.5755C41.6135 24.8027 41.6428 25.0308 41.7164 25.2469C41.79 25.463 41.9063 25.6628 42.0588 25.8349C42.2112 26.007 42.3969 26.1479 42.605 26.2498C42.8132 26.3517 43.0398 26.4124 43.2719 26.4285C43.504 26.4447 43.7372 26.4159 43.9579 26.3439C44.1787 26.2718 44.3828 26.1579 44.5586 26.0087C44.7344 25.8594 44.8784 25.6777 44.9824 25.474C44.9824 25.474 46.941 21.8083 46.941 17.7622C46.941 13.7162 44.9824 10.0505 44.9824 10.0505C44.8403 9.76277 44.6196 9.51908 44.3448 9.34635C44.07 9.17363 43.7518 9.07859 43.4253 9.07174ZM18.5933 40.3047C18.5933 43.178 20.9727 45.5068 23.9085 45.5068C26.8443 45.5068 29.2237 43.178 29.2237 40.3047H18.5933Z" fill="#69B0B2"/>
</svg>
