<svg width="34" height="24" viewBox="0 0 34 24" fill="none" xmlns="http://www.w3.org/2000/svg">
<path d="M30.8806 0.515137H3.52062C1.93156 0.515137 0.640625 1.80607 0.640625 3.39514V20.6751C0.640625 22.2642 1.93156 23.5551 3.52062 23.5551H30.8806C32.4697 23.5551 33.7606 22.2642 33.7606 20.6751V3.39514C33.7606 1.80607 32.4697 0.515137 30.8806 0.515137ZM4.96062 18.5151C5.135 15.6154 8.86437 16.0373 9.42406 14.5354C9.46906 14.0208 9.42406 13.6608 9.42406 13.1911C9.19062 13.0673 8.53812 12.4064 8.43687 11.6695C8.43687 11.6695 7.91094 11.4192 7.88281 10.6261C7.86594 10.207 8.16125 9.90889 8.16125 9.90889C7.61281 7.7967 7.84906 5.60576 10.6756 5.55514C11.3816 5.55514 11.9131 5.89545 12.1241 6.26951C14.09 6.26951 13.5809 9.0117 13.2828 9.90889C13.3925 10.0186 13.5275 10.3223 13.5275 10.7329C13.5275 11.3208 12.9706 11.6695 12.9706 11.6695C12.8666 12.4176 12.3378 13.0364 12.0172 13.1911C12.0172 13.6608 11.9694 14.0208 12.0172 14.5354C12.5769 16.0373 16.3062 15.6154 16.4806 18.5151H4.96062ZM28.7206 16.3551H20.0806C19.6812 16.3551 19.3606 16.0345 19.3606 15.6351C19.3606 15.2358 19.6812 14.9151 20.0806 14.9151H28.7206C29.12 14.9151 29.4406 15.2358 29.4406 15.6351C29.4406 16.0345 29.12 16.3551 28.7206 16.3551ZM28.7206 12.7551H20.0806C19.6812 12.7551 19.3606 12.4317 19.3606 12.0351C19.3606 11.6386 19.6812 11.3151 20.0806 11.3151H28.7206C29.12 11.3151 29.4406 11.6386 29.4406 12.0351C29.4406 12.4317 29.12 12.7551 28.7206 12.7551ZM28.7206 9.15514H20.0806C19.6812 9.15514 19.3606 8.8317 19.3606 8.43514C19.3606 8.03857 19.6812 7.71514 20.0806 7.71514H28.7206C29.12 7.71514 29.4406 8.03857 29.4406 8.43514C29.4406 8.8317 29.12 9.15514 28.7206 9.15514Z" fill="#69B0B2"/>
</svg>
