<svg width="44" height="44" viewBox="0 0 44 44" fill="none" xmlns="http://www.w3.org/2000/svg">
<path d="M23.5242 39.2169L21.6556 37.3483L17.196 32.8887L11.779 27.4717L7.12209 22.8148C6.36624 22.0589 5.62297 21.2947 4.85452 20.5472L4.82092 20.5136V23.4825L6.68957 21.6138L11.1491 17.1542L16.5661 11.7373L21.2231 7.08032C21.9789 6.32446 22.7432 5.577 23.4906 4.81275L23.5242 4.77915C23.9064 4.39702 24.1373 3.83433 24.1373 3.29263C24.1373 2.77612 23.9106 2.16304 23.5242 1.8061C23.1253 1.44077 22.6004 1.16782 22.0377 1.19302C21.4792 1.21821 20.9543 1.40718 20.5512 1.8061L18.6825 3.67476L14.223 8.13433L8.80598 13.5513L4.14905 18.2083C3.39319 18.9641 2.62893 19.7116 1.88147 20.4758L1.84788 20.5094C1.04583 21.3115 1.04583 22.6762 1.84788 23.4783C2.47356 24.1082 3.09924 24.7296 3.72073 25.3553L8.1803 29.8149L13.5973 35.2319L18.2542 39.8888C19.0101 40.6447 19.7575 41.4089 20.5218 42.1564L20.5554 42.19C20.9375 42.5721 21.5002 42.8031 22.0419 42.8031C22.5584 42.8031 23.1715 42.5763 23.5284 42.19C23.8938 41.7911 24.1667 41.2662 24.1415 40.7035C24.1121 40.145 23.9274 39.6201 23.5242 39.2169Z" fill="white"/>
<path d="M3.32608 24.0995H39.1538C39.6367 24.0995 40.1238 24.1037 40.6067 24.0995H40.6697C41.2072 24.0995 41.7741 23.8644 42.1562 23.4864C42.5216 23.1211 42.7945 22.5248 42.7693 21.9999C42.7441 21.4582 42.5678 20.8955 42.1562 20.5134C41.7447 20.1355 41.2408 19.9003 40.6697 19.9003H4.84199C4.35908 19.9003 3.87197 19.8961 3.38906 19.9003H3.32608C2.78858 19.9003 2.22168 20.1355 1.83955 20.5134C1.47422 20.8787 1.20127 21.475 1.22647 21.9999C1.25166 22.5416 1.42803 23.1043 1.83955 23.4864C2.25527 23.8602 2.75918 24.0995 3.32608 24.0995Z" fill="white"/>
</svg>
