<svg width="124" height="22" viewBox="0 0 124 22" fill="none" xmlns="http://www.w3.org/2000/svg">
<path d="M8.18225 21.0101L7.61615 17.8683H4.04973L3.48363 21.0101H0.313477L4.27617 1.19665H7.38971L11.3524 21.0101H8.18225ZM4.58752 14.7547H7.07836L5.83294 7.65018L4.58752 14.7547Z" fill="#69B0B2"/>
<path d="M20.4098 20.076C19.5795 20.8497 18.485 21.2366 17.1264 21.2366C15.7678 21.2366 14.6733 20.8497 13.843 20.076C12.8995 19.1703 12.4278 17.9343 12.4278 16.3681V13.7924H15.5413V16.3681C15.5413 17.0474 15.6828 17.5192 15.9659 17.7833C16.2112 18.0098 16.598 18.123 17.1264 18.123C17.6736 18.123 18.0605 18.0098 18.2869 17.7833C18.5699 17.538 18.7115 17.0663 18.7115 16.3681V15.1227C18.7115 14.2547 18.3624 13.4999 17.6642 12.8583C17.5132 12.7262 17.117 12.4809 16.4754 12.1224C15.5885 11.6506 14.9375 11.2355 14.5223 10.8769C13.843 10.2731 13.3241 9.58435 12.9656 8.81068C12.607 8.03701 12.4278 7.20674 12.4278 6.31985V5.83866C12.4278 4.27246 12.8995 3.03647 13.843 2.13072C14.6733 1.35705 15.7678 0.970215 17.1264 0.970215C18.485 0.970215 19.5795 1.35705 20.4098 2.13072C21.3533 3.03647 21.825 4.27246 21.825 5.83866V7.56527H18.7115V5.83866C18.7115 5.14048 18.5699 4.66873 18.2869 4.42342C18.0605 4.19698 17.6736 4.08376 17.1264 4.08376C16.598 4.08376 16.2112 4.19698 15.9659 4.42342C15.6828 4.6876 15.5413 5.15935 15.5413 5.83866V6.31985C15.5413 7.18787 15.8904 7.93323 16.5886 8.55594C16.7773 8.7069 17.1453 8.93334 17.6925 9.23526C18.6737 9.76362 19.353 10.1976 19.7304 10.5373C21.1268 11.7827 21.825 13.3112 21.825 15.1227V16.3681C21.825 17.9343 21.3533 19.1703 20.4098 20.076Z" fill="#69B0B2"/>
<path d="M34.9269 1.19665H36.7101V21.0101H33.5965V11.1317L31.0774 17.8966H29.2659L26.7468 11.1317V21.0101H23.6332V1.19665H25.4164L30.1716 12.179L34.9269 1.19665Z" fill="#69B0B2"/>
<path d="M46.0788 21.0101L45.5127 17.8683H41.9463L41.3802 21.0101H38.21L42.1727 1.19665H45.2863L49.249 21.0101H46.0788ZM42.4841 14.7547H44.9749L43.7295 7.65018L42.4841 14.7547Z" fill="#69B0B2"/>
<path d="M58.3662 20.076C57.536 20.8497 56.4415 21.2366 55.0829 21.2366C53.762 21.2366 52.6675 20.8497 51.7995 20.076C50.856 19.1326 50.3843 17.8966 50.3843 16.3681V5.83866C50.3843 4.3102 50.856 3.07421 51.7995 2.13072C52.6675 1.35705 53.762 0.970215 55.0829 0.970215C56.4415 0.970215 57.536 1.35705 58.3662 2.13072C59.3097 3.03647 59.7815 4.27246 59.7815 5.83866V7.59357H56.6679V5.83866C56.6679 5.14048 56.5359 4.66873 56.2717 4.42342C56.0264 4.19698 55.6301 4.08376 55.0829 4.08376C54.5545 4.08376 54.1677 4.19698 53.9224 4.42342C53.6393 4.6876 53.4978 5.15935 53.4978 5.83866V16.3681C53.4978 17.0474 53.6393 17.5192 53.9224 17.7833C54.1677 18.0098 54.5545 18.123 55.0829 18.123C55.6301 18.123 56.0264 18.0098 56.2717 17.7833C56.5359 17.538 56.6679 17.0663 56.6679 16.3681V12.6602H55.1112V9.54661H59.7815V16.3681C59.7815 17.9343 59.3097 19.1703 58.3662 20.076Z" fill="#69B0B2"/>
<path d="M71.1185 21.0101H67.9483L66.335 13.0564H64.9197V21.0101H61.8062V1.19665H66.5048C67.8446 1.19665 68.939 1.59292 69.7882 2.38546C70.7317 3.25348 71.2034 4.48003 71.2034 6.0651V8.18797C71.2034 9.79192 70.7317 11.0279 69.7882 11.8959C69.6561 12.028 69.5051 12.1507 69.3353 12.2639L71.1185 21.0101ZM68.0899 6.0651C68.0899 5.40466 67.9483 4.93291 67.6653 4.64986C67.42 4.42342 67.0332 4.3102 66.5048 4.3102H64.9197V9.94288H66.5048C67.0332 9.94288 67.42 9.82966 67.6653 9.60322C67.9483 9.33904 68.0899 8.86729 68.0899 8.18797V6.0651Z" fill="#69B0B2"/>
<path d="M80.7835 20.076C79.9533 20.8497 78.8588 21.2366 77.5002 21.2366C76.1415 21.2366 75.0471 20.8497 74.2168 20.076C73.2733 19.1703 72.8015 17.9343 72.8015 16.3681V5.83866C72.8015 4.27246 73.2733 3.03647 74.2168 2.13072C75.0471 1.35705 76.1415 0.970215 77.5002 0.970215C78.8588 0.970215 79.9533 1.35705 80.7835 2.13072C81.727 3.03647 82.1988 4.27246 82.1988 5.83866V16.3681C82.1988 17.9343 81.727 19.1703 80.7835 20.076ZM78.6607 4.42342C78.4342 4.19698 78.0474 4.08376 77.5002 4.08376C76.9718 4.08376 76.585 4.19698 76.3397 4.42342C76.0566 4.6876 75.9151 5.15935 75.9151 5.83866V16.3681C75.9151 17.0474 76.0566 17.5192 76.3397 17.7833C76.585 18.0098 76.9718 18.123 77.5002 18.123C78.0474 18.123 78.4342 18.0098 78.6607 17.7833C78.9437 17.538 79.0852 17.0663 79.0852 16.3681V5.83866C79.0852 5.14048 78.9437 4.66873 78.6607 4.42342Z" fill="#69B0B2"/>
<path d="M92.0363 20.076C91.1683 20.8497 90.0738 21.2366 88.7529 21.2366C87.3943 21.2366 86.2998 20.8497 85.4696 20.076C84.526 19.1703 84.0543 17.9343 84.0543 16.3681V1.19665H87.1678V16.3681C87.1678 17.0663 87.2999 17.538 87.5641 17.7833C87.8094 18.0098 88.2057 18.123 88.7529 18.123C89.2813 18.123 89.6681 18.0098 89.9134 17.7833C90.1965 17.5192 90.338 17.0474 90.338 16.3681V1.19665H93.4515V16.3681C93.4515 17.8966 92.9798 19.1326 92.0363 20.076Z" fill="#69B0B2"/>
<path d="M98.6977 13.0847V21.0101H95.5841V1.19665H100.283C101.623 1.19665 102.717 1.59292 103.566 2.38546C104.51 3.25348 104.981 4.48003 104.981 6.0651V8.21628C104.981 9.82023 104.51 11.0562 103.566 11.9242C102.736 12.6979 101.641 13.0847 100.283 13.0847H98.6977ZM98.6977 4.3102V9.97119H100.283C100.811 9.97119 101.198 9.85797 101.443 9.63153C101.726 9.36735 101.868 8.8956 101.868 8.21628V6.0651C101.868 5.40466 101.726 4.93291 101.443 4.64986C101.198 4.42342 100.811 4.3102 100.283 4.3102H98.6977Z" fill="#69B0B2"/>
<path d="M105.816 18.4061C106.137 18.708 106.297 19.0759 106.297 19.51C106.297 19.944 106.137 20.3214 105.816 20.6421C105.514 20.9441 105.146 21.095 104.712 21.095C104.278 21.095 103.901 20.9441 103.58 20.6421C103.278 20.3214 103.127 19.944 103.127 19.51C103.127 19.0759 103.278 18.708 103.58 18.4061C103.901 18.0853 104.278 17.9249 104.712 17.9249C105.146 17.9249 105.514 18.0853 105.816 18.4061Z" fill="#69B0B2"/>
<path d="M111.523 21.0101H108.41V1.19665H111.523V21.0101Z" fill="#69B0B2"/>
<path d="M123.112 21.0101H119.942L118.329 13.0564H116.913V21.0101H113.8V1.19665H118.499C119.838 1.19665 120.933 1.59292 121.782 2.38546C122.725 3.25348 123.197 4.48003 123.197 6.0651V8.18797C123.197 9.79192 122.725 11.0279 121.782 11.8959C121.65 12.028 121.499 12.1507 121.329 12.2639L123.112 21.0101ZM120.084 6.0651C120.084 5.40466 119.942 4.93291 119.659 4.64986C119.414 4.42342 119.027 4.3102 118.499 4.3102H116.913V9.94288H118.499C119.027 9.94288 119.414 9.82966 119.659 9.60322C119.942 9.33904 120.084 8.86729 120.084 8.18797V6.0651Z" fill="#69B0B2"/>
</svg>
