<svg width="183" height="64" viewBox="0 0 183 64" fill="none" xmlns="http://www.w3.org/2000/svg">
<path d="M80.1602 6.01731C80.3434 5.50513 80.8305 5.16309 81.3766 5.16309H84.9237L93.384 28.812H89.6828C89.1325 28.812 88.6426 28.4648 88.4626 27.947L87.2991 24.6006H78.0904L76.6261 28.812H72.0054L80.1602 6.01731ZM79.5872 20.3891H85.8348L82.711 11.4155L79.5872 20.3891Z" fill="white"/>
<path d="M104.133 29.136C101.985 29.136 100.174 28.7364 98.6984 27.9373C97.2232 27.1166 95.9433 26.1016 94.8587 24.8921L97.7269 22.6353C98.3429 22.1506 99.2387 22.3325 99.7545 22.9219C100.17 23.3968 100.632 23.7943 101.139 24.1146C102.028 24.6545 103.015 24.9245 104.1 24.9245C105.271 24.9245 106.161 24.6006 106.768 23.9526C107.397 23.3047 107.712 22.5704 107.712 21.7497C107.712 21.253 107.571 20.8318 107.289 20.4863C107.007 20.1407 106.638 19.8492 106.183 19.6116C105.727 19.3524 105.195 19.1257 104.588 18.9313C104.002 18.7369 103.395 18.5425 102.766 18.3482C101.963 18.089 101.161 17.8082 100.358 17.5059C99.5553 17.2035 98.8285 16.804 98.1777 16.3072C97.5486 15.7889 97.028 15.1626 96.6158 14.4283C96.2254 13.6724 96.0301 12.7329 96.0301 11.6098C96.0301 10.6596 96.2254 9.77409 96.6158 8.9534C97.0063 8.1327 97.5486 7.41999 98.2428 6.81527C98.9587 6.18895 99.7939 5.70302 100.748 5.35746C101.725 5.01191 102.777 4.83913 103.905 4.83913C104.859 4.83913 105.716 4.92552 106.475 5.09829C107.256 5.27107 107.961 5.50863 108.59 5.81099C109.241 6.11336 109.827 6.48051 110.348 6.91245C110.89 7.3228 111.4 7.77635 111.877 8.27309L109.322 10.2032C108.731 10.6501 107.896 10.4901 107.346 9.99356C106.434 9.17053 105.298 8.75901 103.937 8.75901C102.853 8.75901 102.028 9.01818 101.464 9.53651C100.9 10.0548 100.618 10.692 100.618 11.4479C100.618 11.923 100.748 12.3225 101.009 12.6465C101.269 12.9705 101.616 13.262 102.05 13.5212C102.506 13.7588 103.026 13.9747 103.612 14.1691C104.198 14.3635 104.816 14.5687 105.467 14.7846C106.269 15.0438 107.072 15.3462 107.875 15.6917C108.699 16.0157 109.436 16.4476 110.087 16.9876C110.76 17.5059 111.302 18.1538 111.714 18.9313C112.126 19.6872 112.333 20.6375 112.333 21.7821C112.333 22.7108 112.148 23.6179 111.779 24.5034C111.411 25.3889 110.879 26.1772 110.185 26.8683C109.491 27.5378 108.634 28.0885 107.614 28.5205C106.595 28.9308 105.434 29.136 104.133 29.136Z" fill="white"/>
<path d="M116.212 5.16309H120.605L127.796 15.1086L135.28 5.16309H138.187C138.9 5.16309 139.478 5.73865 139.478 6.44864V28.812H135.053V12.2254L127.764 22.0089L120.638 12.3873V28.812H117.503C116.79 28.812 116.212 28.2365 116.212 27.5265V5.16309Z" fill="white"/>
<path d="M150.615 5.16309H154.163C154.709 5.16309 155.196 5.50513 155.379 6.01731L163.534 28.812H158.913L157.449 24.6006H148.24L146.776 28.812H143.986C143.093 28.812 142.47 27.9322 142.769 27.0951L150.615 5.16309ZM149.737 20.3891H155.985L152.861 11.4155L149.737 20.3891Z" fill="white"/>
<path d="M84.338 59.2866C82.494 59.2866 80.8128 58.9626 79.2943 58.3147C77.7758 57.6668 76.4742 56.7921 75.3895 55.6906C74.3049 54.5676 73.4697 53.2718 72.884 51.8031C72.2983 50.3345 72.0054 48.7795 72.0054 47.1382C72.0054 45.4536 72.3091 43.877 72.9165 42.4084C73.5239 40.9182 74.3591 39.6331 75.4221 38.5533C76.5068 37.4518 77.7866 36.5879 79.2618 35.9616C80.7586 35.3137 82.3856 34.9897 84.1427 34.9897C85.3792 34.9897 86.5398 35.1409 87.6245 35.4433C88.7091 35.724 89.707 36.1344 90.6181 36.6743C91.551 37.2142 92.3753 37.8622 93.0912 38.6181C93.8287 39.3524 94.447 40.1623 94.9459 41.0477L92.2 42.688C91.5687 43.0651 90.7578 42.8329 90.3199 42.2436C89.7174 41.4329 89.0142 40.7859 88.2102 40.3026C87.0822 39.6115 85.7372 39.266 84.1753 39.266C83.0689 39.266 82.0385 39.4819 81.084 39.9139C80.1512 40.3242 79.3269 40.8858 78.611 41.5985C77.9168 42.3112 77.3745 43.1427 76.984 44.0929C76.5935 45.0432 76.3983 46.0583 76.3983 47.1382C76.3983 48.2396 76.5935 49.2655 76.984 50.2158C77.3745 51.166 77.9168 51.9975 78.611 52.7102C79.3269 53.4229 80.1729 53.9845 81.1491 54.3948C82.1253 54.8052 83.1882 55.0103 84.338 55.0103C86.1168 55.0103 87.592 54.546 88.7634 53.6173C89.9565 52.6886 90.77 51.4468 91.2039 49.8918H84.9134C84.2002 49.8918 83.6221 49.3162 83.6221 48.6063V45.6803H95.9547V47.4297C95.9547 49.0279 95.6835 50.5505 95.1412 51.9975C94.5988 53.4229 93.8179 54.6756 92.7983 55.7554C91.8004 56.8353 90.5856 57.6992 89.1539 58.3471C87.7221 58.9734 86.1168 59.2866 84.338 59.2866Z" fill="white"/>
<path d="M99.441 58.9626V36.5992C99.441 35.8893 100.019 35.3137 100.732 35.3137H107.055C108.465 35.3137 109.713 35.5189 110.797 35.9292C111.904 36.318 112.837 36.8795 113.596 37.6138C114.355 38.3265 114.93 39.1904 115.32 40.2055C115.733 41.1989 115.939 42.3112 115.939 43.5422C115.939 44.9676 115.592 46.3067 114.897 47.5593C114.225 48.7903 113.238 49.7514 111.936 50.4425L116.687 58.9626H111.643L107.836 51.7384H103.866V57.6771C103.866 58.3871 103.288 58.9626 102.575 58.9626H99.441ZM106.665 47.6889C107.576 47.6889 108.335 47.5809 108.943 47.3649C109.572 47.1274 110.071 46.8142 110.439 46.4254C110.83 46.0151 111.101 45.5508 111.253 45.0324C111.426 44.5141 111.513 43.9634 111.513 43.3802C111.513 42.1708 111.123 41.2097 110.342 40.497C109.583 39.7843 108.357 39.4279 106.665 39.4279H103.866V47.6889H106.665Z" fill="white"/>
<path d="M130.116 59.2866C128.424 59.2866 126.84 58.9734 125.365 58.3471C123.89 57.6992 122.599 56.8353 121.493 55.7554C120.408 54.654 119.551 53.3689 118.922 51.9003C118.293 50.4101 117.978 48.8227 117.978 47.1382C117.978 45.4536 118.293 43.877 118.922 42.4084C119.551 40.9398 120.408 39.6547 121.493 38.5533C122.599 37.4518 123.89 36.5879 125.365 35.9616C126.84 35.3137 128.424 34.9897 130.116 34.9897C131.808 34.9897 133.391 35.3137 134.866 35.9616C136.342 36.5879 137.632 37.4518 138.739 38.5533C139.845 39.6547 140.713 40.9398 141.342 42.4084C141.971 43.877 142.286 45.4536 142.286 47.1382C142.286 48.8227 141.971 50.4101 141.342 51.9003C140.713 53.3689 139.845 54.654 138.739 55.7554C137.632 56.8353 136.342 57.6992 134.866 58.3471C133.391 58.9734 131.808 59.2866 130.116 59.2866ZM130.116 54.9455C131.2 54.9455 132.209 54.7404 133.142 54.33C134.096 53.9197 134.921 53.3689 135.615 52.6778C136.331 51.9651 136.884 51.1336 137.274 50.1834C137.687 49.2331 137.893 48.218 137.893 47.1382C137.893 46.0583 137.687 45.0432 137.274 44.093C136.884 43.1427 136.331 42.322 135.615 41.6309C134.921 40.9182 134.096 40.3566 133.142 39.9463C132.209 39.5359 131.2 39.3308 130.116 39.3308C129.031 39.3308 128.011 39.5359 127.057 39.9463C126.124 40.3566 125.311 40.9182 124.616 41.6309C123.922 42.322 123.369 43.1427 122.957 44.093C122.566 45.0432 122.371 46.0583 122.371 47.1382C122.371 48.218 122.566 49.2331 122.957 50.1834C123.369 51.1336 123.922 51.9651 124.616 52.6778C125.311 53.3689 126.124 53.9197 127.057 54.33C128.011 54.7404 129.031 54.9455 130.116 54.9455Z" fill="white"/>
<path d="M153.684 59.1246C152.448 59.1246 151.309 58.941 150.268 58.5739C149.226 58.2067 148.315 57.6668 147.534 56.9541C146.775 56.2414 146.178 55.3559 145.744 54.2976C145.332 53.2394 145.126 52.0191 145.126 50.6369V35.1517H148.26C148.974 35.1517 149.552 35.7273 149.552 36.4373V50.8961C149.552 51.4792 149.649 52.0299 149.844 52.5483C150.061 53.045 150.354 53.4769 150.723 53.8441C151.092 54.2112 151.526 54.5028 152.025 54.7188C152.524 54.9347 153.066 55.0427 153.652 55.0427C154.237 55.0427 154.78 54.9347 155.279 54.7188C155.778 54.5028 156.211 54.2112 156.58 53.8441C156.971 53.4769 157.274 53.045 157.491 52.5483C157.708 52.0299 157.817 51.4792 157.817 50.8961V36.4373C157.817 35.7273 158.395 35.1517 159.108 35.1517H162.242V50.6369C162.242 52.0191 162.025 53.2394 161.591 54.2976C161.157 55.3559 160.561 56.2414 159.802 56.9541C159.042 57.6668 158.142 58.2067 157.101 58.5739C156.06 58.941 154.921 59.1246 153.684 59.1246Z" fill="white"/>
<path d="M165.47 36.5992C165.47 35.8893 166.048 35.3137 166.762 35.3137H173.605C174.842 35.3137 175.981 35.5405 177.022 35.994C178.063 36.4259 178.963 37.0199 179.723 37.7758C180.482 38.5317 181.079 39.428 181.512 40.4646C181.946 41.4797 182.163 42.5703 182.163 43.7366C182.163 44.9028 181.946 46.0043 181.512 47.041C181.079 48.0776 180.482 48.9739 179.723 49.7298C178.963 50.4857 178.052 51.0904 176.989 51.544C175.948 51.9759 174.809 52.1919 173.573 52.1919H169.896V57.6771C169.896 58.3871 169.318 58.9626 168.604 58.9626H165.47V36.5992ZM169.896 39.3956V48.11H173.28C173.931 48.11 174.527 48.002 175.07 47.7861C175.612 47.5485 176.078 47.2353 176.469 46.8466C176.859 46.4362 177.163 45.9719 177.38 45.4536C177.597 44.9136 177.705 44.3413 177.705 43.7366C177.705 43.1319 177.597 42.5704 177.38 42.052C177.163 41.5121 176.859 41.0477 176.469 40.659C176.078 40.2702 175.612 39.9679 175.07 39.7519C174.527 39.5143 173.931 39.3956 173.28 39.3956H169.896Z" fill="white"/>
<path d="M0.519531 34.942C0.519531 34.232 1.09765 33.6565 1.81079 33.6565H15.3433C23.5302 33.6565 30.167 40.3227 30.167 48.5459V62.1497C30.167 62.8597 29.5889 63.4353 28.8758 63.4353H15.3433C7.15636 63.4353 0.519531 56.7691 0.519531 48.5459V34.942Z" fill="white"/>
<path d="M62.9666 34.942C62.9666 34.232 62.3885 33.6565 61.6754 33.6565H48.1429C39.956 33.6565 33.3191 40.3227 33.3191 48.5459V62.1497C33.3191 62.8597 33.8973 63.4353 34.6104 63.4353H48.1429C56.3298 63.4353 62.9666 56.7691 62.9666 48.5459V34.942Z" fill="white"/>
<path d="M30.167 1.97598C30.167 1.26599 29.5889 0.69043 28.8758 0.69043H15.3433C7.15636 0.69043 0.519533 7.35665 0.519533 15.5798V29.1837C0.519533 29.8937 1.09765 30.4693 1.81079 30.4693H15.3433C23.5302 30.4693 30.167 23.803 30.167 15.5798V1.97598Z" fill="white"/>
<path d="M33.3191 1.97598C33.3191 1.26599 33.8973 0.69043 34.6104 0.69043H48.1429C56.3298 0.69043 62.9666 7.35665 62.9666 15.5798V29.1837C62.9666 29.8937 62.3885 30.4693 61.6754 30.4693H48.1429C39.956 30.4693 33.3191 23.8031 33.3191 15.5798V1.97598Z" fill="white"/>
<path d="M165.175 27.9249V26.428H165.943C166.004 26.428 166.071 26.4456 166.144 26.4807C166.216 26.5145 166.278 26.5673 166.328 26.6389C166.38 26.7093 166.406 26.7985 166.406 26.9067C166.406 27.0162 166.38 27.1095 166.326 27.1866C166.273 27.2623 166.208 27.3198 166.131 27.359C166.056 27.3982 165.985 27.4178 165.918 27.4178H165.364V27.1744H165.815C165.86 27.1744 165.909 27.1521 165.961 27.1075C166.014 27.0629 166.041 26.9959 166.041 26.9067C166.041 26.8147 166.014 26.7525 165.961 26.7201C165.909 26.6876 165.863 26.6714 165.824 26.6714H165.508V27.9249H165.175ZM166.09 27.2191L166.468 27.9249H166.103L165.733 27.2191H166.09ZM165.75 28.8174C165.523 28.8174 165.31 28.7755 165.112 28.6917C164.913 28.6078 164.739 28.4915 164.588 28.3428C164.438 28.194 164.32 28.0216 164.235 27.8256C164.151 27.6295 164.108 27.4192 164.108 27.1947C164.108 26.9702 164.151 26.76 164.235 26.5639C164.32 26.3678 164.438 26.1954 164.588 26.0467C164.739 25.8979 164.913 25.7816 165.112 25.6978C165.31 25.6139 165.523 25.572 165.75 25.572C165.977 25.572 166.189 25.6139 166.388 25.6978C166.586 25.7816 166.76 25.8979 166.911 26.0467C167.061 26.1954 167.179 26.3678 167.264 26.5639C167.349 26.76 167.391 26.9702 167.391 27.1947C167.391 27.4192 167.349 27.6295 167.264 27.8256C167.179 28.0216 167.061 28.194 166.911 28.3428C166.76 28.4915 166.586 28.6078 166.388 28.6917C166.189 28.7755 165.977 28.8174 165.75 28.8174ZM165.75 28.428C165.979 28.428 166.189 28.3725 166.377 28.2617C166.566 28.1508 166.717 28.002 166.829 27.8154C166.941 27.6288 166.997 27.4219 166.997 27.1947C166.997 26.9675 166.941 26.7606 166.829 26.574C166.717 26.3874 166.566 26.2387 166.377 26.1278C166.189 26.0169 165.979 25.9615 165.75 25.9615C165.52 25.9615 165.311 26.0169 165.122 26.1278C164.933 26.2387 164.783 26.3874 164.67 26.574C164.558 26.7606 164.502 26.9675 164.502 27.1947C164.502 27.4219 164.558 27.6288 164.67 27.8154C164.783 28.002 164.933 28.1508 165.122 28.2617C165.311 28.3725 165.52 28.428 165.75 28.428Z" fill="white"/>
</svg>
