<svg width="46" height="45" viewBox="0 0 46 45" fill="none" xmlns="http://www.w3.org/2000/svg">
<path d="M23.1191 0.0234375C35.6913 0.0235548 45.8895 9.02747 45.8896 20.1279C45.8896 31.2285 35.6914 40.2333 23.1191 40.2334C21.4669 40.2334 19.8421 40.0876 18.2871 39.7891C16.6829 40.5877 6.08273 45.724 0.737305 43.5098C0.327715 42.038 6.31196 39.8581 7.23535 34.5127C2.99364 30.8611 0.348633 25.772 0.348633 20.1279C0.348787 9.02739 10.5468 0.0234375 23.1191 0.0234375ZM15.4238 6.42773C14.9637 6.25113 14.8903 6.23645 14.9268 6.33203C14.9404 6.36793 14.9512 9.29825 14.9512 12.8438V19.29L15.3115 19.3799C16.9535 19.7912 19.0185 21.1122 20.1504 22.4756C23.0534 25.972 22.5903 31.1248 19.166 33.4346C19.0071 33.5418 18.8594 33.6443 18.8379 33.6621C18.7983 33.6961 19.129 34.0654 19.1992 34.0654C19.2932 34.0653 20.2528 33.311 20.5371 33.0137C21.3623 32.1509 22.145 30.5793 22.4326 29.21C22.5848 28.4853 22.6014 27.6649 22.5879 21.1768L22.5742 14.9492L22.4785 14.4336C21.7878 10.7124 19.3341 7.92794 15.4238 6.42773ZM31.3115 6.33203C31.348 6.23642 31.2747 6.2511 30.8145 6.42773C26.9042 7.92795 24.4504 10.7124 23.7598 14.4336L23.6641 14.9492L23.6504 21.1768C23.6369 27.6649 23.6535 28.4853 23.8057 29.21C24.0933 30.5792 24.876 32.1509 25.7012 33.0137C25.9854 33.3109 26.9447 34.0649 27.0391 34.0654C27.1093 34.0654 27.4403 33.6959 27.4004 33.6621C27.3788 33.6443 27.2312 33.5418 27.0723 33.4346C23.648 31.1248 23.1849 25.972 26.0879 22.4756C27.2198 21.1122 29.2847 19.7912 30.9268 19.3799L31.2871 19.29V12.8438C31.2871 9.29825 31.2978 6.36793 31.3115 6.33203ZM11.9404 10.0645C11.8723 10.0619 11.8682 10.3654 11.8682 15.8662V21.6719L12.4131 21.6777C16.9972 21.729 20.9556 25.8318 20.1367 29.6826C19.8434 31.0617 18.919 32.4567 17.917 33.0322C17.8581 33.0662 17.8694 33.0915 18.001 33.2246L18.1523 33.3779L18.3867 33.2168C21.9961 30.7335 21.9573 25.2008 18.3096 22.2637C17.087 21.2793 15.2034 20.3855 13.9336 20.1865L13.7598 20.1592V10.9043L13.5234 10.749C13.2052 10.5405 12.7399 10.3166 12.3408 10.1797C12.1602 10.1177 11.98 10.066 11.9404 10.0645ZM34.2979 10.0645C34.2583 10.0661 34.0781 10.1177 33.8975 10.1797C33.4984 10.3166 33.0331 10.5405 32.7148 10.749L32.4785 10.9043V20.1592L32.3047 20.1865C31.0348 20.3855 29.1513 21.2793 27.9287 22.2637C24.281 25.2008 24.2421 30.7335 27.8516 33.2168L28.0859 33.3779L28.2373 33.2246C28.3689 33.0914 28.3802 33.0662 28.3213 33.0322C27.3193 32.4567 26.3949 31.0617 26.1016 29.6826C25.2827 25.8318 29.241 21.729 33.8252 21.6777L34.3701 21.6719V15.8662C34.3701 10.3643 34.366 10.0618 34.2979 10.0645ZM13.3975 22.9707C12.9625 22.8915 11.9538 22.8712 11.8848 22.9404C11.8693 22.9573 11.8894 23.2113 11.9297 23.5059L12.0039 24.043L12.1523 24.0439C14.5751 24.0547 17.2127 25.6879 18.0781 27.7129C18.754 29.2945 18.3568 31.208 17.1367 32.2461L16.9453 32.4092L17.0869 32.5566C17.2848 32.7627 17.2902 32.7601 17.8232 32.2197C19.204 30.8197 19.6173 28.6455 18.8213 26.9707C17.8074 24.8377 15.8914 23.4245 13.3975 22.9707ZM34.3535 22.9404C34.2845 22.8712 33.2757 22.8915 32.8408 22.9707C30.347 23.4245 28.4309 24.8378 27.417 26.9707C26.621 28.6455 27.0343 30.8197 28.415 32.2197C28.9481 32.7601 28.9535 32.7627 29.1514 32.5566L29.293 32.4092L29.1016 32.2461C27.8815 31.208 27.4843 29.2944 28.1602 27.7129C29.0256 25.6877 31.664 24.0545 34.0869 24.0439L34.2344 24.043L34.3086 23.5059C34.3489 23.2111 34.369 22.957 34.3535 22.9404ZM12.4688 25.4766C12.5772 26.0681 12.7089 26.3512 12.876 26.3525C13.2704 26.3561 14.4641 26.7765 14.9746 27.0918C16.5623 28.0721 17.1281 29.912 16.2627 31.2812L16.1387 31.4785L16.2744 31.627C16.3484 31.7076 16.4156 31.783 16.4248 31.7959C16.4877 31.8883 17.1302 30.9463 17.2588 30.5732C17.4015 30.1585 17.4022 29.1192 17.2598 28.6641C16.7272 26.9625 15.2134 25.7734 13.0811 25.3818C12.923 25.3527 12.7145 25.3273 12.6172 25.3252L12.4404 25.3213L12.4688 25.4766ZM33.6211 25.3252C33.5238 25.3273 33.3152 25.3527 33.1572 25.3818C31.0249 25.7734 29.5111 26.9625 28.9785 28.6641C28.836 29.1192 28.8368 30.1585 28.9795 30.5732C29.1081 30.9463 29.7506 31.8883 29.8135 31.7959C29.8226 31.7831 29.8898 31.7077 29.9639 31.627L30.1006 31.4785L29.9756 31.2812C29.1102 29.912 29.676 28.0721 31.2637 27.0918C31.7744 26.7764 32.9693 26.3558 33.3633 26.3525C33.5301 26.3506 33.6612 26.0675 33.7695 25.4766L33.7979 25.3213L33.6211 25.3252Z" fill="#69B0B2"/>
</svg>
