<svg width="231" height="231" viewBox="0 0 231 231" fill="none" xmlns="http://www.w3.org/2000/svg">
<path d="M115.46 0.000488281C179.132 0.000488281 230.92 51.7888 230.92 115.46C230.92 179.132 179.132 230.92 115.46 230.92C51.7883 230.92 0 179.132 0 115.46C2.06906e-05 51.7888 51.7884 0.000508967 115.46 0.000488281ZM115.5 35.0005C71.1095 35.0005 35 71.1135 35 115.5C35 159.887 71.1095 196 115.5 196C159.891 196 196 159.887 196 115.5C196 71.1135 159.891 35.0005 115.5 35.0005ZM153.353 165.725C142.8 173.702 129.717 178.5 115.5 178.5C80.7625 178.5 52.5 150.238 52.5 115.5C52.5 101.283 57.2989 88.2004 65.2754 77.6479L153.353 165.725ZM115.5 52.5005C150.238 52.5005 178.5 80.763 178.5 115.5C178.5 129.717 173.701 142.801 165.725 153.353L77.6475 65.2759C88.2 57.2994 101.283 52.5005 115.5 52.5005Z" fill="white"/>
</svg>
