<svg width="33" height="35" viewBox="0 0 33 35" fill="none" xmlns="http://www.w3.org/2000/svg">
<path d="M32.7996 25.5898C32.7996 27.3026 32.439 28.7569 31.7118 29.9408C30.9907 31.1247 29.951 32.0622 28.6049 32.7473C27.1686 33.4745 25.5219 33.9973 23.6529 34.2978C21.784 34.5983 21.1229 34.7485 18.5928 34.7485H0.582031V32.0021C1.07482 31.96 3.70703 31.3591 3.70703 28.9973V7.14033C3.70703 4.27975 1.07482 3.94922 0.582031 3.87109V0.902344H18.9715C23.5989 0.902344 24.5724 1.53936 26.6217 2.80739C28.677 4.08143 29.6986 5.95643 29.6986 8.4384C29.6986 13.186 25.9005 16.0225 24.6626 16.311V16.7617C25.9005 16.8879 32.7996 18.2281 32.7996 25.5898ZM21.2491 9.86268C21.2491 8.46244 20.7203 7.36268 19.6626 6.58143C18.6049 5.78816 17.3729 5.39754 15.2575 5.39754C14.957 5.39754 14.5664 5.40956 14.0796 5.42758C13.5989 5.44561 13.1782 5.46364 12.8296 5.46965V14.8567H14.0676C16.6457 14.8567 18.1902 14.406 19.4162 13.5105C20.6361 12.6151 21.2491 11.4011 21.2491 9.86268ZM22.4991 24.7124C22.4991 22.9156 21.832 21.5394 20.4859 20.5838C19.1457 19.6283 17.5592 19.1475 15.0412 19.1475C14.7527 19.1475 14.3681 19.1535 13.8873 19.1776C13.4126 19.1956 13.058 19.2076 12.8296 19.2197V30.2533C12.8296 30.2533 15.3537 30.2533 16.3753 30.2533C18.1902 30.2533 19.6626 29.7725 20.7984 28.805C21.9342 27.8314 22.4991 26.4672 22.4991 24.7124Z" fill="#69B0B2"/>
</svg>
