<svg width="9" height="11" viewBox="0 0 9 11" fill="none" xmlns="http://www.w3.org/2000/svg">
<path d="M1.96951 0.758301C1.30402 0.758301 0.764648 1.29768 0.764648 1.96316V9.19232C0.764658 9.24524 0.775128 9.29764 0.795455 9.34651C0.815782 9.39537 0.845566 9.43974 0.883095 9.47706C1.0248 9.9847 1.41943 10.3972 1.96951 10.3972H8.39542C8.44864 10.3979 8.50148 10.3881 8.55087 10.3682C8.60026 10.3484 8.64521 10.3189 8.68311 10.2816C8.72101 10.2442 8.7511 10.1997 8.77164 10.1506C8.79219 10.1015 8.80276 10.0488 8.80276 9.99555C8.80276 9.94233 8.79219 9.88964 8.77164 9.84054C8.7511 9.79143 8.72101 9.74691 8.68311 9.70954C8.64521 9.67217 8.60026 9.64271 8.55087 9.62286C8.50148 9.60301 8.44864 9.59318 8.39542 9.59394H1.96951C1.74258 9.59394 1.56789 9.41924 1.56789 9.19232C1.56789 8.96539 1.74258 8.7907 1.96951 8.7907H7.9938C8.43759 8.7907 8.79704 8.43125 8.79704 7.98746V1.56154C8.79704 1.11775 8.43759 0.758301 7.9938 0.758301H1.96951ZM3.57599 3.16802H6.38733C6.60902 3.16802 6.78895 3.34794 6.78895 3.56964C6.78895 3.79133 6.60902 3.97126 6.38733 3.97126H3.57599C3.35429 3.97126 3.17437 3.79133 3.17437 3.56964C3.17437 3.34794 3.35429 3.16802 3.57599 3.16802Z" fill="white"/>
</svg>
