<svg width="577" height="321" viewBox="0 0 577 321" fill="none" xmlns="http://www.w3.org/2000/svg">
<path d="M416.516 0.938477C504.881 0.938477 576.516 72.5729 576.516 160.938C576.516 249.304 504.881 320.938 416.516 320.938C328.15 320.938 256.516 249.304 256.516 160.938C256.516 72.5729 328.15 0.938477 416.516 0.938477ZM348.248 131.597C346.31 131.597 344.416 132.175 342.809 133.258C341.201 134.34 339.953 135.878 339.224 137.674C338.495 139.469 338.317 141.441 338.715 143.338C339.112 145.235 340.066 146.97 341.455 148.321L349.181 156.047L327.68 177.548C316.282 188.946 316.282 207.477 327.68 218.875L336.242 227.437L321.972 241.707C321.037 242.605 320.29 243.68 319.775 244.87C319.261 246.06 318.99 247.341 318.977 248.637C318.963 249.933 319.209 251.218 319.699 252.418C320.189 253.618 320.914 254.709 321.83 255.625C322.746 256.541 323.836 257.266 325.036 257.756C326.236 258.246 327.522 258.491 328.818 258.478C330.114 258.464 331.395 258.193 332.585 257.679C333.774 257.165 334.85 256.418 335.747 255.483L350.018 241.213L358.58 249.774C364.094 255.288 371.43 258.337 379.243 258.337C387.046 258.337 394.393 255.298 399.907 249.774L421.408 228.274L429.133 235.999C430.03 236.934 431.106 237.681 432.296 238.195C433.485 238.709 434.766 238.981 436.062 238.994C437.358 239.007 438.644 238.761 439.844 238.271C441.044 237.782 442.134 237.057 443.051 236.141C443.967 235.224 444.692 234.134 445.182 232.935C445.672 231.735 445.917 230.448 445.903 229.152C445.89 227.856 445.619 226.576 445.104 225.386C444.59 224.196 443.843 223.121 442.908 222.224L355.231 134.546C354.324 133.613 353.237 132.871 352.038 132.364C350.839 131.858 349.55 131.597 348.248 131.597ZM504.024 63.4033C501.493 63.4787 499.091 64.5365 497.326 66.3525L483.057 80.623L474.494 72.0605C463.466 61.0229 444.205 61.0133 433.167 72.0605L411.666 93.5615L403.94 85.8359C403.033 84.9029 401.947 84.1608 400.748 83.6543C399.549 83.1478 398.26 82.8868 396.958 82.8867C395.02 82.8872 393.126 83.4664 391.519 84.5488C389.911 85.6313 388.663 87.1684 387.934 88.9639C387.204 90.7593 387.027 92.7313 387.425 94.6279C387.822 96.5247 388.776 98.2606 390.165 99.6123L407.632 117.079L390.165 134.546C389.23 135.444 388.484 136.519 387.97 137.709C387.456 138.899 387.184 140.179 387.171 141.475C387.158 142.771 387.403 144.057 387.893 145.257C388.382 146.457 389.107 147.546 390.023 148.463C390.94 149.379 392.03 150.104 393.23 150.594C394.43 151.084 395.716 151.33 397.012 151.316C398.308 151.303 399.589 151.032 400.778 150.518C401.968 150.003 403.043 149.256 403.94 148.321L421.408 130.854L446.6 156.047L429.133 173.514C428.198 174.411 427.452 175.487 426.938 176.677C426.423 177.866 426.151 179.146 426.138 180.442C426.125 181.738 426.37 183.025 426.86 184.225C427.35 185.424 428.075 186.514 428.991 187.431C429.908 188.347 430.998 189.072 432.198 189.562C433.398 190.051 434.684 190.297 435.979 190.284C437.276 190.271 438.556 190 439.746 189.485C440.936 188.971 442.011 188.224 442.908 187.289L460.376 169.822L477.843 187.289C478.74 188.224 479.815 188.971 481.005 189.485C482.195 190 483.475 190.271 484.771 190.284C486.068 190.297 487.354 190.051 488.554 189.562C489.754 189.072 490.843 188.347 491.76 187.431C492.676 186.514 493.401 185.424 493.891 184.225C494.381 183.025 494.626 181.738 494.613 180.442C494.6 179.147 494.329 177.866 493.814 176.677C493.3 175.487 492.553 174.411 491.618 173.514L483.894 165.789L505.395 144.288C516.792 132.89 516.792 114.359 505.395 102.961L496.832 94.3984L511.103 80.1279C512.51 78.7596 513.471 76.9974 513.86 75.0732C514.25 73.1492 514.049 71.1525 513.284 69.3447C512.519 67.5368 511.226 66.0016 509.573 64.9414C507.921 63.8812 505.987 63.3455 504.024 63.4033Z" fill="white"/>
<path fill-rule="evenodd" clip-rule="evenodd" d="M311.91 8.33301C263.358 41.6773 231.516 97.5886 231.516 160.938C231.516 229.239 268.53 288.891 323.592 320.938H32.5156C14.8356 320.938 0.515625 306.618 0.515625 288.938V16.9385L16.5156 0.938477L32.5156 16.9385L48.5156 0.938477L64.5156 16.9385L80.5156 0.938477L96.5156 16.9385L112.516 0.938477L128.516 16.9385L144.516 0.938477L160.516 16.9385L176.516 0.938477L192.516 16.9385L208.516 0.938477L224.516 16.9385L240.516 0.938477L256.516 16.9385L272.516 0.938477L288.516 16.9385L304.516 0.938477L311.91 8.33301ZM206.548 208.938C190.948 208.938 179.7 219.483 172.308 230.171C166.548 227.035 159.508 224.939 151.124 224.938C143.78 224.938 137.572 227.098 132.372 230.538C124.788 217.85 112.916 208.938 96.5156 208.938C61.9236 208.938 50.0839 248.507 48.5479 271.883C47.972 280.683 54.6278 288.266 63.4277 288.874C63.7956 288.906 64.1634 288.906 64.5312 288.906C72.8512 288.906 79.8914 282.442 80.4834 274.026C81.1074 265.194 86.0837 240.938 96.5156 240.938C108.852 240.938 110.66 269.019 110.676 269.259C110.932 277.387 117.22 284.042 125.332 284.73C133.3 285.402 140.755 279.914 142.355 271.931C143.507 266.139 148.004 256.938 151.14 256.938C158.292 256.938 161.14 261.802 161.684 262.938C164.18 269.114 170.276 273.034 176.932 272.906C183.604 272.746 189.475 268.426 191.651 262.122C195.427 251.21 203.236 240.938 206.548 240.938C215.396 240.938 222.548 233.77 222.548 224.938C222.548 216.107 215.38 208.939 206.548 208.938ZM64.5156 144.938C55.6836 144.938 48.5156 152.106 48.5156 160.938C48.5156 169.77 55.6836 176.938 64.5156 176.938H160.516C169.348 176.938 176.516 169.77 176.516 160.938C176.516 152.106 169.348 144.938 160.516 144.938H64.5156ZM64.5156 80.9385C55.6836 80.9385 48.5156 88.1065 48.5156 96.9385C48.5156 105.77 55.6836 112.938 64.5156 112.938H192.516C201.348 112.938 208.516 105.77 208.516 96.9385C208.516 88.1065 201.348 80.9385 192.516 80.9385H64.5156Z" fill="white"/>
<path d="M416.516 16.9385V88.7119L411.666 93.5615L403.94 85.8359C403.033 84.9029 401.947 84.1608 400.748 83.6543C399.549 83.1478 398.26 82.8868 396.958 82.8867C395.02 82.8872 393.126 83.4664 391.519 84.5488C389.911 85.6313 388.663 87.1684 387.934 88.9639C387.204 90.7593 387.027 92.7313 387.425 94.6279C387.822 96.5247 388.776 98.2606 390.165 99.6123L407.632 117.079L390.165 134.546C389.23 135.444 388.484 136.519 387.97 137.709C387.456 138.899 387.184 140.179 387.171 141.475C387.158 142.771 387.403 144.057 387.893 145.257C388.382 146.457 389.107 147.546 390.023 148.463C390.94 149.379 392.03 150.104 393.23 150.594C394.43 151.084 395.716 151.33 397.012 151.316C398.308 151.303 399.589 151.032 400.778 150.518C401.968 150.003 403.043 149.256 403.94 148.321L416.516 135.746V195.83L357.368 136.683H365.556C365.188 120.427 353.924 108.267 336.516 103.643V80.9385H304.516V103.547C286.596 108.155 275.556 120.667 275.556 138.011C275.556 155.755 286.18 167.002 306.804 170.906L321.651 173.883C324.649 174.482 327.214 175.127 329.389 175.838L327.68 177.548C321.886 183.341 319.039 190.977 319.135 198.583C308.501 197.953 301.286 192.883 300.628 185.211H273.283C273.667 202.555 285.348 214.491 304.516 218.635V240.938H322.74L321.972 241.707C321.037 242.605 320.29 243.68 319.775 244.87C319.261 246.06 318.99 247.341 318.977 248.637C318.963 249.933 319.209 251.218 319.699 252.418C320.189 253.618 320.914 254.709 321.83 255.625C322.746 256.541 323.836 257.266 325.036 257.756C326.236 258.246 327.522 258.491 328.818 258.478C330.114 258.464 331.395 258.193 332.585 257.679C333.774 257.165 334.85 256.418 335.747 255.483L350.018 241.213L358.58 249.774C364.094 255.288 371.43 258.337 379.243 258.337C387.046 258.337 394.393 255.298 399.907 249.774L416.516 233.166V288.938C416.516 303.2 407.197 315.272 394.313 319.408C316.456 308.6 256.516 241.77 256.516 160.938C256.516 96.0506 295.142 40.1836 350.655 15.0781L352.516 16.9385L357.129 12.3242C362.666 10.1095 368.356 8.19512 374.179 6.60156L384.516 16.9385L399.633 1.82031C400.167 1.76427 400.702 1.7119 401.238 1.66113L416.516 16.9385Z" fill="white"/>
<path d="M320.788 123.162C330.868 123.162 338.451 128.715 339.075 136.683H339.693C339.519 137.003 339.362 137.334 339.224 137.674C338.495 139.469 338.317 141.441 338.715 143.338C339.112 145.235 340.066 146.97 341.455 148.321L346.434 153.3C343.178 152.122 339.531 151.146 335.476 150.362L320.947 147.547C309.06 145.195 304.067 141.61 304.067 135.435C304.067 127.931 310.708 123.162 320.788 123.162Z" fill="white"/>
</svg>
