<svg width="563" height="114" viewBox="0 0 563 114" fill="none" xmlns="http://www.w3.org/2000/svg">
<path d="M551.924 85.0919C551.924 84.8461 551.74 83.8751 551.371 82.1791C551.297 81.663 551.26 81.1591 551.26 80.6675C551.26 79.7826 552.108 79.033 553.804 78.4185C555.205 77.8285 556.311 77.1895 557.123 76.5012C557.958 75.813 558.425 75.1248 558.524 74.4365C558.647 73.8958 558.683 73.3919 558.634 72.9249C558.585 72.4333 558.524 71.8925 558.45 71.3026C558.376 70.7127 558.339 70.1474 558.339 69.6066C558.339 69.0413 558.376 68.6112 558.45 68.3162C558.524 67.8738 559.679 64.4203 561.916 57.9558C562.137 57.6117 562.346 57.6117 562.542 57.9558C562.665 58.1771 562.727 58.6195 562.727 59.2831L562.616 68.0212C562.542 71.1429 561.817 74.1047 560.441 76.9068C559.089 79.7089 557.799 81.8105 556.57 83.2115C555.365 84.6125 554.468 85.5343 553.878 85.9767C552.747 87.4515 552.096 87.1566 551.924 85.0919ZM562.727 38.7393C562.923 39.4275 562.911 40.1403 562.69 40.8777C562.493 41.6151 562.137 42.3771 561.621 43.1636C561.203 43.8027 560.773 44.4049 560.33 44.9702C559.912 45.511 559.445 46.0272 558.929 46.5188C558.61 46.8629 558.327 47.1087 558.081 47.2562C557.835 47.4036 557.626 47.502 557.454 47.5511C557.282 47.5757 557.135 47.5634 557.012 47.5142C556.889 47.4651 556.778 47.4036 556.68 47.3299C555.82 46.6417 554.972 45.9534 554.136 45.2652C553.325 44.5524 552.428 43.8887 551.445 43.2742C551.322 43.1022 551.26 42.9793 551.26 42.9056C551.26 42.8072 551.322 42.6598 551.445 42.4631L557.049 33.8357C557.221 33.6144 557.381 33.5161 557.528 33.5407C557.7 33.5407 557.885 33.6021 558.081 33.725C558.573 34.02 559.064 34.3395 559.556 34.6837C560.072 35.0032 560.539 35.3719 560.957 35.7897C561.375 36.2076 561.744 36.6623 562.063 37.1539C562.383 37.6209 562.604 38.1494 562.727 38.7393ZM551.445 39.4398C551.445 39.5381 551.457 39.6119 551.482 39.661C551.482 39.7348 551.494 39.7962 551.518 39.8454C551.518 39.8945 551.518 39.956 551.518 40.0297C551.543 40.0789 551.555 40.128 551.555 40.1772V40.6934C551.555 40.7425 551.543 40.804 551.518 40.8777C551.518 40.9269 551.518 40.976 551.518 41.0252L551.408 41.4676C551.408 41.5168 551.396 41.5537 551.371 41.5782C551.371 41.6028 551.371 41.6397 551.371 41.6889L551.223 42.1313C551.174 42.2296 551.125 42.3279 551.076 42.4262C551.051 42.5246 551.015 42.6229 550.965 42.7212C550.965 42.7458 550.953 42.7704 550.929 42.7949C550.929 42.7949 550.929 42.8072 550.929 42.8318L550.744 43.1636C550.695 43.2865 550.634 43.3971 550.56 43.4955C550.486 43.5692 550.425 43.6552 550.375 43.7536C550.326 43.8027 550.302 43.8396 550.302 43.8642L549.859 44.5278L549.675 44.7859C549.626 44.8351 549.577 44.8965 549.527 44.9702C549.503 45.044 549.466 45.1054 549.417 45.1546C549.319 45.3021 549.233 45.4127 549.159 45.4864L548.569 46.2238C548.52 46.273 548.495 46.3098 548.495 46.3344C548.446 46.3836 548.385 46.445 548.311 46.5188C548.262 46.5925 548.2 46.654 548.126 46.7031L547.905 46.9243C547.831 47.0472 547.733 47.1455 547.61 47.2193L547.242 47.588L547.057 47.7355C546.787 47.9567 546.553 48.1042 546.357 48.1779L546.135 48.2516H545.877C545.681 48.2516 545.509 48.1779 545.361 48.0304C544.82 47.6126 544.292 47.1824 543.776 46.74C543.284 46.2975 542.756 45.8674 542.19 45.4495C542.018 45.3021 541.846 45.1669 541.674 45.044C541.158 44.6507 540.654 44.2943 540.163 43.9748C540.138 43.9748 540.126 43.9625 540.126 43.9379C540.003 43.815 539.941 43.7044 539.941 43.6061C539.941 43.5078 540.003 43.3603 540.126 43.1636L545.767 34.573C545.767 34.5485 545.779 34.5239 545.804 34.4993C545.976 34.2781 546.16 34.1921 546.357 34.2412C546.357 34.2412 546.381 34.2535 546.43 34.2781C546.455 34.2781 546.48 34.2904 546.504 34.315L546.762 34.4256C546.811 34.4747 546.861 34.5116 546.91 34.5362C546.959 34.5362 547.008 34.5608 547.057 34.6099C547.106 34.6345 547.156 34.6591 547.205 34.6837C547.254 34.7082 547.303 34.7451 547.352 34.7943C547.45 34.8434 547.549 34.9049 547.647 34.9786C547.795 35.0769 547.942 35.1752 548.09 35.2736C548.237 35.3473 548.385 35.4456 548.532 35.5685L548.679 35.6791C549.073 35.9741 549.478 36.3305 549.896 36.7483L550.339 37.2645L550.67 37.707C550.842 37.9527 550.978 38.1985 551.076 38.4443C551.125 38.5181 551.174 38.6287 551.223 38.7762L551.334 39.108C551.359 39.1326 551.371 39.1572 551.371 39.1817C551.371 39.2063 551.383 39.2432 551.408 39.2923C551.408 39.3661 551.42 39.4152 551.445 39.4398Z" fill="white"/>
<path d="M553.141 89.1595C551.666 92.7236 550.425 95.2799 549.417 96.8284C548.434 98.3769 547.586 99.4338 546.873 99.9991C546.16 100.54 545.14 101.044 543.813 101.511C542.51 101.978 541.122 102.396 539.647 102.764C538.172 103.108 537.078 103.281 536.365 103.281C536.07 103.281 535.923 103.268 535.923 103.244C535.726 102.998 536.734 102.174 538.946 100.773C541.183 99.3724 543.027 98.0942 544.477 96.939C545.927 95.7837 547.217 94.5179 548.348 93.1414C549.503 91.765 550.327 90.327 550.818 88.8277C550.548 88.9506 550.216 89.0735 549.823 89.1964C549.43 89.2947 549.012 89.3807 548.569 89.4545C548.151 89.5036 547.746 89.5405 547.353 89.5651C546.959 89.5897 546.615 89.5774 546.32 89.5282C544.919 89.4299 543.752 88.9629 542.818 88.1272C541.908 87.2669 541.478 86.2222 541.527 84.9933C541.601 84.3788 541.773 83.6537 542.043 82.818C542.314 81.9822 542.879 80.6672 543.739 78.8729C544.6 77.054 545.534 75.5547 546.541 74.3748C547.574 73.195 548.532 72.6051 549.417 72.6051C550.941 72.6051 552.207 73.2565 553.215 74.5592C554.223 75.8373 554.825 77.3858 555.021 79.2047C555.071 80.1142 555.046 81.0236 554.948 81.9331C554.874 82.8425 554.763 83.6045 554.616 84.219C554.493 84.8089 554.296 85.5832 554.026 86.5418C553.756 87.4758 553.461 88.3484 553.141 89.1595Z" fill="white"/>
<path d="M535.942 65.0014L539.776 55.9684C540.096 55.231 540.354 54.8623 540.55 54.8623C540.87 54.8623 540.968 55.0958 540.845 55.5628C540.698 56.079 540.526 56.9762 540.329 58.2543C540.133 59.5079 539.985 60.4911 539.887 61.2039C539.739 62.4574 539.592 63.8708 539.444 65.4439C539.297 67.017 539.162 68.6392 539.039 70.3106C538.916 71.9575 538.793 73.5674 538.67 75.1405C538.547 76.7136 538.412 78.127 538.265 79.3805C537.871 83.1904 537.269 86.3366 536.458 88.8191C535.647 91.2771 534.7 93.563 533.619 95.6769C532.537 97.7661 531.665 98.8599 531.001 98.9582C530.829 98.9582 530.878 98.5158 531.149 97.6309C531.468 96.7952 531.763 95.7506 532.034 94.497C532.329 93.2435 532.587 91.9039 532.808 90.4783C533.029 89.0281 533.226 87.5533 533.398 86.0539C533.57 84.53 533.717 83.0921 533.84 81.7402C534.012 80.462 534.16 78.5571 534.283 76.0254C534.406 73.4691 534.59 71.3061 534.836 69.5364C535.081 67.7666 535.45 66.255 535.942 65.0014Z" fill="white"/>
<path d="M511.463 91.5742C511.463 90.4189 511.758 87.4079 512.348 82.5412C512.962 77.6744 513.417 74.1963 513.712 72.1071C514.031 69.9932 514.388 67.7565 514.781 65.3968C515.174 63.0372 515.555 61.1322 515.924 59.682C516.342 58.4776 516.784 57.2609 517.251 56.032C517.743 54.803 518.247 53.5863 518.763 52.3819C519.107 51.8411 519.328 51.9272 519.427 52.64C518.812 56.7202 518.247 60.9602 517.731 65.36C517.215 69.7351 516.858 72.869 516.662 74.7617C516.489 76.6543 516.403 77.7604 516.403 78.0799C516.305 79.6039 516.244 80.796 516.219 81.6563V84.0897C516.219 87.1867 517.042 89.3497 518.689 90.5787C519.697 91.2424 520.693 91.4636 521.676 91.2424C522.684 91.0211 523.446 90.505 523.962 89.6938C524.502 88.8827 524.957 87.9364 525.326 86.8549C525.695 85.7488 526.051 85.1958 526.395 85.1958C526.788 85.1958 526.948 85.589 526.874 86.3756C526.85 87.7029 526.432 89.8659 525.621 92.8646C524.834 95.8388 523.753 98.2844 522.376 100.202C521.024 102.119 519.378 103.127 517.436 103.225C515.445 103.151 513.896 102.033 512.79 99.8698C511.782 97.7314 511.34 94.9662 511.463 91.5742ZM532.694 57.8389C532.891 58.5517 532.879 59.2891 532.657 60.0511C532.461 60.813 532.08 61.6119 531.514 62.4476C531.17 63.0129 530.802 63.5291 530.408 63.9961C530.04 64.4385 529.646 64.8687 529.228 65.2865C529.106 65.434 528.909 65.6184 528.639 65.8396C528.368 66.0608 528.085 66.2697 527.791 66.4664C527.496 66.663 527.213 66.8105 526.943 66.9088C526.672 66.9825 526.476 66.9457 526.353 66.7982C525.468 66.0854 524.595 65.3603 523.735 64.6229C522.875 63.8855 521.928 63.1973 520.896 62.5582C520.724 62.4353 520.638 62.3247 520.638 62.2264C520.662 62.1035 520.736 61.9314 520.859 61.7102L526.758 52.714C526.93 52.4682 527.102 52.3576 527.274 52.3822C527.446 52.3822 527.631 52.4437 527.827 52.5666C528.344 52.8615 528.86 53.1933 529.376 53.562C529.892 53.9307 530.371 54.3363 530.814 54.7787C531.256 55.1966 531.637 55.6636 531.957 56.1798C532.301 56.6714 532.547 57.2244 532.694 57.8389Z" fill="white"/>
<path d="M493.093 94.2408C493.093 93.9951 492.909 93.0242 492.54 91.3282C492.467 90.812 492.43 90.3081 492.43 89.8165C492.43 88.9316 493.278 88.182 494.974 87.5675C496.375 86.9776 497.481 86.3385 498.292 85.6503C499.128 84.962 499.595 84.2738 499.693 83.5856C499.816 83.0448 499.853 82.5409 499.804 82.0739C499.754 81.5823 499.693 81.0416 499.619 80.4517C499.546 79.8617 499.509 79.2964 499.509 78.7557C499.509 78.1903 499.546 77.7602 499.619 77.4652C499.693 77.0228 500.848 73.5693 503.085 67.1049C503.306 66.7608 503.515 66.7608 503.712 67.1049C503.835 67.3261 503.896 67.7685 503.896 68.4322L503.785 77.1703C503.712 80.2919 502.987 83.2537 501.61 86.0558C500.258 88.8579 498.968 90.9595 497.739 92.3605C496.534 93.7615 495.637 94.6833 495.047 95.1257C493.917 96.6005 493.265 96.3055 493.093 94.2408ZM506.993 103.642C506.846 103.027 506.6 102.462 506.256 101.946C505.936 101.454 505.555 100.987 505.113 100.545C504.67 100.127 504.191 99.7337 503.675 99.365C503.159 98.9963 502.643 98.6645 502.126 98.3695C501.93 98.2466 501.745 98.1729 501.573 98.1483C501.401 98.1483 501.229 98.2712 501.057 98.517L495.158 107.513C495.035 107.734 494.974 107.894 494.974 107.992C494.949 108.115 495.023 108.238 495.195 108.361C496.227 109 497.174 109.688 498.034 110.426C498.894 111.163 499.767 111.888 500.652 112.601C500.774 112.749 500.971 112.773 501.242 112.675C501.512 112.601 501.795 112.466 502.09 112.269C502.384 112.073 502.667 111.864 502.937 111.643C503.208 111.421 503.405 111.237 503.527 111.089C503.945 110.672 504.339 110.229 504.707 109.762C505.101 109.32 505.469 108.816 505.813 108.251C506.379 107.415 506.76 106.616 506.956 105.854C507.177 105.092 507.19 104.355 506.993 103.642Z" fill="white"/>
<path d="M494.311 98.3088C492.836 101.873 491.594 104.429 490.587 105.978C489.603 107.526 488.755 108.583 488.043 109.148C487.33 109.689 486.31 110.193 484.983 110.66C483.68 111.127 482.291 111.545 480.816 111.914C479.341 112.258 478.248 112.43 477.535 112.43C477.24 112.43 477.092 112.418 477.092 112.393C476.896 112.147 477.904 111.324 480.116 109.923C482.352 108.522 484.196 107.244 485.646 106.088C487.096 104.933 488.387 103.667 489.517 102.291C490.673 100.914 491.496 99.4763 491.988 97.977C491.717 98.0999 491.386 98.2228 490.992 98.3457C490.599 98.444 490.181 98.53 489.739 98.6038C489.321 98.6529 488.915 98.6898 488.522 98.7144C488.129 98.7389 487.785 98.7267 487.49 98.6775C486.089 98.5792 484.921 98.1122 483.987 97.2765C483.078 96.4162 482.647 95.3715 482.697 94.1426C482.77 93.5281 482.942 92.803 483.213 91.9672C483.483 91.1315 484.048 89.8165 484.909 88.0222C485.769 86.2033 486.703 84.704 487.711 83.5241C488.743 82.3443 489.702 81.7544 490.587 81.7544C492.111 81.7544 493.376 82.4058 494.384 83.7085C495.392 84.9866 495.994 86.5351 496.191 88.354C496.24 89.2635 496.215 90.1729 496.117 91.0824C496.043 91.9918 495.933 92.7538 495.785 93.3683C495.662 93.9582 495.466 94.7325 495.195 95.6911C494.925 96.6251 494.63 97.4977 494.311 98.3088Z" fill="white"/>
<path d="M462.907 108.926C463.546 108.434 464.308 107.844 465.192 107.156C467.552 105.411 469.518 103.69 471.092 101.994C472.689 100.298 473.537 99.0078 473.636 98.1229C473.832 97.066 473.242 95.7141 471.866 94.0673C470.489 92.445 468.855 90.9457 466.962 89.5692C466.815 89.4463 466.729 89.3357 466.704 89.2374C466.704 89.1391 466.729 89.0407 466.778 88.9424L468.511 84.9605L470.944 79.5038C471.141 79.0614 471.313 78.705 471.46 78.4346C471.632 78.1396 471.829 78.0659 472.05 78.2134C473.083 79.0737 474.103 80.0077 475.11 81.0155C476.143 81.9987 477.028 83.1416 477.765 84.4443C478.502 85.7225 478.871 87.3939 478.871 89.4586C478.871 91.8674 478.478 94.1902 477.691 96.4269C476.929 98.6391 475.885 100.937 474.557 103.322C474.066 104.182 473.513 104.968 472.898 105.681C472.308 106.369 471.46 106.972 470.354 107.488C469.273 108.004 466.925 108.827 463.312 109.958C462.87 110.081 462.562 110.081 462.39 109.958C462.341 109.909 462.341 109.798 462.39 109.626C462.44 109.43 462.612 109.196 462.907 108.926Z" fill="white"/>
<path d="M462.281 80.4636C462.281 79.8737 461.777 79.2592 460.769 78.6201C459.786 77.981 458.704 77.6615 457.525 77.6615C456.959 77.6615 456.529 77.9073 456.234 78.3989C455.939 78.8905 455.792 79.3575 455.792 79.7999C455.792 80.1686 455.804 80.5373 455.829 80.906C455.878 81.2501 455.976 81.5328 456.123 81.754L459.884 81.9752C460.548 82.049 461.113 81.9629 461.58 81.7171C462.047 81.4468 462.281 81.0289 462.281 80.4636ZM453.985 79.5787C453.985 78.9151 453.506 78.2637 452.547 77.6246C451.613 76.9856 450.654 76.666 449.671 76.666C449.008 76.666 448.221 77.0839 447.312 77.9196C446.402 78.7307 445.947 79.5418 445.947 80.353C445.947 81.1395 446.107 81.754 446.427 82.1964C446.771 82.6389 447.521 82.8601 448.676 82.8601C450.396 82.8601 451.711 82.4668 452.621 81.6803C453.53 80.8691 453.985 80.1686 453.985 79.5787ZM424.342 105.756C425.669 105.166 427.046 104.404 428.471 103.47C429.922 102.512 431.212 101.516 432.343 100.484C433.498 99.4514 434.616 97.8045 435.698 95.5432C436.779 93.2819 437.676 91.6719 438.389 90.7133C439.422 89.1894 441.486 87.6408 444.583 86.0677C443.993 85.6253 443.698 84.7159 443.698 83.3394C443.698 82.5774 443.993 81.3853 444.583 79.7631C445.198 78.1408 446.021 76.3833 447.054 74.4907C447.545 73.0651 447.902 71.8853 448.123 70.9512C448.639 69.1569 449.081 68.2598 449.45 68.2598C450.36 69.0217 451.564 69.882 453.063 70.8406C454.587 71.7747 456.554 72.4752 458.962 72.9422C461.396 73.3846 463.018 74.0237 463.829 74.8594C464.665 75.6951 465.083 76.7766 465.083 78.1039C465.083 80.0949 464.456 81.8646 463.202 83.4131C461.949 84.9617 460.646 85.7359 459.294 85.7359L457.008 85.6253C455.214 85.6253 454.096 85.8342 453.653 86.2521C453.211 86.6454 452.609 87.2599 451.847 88.0956C451.085 88.9067 450.458 89.472 449.966 89.7916C449.475 90.1111 448.811 90.4921 447.975 90.9345C447.14 91.377 446.464 91.7088 445.947 91.93C443.145 93.1344 441.032 94.4617 439.606 95.9119C438.598 96.8951 437.664 98.2347 436.804 99.9307C435.944 101.627 435.034 103.36 434.076 105.129C433.141 106.899 432.453 108.079 432.011 108.669C431.175 109.529 429.541 110.352 427.107 111.139C424.698 111.926 422.056 112.319 419.18 112.319C418.738 112.393 418.32 112.393 417.927 112.319C417.509 112.245 417.103 112.134 416.71 111.987C416.71 111.373 417.435 110.5 418.885 109.369C420.311 108.239 422.13 107.034 424.342 105.756Z" fill="white"/>
<path d="M437.751 46.987L437.309 55.5038C437.21 58.0601 437.1 60.8868 436.977 63.9838C436.977 65.5323 436.952 67.0686 436.903 68.5925C436.879 70.1165 436.866 71.6404 436.866 73.1643C436.866 75.696 436.535 78.3507 435.871 81.1282C435.183 83.8811 434.359 86.3145 433.401 88.4283C432.024 91.4516 430.549 93.8973 428.976 95.7654C426.543 98.6412 423.937 100.079 421.16 100.079C420.496 100.079 419.636 99.8947 418.579 99.526C417.547 99.1328 416.711 98.9361 416.072 98.9361C414.941 98.9361 413.761 99.2434 412.532 99.8579C412.164 100.079 411.451 100.558 410.394 101.296C410.394 101.296 409.89 101.738 408.882 102.623C408.415 103.041 407.973 103.139 407.555 102.918C407.186 102.721 407.223 102.107 407.666 101.075C407.789 100.853 407.924 100.62 408.071 100.374C408.243 100.153 408.403 99.8702 408.551 99.526C409.362 98.0513 410.357 96.5765 411.537 95.1017C412.176 94.3643 412.705 93.713 413.122 93.1476C413.54 92.5823 413.884 92.1153 414.155 91.7466C414.99 90.6651 416.109 89.7065 417.51 88.8708C418.96 88.1334 420.177 87.7647 421.16 87.7647C421.799 87.7647 422.598 87.8876 423.556 88.1334C424.54 88.4037 425.203 88.5389 425.547 88.5389C427.342 88.3914 428.743 87.8876 429.751 87.0273C430.783 86.1424 431.496 85.1346 431.889 84.004C432.159 83.4878 432.307 82.8979 432.331 82.2342C432.405 81.7426 432.442 80.9438 432.442 79.8377C432.442 79.469 432.442 79.1003 432.442 78.7316C432.442 78.3384 432.442 77.9205 432.442 77.4781C432.368 77.0356 432.331 76.6792 432.331 76.4089L432.221 65.901C432.221 63.6643 432.282 61.5627 432.405 59.5964C432.503 57.7529 432.7 56.4502 432.995 55.6882C433.339 54.9754 433.892 53.476 434.654 51.1901C435.441 49.0271 436.215 47.073 436.977 45.3279C437.321 44.9592 437.567 44.7994 437.714 44.8486C437.936 44.9469 438.046 45.2541 438.046 45.7703C438.046 45.9178 437.948 46.3233 437.751 46.987ZM443.392 37.0322C444.941 35.8524 446.477 34.7832 448.001 33.8246C449.525 32.866 451.061 31.8705 452.61 30.8381C474.068 16.3607 486.493 7.79469 489.885 5.14009C493.744 2.14137 495.759 0.5314 495.931 0.310183C496.718 -0.20599 496.878 0.101256 496.411 1.23192C495.968 2.33801 494.149 4.85742 490.954 8.79017C485.399 13.8044 478.345 19.1751 469.791 24.9021C461.237 30.6046 452.364 36.1719 443.171 41.604C442.557 42.0219 441.954 42.4152 441.364 42.7839C440.799 43.128 440.246 43.4475 439.705 43.7425C438.476 44.4799 437.874 44.529 437.899 43.8899C437.899 43.6196 438.722 42.3783 440.369 40.1661C441.401 38.8634 442.409 37.8188 443.392 37.0322Z" fill="white"/>
<path d="M387.028 102.138C387.667 101.646 388.429 101.056 389.314 100.368C391.674 98.623 393.64 96.9024 395.213 95.2064C396.811 93.5104 397.659 92.2199 397.757 91.3351C397.954 90.2782 397.364 88.9263 395.987 87.2794C394.611 85.6572 392.976 84.1578 391.084 82.7814C390.936 82.6585 390.85 82.5478 390.826 82.4495C390.826 82.3512 390.85 82.2529 390.899 82.1546L392.632 78.1727L395.066 72.716C395.262 72.2735 395.434 71.9171 395.582 71.6468C395.754 71.3518 395.951 71.2781 396.172 71.4255C397.204 72.2858 398.224 73.2199 399.232 74.2276C400.264 75.2108 401.149 76.3538 401.887 77.6565C402.624 78.9346 402.993 80.6061 402.993 82.6707C402.993 85.0796 402.599 87.4023 401.813 89.6391C401.051 91.8513 400.006 94.1495 398.679 96.5337C398.187 97.394 397.634 98.1805 397.02 98.8933C396.43 99.5816 395.582 100.184 394.476 100.7C393.394 101.216 391.047 102.04 387.434 103.17C386.991 103.293 386.684 103.293 386.512 103.17C386.463 103.121 386.463 103.01 386.512 102.838C386.561 102.642 386.733 102.408 387.028 102.138Z" fill="white"/>
<path d="M384.684 66.2637L388.519 57.2307C388.838 56.4933 389.096 56.1246 389.293 56.1246C389.613 56.1246 389.711 56.3581 389.588 56.8252C389.441 57.3413 389.269 58.2385 389.072 59.5166C388.875 60.7702 388.728 61.7534 388.629 62.4662C388.482 63.7198 388.335 65.1331 388.187 66.7062C388.04 68.2793 387.904 69.9015 387.781 71.573C387.659 73.2198 387.536 74.8298 387.413 76.4029C387.29 77.976 387.155 79.3893 387.007 80.6429C386.614 84.4527 386.012 87.5989 385.201 90.0815C384.389 92.5394 383.443 94.8253 382.362 96.9392C381.28 99.0285 380.408 100.122 379.744 100.221C379.572 100.221 379.621 99.7781 379.891 98.8933C380.211 98.0576 380.506 97.0129 380.776 95.7594C381.071 94.5058 381.329 93.1662 381.551 91.7406C381.772 90.2904 381.968 88.8156 382.14 87.3162C382.312 85.7923 382.46 84.3544 382.583 83.0025C382.755 81.7244 382.902 79.8194 383.025 77.2877C383.148 74.7314 383.333 72.5684 383.578 70.7987C383.824 69.029 384.193 67.5173 384.684 66.2637Z" fill="white"/>
<path d="M362.04 91.6299C362.04 90.4746 362.335 87.4636 362.924 82.5969C363.539 77.7301 363.994 74.252 364.289 72.1628C364.608 70.0489 364.965 67.8122 365.358 65.4525C365.751 63.0929 366.132 61.1879 366.501 59.7377C366.919 58.5333 367.361 57.3166 367.828 56.0877C368.32 54.8587 368.824 53.642 369.34 52.4376C369.684 51.8968 369.905 51.9829 370.003 52.6957C369.389 56.7759 368.824 61.0159 368.307 65.4156C367.791 69.7908 367.435 72.9248 367.238 74.8174C367.066 76.71 366.98 77.8161 366.98 78.1356C366.882 79.6596 366.82 80.8517 366.796 81.712V84.1454C366.796 87.2424 367.619 89.4054 369.266 90.6344C370.274 91.2981 371.269 91.5193 372.252 91.2981C373.26 91.0769 374.022 90.5607 374.538 89.7495C375.079 88.9384 375.534 87.9921 375.903 86.9106C376.271 85.8045 376.628 85.2515 376.972 85.2515C377.365 85.2515 377.525 85.6447 377.451 86.4313C377.426 87.7586 377.009 89.9216 376.197 92.9203C375.411 95.8945 374.329 98.3401 372.953 100.257C371.601 102.175 369.954 103.182 368.012 103.281C366.021 103.207 364.473 102.089 363.367 99.9255C362.359 97.7871 361.917 95.0219 362.04 91.6299ZM383.159 53.5151C383.355 54.2279 383.343 54.9653 383.122 55.7273C382.925 56.4892 382.544 57.2881 381.979 58.1238C381.635 58.6891 381.266 59.2053 380.873 59.6723C380.504 60.1147 380.111 60.5449 379.693 60.9627C379.57 61.1102 379.374 61.2946 379.103 61.5158C378.833 61.737 378.55 61.9459 378.255 62.1426C377.96 62.3392 377.678 62.4867 377.407 62.585C377.137 62.6587 376.94 62.6219 376.817 62.4744C375.932 61.7616 375.06 61.0365 374.2 60.2991C373.339 59.5617 372.393 58.8735 371.361 58.2344C371.189 58.1115 371.103 58.0009 371.103 57.9026C371.127 57.7797 371.201 57.6076 371.324 57.3864L377.223 48.3902C377.395 48.1444 377.567 48.0338 377.739 48.0584C377.911 48.0584 378.095 48.1199 378.292 48.2428C378.808 48.5377 379.324 48.8695 379.841 49.2382C380.357 49.6069 380.836 50.0125 381.279 50.4549C381.721 50.8728 382.102 51.3398 382.421 51.856C382.766 52.3476 383.011 52.9006 383.159 53.5151Z" fill="white"/>
<path d="M345.55 92.4496C345.55 92.2038 345.366 91.2329 344.997 89.5369C344.924 89.0207 344.887 88.5168 344.887 88.0252C344.887 87.1404 345.735 86.3907 347.431 85.7762C348.832 85.1863 349.938 84.5472 350.749 83.859C351.585 83.1708 352.052 82.4825 352.15 81.7943C352.273 81.2535 352.31 80.7497 352.261 80.2826C352.211 79.7911 352.15 79.2503 352.076 78.6604C352.003 78.0705 351.966 77.5051 351.966 76.9644C351.966 76.3991 352.003 75.9689 352.076 75.674C352.15 75.2315 353.305 71.7781 355.542 65.3136C355.763 64.9695 355.972 64.9695 356.169 65.3136C356.292 65.5348 356.353 65.9773 356.353 66.6409L356.243 75.379C356.169 78.5006 355.444 81.4625 354.067 84.2646C352.715 87.0666 351.425 89.1682 350.196 90.5692C348.992 91.9703 348.094 92.892 347.504 93.3345C346.374 94.8092 345.722 94.5143 345.55 92.4496ZM357.57 104.289C357.422 103.675 357.177 103.109 356.832 102.593C356.513 102.102 356.132 101.635 355.689 101.192C355.247 100.774 354.768 100.381 354.252 100.012C353.735 99.6436 353.219 99.3118 352.703 99.0168C352.506 98.8939 352.322 98.8202 352.15 98.7956C351.978 98.7956 351.806 98.9185 351.634 99.1643L345.735 108.16C345.612 108.382 345.55 108.541 345.55 108.64C345.526 108.763 345.6 108.886 345.772 109.008C346.804 109.648 347.75 110.336 348.611 111.073C349.471 111.811 350.343 112.536 351.228 113.248C351.351 113.396 351.548 113.421 351.818 113.322C352.089 113.248 352.371 113.113 352.666 112.917C352.961 112.72 353.244 112.511 353.514 112.29C353.785 112.069 353.981 111.884 354.104 111.737C354.522 111.319 354.915 110.877 355.284 110.41C355.677 109.967 356.046 109.463 356.39 108.898C356.955 108.062 357.336 107.263 357.533 106.501C357.754 105.739 357.766 105.002 357.57 104.289Z" fill="white"/>
<path d="M346.767 96.5175C345.292 100.082 344.051 102.638 343.043 104.186C342.06 105.735 341.212 106.792 340.499 107.357C339.786 107.898 338.766 108.402 337.439 108.869C336.136 109.336 334.748 109.754 333.273 110.122C331.798 110.467 330.704 110.639 329.991 110.639C329.696 110.639 329.549 110.626 329.549 110.602C329.352 110.356 330.36 109.532 332.572 108.131C334.809 106.73 336.653 105.452 338.103 104.297C339.553 103.142 340.843 101.876 341.974 100.499C343.129 99.123 343.953 97.6851 344.444 96.1857C344.174 96.3086 343.842 96.4315 343.449 96.5544C343.056 96.6527 342.638 96.7388 342.195 96.8125C341.777 96.8617 341.372 96.8985 340.979 96.9231C340.585 96.9477 340.241 96.9354 339.946 96.8862C338.545 96.7879 337.378 96.3209 336.444 95.4852C335.534 94.6249 335.104 93.5803 335.153 92.3513C335.227 91.7368 335.399 91.0117 335.669 90.176C335.94 89.3403 336.505 88.0253 337.365 86.231C338.226 84.4121 339.16 82.9127 340.167 81.7329C341.2 80.553 342.158 79.9631 343.043 79.9631C344.567 79.9631 345.833 80.6145 346.841 81.9172C347.849 83.1954 348.451 84.7439 348.647 86.5628C348.697 87.4722 348.672 88.3817 348.574 89.2911C348.5 90.2006 348.389 90.9625 348.242 91.577C348.119 92.1669 347.922 92.9412 347.652 93.8998C347.382 94.8338 347.087 95.7064 346.767 96.5175Z" fill="white"/>
<path d="M316.514 106.454C317.153 105.962 317.915 105.372 318.8 104.684C321.16 102.939 323.126 101.218 324.699 99.5224C326.297 97.8264 327.145 96.536 327.243 95.6511C327.44 94.5942 326.85 93.2423 325.473 91.5955C324.097 89.9732 322.462 88.4739 320.57 87.0974C320.422 86.9745 320.336 86.8639 320.312 86.7656C320.312 86.6673 320.336 86.5689 320.385 86.4706L322.118 82.4887L324.552 77.032C324.748 76.5896 324.92 76.2332 325.068 75.9628C325.24 75.6678 325.436 75.5941 325.658 75.7416C326.69 76.6019 327.71 77.5359 328.718 78.5437C329.75 79.5269 330.635 80.6698 331.372 81.9725C332.11 83.2507 332.478 84.9221 332.478 86.9868C332.478 89.3956 332.085 91.7184 331.299 93.9551C330.537 96.1673 329.492 98.4655 328.165 100.85C327.673 101.71 327.12 102.497 326.506 103.209C325.916 103.898 325.068 104.5 323.962 105.016C322.88 105.532 320.533 106.356 316.92 107.486C316.477 107.609 316.17 107.609 315.998 107.486C315.949 107.437 315.949 107.326 315.998 107.154C316.047 106.958 316.219 106.724 316.514 106.454Z" fill="white"/>
<path d="M280.909 74.9311C279.852 81.4201 278.893 86.2623 278.033 89.4576C277.197 92.653 276.435 95.0987 275.747 96.7947C275.059 98.4661 274.297 99.7442 273.461 100.629C272.65 101.514 271.139 102.362 268.926 103.173C266.739 103.96 264.908 104.513 263.433 104.832C261.958 105.152 261.036 105.324 260.668 105.348C260.299 105.324 260.065 105.262 259.967 105.164C259.869 105.041 259.955 104.771 260.225 104.353C260.692 103.689 261.663 102.78 263.138 101.625C264.637 100.469 266.395 99.0314 268.41 97.3108C270.45 95.5903 271.974 94.0786 272.982 92.7759C273.99 91.4486 274.875 89.6543 275.637 87.3929C276.423 85.107 277.185 82.7228 277.923 80.2403C278.66 77.7577 279.188 76.074 279.508 75.1891C279.852 74.3043 280.196 73.8741 280.54 73.8987C280.934 73.9725 281.056 74.3166 280.909 74.9311ZM285.038 57.0586C285.235 57.7714 285.223 58.5088 285.001 59.2707C284.805 60.0327 284.424 60.8315 283.859 61.6672C283.514 62.2326 283.146 62.7487 282.752 63.2158C282.384 63.6582 281.99 64.0883 281.573 64.5062C281.45 64.6537 281.253 64.838 280.983 65.0592C280.712 65.2805 280.43 65.4894 280.135 65.686C279.84 65.8827 279.557 66.0301 279.287 66.1285C279.016 66.2022 278.82 66.1653 278.697 66.0178C277.812 65.305 276.939 64.5799 276.079 63.8425C275.219 63.1052 274.272 62.4169 273.24 61.7778C273.068 61.655 272.982 61.5443 272.982 61.446C273.007 61.3231 273.08 61.1511 273.203 60.9298L279.102 51.9337C279.274 51.6879 279.446 51.5773 279.619 51.6019C279.791 51.6019 279.975 51.6633 280.172 51.7862C280.688 52.0812 281.204 52.413 281.72 52.7817C282.236 53.1504 282.716 53.5559 283.158 53.9984C283.6 54.4162 283.981 54.8832 284.301 55.3994C284.645 55.891 284.891 56.4441 285.038 57.0586Z" fill="white"/>
<path d="M254.576 95.1078C255.215 94.6162 255.977 94.0263 256.862 93.3381C259.222 91.5929 261.188 89.8723 262.761 88.1764C264.359 86.4804 265.207 85.1899 265.305 84.3051C265.502 83.2481 264.912 81.8962 263.535 80.2494C262.159 78.6271 260.524 77.1278 258.632 75.7513C258.484 75.6284 258.398 75.5178 258.374 75.4195C258.374 75.3212 258.398 75.2229 258.447 75.1245L260.18 71.1426L262.614 65.6859C262.81 65.2435 262.982 64.8871 263.13 64.6167C263.302 64.3218 263.498 64.248 263.72 64.3955C264.752 65.2558 265.772 66.1898 266.78 67.1976C267.812 68.1808 268.697 69.3237 269.434 70.6265C270.172 71.9046 270.54 73.576 270.54 75.6407C270.54 78.0495 270.147 80.3723 269.361 82.6091C268.599 84.8212 267.554 87.1194 266.227 89.5037C265.735 90.3639 265.182 91.1505 264.568 91.8633C263.978 92.5515 263.13 93.1537 262.024 93.6699C260.942 94.1861 258.595 95.0095 254.982 96.1402C254.539 96.2631 254.232 96.2631 254.06 96.1402C254.011 96.091 254.011 95.9804 254.06 95.8083C254.109 95.6117 254.281 95.3782 254.576 95.1078Z" fill="white"/>
<path d="M250.425 68.3682L254.26 59.3352C254.579 58.5978 254.837 58.2291 255.034 58.2291C255.353 58.2291 255.452 58.4626 255.329 58.9296C255.181 59.4458 255.009 60.343 254.813 61.6211C254.616 62.8747 254.469 63.8579 254.37 64.5707C254.223 65.8242 254.075 67.2376 253.928 68.8107C253.78 70.3838 253.645 72.006 253.522 73.6775C253.399 75.3243 253.276 76.9343 253.154 78.5074C253.031 80.0805 252.895 81.4938 252.748 82.7474C252.355 86.5572 251.752 89.7034 250.941 92.1859C250.13 94.6439 249.184 96.9298 248.102 99.0437C247.021 101.133 246.148 102.227 245.485 102.325C245.313 102.325 245.362 101.883 245.632 100.998C245.952 100.162 246.247 99.1174 246.517 97.8638C246.812 96.6103 247.07 95.2707 247.291 93.8451C247.512 92.3949 247.709 90.9201 247.881 89.4207C248.053 87.8968 248.201 86.4589 248.324 85.107C248.496 83.8289 248.643 81.9239 248.766 79.3922C248.889 76.8359 249.073 74.6729 249.319 72.9032C249.565 71.1335 249.934 69.6218 250.425 68.3682Z" fill="white"/>
<path d="M250.493 60.9283C250.198 60.1418 250.013 59.3675 249.94 58.6056C249.866 57.8436 250.05 57.0693 250.493 56.2828C250.763 56.0616 251.058 55.7912 251.378 55.4717C251.697 55.1275 252.004 54.7834 252.299 54.4393C252.594 54.0952 252.852 53.7511 253.074 53.407C253.295 53.0628 253.43 52.7679 253.479 52.5221C253.553 52.1288 253.577 51.6987 253.553 51.2317C253.553 50.7401 253.541 50.2485 253.516 49.7569C253.516 49.2653 253.516 48.786 253.516 48.319C253.541 47.852 253.627 47.4341 253.774 47.0654C253.897 46.6967 254.13 46.1682 254.475 45.48L258.235 37.8112C258.358 37.5408 258.493 37.4793 258.641 37.6268C258.813 37.7743 258.899 37.9832 258.899 38.2536C258.727 39.0647 258.629 39.9127 258.604 40.7976C258.579 41.6579 258.555 42.5305 258.53 43.4153C258.53 44.2756 258.506 45.1359 258.456 45.9962C258.407 46.8565 258.284 47.6922 258.088 48.5033C257.891 49.5848 257.535 50.7278 257.019 51.9322C256.502 53.112 255.888 54.2673 255.175 55.3979C254.487 56.504 253.737 57.5363 252.926 58.495C252.14 59.4536 251.378 60.2278 250.64 60.8177L250.493 60.9283ZM261.959 18.3748C262.156 19.0876 262.143 19.825 261.922 20.587C261.726 21.349 261.345 22.1478 260.779 22.9835C260.435 23.5489 260.066 24.065 259.673 24.532C259.304 24.9745 258.911 25.4046 258.493 25.8225C258.37 25.97 258.174 26.1543 257.903 26.3755C257.633 26.5967 257.35 26.8057 257.055 27.0023C256.76 27.1989 256.478 27.3464 256.207 27.4447C255.937 27.5185 255.74 27.4816 255.618 27.3341C254.733 26.6213 253.86 25.8962 253 25.1588C252.14 24.4214 251.193 23.7332 250.161 23.0941C249.989 22.9712 249.915 22.8606 249.94 22.7623C249.94 22.6394 250.001 22.4674 250.124 22.2461L256.023 13.25C256.195 13.0042 256.367 12.8936 256.539 12.9181C256.711 12.9181 256.896 12.9796 257.092 13.1025C257.608 13.3975 258.125 13.7293 258.641 14.098C259.157 14.4667 259.636 14.8722 260.079 15.3147C260.521 15.7325 260.902 16.1995 261.222 16.7157C261.566 17.2073 261.812 17.7603 261.959 18.3748Z" fill="white"/>
<path d="M198.212 74.3363C197.647 75.7128 197.106 77.1139 196.59 78.5395C196.098 79.9405 195.668 81.3416 195.299 82.7426C194.93 84.1191 194.636 85.4832 194.414 86.8351C194.193 88.1624 194.095 89.4406 194.119 90.6695C194.513 94.3565 196.024 97.0603 198.654 98.7808C201.284 100.526 204.381 101.485 207.945 101.657C212.738 101.657 217.347 100.379 221.771 97.8222C225.065 95.6346 227.707 92.894 229.698 89.6003C232.722 85.0039 234.16 78.6624 234.012 70.5757C233.988 69.5925 233.975 68.6093 233.975 67.6261C233.975 66.6183 233.951 65.6105 233.902 64.6028C233.729 63.423 233.803 62.4766 234.123 61.7638C234.442 61.051 235.044 60.67 235.929 60.6209C236.175 60.5963 236.458 60.6086 236.777 60.6577C237.121 60.6823 237.466 60.7192 237.81 60.7684C238.178 60.8175 238.535 60.8544 238.879 60.879C239.248 60.9035 239.567 60.9035 239.838 60.879C241.091 60.7315 242.062 60.1662 242.75 59.183C243.365 58.421 243.967 58.335 244.557 58.9249C246.179 59.5639 247.383 58.9986 248.17 57.2289C248.367 56.639 248.76 56.5898 249.35 57.0814C249.645 57.1797 250.026 57.1674 250.493 57.0445C250.911 57.8311 251.083 58.6053 251.009 59.3673C250.96 60.1293 250.788 60.9035 250.493 61.6901C249.805 62.28 249.129 62.6733 248.465 62.8699C247.801 63.0666 247.383 63.1403 247.211 63.0911C247.015 63.1649 246.818 63.2878 246.622 63.4598C246.425 63.6073 246.179 63.7548 245.884 63.9023C245.589 64.0497 245.22 64.1849 244.778 64.3078C244.36 64.4307 243.819 64.4922 243.156 64.4922C242.812 64.7871 242.394 65.0575 241.902 65.3033C241.435 65.5491 240.944 65.7703 240.427 65.967C239.936 66.139 239.444 66.3111 238.953 66.4831C238.461 66.6306 238.019 66.7658 237.625 66.8887L237.478 68.4372C236.814 76.3273 235.266 83.3817 232.832 89.6003C231.21 93.7297 229.133 97.601 226.601 101.214C220.629 109.301 213.451 113.357 205.07 113.381C200.989 113.16 197.548 111.759 194.746 109.178C191.944 106.597 190.469 102.947 190.322 98.2278C190.42 90.7064 192.792 82.4599 197.438 73.4883L198.765 70.76C198.839 70.7354 198.9 70.8092 198.949 70.9812C198.998 71.1533 199.011 71.3991 198.986 71.7186C198.962 72.0136 198.9 72.3577 198.802 72.751C198.703 73.1442 198.568 73.5498 198.396 73.9677L198.212 74.3363ZM250.493 36.0283C250.689 36.7166 250.677 37.4294 250.456 38.1668C250.259 38.9042 249.903 39.6661 249.387 40.4527C248.969 41.0918 248.539 41.694 248.096 42.2593C247.678 42.8 247.211 43.3162 246.695 43.8078C246.376 44.1519 246.093 44.3977 245.847 44.5452C245.601 44.6927 245.393 44.791 245.22 44.8402C245.048 44.8647 244.901 44.8524 244.778 44.8033C244.655 44.7541 244.545 44.6927 244.446 44.6189C243.586 43.9307 242.738 43.2425 241.902 42.5542C241.091 41.8414 240.194 41.1778 239.211 40.5633C239.088 40.3912 239.026 40.2683 239.026 40.1946C239.026 40.0963 239.088 39.9488 239.211 39.7522L244.815 31.1247C244.987 30.9035 245.147 30.8052 245.294 30.8297C245.466 30.8297 245.651 30.8912 245.847 31.0141C246.339 31.309 246.83 31.6286 247.322 31.9727C247.838 32.2922 248.305 32.6609 248.723 33.0788C249.141 33.4966 249.51 33.9514 249.829 34.4429C250.149 34.91 250.37 35.4384 250.493 36.0283ZM245.405 22.7184C245.601 23.4067 245.589 24.1195 245.368 24.8569C245.171 25.5943 244.815 26.3562 244.299 27.1428C243.881 27.7819 243.451 28.3841 243.008 28.9494C242.59 29.4901 242.123 30.0063 241.607 30.4979C241.288 30.842 241.005 31.0878 240.759 31.2353C240.513 31.3828 240.305 31.4811 240.132 31.5303C239.96 31.5548 239.813 31.5425 239.69 31.4934C239.567 31.4442 239.457 31.3828 239.358 31.309C238.498 30.6208 237.65 29.9326 236.814 29.2443C236.003 28.5315 235.106 27.8679 234.123 27.2534C234 27.0813 233.938 26.9584 233.938 26.8847C233.938 26.7864 234 26.6389 234.123 26.4423L239.727 17.8148C239.899 17.5936 240.059 17.4953 240.206 17.5198C240.378 17.5198 240.563 17.5813 240.759 17.7042C241.251 17.9991 241.742 18.3187 242.234 18.6628C242.75 18.9823 243.217 19.351 243.635 19.7689C244.053 20.1867 244.422 20.6415 244.741 21.1331C245.061 21.6001 245.282 22.1285 245.405 22.7184ZM238.842 35.7334C238.891 35.8563 238.928 35.9669 238.953 36.0652C239.002 36.1635 239.051 36.2741 239.1 36.397L239.211 36.7289C239.211 36.8272 239.223 36.9009 239.248 36.9501C239.248 36.9992 239.248 37.0484 239.248 37.0976C239.272 37.1467 239.284 37.1959 239.284 37.245C239.284 37.2942 239.284 37.3311 239.284 37.3556C239.309 37.3802 239.321 37.4171 239.321 37.4662C239.321 37.9333 239.272 38.3634 239.174 38.7567C239.174 38.8058 239.162 38.8427 239.137 38.8673C239.137 38.8919 239.137 38.9287 239.137 38.9779L238.99 39.4203L238.879 39.6416C238.854 39.6907 238.83 39.7522 238.805 39.8259C238.805 39.8996 238.781 39.9611 238.731 40.0102L238.51 40.4527L238.068 41.1532L237.441 42.0749C237.318 42.2716 237.183 42.4682 237.035 42.6649C236.888 42.8369 236.74 43.0213 236.593 43.2179C236.396 43.4391 236.2 43.6603 236.003 43.8815C235.806 44.1028 235.598 44.3117 235.376 44.5083L235.008 44.877L234.823 45.0245C234.528 45.2703 234.27 45.4301 234.049 45.5038C233.852 45.5775 233.68 45.5898 233.533 45.5407C233.435 45.5161 233.348 45.4915 233.275 45.4669C233.226 45.4178 233.176 45.3686 233.127 45.3195L232.242 44.6189L231.874 44.2871L229.698 42.5174L229.44 42.333C228.924 41.9398 228.42 41.5833 227.929 41.2638C227.781 41.1409 227.707 41.0303 227.707 40.932C227.707 40.8091 227.769 40.6493 227.892 40.4527L233.533 31.8621C233.705 31.5917 233.902 31.4811 234.123 31.5303C234.123 31.5303 234.147 31.5425 234.196 31.5671C234.221 31.5671 234.283 31.5917 234.381 31.6409C234.43 31.69 234.479 31.7146 234.528 31.7146C234.848 31.9112 235.167 32.1202 235.487 32.3414C235.806 32.538 236.126 32.747 236.446 32.9682L236.851 33.3C237.121 33.5212 237.367 33.7424 237.588 33.9636C237.81 34.1849 238.019 34.4307 238.215 34.701L238.436 34.996L238.768 35.5859C238.817 35.6842 238.842 35.7334 238.842 35.7334Z" fill="white"/>
<path d="M171.361 93.1028C172 92.6112 172.762 92.0213 173.647 91.3331C176.006 89.5879 177.973 87.8673 179.546 86.1713C181.143 84.4753 181.991 83.1849 182.09 82.3C182.286 81.2431 181.696 79.8912 180.32 78.2444C178.943 76.6221 177.309 75.1228 175.416 73.7463C175.269 73.6234 175.183 73.5128 175.158 73.4145C175.158 73.3162 175.183 73.2179 175.232 73.1195L176.965 69.1376L179.398 63.6809C179.595 63.2385 179.767 62.8821 179.914 62.6117C180.086 62.3168 180.283 62.243 180.504 62.3905C181.537 63.2508 182.557 64.1848 183.564 65.1926C184.597 66.1758 185.482 67.3187 186.219 68.6215C186.956 69.8996 187.325 71.571 187.325 73.6357C187.325 76.0445 186.932 78.3673 186.145 80.604C185.383 82.8162 184.339 85.1144 183.011 87.4986C182.52 88.3589 181.967 89.1455 181.352 89.8583C180.762 90.5465 179.914 91.1487 178.808 91.6649C177.727 92.1811 175.379 93.0045 171.766 94.1352C171.324 94.2581 171.017 94.2581 170.844 94.1352C170.795 94.086 170.795 93.9754 170.844 93.8033C170.894 93.6067 171.066 93.3732 171.361 93.1028Z" fill="white"/>
<path d="M173.387 25.1892C173.608 24.8451 173.792 24.6976 173.94 24.7468C174.087 24.7713 174.161 25.0909 174.161 25.7054C174.038 26.369 173.927 27.3153 173.829 28.5443C173.731 29.7487 173.632 31.1375 173.534 32.7106C173.46 34.2837 173.387 35.9797 173.313 37.7986C173.239 39.5929 173.165 41.4241 173.092 43.2921C173.018 45.1602 172.944 47.0037 172.871 48.8226C172.797 50.6415 172.723 52.3252 172.649 53.8737C172.354 61.3951 172.121 66.2618 171.949 68.474C171.826 69.8013 171.666 71.104 171.469 72.3822C170.683 78.7237 169.282 84.4877 167.266 89.674C165.644 93.8034 163.567 97.6747 161.035 101.288C155.063 109.375 147.885 113.406 139.504 113.381C135.497 113.209 132.117 111.833 129.364 109.252C126.562 106.671 125.088 103.021 124.94 98.3014C124.916 90.7801 127.226 82.5336 131.872 73.562L133.273 70.8337C133.445 70.7845 133.506 71.0795 133.457 71.7185C133.408 72.3576 133.137 73.2548 132.646 74.41C132.081 75.7865 131.515 77.1875 130.95 78.6131C130.409 80.0142 129.93 81.4152 129.512 82.8162C129.094 84.1927 128.762 85.5569 128.516 86.9088C128.295 88.2361 128.222 89.5142 128.295 90.7432C128.787 94.4301 130.36 97.1339 133.015 98.8545C135.694 100.6 138.815 101.534 142.379 101.657C147.172 101.706 151.781 100.452 156.205 97.8959C159.499 95.7083 162.117 92.9677 164.059 89.674C166.271 86.2082 167.586 80.5303 168.004 72.6403C168.102 71.4359 168.151 70.084 168.151 68.5846C168.323 64.5781 168.446 60.6331 168.52 56.7495C168.594 52.8659 168.68 49.0192 168.778 45.2093C168.901 41.3995 169.085 38.8801 169.331 37.6511C169.601 36.4221 169.872 35.3775 170.142 34.5172L173.387 25.1892Z" fill="white"/>
<path d="M109.772 70.2071C109.354 70.4037 108.912 70.5389 108.445 70.6126C108.002 70.6618 107.535 70.6864 107.044 70.6864C106.577 70.6618 106.097 70.6372 105.606 70.6126C105.139 70.5635 104.684 70.5389 104.242 70.5389C102.251 70.5389 100.444 70.797 98.8217 71.3131C97.224 71.8047 95.7247 72.5298 94.3236 73.4884C92.9226 74.447 91.583 75.6269 90.3049 77.0279C89.0267 78.4044 87.7117 79.9775 86.3598 81.7472C86.0894 82.1159 85.475 82.9885 84.5163 84.3649C83.5577 85.7414 82.2427 87.6218 80.5713 90.006C78.2854 93.2013 75.68 96.0526 72.755 98.5597C71.7472 99.42 70.5182 100.403 69.068 101.509C67.5932 102.615 66.0447 103.709 64.4225 104.791C62.7756 105.897 61.1411 106.929 59.5188 107.888C57.8966 108.846 56.4341 109.596 55.1313 110.137C55.033 110.186 54.8733 110.247 54.652 110.321C54.4308 110.419 54.1236 110.542 53.7303 110.69C53.4845 110.764 53.2264 110.813 52.956 110.837C52.6857 110.886 52.4767 110.874 52.3293 110.8C52.1818 110.751 52.1203 110.641 52.1449 110.469C52.1449 110.296 52.3047 110.038 52.6242 109.694C52.8209 109.424 53.1896 109.055 53.7303 108.588C54.2711 108.146 54.9716 107.605 55.8319 106.966C56.938 106.179 58.044 105.417 59.1501 104.68C60.2562 103.967 61.3623 103.218 62.4684 102.431C63.9432 101.325 65.4917 100.01 67.1139 98.486C68.7362 96.9866 70.4322 95.2415 72.2019 93.2505C73.2097 92.2182 74.242 91.0383 75.299 89.711C76.3313 88.3591 77.4251 86.8721 78.5804 85.2498C79.8585 83.3818 80.7925 81.9807 81.3824 81.0467C83.0539 78.6133 84.4057 76.6715 85.4381 75.2213C86.495 73.7711 87.2447 72.7756 87.6871 72.2349C89.1373 70.4651 90.6121 68.8797 92.1115 67.4787C93.6354 66.0777 95.1839 64.861 96.757 63.8286C98.9692 62.2555 101.144 61.088 103.283 60.326C105.446 59.5395 107.584 59.1216 109.698 59.0725H113.901C115.081 59.0725 115.917 58.7038 116.408 57.9664L119.985 52.6572C120.28 52.2639 120.501 52.0058 120.648 51.8829C121.066 51.4405 121.423 51.2807 121.718 51.4036C121.89 51.5019 121.963 51.8337 121.939 52.3991C121.791 53.0627 121.607 53.6526 121.386 54.1688C121.017 54.857 120.673 55.533 120.354 56.1966C120.034 56.8603 119.555 57.7452 118.916 58.8512C118.301 59.9573 117.453 61.3461 116.372 63.0175C115.29 64.6643 114.086 66.176 112.758 67.5524C111.505 68.8797 110.509 69.7646 109.772 70.2071ZM120.354 85.8397C120.231 85.2744 120.009 84.7582 119.69 84.2912C119.395 83.8488 119.051 83.4309 118.658 83.0376C118.264 82.6444 117.834 82.288 117.367 81.9684C116.925 81.6735 116.482 81.3908 116.04 81.1204C115.696 80.9238 115.474 80.8132 115.376 80.7886C115.278 80.764 115.143 80.8869 114.971 81.1573L109.735 89.1211C109.588 89.3423 109.514 89.4898 109.514 89.5635C109.538 89.6619 109.612 89.7725 109.735 89.8954L112.353 91.8863C112.844 92.3042 113.275 92.6729 113.643 92.9924C114.012 93.3365 114.319 93.6192 114.565 93.8404C114.639 93.9141 114.737 93.9756 114.86 94.0248C114.983 94.0739 115.13 94.0739 115.302 94.0248C115.474 94.0002 115.671 93.9141 115.892 93.7667C116.138 93.6438 116.408 93.4226 116.703 93.103C117.22 92.6114 117.674 92.0952 118.068 91.5545C118.461 91.0383 118.854 90.4976 119.247 89.9322C120.255 88.4083 120.624 87.0441 120.354 85.8397ZM109.514 86.4665C109.391 85.9012 109.17 85.385 108.85 84.918C108.555 84.4756 108.211 84.0577 107.818 83.6644C107.425 83.2712 106.994 82.9147 106.527 82.5952C106.085 82.3003 105.643 82.0176 105.2 81.7472C104.856 81.5506 104.635 81.44 104.536 81.4154C104.438 81.3908 104.303 81.5137 104.131 81.7841L98.8955 89.7479C98.748 89.9691 98.6742 90.1166 98.6742 90.1903C98.6988 90.2886 98.7726 90.3993 98.8955 90.5222L101.513 92.5131C102.005 92.931 102.435 93.2997 102.804 93.6192C103.172 93.9633 103.48 94.246 103.725 94.4672C103.799 94.5409 103.897 94.6024 104.02 94.6515C104.143 94.7007 104.291 94.7007 104.463 94.6515C104.635 94.627 104.831 94.5409 105.053 94.3934C105.298 94.2705 105.569 94.0493 105.864 93.7298C106.38 93.2382 106.835 92.722 107.228 92.1813C107.621 91.6651 108.015 91.1244 108.408 90.559C109.416 89.0351 109.784 87.6709 109.514 86.4665ZM114.27 98.2647C114.147 97.6994 113.926 97.1832 113.606 96.7162C113.311 96.2738 112.967 95.8559 112.574 95.4627C112.181 95.0694 111.751 94.713 111.284 94.3934C110.841 94.0985 110.399 93.8158 109.956 93.5455C109.612 93.3488 109.391 93.2382 109.293 93.2136C109.194 93.189 109.059 93.3119 108.887 93.5823L103.652 101.546C103.504 101.767 103.43 101.915 103.43 101.989C103.455 102.087 103.529 102.197 103.652 102.32L106.269 104.311C106.761 104.729 107.191 105.098 107.56 105.417C107.928 105.762 108.236 106.044 108.482 106.265C108.555 106.339 108.654 106.401 108.776 106.45C108.899 106.499 109.047 106.499 109.219 106.45C109.391 106.425 109.588 106.339 109.809 106.192C110.055 106.069 110.325 105.848 110.62 105.528C111.136 105.036 111.591 104.52 111.984 103.98C112.377 103.463 112.771 102.923 113.164 102.357C114.172 100.833 114.54 99.4692 114.27 98.2647ZM93.2907 104.533C93.1678 103.967 92.9466 103.451 92.6271 102.984C92.3321 102.542 91.988 102.124 91.5947 101.73C91.2015 101.337 90.7713 100.981 90.3043 100.661C89.8619 100.366 89.4194 100.084 88.977 99.8133C88.6329 99.6166 88.4117 99.506 88.3134 99.4814C88.215 99.4569 88.0799 99.5798 87.9078 99.8501L82.6723 107.814C82.5248 108.035 82.4511 108.183 82.4511 108.256C82.4757 108.355 82.5494 108.465 82.6723 108.588L85.2901 110.579C85.7817 110.997 86.2118 111.366 86.5805 111.685C86.9492 112.029 87.2564 112.312 87.5022 112.533C87.576 112.607 87.6743 112.668 87.7972 112.718C87.9201 112.767 88.0676 112.767 88.2396 112.718C88.4117 112.693 88.6083 112.607 88.8295 112.46C89.0753 112.337 89.3457 112.115 89.6407 111.796C90.1568 111.304 90.6116 110.788 91.0048 110.247C91.3981 109.731 91.7914 109.19 92.1847 108.625C92.6763 107.888 93.0081 107.163 93.1801 106.45C93.3768 105.762 93.4136 105.122 93.2907 104.533ZM82.4511 105.159C82.3282 104.594 82.107 104.078 81.7875 103.611C81.4925 103.168 81.1484 102.751 80.7551 102.357C80.3618 101.964 79.9317 101.608 79.4647 101.288C79.0222 100.993 78.5798 100.71 78.1374 100.44C77.7933 100.243 77.572 100.133 77.4737 100.108C77.3754 100.084 77.2402 100.207 77.0682 100.477L71.8327 108.441C71.6852 108.662 71.6238 108.809 71.6483 108.883C71.6483 108.981 71.7098 109.092 71.8327 109.215L74.4504 111.206C74.942 111.624 75.3722 111.992 75.7409 112.312C76.1096 112.656 76.4168 112.939 76.6626 113.16C76.7363 113.234 76.8347 113.295 76.9576 113.344C77.0804 113.394 77.2279 113.394 77.4 113.344C77.572 113.32 77.781 113.234 78.0268 113.086C78.248 112.963 78.5061 112.742 78.801 112.423C79.3172 111.931 79.7719 111.415 80.1652 110.874C80.5585 110.358 80.9517 109.817 81.345 109.252C81.8366 108.514 82.1684 107.789 82.3405 107.077C82.5371 106.388 82.574 105.749 82.4511 105.159Z" fill="white"/>
<path d="M81.0579 54.5625C80.6646 56.0127 80.173 57.2909 79.5831 58.3969C78.9932 59.503 78.3787 60.4002 77.7396 61.0884C77.1005 61.7275 76.3877 62.3174 75.6012 62.8582C74.8146 63.3989 73.9789 63.8413 73.094 64.1855C72.1846 64.5542 71.4103 64.972 70.7713 65.439C70.1322 65.8815 69.6037 66.3608 69.1859 66.8769C68.5468 67.5652 67.9938 68.5238 67.5267 69.7528C67.0597 70.9572 66.5681 72.2353 66.052 73.5872C65.5604 74.9391 65.0073 76.2664 64.3928 77.5691C63.8029 78.8472 63.0532 79.9042 62.1438 80.7399C60.8902 82.0672 59.0345 82.9643 56.5765 83.4313L49.8294 84.5743C49.6327 84.5989 49.3992 84.6235 49.1289 84.648C48.8339 84.648 48.625 84.6357 48.5021 84.6112C47.9367 84.4391 47.7647 84.0704 47.9859 83.5051C48.2071 82.9152 48.7847 82.3253 49.7188 81.7353C51.6114 80.4818 53.1231 79.474 54.2537 78.712C55.3844 77.9255 56.3061 77.2864 57.0189 76.7948C57.7317 76.3032 58.2971 75.8977 58.7149 75.5781C59.1574 75.2586 59.6244 74.9022 60.116 74.5089C62.1069 73.0096 63.4834 71.4365 64.2454 69.7896C64.6878 68.9293 65.0934 68.0936 65.4621 67.2825C65.8307 66.4714 66.2117 65.6725 66.605 64.886C67.0229 64.0994 67.4653 63.3252 67.9323 62.5632C68.3993 61.7766 68.9401 60.9901 69.5546 60.2035C70.1936 59.417 71.0539 58.655 72.1354 57.9176C73.2169 57.1557 74.5197 56.406 76.0436 55.6686C77.8133 54.7592 78.9563 53.5793 79.4725 52.1291C79.7674 51.4409 80.1115 50.7895 80.5048 50.175C80.9227 49.5606 81.3528 49.2287 81.7952 49.1796C82.2868 49.2533 82.4097 49.7818 82.1639 50.765C82.041 51.2565 81.8813 51.8219 81.6846 52.461C81.5126 53.0754 81.3037 53.776 81.0579 54.5625ZM80.5048 75.615C80.7015 76.3278 80.6892 77.0652 80.4679 77.8272C80.2713 78.5891 79.8903 79.388 79.325 80.2237C78.9809 80.789 78.6122 81.2929 78.2189 81.7353C77.8502 82.2024 77.4569 82.6448 77.0391 83.0626C76.9162 83.2101 76.7195 83.3945 76.4492 83.6157C76.1788 83.8369 75.8961 84.0458 75.6012 84.2425C75.3062 84.4391 75.0235 84.5743 74.7532 84.648C74.4828 84.7464 74.2862 84.7218 74.1633 84.5743C73.2784 83.8615 72.4058 83.1364 71.5455 82.399C70.6852 81.6616 69.7389 80.9734 68.7066 80.3343C68.5345 80.2114 68.4485 80.0885 68.4485 79.9656C68.4731 79.8673 68.5468 79.7075 68.6697 79.4863L74.5688 70.4901C74.7409 70.2443 74.9129 70.1214 75.085 70.1214C75.2571 70.146 75.4414 70.2198 75.638 70.3427C76.1542 70.6376 76.6704 70.9694 77.1866 71.3381C77.7027 71.7068 78.182 72.1001 78.6245 72.518C79.0669 72.9604 79.4479 73.4274 79.7674 73.919C80.1115 74.4352 80.3573 75.0005 80.5048 75.615Z" fill="white"/>
<path d="M47.9126 62.2452C47.9126 61.09 48.2076 58.0789 48.7975 53.2122C49.412 48.3454 49.8667 44.8674 50.1617 42.7781C50.4812 40.6642 50.8376 38.4275 51.2309 36.0678C51.6241 33.7082 52.0051 31.8033 52.3738 30.3531C52.7917 29.1487 53.2341 27.932 53.7011 26.703C54.1927 25.474 54.6966 24.2573 55.2128 23.0529C55.5569 22.5121 55.7781 22.5982 55.8764 23.311C55.2619 27.3912 54.6966 31.6312 54.1804 36.031C53.6643 40.4062 53.3079 43.5401 53.1112 45.4327C52.9392 47.3253 52.8531 48.4314 52.8531 48.751C52.7548 50.2749 52.6934 51.467 52.6688 52.3273V54.7607C52.6688 57.8577 53.4922 60.0207 55.139 61.2497C56.1468 61.9134 57.1423 62.1346 58.1255 61.9134C59.1332 61.6922 59.8952 61.176 60.4114 60.3649C60.9521 59.5537 61.4069 58.6074 61.7756 57.5259C62.1442 56.4198 62.5007 55.8668 62.8448 55.8668C63.238 55.8668 63.3978 56.26 63.3241 57.0466C63.2995 58.3739 62.8816 60.5369 62.0705 63.5356C61.284 66.5098 60.2025 68.9554 58.826 70.8727C57.4741 72.7899 55.8273 73.7976 53.8855 73.896C51.8945 73.8222 50.346 72.7038 49.2399 70.5408C48.2322 68.4024 47.7897 65.6372 47.9126 62.2452ZM70.1818 33.7081C70.3784 34.4209 70.3661 35.1583 70.1449 35.9202C69.9483 36.6822 69.5673 37.481 69.002 38.3168C68.6579 38.8821 68.2892 39.3983 67.8959 39.8653C67.5272 40.3077 67.1339 40.7379 66.7161 41.1557C66.5932 41.3032 66.3965 41.4875 66.1262 41.7087C65.8558 41.93 65.5731 42.1389 65.2782 42.3355C64.9832 42.5322 64.7005 42.6796 64.4302 42.778C64.1598 42.8517 63.9631 42.8148 63.8402 42.6674C62.9554 41.9545 62.0828 41.2294 61.2225 40.4921C60.3622 39.7547 59.4159 39.0664 58.3836 38.4274C58.2115 38.3045 58.1255 38.1939 58.1255 38.0955C58.1501 37.9726 58.2238 37.8006 58.3467 37.5794L64.2458 28.5832C64.4179 28.3374 64.5899 28.2268 64.762 28.2514C64.934 28.2514 65.1184 28.3128 65.315 28.4357C65.8312 28.7307 66.3474 29.0625 66.8635 29.4312C67.3797 29.7999 67.859 30.2055 68.3015 30.6479C68.7439 31.0657 69.1249 31.5328 69.4444 32.0489C69.7885 32.5405 70.0343 33.0936 70.1818 33.7081Z" fill="white"/>
<path d="M30.2691 74.9627C30.2691 74.7169 30.0848 73.746 29.7161 72.05C29.6423 71.5338 29.6055 71.0299 29.6055 70.5383C29.6055 69.6534 30.4535 68.9038 32.1495 68.2893C33.5505 67.6994 34.6566 67.0603 35.4677 66.3721C36.3034 65.6838 36.7704 64.9956 36.8688 64.3074C36.9917 63.7666 37.0285 63.2627 36.9794 62.7957C36.9302 62.3041 36.8688 61.7634 36.795 61.1735C36.7213 60.5835 36.6844 60.0182 36.6844 59.4775C36.6844 58.9121 36.7213 58.482 36.795 58.187C36.8688 57.7446 38.024 54.2911 40.2608 47.8267C40.482 47.4826 40.6909 47.4826 40.8875 47.8267C41.0104 48.0479 41.0719 48.4903 41.0719 49.154L40.9613 57.8921C40.8875 61.0137 40.1624 63.9755 38.786 66.7776C37.4341 69.5797 36.1437 71.6813 34.9147 73.0823C33.7103 74.4833 32.8131 75.4051 32.2232 75.8475C31.0925 77.3223 30.4412 77.0273 30.2691 74.9627ZM42.9348 89.6879C42.7873 89.0734 42.5415 88.5081 42.1974 87.9919C41.8778 87.5003 41.4968 87.0333 41.0544 86.5908C40.612 86.173 40.1327 85.7797 39.6165 85.411C39.1003 85.0423 38.5841 84.7105 38.068 84.4155C37.8713 84.2926 37.687 84.2189 37.5149 84.1943C37.3429 84.1943 37.1708 84.3172 36.9988 84.563L31.0996 93.5592C30.9767 93.7804 30.9153 93.9402 30.9153 94.0385C30.8907 94.1614 30.9645 94.2843 31.1365 94.4072C32.1689 95.0462 33.1152 95.7345 33.9755 96.4719C34.8357 97.2093 35.7083 97.9344 36.5932 98.6472C36.7161 98.7946 36.9127 98.8192 37.1831 98.7209C37.4535 98.6472 37.7362 98.512 38.0311 98.3153C38.3261 98.1187 38.6087 97.9098 38.8791 97.6886C39.1495 97.4673 39.3461 97.283 39.469 97.1355C39.8869 96.7177 40.2801 96.2752 40.6488 95.8082C41.0421 95.3658 41.4108 94.8619 41.7549 94.2966C42.3203 93.4609 42.7012 92.662 42.8979 91.9C43.1191 91.1381 43.1314 90.4007 42.9348 89.6879Z" fill="white"/>
<path d="M31.4858 79.0306C30.011 82.5947 28.7697 85.1509 27.762 86.6995C26.7788 88.248 25.9308 89.3049 25.218 89.8702C24.5052 90.411 23.4851 90.9149 22.1578 91.3819C20.8551 91.8489 19.4663 92.2668 17.9916 92.6355C16.5168 92.9796 15.423 93.1516 14.7102 93.1516C14.4152 93.1516 14.2677 93.1393 14.2677 93.1148C14.0711 92.869 15.0789 92.0455 17.291 90.6445C19.5278 89.2435 21.3713 87.9653 22.8215 86.8101C24.2717 85.6548 25.5621 84.389 26.6928 83.0125C27.848 81.6361 28.6714 80.1981 29.163 78.6988C28.8926 78.8217 28.5608 78.9446 28.1675 79.0675C27.7743 79.1658 27.3564 79.2518 26.914 79.3256C26.4961 79.3747 26.0906 79.4116 25.6973 79.4362C25.304 79.4608 24.9599 79.4485 24.6649 79.3993C23.2639 79.301 22.0964 78.834 21.1623 77.9983C20.2529 77.138 19.8227 76.0933 19.8719 74.8644C19.9456 74.2499 20.1177 73.5248 20.3881 72.6891C20.6584 71.8533 21.2238 70.5383 22.0841 68.744C22.9444 66.9251 23.8784 65.4258 24.8862 64.2459C25.9185 63.0661 26.8771 62.4762 27.762 62.4762C29.2859 62.4762 30.5518 63.1276 31.5595 64.4303C32.5673 65.7084 33.1695 67.2569 33.3661 69.0758C33.4153 69.9853 33.3907 70.8947 33.2924 71.8042C33.2187 72.7136 33.1081 73.4756 32.9606 74.0901C32.8377 74.68 32.641 75.4543 32.3707 76.4129C32.1003 77.3469 31.8053 78.2195 31.4858 79.0306Z" fill="white"/>
<path d="M0.68732 90.3551C1.32639 89.8635 2.08836 89.2736 2.97323 88.5854C5.33288 86.8402 7.29925 85.1197 8.87235 83.4237C10.47 81.7277 11.318 80.4372 11.4163 79.5524C11.613 78.4954 11.0231 77.1436 9.64661 75.4967C8.27015 73.8745 6.6356 72.3751 4.74297 70.9986C4.59549 70.8757 4.50946 70.7651 4.48488 70.6668C4.48488 70.5685 4.50946 70.4702 4.55862 70.3719L6.29149 66.39L8.72487 60.9333C8.92151 60.4908 9.09357 60.1344 9.24105 59.864C9.41311 59.5691 9.60974 59.4954 9.83096 59.6428C10.8633 60.5031 11.8834 61.4371 12.8911 62.4449C13.9235 63.4281 14.8083 64.5711 15.5457 65.8738C16.2831 67.1519 16.6518 68.8233 16.6518 70.888C16.6518 73.2968 16.2585 75.6196 15.472 77.8564C14.71 80.0685 13.6654 82.3667 12.3381 84.751C11.8465 85.6113 11.2935 86.3978 10.679 87.1106C10.089 87.7988 9.24105 88.401 8.13496 88.9172C7.05346 89.4334 4.7061 90.2568 1.09288 91.3875C0.650451 91.5104 0.343205 91.5104 0.171147 91.3875C0.121988 91.3383 0.121988 91.2277 0.171147 91.0557C0.220306 90.859 0.392364 90.6255 0.68732 90.3551Z" fill="white"/>
</svg>
