<svg width="38" height="39" viewBox="0 0 38 39" fill="none" xmlns="http://www.w3.org/2000/svg">
<path fill-rule="evenodd" clip-rule="evenodd" d="M25.6187 14.7607C32.0854 14.7607 37.3285 20.003 37.3286 26.4697C37.3286 32.9366 32.0855 38.1797 25.6187 38.1797C19.1519 38.1796 13.9097 32.9365 13.9097 26.4697C13.9098 20.0031 19.152 14.7609 25.6187 14.7607ZM30.3315 20.4561C30.0626 20.19 29.6159 20.1902 29.3413 20.4561L25.6187 24.0654L21.8999 20.4561C21.6254 20.19 21.1785 20.1901 20.9067 20.4561L19.4175 21.9004C19.1457 22.1612 19.1458 22.5943 19.4175 22.8633L23.1362 26.4697L19.4175 30.0791C19.1429 30.3453 19.143 30.7757 19.4175 31.042L20.9067 32.4844C21.1785 32.7504 21.6254 32.7504 21.8999 32.4844L25.6187 28.877L29.3413 32.4844C29.6159 32.7502 30.0599 32.7505 30.3315 32.4844L31.8208 31.042C32.0951 30.7757 32.0953 30.3453 31.8208 30.0791L28.1011 26.4697L31.8237 22.8633C32.0951 22.5971 32.095 22.1646 31.8208 21.8984L30.3315 20.4561Z" fill="#69B0B2"/>
<path d="M15.3198 2.25684C21.7125 2.25684 27.0827 6.74433 28.4448 12.7324C27.6021 12.56 26.7317 12.465 25.8413 12.4512C24.454 7.95796 20.2761 4.7041 15.3198 4.7041C9.22631 4.70433 4.30833 9.6223 4.30811 15.7158C4.30811 20.5038 7.345 24.5648 11.6021 26.0859C11.5986 26.2137 11.5972 26.3421 11.5972 26.4707C11.5972 27.2284 11.6572 27.9721 11.7729 28.6973C10.2123 28.2701 8.76172 27.571 7.48193 26.6514L5.11084 30.3984L3.04639 29.0986L5.60791 25.0459C3.28517 22.6275 1.86084 19.329 1.86084 15.7158C1.86107 8.29839 7.90239 2.25706 15.3198 2.25684Z" fill="#69B0B2"/>
<path d="M16.5435 7.15137V14.4932H18.3247C17.2179 15.1687 16.2125 15.9936 15.3354 16.9395H14.0972V7.15137H16.5435Z" fill="#69B0B2"/>
<path d="M8.74365 2.60156C5.91428 4.02106 3.62506 6.31028 2.20557 9.13965L0.0258789 8.06934C1.68436 4.76671 4.37071 2.08036 7.67334 0.421875L8.74365 2.60156Z" fill="#69B0B2"/>
<path d="M22.9673 0.421875C26.2699 2.08036 28.9563 4.76671 30.6147 8.06934L28.4351 9.13965C27.0156 6.31029 24.7263 4.02107 21.897 2.60156L22.9673 0.421875Z" fill="#69B0B2"/>
</svg>
