<svg width="24" height="18" viewBox="0 0 24 18" fill="none" xmlns="http://www.w3.org/2000/svg">
<path d="M6.55586 7.93516H23.2902V10.1664H6.55586V7.93516ZM6.55586 1.24141H23.2902V3.47266H6.55586V1.24141ZM6.55586 14.6289H23.2902V16.8602H6.55586V14.6289ZM2.09336 7.37734C1.64954 7.37734 1.22389 7.55365 0.91006 7.86748C0.59623 8.18131 0.419922 8.60696 0.419922 9.05078C0.419922 9.4946 0.59623 9.92025 0.91006 10.2341C1.22389 10.5479 1.64954 10.7242 2.09336 10.7242C2.53718 10.7242 2.96283 10.5479 3.27666 10.2341C3.59049 9.92025 3.7668 9.4946 3.7668 9.05078C3.7668 8.60696 3.59049 8.18131 3.27666 7.86748C2.96283 7.55365 2.53718 7.37734 2.09336 7.37734ZM2.09336 14.0711C1.64954 14.0711 1.22389 14.2474 0.91006 14.5612C0.59623 14.8751 0.419922 15.3007 0.419922 15.7445C0.419922 16.1884 0.59623 16.614 0.91006 16.9278C1.22389 17.2417 1.64954 17.418 2.09336 17.418C2.53718 17.418 2.96283 17.2417 3.27666 16.9278C3.59049 16.614 3.7668 16.1884 3.7668 15.7445C3.7668 15.3007 3.59049 14.8751 3.27666 14.5612C2.96283 14.2474 2.53718 14.0711 2.09336 14.0711ZM2.09336 0.683594C1.64954 0.683594 1.22389 0.859902 0.91006 1.17373C0.59623 1.48756 0.419922 1.91321 0.419922 2.35703C0.419922 2.80085 0.59623 3.2265 0.91006 3.54033C1.22389 3.85416 1.64954 4.03047 2.09336 4.03047C2.53718 4.03047 2.96283 3.85416 3.27666 3.54033C3.59049 3.2265 3.7668 2.80085 3.7668 2.35703C3.7668 1.91321 3.59049 1.48756 3.27666 1.17373C2.96283 0.859902 2.53718 0.683594 2.09336 0.683594Z" fill="#69B0B2"/>
</svg>
