<svg width="17" height="21" viewBox="0 0 17 21" fill="none" xmlns="http://www.w3.org/2000/svg">
<path d="M15.9239 5.88163L10.9239 0.881635C10.7793 0.737019 10.5839 0.65625 10.38 0.65625H2.30311C1.45311 0.65625 0.764648 1.34471 0.764648 2.19471V19.1178C0.764648 19.9678 1.45311 20.6562 2.30311 20.6562H14.6108C15.4608 20.6562 16.1493 19.9678 16.1493 19.1178V6.42548C16.1493 6.22163 16.0685 6.02625 15.9239 5.88163ZM10.7646 15.2716H4.6108C4.18619 15.2716 3.84157 14.927 3.84157 14.5024C3.84157 14.0778 4.18619 13.7332 4.6108 13.7332H10.7646C11.1893 13.7332 11.5339 14.0778 11.5339 14.5024C11.5339 14.927 11.1893 15.2716 10.7646 15.2716ZM12.3031 12.1947H4.6108C4.18619 12.1947 3.84157 11.8501 3.84157 11.4255C3.84157 11.0009 4.18619 10.6562 4.6108 10.6562H12.3031C12.7277 10.6562 13.0723 11.0009 13.0723 11.4255C13.0723 11.8501 12.7277 12.1947 12.3031 12.1947ZM10.7646 6.8101C10.34 6.8101 9.99542 6.46548 9.99542 6.04087V2.12087L14.6846 6.8101H10.7646Z" fill="black"/>
</svg>
