<svg width="31" height="31" viewBox="0 0 31 31" fill="none" xmlns="http://www.w3.org/2000/svg">
<path d="M26.5951 10.1174L23.9518 12.7607L28.3317 17.1405L30.975 14.4972L26.5951 10.1174ZM22.2987 14.4138L10.1707 26.5418V30.9216H14.5506L26.6786 18.7936L22.2987 14.4138Z" fill="#69B0B2"/>
<path d="M18.8401 24.4985C19.4026 24.4985 19.8541 24.9545 19.8541 25.5131V25.618L18.945 26.5271H10.1855L12.2141 24.4985H18.8401Z" fill="#69B0B2"/>
<path d="M9.41686 24.4985L8.193 25.7223V26.5271H0.583984V25.5131C0.583984 24.9546 1.0355 24.4986 1.59796 24.4985H9.41686Z" fill="#69B0B2"/>
<path d="M22.8966 15.0122V21.4559H23.9113C23.9449 21.4559 23.9783 21.4572 24.0111 21.4604L21.9876 23.4845H13.2281L17.8261 18.8865V21.4559H19.8541V16.8586L22.2987 14.4138L22.8966 15.0122Z" fill="#69B0B2"/>
<path d="M7.68376 9.28496V21.4559H9.71171V9.28496H12.7549V21.1604L10.4308 23.4845H2.61258V22.4699C2.61274 21.9114 3.06413 21.456 3.62656 21.4559H4.64118V9.28496H7.68376Z" fill="#69B0B2"/>
<path d="M17.8261 9.28496V16.0892L14.7829 19.1325V9.28496H17.8261Z" fill="#69B0B2"/>
<path d="M22.8966 9.28496V11.0193L22.5535 11.3625L22.2986 11.6168L19.8541 14.0613V9.28496H22.8966Z" fill="#69B0B2"/>
<path d="M26.9538 6.24238V7.257H24.9252C24.9251 7.8155 24.4737 8.27093 23.9113 8.27098H3.62656C3.0641 8.27093 2.61269 7.8155 2.61258 7.257H0.583984V6.24238L13.7689 0.157227L26.9538 6.24238Z" fill="#69B0B2"/>
</svg>
