<svg width="96" height="81" viewBox="0 0 96 81" fill="none" xmlns="http://www.w3.org/2000/svg">
<path d="M84.9413 0.419701C84.1622 0.442408 83.4225 0.767427 82.8788 1.32595L8.87883 75.326C8.59092 75.6024 8.36106 75.9335 8.20271 76.2999C8.04436 76.6663 7.9607 77.0606 7.95665 77.4597C7.95259 77.8588 8.02821 78.2547 8.17908 78.6242C8.32994 78.9938 8.55303 79.3295 8.83526 79.6117C9.11749 79.8939 9.4532 80.117 9.82273 80.2679C10.1923 80.4188 10.5882 80.4944 10.9873 80.4903C11.3864 80.4863 11.7807 80.4026 12.1471 80.2443C12.5135 80.0859 12.8446 79.856 13.121 79.5681L33.832 58.8572C37.3693 62.6855 42.4006 65.1072 47.9999 65.1072C58.6599 65.1072 67.3398 56.4269 67.3398 45.7869C67.3398 40.1872 64.9184 35.1413 61.0898 31.5994L70.1054 22.5838C79.8089 28.2653 87.3376 37.4407 90.1015 48.1853C90.4415 49.5453 91.6599 50.447 92.9999 50.447C93.2399 50.447 93.4982 50.4255 93.7382 50.3455C95.3582 49.9455 96.3184 48.3088 95.8984 46.7088C92.8187 34.7035 84.9224 24.5932 74.5546 18.1345L87.121 5.56814C87.5538 5.14663 87.8493 4.60428 87.9688 4.01207C88.0882 3.41986 88.0261 2.80537 87.7906 2.24904C87.5551 1.6927 87.1571 1.22043 86.6487 0.894029C86.1403 0.56763 85.5452 0.402309 84.9413 0.419701ZM47.9804 10.447C25.6404 10.447 5.50149 25.6888 0.10149 46.7088C-0.31851 48.3088 0.641647 49.9455 2.26165 50.3455C3.86165 50.7655 5.49836 49.8053 5.89837 48.1853C10.5584 30.0853 28.6604 16.447 47.9804 16.447C51.4004 16.447 54.779 16.8653 58.039 17.6853L62.9609 12.7674C58.1809 11.2474 53.1404 10.447 47.9804 10.447ZM47.9999 26.447C37.3399 26.447 28.6796 35.1269 28.6796 45.7869C28.6796 46.1869 28.6987 46.6056 28.7187 47.0056L49.2382 26.4861C48.8182 26.4661 48.4199 26.447 47.9999 26.447Z" fill="white"/>
</svg>
