<svg width="13" height="17" viewBox="0 0 13 17" fill="none" xmlns="http://www.w3.org/2000/svg">
<path d="M0.574463 16.1399V0.984863H6.6424C7.75732 0.984863 8.68725 1.15013 9.43217 1.48066C10.1771 1.81119 10.737 2.26998 11.112 2.85704C11.4869 3.43917 11.6743 4.1101 11.6743 4.86982C11.6743 5.46182 11.5559 5.98228 11.3192 6.43121C11.0824 6.8752 10.7568 7.24026 10.3424 7.52639C9.9329 7.80759 9.46424 8.00739 8.93638 8.12579V8.27379C9.51357 8.29845 10.0538 8.46125 10.557 8.76218C11.0651 9.06311 11.477 9.48491 11.7927 10.0276C12.1085 10.5653 12.2663 11.2066 12.2663 11.9515C12.2663 12.7557 12.0665 13.4735 11.6669 14.1049C11.2723 14.7315 10.6877 15.2272 9.91317 15.5923C9.13864 15.9574 8.18405 16.1399 7.0494 16.1399H0.574463ZM3.77863 13.5203H6.3908C7.28373 13.5203 7.93492 13.3501 8.34438 13.0097C8.75384 12.6644 8.95858 12.2056 8.95858 11.6334C8.95858 11.214 8.85744 10.844 8.65518 10.5234C8.45291 10.2027 8.16432 9.9511 7.78939 9.76857C7.41939 9.58604 6.97786 9.49477 6.4648 9.49477H3.77863V13.5203ZM3.77863 7.3266H6.154C6.59307 7.3266 6.9828 7.25013 7.32319 7.0972C7.66852 6.93933 7.93985 6.71734 8.13718 6.43121C8.33945 6.14508 8.44058 5.80221 8.44058 5.40262C8.44058 4.85502 8.24572 4.41349 7.85599 4.07803C7.47119 3.74257 6.9236 3.57484 6.2132 3.57484H3.77863V7.3266Z" fill="black"/>
<path d="M0.574463 16.1399V0.984863H6.6424C7.75732 0.984863 8.68725 1.15013 9.43217 1.48066C10.1771 1.81119 10.737 2.26998 11.112 2.85704C11.4869 3.43917 11.6743 4.1101 11.6743 4.86982C11.6743 5.46182 11.5559 5.98228 11.3192 6.43121C11.0824 6.8752 10.7568 7.24026 10.3424 7.52639C9.9329 7.80759 9.46424 8.00739 8.93638 8.12579V8.27379C9.51357 8.29845 10.0538 8.46125 10.557 8.76218C11.0651 9.06311 11.477 9.48491 11.7927 10.0276C12.1085 10.5653 12.2663 11.2066 12.2663 11.9515C12.2663 12.7557 12.0665 13.4735 11.6669 14.1049C11.2723 14.7315 10.6877 15.2272 9.91317 15.5923C9.13864 15.9574 8.18405 16.1399 7.0494 16.1399H0.574463ZM3.77863 13.5203H6.3908C7.28373 13.5203 7.93492 13.3501 8.34438 13.0097C8.75384 12.6644 8.95858 12.2056 8.95858 11.6334C8.95858 11.214 8.85744 10.844 8.65518 10.5234C8.45291 10.2027 8.16432 9.9511 7.78939 9.76857C7.41939 9.58604 6.97786 9.49477 6.4648 9.49477H3.77863V13.5203ZM3.77863 7.3266H6.154C6.59307 7.3266 6.9828 7.25013 7.32319 7.0972C7.66852 6.93933 7.93985 6.71734 8.13718 6.43121C8.33945 6.14508 8.44058 5.80221 8.44058 5.40262C8.44058 4.85502 8.24572 4.41349 7.85599 4.07803C7.47119 3.74257 6.9236 3.57484 6.2132 3.57484H3.77863V7.3266Z" fill="white"/>
</svg>
