<svg width="17" height="21" viewBox="0 0 17 21" fill="none" xmlns="http://www.w3.org/2000/svg">
<path d="M12.2221 0.752441H14.0573V10.7867C14.0573 11.8227 13.8131 12.7477 13.3247 13.5617C12.8412 14.3708 12.1579 15.0096 11.2749 15.4783C10.3918 15.942 9.35585 16.1739 8.16692 16.1739C6.978 16.1739 5.94202 15.942 5.05896 15.4783C4.1759 15.0096 3.49017 14.3708 3.00178 13.5617C2.51832 12.7477 2.27659 11.8227 2.27659 10.7867V0.752441H4.11177V10.6387C4.11177 11.3787 4.27457 12.0373 4.60016 12.6145C4.92576 13.1868 5.38949 13.6382 5.99135 13.9687C6.59814 14.2943 7.32333 14.4571 8.16692 14.4571C9.01052 14.4571 9.73571 14.2943 10.3425 13.9687C10.9493 13.6382 11.413 13.1868 11.7337 12.6145C12.0593 12.0373 12.2221 11.3787 12.2221 10.6387V0.752441Z" fill="black"/>
<path d="M12.2221 0.752441H14.0573V10.7867C14.0573 11.8227 13.8131 12.7477 13.3247 13.5617C12.8412 14.3708 12.1579 15.0096 11.2749 15.4783C10.3918 15.942 9.35585 16.1739 8.16692 16.1739C6.978 16.1739 5.94202 15.942 5.05896 15.4783C4.1759 15.0096 3.49017 14.3708 3.00178 13.5617C2.51832 12.7477 2.27659 11.8227 2.27659 10.7867V0.752441H4.11177V10.6387C4.11177 11.3787 4.27457 12.0373 4.60016 12.6145C4.92576 13.1868 5.38949 13.6382 5.99135 13.9687C6.59814 14.2943 7.32333 14.4571 8.16692 14.4571C9.01052 14.4571 9.73571 14.2943 10.3425 13.9687C10.9493 13.6382 11.413 13.1868 11.7337 12.6145C12.0593 12.0373 12.2221 11.3787 12.2221 10.6387V0.752441Z" fill="white"/>
<path d="M0.441406 18.8844H16.8143V20.3728H0.441406V18.8844Z" fill="black"/>
<path d="M0.441406 18.8844H16.8143V20.3728H0.441406V18.8844Z" fill="white"/>
</svg>
