<svg width="36" height="40" viewBox="0 0 36 40" fill="none" xmlns="http://www.w3.org/2000/svg">
<path d="M15.0695 0.15625C9.94886 0.15625 5.78289 4.32222 5.78289 9.44285C5.78289 14.5635 9.94886 18.7294 15.0695 18.7294C20.1901 18.7294 24.3561 14.5635 24.3561 9.44285C24.3561 4.32222 20.1901 0.15625 15.0695 0.15625ZM25.2847 18.7294C19.6431 18.7294 15.0695 23.3031 15.0695 28.9447C15.0695 34.5863 19.6431 39.16 25.2847 39.16C30.9264 39.16 35.5 34.5863 35.5 28.9447C35.5 23.3031 30.9264 18.7294 25.2847 18.7294ZM4.38991 22.4441C2.0859 22.4441 0.210938 24.319 0.210938 26.623V27.7367C0.210938 33.1007 6.73756 37.3026 15.0695 37.3026C15.5682 37.3026 16.0593 37.2852 16.5441 37.2555C14.4853 35.0898 13.2122 32.169 13.2122 28.9447C13.2122 26.5488 13.9185 24.3218 15.1221 22.4441H4.38991ZM30.8567 24.3014C31.0942 24.3014 31.3317 24.3919 31.5133 24.5735C31.8764 24.9366 31.8764 25.5235 31.5133 25.8866L24.084 33.3159C23.9029 33.497 23.6652 33.588 23.4274 33.588C23.1897 33.588 22.9519 33.497 22.7708 33.3159L19.0562 29.6013C18.6931 29.2382 18.6931 28.6512 19.0562 28.2881C19.4193 27.925 20.0063 27.925 20.3694 28.2881L23.4274 31.3462L30.2001 24.5735C30.3817 24.3919 30.6192 24.3014 30.8567 24.3014Z" fill="#69B0B2"/>
</svg>
