<svg width="135" height="134" viewBox="0 0 135 134" fill="none" xmlns="http://www.w3.org/2000/svg">
<path fill-rule="evenodd" clip-rule="evenodd" d="M5.42338 0.402344C2.58474 0.402344 0.269531 2.71755 0.269531 5.55619V88.0177C0.269531 90.8564 2.58474 93.1716 5.42338 93.1716H46.6541H87.8849C90.7235 93.1716 93.0388 90.8564 93.0388 88.0177V5.55619C93.0388 2.71755 90.7235 0.402344 87.8849 0.402344H5.42338ZM10.5772 10.71H82.7311V72.5562H10.5772V10.71ZM46.6541 20.6956C40.7151 20.6956 35.7022 24.7825 35.7022 32.4528C35.7022 37.4657 37.9369 42.5189 41.0171 45.6596C42.2251 48.8002 40.1716 50.0081 39.7287 50.1692C33.5078 52.424 26.1998 56.5914 26.1998 60.6379V67.2413H67.1085V60.6379C67.1085 56.4706 59.7803 52.3233 53.2575 50.1692C52.9555 50.0685 51.1034 49.2431 52.2912 45.6596C55.3513 42.5189 57.7671 37.4456 57.7671 32.4528C57.7671 24.7825 52.5931 20.6956 46.6541 20.6956Z" fill="black" fill-opacity="0.36"/>
<path d="M98.1926 15.3807V25.8495L107.534 27.46L98.1926 81.5754V88.0177C98.1926 93.7152 93.5622 98.3254 87.8849 98.3254H33.2864L98.6758 109.599C101.474 110.083 104.152 108.21 104.635 105.412L118.486 24.0778C118.969 21.2794 117.097 18.6019 114.298 18.1187L98.1926 15.3807Z" fill="black" fill-opacity="0.36"/>
<path d="M120.902 41.1499L119.13 51.2966L122.834 52.1019L108.661 112.337L106.568 111.854C104.695 113.666 102.239 114.753 99.4811 114.753C98.9174 114.753 98.2933 114.693 97.7094 114.592L26.3609 102.352L24.9114 108.472C24.2873 111.23 26.0186 114.109 28.7767 114.753L108.983 133.597C111.742 134.261 114.6 132.49 115.265 129.732L133.947 49.5249C134.612 46.7668 133.021 43.9081 130.243 43.2437L120.902 41.1499Z" fill="black" fill-opacity="0.36"/>
</svg>
