<svg width="13" height="13" viewBox="0 0 13 13" fill="none" xmlns="http://www.w3.org/2000/svg">
<path d="M4.13039 0.0703125C2.1773 0.0703125 0.583984 1.66363 0.583984 3.61672V8.74175C0.583984 10.6948 2.1773 12.2882 4.13039 12.2882H9.25542C11.2085 12.2882 12.8018 10.6948 12.8018 8.74175V3.61672C12.8018 1.66363 11.2085 0.0703125 9.25542 0.0703125H4.13039ZM4.13039 1.01015H9.25542C10.7001 1.01015 11.862 2.17025 11.862 3.61672V8.74175C11.862 10.1864 10.7019 11.3483 9.25542 11.3483H4.13039C2.68576 11.3483 1.52382 10.1882 1.52382 8.74175V3.61672C1.52382 2.17209 2.68393 1.01015 4.13039 1.01015ZM10.2173 1.94998C9.82813 1.94998 9.51241 2.26571 9.51241 2.65486C9.51241 3.04401 9.82813 3.35973 10.2173 3.35973C10.6064 3.35973 10.9222 3.04401 10.9222 2.65486C10.9222 2.26571 10.6064 1.94998 10.2173 1.94998ZM6.69291 2.88982C4.88116 2.88982 3.40349 4.36748 3.40349 6.17923C3.40349 7.99099 4.88116 9.46865 6.69291 9.46865C8.50466 9.46865 9.98233 7.99099 9.98233 6.17923C9.98233 4.36748 8.50466 2.88982 6.69291 2.88982ZM6.69291 3.82965C7.99619 3.82965 9.04249 4.87595 9.04249 6.17923C9.04249 7.48252 7.99619 8.52882 6.69291 8.52882C5.38962 8.52882 4.34332 7.48252 4.34332 6.17923C4.34332 4.87595 5.38962 3.82965 6.69291 3.82965Z" fill="white"/>
</svg>
