<svg width="12" height="12" viewBox="0 0 12 12" fill="none" xmlns="http://www.w3.org/2000/svg">
<path d="M5.60064 0.521489C4.77938 0.523189 4.8406 0.742531 5.27418 1.17441L6.67525 2.57548L4.26759 4.98315C3.76939 5.48134 3.76939 6.2805 4.26759 6.77869L5.32859 7.82609C5.82679 8.32259 6.62594 8.32429 7.12414 7.82609L9.5318 5.43203L10.9057 6.8059C11.3852 7.28539 11.5586 7.30069 11.5586 6.47944V2.00417C11.5586 0.507886 11.5739 0.521489 10.0759 0.521489H5.60064ZM2.36322 2.69791C1.19169 2.69791 0.241211 3.64839 0.241211 4.81992V9.71686C0.241211 10.8884 1.19169 11.8389 2.36322 11.8389H7.26016C8.43169 11.8389 9.38217 10.8884 9.38217 9.71686V6.94192L8.07632 8.24778V9.71686C8.07632 10.1674 7.71075 10.533 7.26016 10.533H2.36322C1.91263 10.533 1.54706 10.1674 1.54706 9.71686V4.81992C1.54706 4.36933 1.91263 4.00376 2.36322 4.00376H3.85951L5.16536 2.69791H2.36322Z" fill="white"/>
</svg>
