<svg width="620" height="160" viewBox="0 0 620 160" fill="none" xmlns="http://www.w3.org/2000/svg">
<path d="M558.977 47.1283C562.935 25.8013 576.998 9.84103 599.409 1.24306C602.048 0.230113 602.47 0.149632 602.261 0.698464C602.182 0.904201 602.118 17.6965 602.118 38.016V74.959L600.056 75.4758C590.645 77.8327 578.81 85.4038 572.322 93.2181C555.685 113.256 558.337 142.783 577.962 156.02C578.874 156.636 579.721 157.223 579.845 157.326C580.075 157.517 578.176 159.638 577.774 159.638C577.236 159.638 571.737 155.314 570.107 153.61C565.378 148.666 560.889 139.662 559.241 131.814C558.368 127.661 558.278 122.963 558.355 85.7723L558.429 50.08L558.977 47.1283Z" fill="white"/>
<path d="M610.304 26.0125C612.128 24.8174 614.79 23.5352 617.077 22.7504C618.113 22.3946 619.147 22.0957 619.374 22.0866C619.764 22.0715 619.786 23.8063 619.786 55.3396V88.6084L616.665 88.6435C590.392 88.9376 567.706 112.45 572.399 134.52C574.08 142.424 579.378 150.42 585.12 153.718C585.459 153.913 585.396 154.056 584.641 154.82L583.774 155.698L582.428 154.773C561.742 140.541 561.966 108.837 582.871 92.0037C589.877 86.3617 600.67 81.237 607.948 80.0964L608.949 79.9397V53.4196V26.9002L610.304 26.0125Z" fill="white"/>
<path d="M579.937 118.977C585.747 106.753 596.731 98.6526 611.024 96.0518C613.516 95.598 619.296 95.4836 619.691 95.8806C619.781 95.9707 619.665 97.4291 619.433 99.1222L619.012 102.2L618.162 102.203C604.276 102.264 589.156 111.625 584.196 123.231C580.322 132.296 582.601 143.264 589.595 149.213L590.692 150.147L589.88 150.992C588.745 152.174 588.713 152.159 585.657 149.06C577.744 141.037 575.374 128.575 579.937 118.977Z" fill="white"/>
<path d="M588.888 128.683C591.94 118.932 600.615 112.117 612.836 109.873C613.743 109.706 614.941 109.56 615.498 109.549L616.51 109.528L616.347 110.413C615.725 113.805 614.972 115.426 614.015 115.433C611.757 115.452 604.91 117.864 601.984 119.671C592.884 125.289 589.643 135.835 594.603 143.682L595.316 144.811L594.535 145.662C594.106 146.13 593.717 146.569 593.672 146.635C593.311 147.164 589.627 141.76 588.891 139.623C588.074 137.246 588.071 131.292 588.888 128.683Z" fill="white"/>
<path d="M551.642 47.1283C547.684 25.8013 533.621 9.84103 511.211 1.24306C508.572 0.230113 508.149 0.149632 508.359 0.698464C508.437 0.904201 508.502 17.6965 508.502 38.016V74.959L510.563 75.4758C519.974 77.8327 531.81 85.4038 538.297 93.2181C554.934 113.256 552.282 142.783 532.657 156.02C531.746 156.636 530.898 157.223 530.775 157.326C530.544 157.517 532.443 159.638 532.846 159.638C533.383 159.638 538.882 155.314 540.512 153.61C545.241 148.666 549.73 139.662 551.378 131.814C552.251 127.661 552.341 122.963 552.264 85.7723L552.19 50.08L551.642 47.1283Z" fill="white"/>
<path d="M500.315 26.0125C498.492 24.8174 495.829 23.5352 493.542 22.7504C492.506 22.3946 491.472 22.0957 491.246 22.0866C490.855 22.0715 490.833 23.8063 490.833 55.3396V88.6084L493.955 88.6435C520.227 88.9376 542.913 112.45 538.22 134.52C536.54 142.424 531.241 150.42 525.499 153.718C525.161 153.913 525.223 154.056 525.978 154.82L526.846 155.698L528.192 154.773C548.877 140.541 548.654 108.837 527.748 92.0037C520.742 86.3617 509.949 81.237 502.671 80.0964L501.67 79.9397V53.4196V26.9002L500.315 26.0125Z" fill="white"/>
<path d="M530.682 118.977C524.872 106.753 513.888 98.6526 499.595 96.0518C497.103 95.598 491.323 95.4836 490.928 95.8806C490.838 95.9707 490.954 97.4291 491.186 99.1222L491.607 102.2L492.457 102.203C506.343 102.264 521.464 111.625 526.423 123.231C530.297 132.296 528.018 143.264 521.025 149.213L519.927 150.147L520.739 150.992C521.874 152.174 521.906 152.159 524.962 149.06C532.875 141.037 535.245 128.575 530.682 118.977Z" fill="white"/>
<path d="M521.731 128.683C518.679 118.932 510.004 112.117 497.783 109.873C496.876 109.706 495.678 109.56 495.122 109.549L494.11 109.528L494.272 110.413C494.894 113.805 495.647 115.426 496.605 115.433C498.862 115.452 505.709 117.864 508.635 119.671C517.735 125.289 520.976 135.835 516.017 143.682L515.303 144.811L516.084 145.662C516.514 146.13 516.902 146.569 516.947 146.635C517.308 147.164 520.993 141.76 521.728 139.623C522.546 137.246 522.548 131.292 521.731 128.683Z" fill="white"/>
<path fill-rule="evenodd" clip-rule="evenodd" d="M51.8375 34.8215L61.6241 30.4175V40.1552H51.8375V34.8215ZM43.7146 85.3696H43.5678L43.6168 85.3696C43.6494 85.3697 43.682 85.3698 43.7146 85.3696ZM42.5891 85.3696C41.9754 85.3696 41.3719 85.3437 40.7786 85.2921V85.3696H42.5891ZM66.86 85.3696C66.37 85.3696 65.8866 85.3533 65.4098 85.3206H67.9854V85.3696H66.86Z" fill="white"/>
<path fill-rule="evenodd" clip-rule="evenodd" d="M65.4098 85.3206C65.2892 85.3124 65.1691 85.3031 65.0494 85.2928V85.3206H65.4098Z" fill="white"/>
<path fill-rule="evenodd" clip-rule="evenodd" d="M127.341 85.3696C126.729 85.3696 126.126 85.3431 125.531 85.2901V85.3696H127.341Z" fill="white"/>
<path fill-rule="evenodd" clip-rule="evenodd" d="M271.401 85.3696H271.548C271.499 85.3699 271.45 85.3696 271.401 85.3696Z" fill="white"/>
<path fill-rule="evenodd" clip-rule="evenodd" d="M289.457 30.4175L279.671 34.8215V40.1552H289.457V30.4175ZM271.548 85.3696C271.499 85.3699 271.45 85.3696 271.401 85.3696L271.45 85.3696C271.483 85.3697 271.515 85.3698 271.548 85.3696ZM268.612 85.3696H269.737C269.358 85.3696 268.983 85.3597 268.612 85.3399V85.3696Z" fill="white"/>
<path fill-rule="evenodd" clip-rule="evenodd" d="M313.386 85.3696C313.442 85.3702 313.499 85.37 313.555 85.3698C313.58 85.3697 313.605 85.3696 313.63 85.3696C313.57 85.3696 313.509 85.3693 313.449 85.3688L313.386 85.3696ZM315.979 85.3696L316.342 85.3687L316.42 85.3696C316.394 85.3701 316.368 85.3694 316.342 85.3687C316.318 85.368 316.294 85.3673 316.269 85.3676L316.159 85.3688C316.099 85.3693 316.039 85.3696 315.979 85.3696Z" fill="white"/>
<path fill-rule="evenodd" clip-rule="evenodd" d="M313.386 85.3696H313.63C313.57 85.3696 313.509 85.3693 313.449 85.3688L313.386 85.3696ZM315.979 85.3696C316.028 85.3696 316.077 85.3699 316.127 85.3702C316.224 85.3709 316.322 85.3716 316.42 85.3696C316.394 85.3701 316.368 85.3694 316.342 85.3687C316.318 85.368 316.294 85.3673 316.269 85.3676L316.159 85.3688C316.099 85.3693 316.039 85.3696 315.979 85.3696Z" fill="white"/>
<path fill-rule="evenodd" clip-rule="evenodd" d="M392.021 85.3696C392.065 85.37 392.108 85.3698 392.152 85.3697L392.217 85.3696L392.135 85.3694L392.021 85.3696Z" fill="white"/>
<path fill-rule="evenodd" clip-rule="evenodd" d="M392.021 85.3696H392.217L392.135 85.3694L392.021 85.3696Z" fill="white"/>
<path fill-rule="evenodd" clip-rule="evenodd" d="M43.5678 85.3696H43.7146C47.5148 85.3438 50.9121 84.3163 53.9063 82.2877C54.3341 81.9979 54.7536 81.6877 55.1649 81.357C58.0601 83.662 61.355 84.9739 65.0494 85.2928C65.1691 85.3031 65.2892 85.3124 65.4098 85.3206H67.9854H102.924H103.12C107.98 85.3206 112.107 83.9668 115.5 81.2592C118.505 83.6184 121.849 84.9621 125.531 85.2901C126.126 85.3431 126.729 85.3696 127.341 85.3696H128.467H129.348C133.752 85.3696 137.617 84.0321 140.945 81.357C144.109 83.9016 147.779 85.2391 151.955 85.3696H152.297C156.538 85.2717 160.257 83.9342 163.454 81.357C166.716 83.9342 170.468 85.2717 174.709 85.3696H175.345C180.271 85.2391 184.512 83.4122 188.068 79.889C191.721 76.2027 193.548 71.7824 193.548 66.6281V45.44L182.342 49.844V66.5792C182.342 68.667 181.592 70.4449 180.092 71.9129C178.754 73.2504 176.96 74.0007 174.709 74.1639C172.849 74.066 171.235 73.332 169.864 71.9619L169.767 71.864C170.289 70.2329 170.55 68.4876 170.55 66.6281V45.44L159.344 49.844V66.5792C159.344 68.667 158.594 70.4449 157.093 71.9129C155.755 73.2504 154.157 73.9844 152.297 74.1149H151.955C150.161 73.9518 148.627 73.2341 147.355 71.9619L147.257 71.864C147.779 70.2329 148.04 68.4876 148.04 66.6281V45.44L136.835 49.844V66.5792C136.835 68.667 136.084 70.4449 134.584 71.9129C133.246 73.2504 131.648 73.9844 129.788 74.1149H126.442C124.768 73.9287 123.306 73.211 122.057 71.9619L122.008 71.9129L121.861 71.7661C122.318 70.135 122.546 68.4224 122.546 66.6281V64.1815C122.546 59.0272 120.719 54.6069 117.065 50.9206C113.379 47.2669 108.959 45.44 103.805 45.44H83.9866L79.5826 56.6458H103.805C105.86 56.6458 107.621 57.3798 109.089 58.8477C110.59 60.3157 111.34 62.0937 111.34 64.1815V66.6281C111.34 68.716 110.59 70.4939 109.089 71.9619C107.948 73.1036 106.626 73.8213 105.126 74.1149V58.652H92.1095C86.9226 58.652 82.5023 60.4789 78.8486 64.1325C75.9779 66.9707 74.2326 70.2981 73.6128 74.1149H65.9605C64.2861 73.9287 62.8244 73.211 61.5752 71.9619L61.4773 71.864C61.9993 70.2329 62.2603 68.4876 62.2603 66.6281V45.44L51.0545 49.844V66.5792C51.0545 68.667 50.3042 70.4449 48.8036 71.9129C47.4661 73.2504 45.8676 73.9844 44.0081 74.1149H41.6896C40.0152 73.9287 38.5535 73.211 37.3043 71.9619L37.1086 71.7661C37.5653 70.135 37.7936 68.4224 37.7936 66.6281V64.1815C37.7936 59.0272 35.9668 54.6069 32.3131 50.9206C28.6268 47.2669 24.2065 45.44 19.0522 45.44H10.1822L5.77824 56.6458H19.0522C21.1074 56.6458 22.869 57.3798 24.337 58.8477C25.8376 60.3157 26.5879 62.0937 26.5879 64.1815V66.6281C26.5879 68.716 25.8376 70.4939 24.337 71.9619C22.869 73.4299 21.1074 74.1639 19.0522 74.1639H4.61688L0.212891 85.3696H19.0522C23.5214 85.3696 27.4361 83.9994 30.7962 81.2592C33.723 83.6232 37.0505 84.9675 40.7786 85.2921C41.3719 85.3437 41.9754 85.3696 42.5891 85.3696H43.5678ZM86.8247 72.0597C86.1723 72.6795 85.6667 73.3646 85.3078 74.1149H93.6754V69.8577H92.1095C90.0543 69.8577 88.2927 70.5917 86.8247 72.0597Z" fill="white"/>
<path d="M220.51 79.889C224.197 83.5427 228.617 85.3696 233.771 85.3696H244.047L248.451 74.1639H233.771C231.716 74.1639 229.955 73.4299 228.487 71.9619C226.986 70.4939 226.236 68.716 226.236 66.6281V64.1815C226.236 62.0937 226.986 60.3157 228.487 58.8477C229.955 57.3798 231.716 56.6458 233.771 56.6458H250.996V66.6281C250.996 71.7824 252.823 76.2027 256.476 79.889C259.892 83.274 263.937 85.0909 268.612 85.3399C268.983 85.3597 269.358 85.3696 269.737 85.3696H271.401C271.45 85.3696 271.499 85.3699 271.548 85.3696C276.607 85.3349 280.962 83.5078 284.613 79.889C288.267 76.2027 290.093 71.7824 290.093 66.6281V45.44L278.888 49.844V66.5792C278.888 68.667 278.137 70.4449 276.637 71.9129C275.299 73.2504 273.701 73.9844 271.841 74.1149H268.838C267.163 73.9287 265.702 73.211 264.452 71.9619C262.952 70.4939 262.202 68.716 262.202 66.6281V56.6458H264.012V45.44H233.771C228.617 45.44 224.197 47.2669 220.51 50.9206C216.857 54.6069 215.03 59.0272 215.03 64.1815V66.6281C215.03 71.7824 216.857 76.2027 220.51 79.889Z" fill="white"/>
<path fill-rule="evenodd" clip-rule="evenodd" d="M306.144 28.8027L294.938 33.2067V66.6281C294.938 71.7824 296.765 76.2027 300.418 79.889C304.046 83.4844 308.368 85.3122 313.386 85.3696L313.449 85.3688C313.509 85.3693 313.57 85.3696 313.63 85.3696H315.979C316.039 85.3696 316.099 85.3693 316.159 85.3688L316.269 85.3676C316.294 85.3673 316.318 85.368 316.342 85.3687C316.368 85.3694 316.394 85.3701 316.42 85.3696C320.707 85.2822 324.491 83.9091 327.772 81.2592C331.132 83.9994 335.047 85.3696 339.516 85.3696H349.205C354.359 85.3696 358.779 83.5427 362.466 79.889C366.119 76.2027 367.946 71.7824 367.946 66.6281V64.1815C367.946 59.0272 366.119 54.6069 362.466 50.9206C358.779 47.2669 354.359 45.44 349.205 45.44H318.964V56.6458H320.775V66.6281C320.775 68.4224 321.003 70.135 321.46 71.7661L321.264 71.9619C319.902 73.3239 318.287 74.0541 316.42 74.1524V74.1149H313.19C311.331 73.9844 309.732 73.2504 308.395 71.9129C306.894 70.4449 306.144 68.667 306.144 66.5792V28.8027ZM354.49 58.8477C353.022 57.3798 351.26 56.6458 349.205 56.6458H331.98V66.6281C331.98 68.716 332.731 70.4939 334.231 71.9619C335.699 73.4299 337.461 74.1639 339.516 74.1639H349.205C351.26 74.1639 353.022 73.4299 354.49 71.9619C355.99 70.4939 356.741 68.716 356.741 66.6281V64.1815C356.741 62.0937 355.99 60.3157 354.49 58.8477Z" fill="white"/>
<path d="M373.525 33.2067L384.73 28.8027V66.5792C384.73 68.667 385.481 70.4449 386.981 71.9129C388.319 73.2504 389.917 73.9844 391.777 74.1149H392.021H395.006H396.279C398.138 73.9844 399.737 73.2504 401.074 71.9129C402.575 70.4449 403.325 68.667 403.325 66.5792V49.844L414.531 45.44V66.6281C414.531 68.4876 414.27 70.2329 413.748 71.864L413.846 71.9619C415.118 73.2341 416.651 73.9518 418.445 74.1149H418.788C420.647 73.9844 422.246 73.2504 423.583 71.9129C425.084 70.4449 425.834 68.667 425.834 66.5792V49.844L437.04 45.44V66.6281C437.04 68.4876 436.779 70.2329 436.257 71.864L436.355 71.9619C437.725 73.332 439.34 74.066 441.199 74.1639C443.45 74.0007 445.245 73.2504 446.582 71.9129C448.083 70.4449 448.833 68.667 448.833 66.5792V49.844L460.039 45.44V66.6281C460.039 71.7824 458.212 76.2027 454.558 79.889C451.002 83.4122 446.761 85.2391 441.836 85.3696H441.199C436.958 85.2717 433.207 83.9342 429.945 81.357C426.748 83.9342 423.029 85.2717 418.788 85.3696H418.445C414.27 85.2391 410.6 83.9016 407.435 81.357C404.108 84.0321 400.242 85.3696 395.838 85.3696H395.006H392.217L392.135 85.3694L392.021 85.3696C386.983 85.3235 382.644 83.4961 379.005 79.889C375.351 76.2027 373.525 71.7824 373.525 66.6281V33.2067Z" fill="white"/>
<path d="M2.45678 122.457C5.79144 125.044 9.81173 126.337 14.5177 126.337C16.6369 126.337 18.3354 125.932 19.6131 125.122C20.8909 124.28 21.5298 123.127 21.5298 121.662C21.5298 121.008 21.3584 120.431 21.0156 119.933C20.7039 119.434 20.3299 119.044 19.8936 118.764C19.4885 118.483 18.8652 118.234 18.0237 118.016C17.2134 117.767 16.5122 117.595 15.9201 117.502C15.3591 117.377 14.5488 117.237 13.4892 117.081C12.4608 116.925 11.5881 116.785 10.8713 116.66C10.1857 116.504 9.31309 116.286 8.25348 116.006C7.22503 115.725 6.35241 115.367 5.63561 114.931C4.94998 114.494 4.26435 113.98 3.57872 113.388C2.89309 112.765 2.37886 112.001 2.03605 111.097C1.69323 110.194 1.52182 109.181 1.52182 108.059C1.52182 105.067 2.65935 102.776 4.9344 101.187C7.24061 99.5974 10.3571 98.8027 14.2839 98.8027C18.4289 98.8027 22.4024 99.7689 26.2046 101.701L24.0074 105.955C20.7974 104.272 17.4628 103.431 14.0034 103.431C11.7595 103.431 10.0455 103.82 8.8612 104.599C7.70809 105.379 7.13154 106.438 7.13154 107.778C7.13154 108.402 7.27178 108.963 7.55226 109.461C7.86391 109.929 8.22231 110.318 8.62746 110.63C9.06377 110.91 9.64032 111.175 10.3571 111.425C11.0739 111.643 11.7128 111.814 12.2738 111.939C12.8659 112.063 13.5983 112.188 14.4709 112.313C15.3747 112.469 15.998 112.578 16.3408 112.64C16.6836 112.671 17.3069 112.78 18.2107 112.967C19.1145 113.154 19.769 113.326 20.1741 113.481C20.5793 113.606 21.1558 113.809 21.9038 114.089C22.6829 114.339 23.2595 114.619 23.6334 114.931C24.0386 115.211 24.5061 115.57 25.0359 116.006C25.5657 116.442 25.9552 116.91 26.2046 117.408C26.485 117.907 26.7188 118.499 26.9058 119.185C27.0928 119.839 27.1863 120.556 27.1863 121.335C27.1863 124.514 25.9864 126.929 23.5867 128.581C21.187 130.233 17.977 131.059 13.9567 131.059C11.2453 131.059 8.68979 130.653 6.29008 129.843C3.89037 129.033 1.86464 128.004 0.212891 126.758L2.45678 122.457Z" fill="white"/>
<path d="M40.6539 99.317H46.8714L58.792 130.591H52.9486L50.5177 123.579H36.8674L34.343 130.591H28.4996L40.6539 99.317ZM38.4101 118.951H49.0218L43.786 104.225L38.4101 118.951Z" fill="white"/>
<path d="M63.0413 99.317H68.5575V112.921H84.4049V99.317H89.9679V130.591H84.4049V117.969H68.5575V130.591H63.0413V99.317Z" fill="white"/>
<path d="M106.347 99.317H112.565L124.485 130.591H118.642L116.211 123.579H102.561L100.036 130.591H94.1927L106.347 99.317ZM104.103 118.951H114.715L109.479 104.225L104.103 118.951Z" fill="white"/>
<path d="M133.877 99.317L150.706 122.223V99.317H155.895V130.591H150.846L133.923 107.872V130.591H128.734V99.317H133.877Z" fill="white"/>
<path d="M163.293 99.317H174.98C179.904 99.317 183.768 100.751 186.573 103.618C189.378 106.485 190.781 110.271 190.781 114.977C190.781 119.652 189.425 123.423 186.714 126.29C184.002 129.158 180.278 130.591 175.541 130.591H163.293V99.317ZM175.868 125.589C178.704 125.589 180.979 124.592 182.693 122.597C184.407 120.603 185.264 118.032 185.264 114.884C185.264 111.767 184.376 109.227 182.6 107.264C180.854 105.301 178.533 104.319 175.634 104.319H168.716V125.589H175.868Z" fill="white"/>
<path d="M193.616 127.739C193.616 126.773 193.944 125.963 194.598 125.309C195.284 124.623 196.125 124.28 197.123 124.28C198.12 124.28 198.946 124.623 199.6 125.309C200.255 125.963 200.582 126.773 200.582 127.739C200.582 128.706 200.255 129.516 199.6 130.17C198.946 130.856 198.12 131.199 197.123 131.199C196.125 131.199 195.284 130.872 194.598 130.217C193.944 129.531 193.616 128.706 193.616 127.739Z" fill="white"/>
<path d="M215.501 99.317H221.718L233.639 130.591H227.796L225.365 123.579H211.714L209.19 130.591H203.347L215.501 99.317ZM213.257 118.951H223.869L218.633 104.225L213.257 118.951Z" fill="white"/>
<path d="M252.52 99.317C255.637 99.317 258.208 100.299 260.234 102.262C262.259 104.225 263.272 106.719 263.272 109.742C263.272 112.235 262.602 114.37 261.262 116.146C259.953 117.891 258.177 119.076 255.933 119.699L263.553 130.591H257.055L250.276 120.4H243.311V130.591H237.888V99.317H252.52ZM243.311 115.866H251.211C253.175 115.866 254.749 115.336 255.933 114.276C257.148 113.217 257.756 111.799 257.756 110.022C257.756 108.277 257.164 106.843 255.98 105.721C254.826 104.568 253.331 103.992 251.492 103.992H243.311V115.866Z" fill="white"/>
<path d="M271.643 103.431C274.666 100.345 278.484 98.8027 283.096 98.8027C286.431 98.8027 289.391 99.6442 291.978 101.327C294.596 103.01 296.481 105.285 297.635 108.152L292.866 110.536C292.056 108.511 290.763 106.89 288.986 105.675C287.241 104.428 285.246 103.805 283.003 103.805C280.042 103.805 277.533 104.88 275.476 107.03C273.419 109.181 272.391 111.83 272.391 114.977C272.391 118.094 273.419 120.727 275.476 122.878C277.533 125.028 280.057 126.103 283.049 126.103C285.231 126.103 287.194 125.511 288.94 124.327C290.716 123.111 292.025 121.506 292.866 119.512L297.775 121.662C296.622 124.529 294.721 126.82 292.072 128.534C289.454 130.248 286.462 131.105 283.096 131.105C278.515 131.105 274.697 129.578 271.643 126.524C268.589 123.439 267.062 119.59 267.062 114.977C267.062 110.365 268.589 106.516 271.643 103.431Z" fill="white"/>
<path d="M310.822 99.317H317.04L328.96 130.591H323.117L320.686 123.579H307.036L304.511 130.591H298.668L310.822 99.317ZM308.578 118.951H319.19L313.954 104.225L308.578 118.951Z" fill="white"/>
<path d="M338.352 99.317L355.181 122.223V99.317H360.37V130.591H355.321L338.398 107.872V130.591H333.21V99.317H338.352Z" fill="white"/>
<path d="M367.768 130.591V99.317H373.238V130.591H367.768Z" fill="white"/>
<path d="M388.31 114.697L377.558 99.317H384.056L391.862 110.677L399.763 99.317H406.214L395.181 114.837L406.261 130.591H399.763L391.769 118.951L383.495 130.591H377.09L388.31 114.697Z" fill="white"/>
<path d="M408.82 127.739C408.82 126.773 409.147 125.963 409.801 125.309C410.487 124.623 411.329 124.28 412.326 124.28C413.323 124.28 414.149 124.623 414.803 125.309C415.458 125.963 415.785 126.773 415.785 127.739C415.785 128.706 415.458 129.516 414.803 130.17C414.149 130.856 413.323 131.199 412.326 131.199C411.329 131.199 410.487 130.872 409.801 130.217C409.147 129.531 408.82 128.706 408.82 127.739Z" fill="white"/>
<path d="M421.546 130.591V99.317H427.015V130.591H421.546Z" fill="white"/>
<path d="M449.006 99.317C452.123 99.317 454.694 100.299 456.72 102.262C458.745 104.225 459.758 106.719 459.758 109.742C459.758 112.235 459.088 114.37 457.748 116.146C456.439 117.891 454.663 119.076 452.419 119.699L460.039 130.591H453.541L446.762 120.4H439.797V130.591H434.374V99.317H449.006ZM439.797 115.866H447.697C449.661 115.866 451.234 115.336 452.419 114.276C453.634 113.217 454.242 111.799 454.242 110.022C454.242 108.277 453.65 106.843 452.466 105.721C451.312 104.568 449.817 103.992 447.978 103.992H439.797V115.866Z" fill="white"/>
</svg>
