<svg width="8" height="11" viewBox="0 0 8 11" fill="none" xmlns="http://www.w3.org/2000/svg">
<path d="M3.99247 0.757812C2.07549 0.757812 0.521484 2.31181 0.521484 4.22877C0.521484 6.19531 2.70523 9.09802 3.60868 10.2142C3.80702 10.4591 4.17792 10.4591 4.37626 10.2142C5.27971 9.09802 7.46346 6.19531 7.46346 4.22877C7.46346 2.31181 5.90945 0.757812 3.99247 0.757812ZM3.99247 5.46839C3.3077 5.46839 2.75283 4.91353 2.75283 4.22877C2.75283 3.544 3.3077 2.98914 3.99247 2.98914C4.67725 2.98914 5.23211 3.544 5.23211 4.22877C5.23211 4.91353 4.67725 5.46839 3.99247 5.46839Z" fill="white"/>
</svg>
