<svg width="377" height="34" viewBox="0 0 377 34" fill="none" xmlns="http://www.w3.org/2000/svg">
<rect x="275.146" y="0.174774" width="1" height="33.6502" rx="0.5" fill="black"/>
<rect x="114.025" y="0.174774" width="1" height="33.6502" rx="0.5" fill="black"/>
<path d="M365.231 10.6964C365.99 6.60684 368.687 3.54636 372.984 1.89765C373.49 1.70342 373.571 1.68798 373.531 1.79322C373.516 1.83268 373.503 5.0527 373.503 8.94908V16.0331L373.108 16.1322C371.303 16.5841 369.034 18.0359 367.79 19.5344C364.6 23.3768 365.108 29.0387 368.871 31.5771C369.046 31.6951 369.209 31.8078 369.232 31.8274C369.277 31.8641 368.913 32.2707 368.835 32.2707C368.732 32.2707 367.678 31.4417 367.365 31.1149C366.458 30.1668 365.598 28.4402 365.281 26.9354C365.114 26.139 365.097 25.2382 365.112 18.1066L365.126 11.2624L365.231 10.6964Z" fill="black"/>
<path d="M375.073 6.64734C375.423 6.41817 375.933 6.1723 376.372 6.0218C376.571 5.95358 376.769 5.89626 376.812 5.89452C376.887 5.89162 376.891 6.22428 376.891 12.271V18.6505L376.293 18.6572C371.255 18.7136 366.905 23.2223 367.805 27.4542C368.127 28.9698 369.143 30.5031 370.244 31.1356C370.309 31.1729 370.297 31.2004 370.152 31.3469L369.986 31.5153L369.728 31.3378C365.761 28.6087 365.804 22.5293 369.813 19.3015C371.156 18.2196 373.226 17.2369 374.621 17.0182L374.813 16.9882V11.9028V6.81756L375.073 6.64734Z" fill="black"/>
<path d="M369.25 24.4738C370.364 22.1297 372.47 20.5765 375.211 20.0778C375.689 19.9907 376.797 19.9688 376.873 20.0449C376.89 20.0622 376.868 20.3419 376.824 20.6665L376.743 21.2567L376.58 21.2574C373.917 21.269 371.018 23.064 370.067 25.2896C369.324 27.0278 369.761 29.1309 371.102 30.2717L371.312 30.4508L371.157 30.6128C370.939 30.8395 370.933 30.8367 370.347 30.2425C368.83 28.7039 368.375 26.3143 369.25 24.4738Z" fill="black"/>
<path d="M370.966 26.3351C371.552 24.4651 373.215 23.1584 375.559 22.7281C375.733 22.6961 375.962 22.6681 376.069 22.6659L376.263 22.6618L376.232 22.8317C376.113 23.4821 375.968 23.7928 375.785 23.7943C375.352 23.7979 374.039 24.2603 373.478 24.6069C371.733 25.6842 371.111 27.7065 372.062 29.2112L372.199 29.4276L372.049 29.5908C371.967 29.6806 371.893 29.7646 371.884 29.7773C371.815 29.8788 371.108 28.8425 370.967 28.4328C370.81 27.9771 370.81 26.8353 370.966 26.3351Z" fill="black"/>
<path d="M363.825 10.6964C363.066 6.60684 360.369 3.54636 356.072 1.89765C355.566 1.70342 355.485 1.68798 355.525 1.79322C355.54 1.83268 355.552 5.0527 355.552 8.94908V16.0331L355.948 16.1322C357.752 16.5841 360.022 18.0359 361.266 19.5344C364.456 23.3768 363.948 29.0387 360.184 31.5771C360.009 31.6951 359.847 31.8078 359.823 31.8274C359.779 31.8641 360.143 32.2707 360.22 32.2707C360.323 32.2707 361.378 31.4417 361.69 31.1149C362.597 30.1668 363.458 28.4402 363.774 26.9354C363.942 26.139 363.959 25.2382 363.944 18.1066L363.93 11.2624L363.825 10.6964Z" fill="black"/>
<path d="M353.983 6.64734C353.633 6.41817 353.122 6.1723 352.684 6.0218C352.485 5.95358 352.287 5.89626 352.243 5.89452C352.168 5.89162 352.164 6.22428 352.164 12.271V18.6505L352.763 18.6572C357.801 18.7136 362.151 23.2223 361.251 27.4542C360.929 28.9698 359.913 30.5031 358.812 31.1356C358.747 31.1729 358.759 31.2004 358.903 31.3469L359.07 31.5153L359.328 31.3378C363.295 28.6087 363.252 22.5293 359.243 19.3015C357.899 18.2196 355.83 17.2369 354.434 17.0182L354.242 16.9882V11.9028V6.81756L353.983 6.64734Z" fill="black"/>
<path d="M359.806 24.4738C358.691 22.1297 356.585 20.5765 353.844 20.0778C353.366 19.9907 352.258 19.9688 352.182 20.0449C352.165 20.0622 352.188 20.3419 352.232 20.6665L352.313 21.2567L352.476 21.2574C355.138 21.269 358.038 23.064 358.989 25.2896C359.732 27.0278 359.295 29.1309 357.954 30.2717L357.743 30.4508L357.899 30.6128C358.116 30.8395 358.123 30.8367 358.709 30.2425C360.226 28.7039 360.68 26.3143 359.806 24.4738Z" fill="black"/>
<path d="M358.089 26.3351C357.504 24.4651 355.84 23.1584 353.497 22.7281C353.323 22.6961 353.093 22.6681 352.987 22.6659L352.793 22.6618L352.824 22.8317C352.943 23.4821 353.087 23.7928 353.271 23.7943C353.704 23.7979 355.017 24.2603 355.578 24.6069C357.323 25.6842 357.944 27.7065 356.993 29.2112L356.857 29.4276L357.006 29.5908C357.089 29.6806 357.163 29.7646 357.172 29.7773C357.241 29.8788 357.948 28.8425 358.089 28.4328C358.245 27.9771 358.246 26.8353 358.089 26.3351Z" fill="black"/>
<path fill-rule="evenodd" clip-rule="evenodd" d="M305.187 14.6299C304.952 14.6377 304.751 14.6454 304.585 14.6531L304.556 16.3914L306.381 16.3624L306.404 15.8873C306.427 15.4778 306.439 15.2499 306.439 15.2036C306.439 15.0336 306.385 14.8945 306.277 14.7864C306.169 14.6782 306.029 14.6241 305.86 14.6241C305.651 14.6241 305.427 14.6261 305.187 14.6299Z" fill="black"/>
<path fill-rule="evenodd" clip-rule="evenodd" d="M322.49 7.14372C322.729 7.13599 322.932 7.12826 323.098 7.12054L323.127 5.38225L321.302 5.41122L321.279 5.88636C321.255 6.29582 321.244 6.52373 321.244 6.57008C321.244 6.74005 321.298 6.87911 321.406 6.98727C321.514 7.09543 321.653 7.14951 321.823 7.14951C322.032 7.14951 322.254 7.14758 322.49 7.14372Z" fill="black"/>
<path d="M299.538 21.0268V23.4025C299.538 24.4725 299.567 25.2257 299.625 25.6623C299.278 25.8786 298.864 26.0543 298.385 26.1895C297.91 26.3209 297.454 26.3865 297.018 26.3865C296.342 26.3865 295.874 26.1799 295.616 25.7666C295.449 25.9713 295.21 26.1258 294.897 26.2301C294.588 26.3344 294.262 26.3865 293.918 26.3865C293.62 26.3865 293.373 26.3344 293.176 26.2301C293.192 26.9177 293.217 27.4334 293.252 27.7772C292.676 28.0514 292.027 28.2735 291.305 28.4435C290.582 28.6173 289.937 28.7043 289.369 28.7043C288.755 28.7043 288.218 28.598 287.759 28.3856C287.303 28.1731 286.949 27.8699 286.698 27.4759C286.451 27.0819 286.327 26.6222 286.327 26.0968C286.327 25.7646 286.397 25.0461 286.536 23.9413C286.609 23.4083 286.646 23.0838 286.646 22.9679V22.2726L288.268 22.0988C288.365 22.3885 288.413 22.6782 288.413 22.9679C288.413 23.0374 288.402 23.1707 288.379 23.3677C288.355 23.5609 288.33 23.7695 288.303 23.9935C288.245 24.4609 288.201 24.8472 288.17 25.1524C288.139 25.4537 288.124 25.7009 288.124 25.894C288.124 26.091 288.174 26.2649 288.274 26.4155C288.379 26.57 288.527 26.6898 288.72 26.7748C288.917 26.8636 289.153 26.908 289.427 26.908C290.181 26.908 290.876 26.7921 291.513 26.5604C291.455 26.4754 291.407 26.3421 291.368 26.1606C291.33 25.9751 291.31 25.809 291.31 25.6623V21.5483L292.962 21.4035L293.165 21.6063V23.8371C293.165 24.1152 293.224 24.3103 293.344 24.4223C293.464 24.5343 293.674 24.5903 293.976 24.5903C294.293 24.5903 294.563 24.542 294.787 24.4455L294.816 22.3016L296.438 22.1567L296.641 22.3595V24.0978C296.641 24.2562 296.688 24.3779 296.78 24.4628C296.873 24.5478 297 24.5903 297.163 24.5903C297.29 24.5903 297.423 24.5787 297.562 24.5555C297.702 24.5324 297.81 24.5053 297.887 24.4744C297.833 24.3779 297.785 24.2291 297.742 24.0283C297.703 23.8235 297.684 23.6439 297.684 23.4894V20.9689L299.336 20.824L299.538 21.0268Z" fill="black"/>
<path d="M302.929 21.6063V25.894C302.929 26.4426 302.807 26.9351 302.564 27.3716C302.32 27.8081 301.988 28.148 301.567 28.3914C301.15 28.6386 300.686 28.7622 300.177 28.7622C299.941 28.7622 299.682 28.7429 299.4 28.7043C299.118 28.6656 298.91 28.6212 298.774 28.571L298.612 28.3276L298.844 26.8501C299.076 26.9042 299.323 26.9467 299.586 26.9776C299.844 27.0085 300.061 27.0239 300.235 27.0239C300.362 27.0239 300.491 26.9718 300.623 26.8675C300.754 26.767 300.862 26.6299 300.947 26.4561C301.032 26.2861 301.075 26.0988 301.075 25.894V21.5483L302.726 21.4035L302.929 21.6063Z" fill="black"/>
<path d="M306.175 18.1876L306.118 25.4305L306.204 26.1837L304.582 26.4445C304.489 26.2127 304.422 25.9983 304.379 25.8013C304.341 25.6004 304.321 25.361 304.321 25.0828V18.1297L305.973 17.9848L306.175 18.1876Z" fill="black"/>
<path fill-rule="evenodd" clip-rule="evenodd" d="M313.901 26.3865C313.901 26.3865 313.901 26.3865 313.901 26.3865C313.899 26.3865 313.903 26.3865 313.901 26.3865Z" fill="black"/>
<path fill-rule="evenodd" clip-rule="evenodd" d="M341.786 26.3865C341.786 26.3865 341.787 26.3865 341.786 26.3865C342.91 26.3865 343.658 26.1103 344.029 25.558C343.659 26.1097 342.908 26.3859 341.786 26.3865Z" fill="black"/>
<path fill-rule="evenodd" clip-rule="evenodd" d="M313.901 26.3865C313.306 26.3865 312.858 26.317 312.545 26.1779C312.236 26.035 312.024 25.8245 311.908 25.5464C311.676 25.7975 311.371 26.0003 310.992 26.1548C310.618 26.3093 310.256 26.3865 309.909 26.3865C309.522 26.3865 309.175 26.3151 308.866 26.1721C308.557 26.0292 308.315 25.838 308.141 25.5985C307.968 25.359 307.881 25.1002 307.881 24.8221C307.881 24.7139 307.896 24.5169 307.927 24.2311L307.95 23.9298C307.962 23.8293 307.968 23.7501 307.968 23.6922V23.3445L309.503 23.1707C309.534 23.248 309.561 23.331 309.584 23.4199C309.607 23.5087 309.619 23.5802 309.619 23.6343C309.619 23.7463 309.613 23.8641 309.602 23.9877L309.59 24.2716C309.59 24.3721 309.627 24.4512 309.7 24.5092C309.777 24.5633 309.876 24.5903 309.996 24.5903C310.2 24.5903 310.399 24.5555 310.592 24.486C310.786 24.4126 310.942 24.3218 311.062 24.2137C311.182 24.1055 311.241 23.9993 311.241 23.895C311.241 23.7134 311.191 23.2055 311.091 22.3711C310.994 21.5329 310.909 20.8433 310.836 20.3025L312.487 19.9549L312.69 20.1577L313.038 23.866C313.061 24.1248 313.134 24.3103 313.258 24.4223C313.385 24.5343 313.602 24.5903 313.907 24.5903H315.64H317.383H319.126H320.869H322.611H324.354H326.097H327.84H329.583H331.325H333.068H334.811H336.554H338.297H340.039H341.782C342.087 24.5903 342.343 24.5613 342.54 24.5034C342.594 24.3566 342.668 24.0205 342.76 23.4952C342.826 23.1166 342.884 22.8057 342.934 22.5623C342.984 22.3151 343.046 22.093 343.119 21.896C343.228 21.5908 343.421 21.3378 343.699 21.1369C343.981 20.936 344.375 20.7738 344.881 20.6502C345.391 20.5266 346.049 20.43 346.857 20.3605L347.9 21.2876V23.8081C347.9 24.1017 347.909 24.4107 347.929 24.7352C347.948 25.0596 347.977 25.3204 348.016 25.5174L346.712 26.4445C346.163 26.3634 345.655 26.2455 345.188 26.091C344.721 25.9365 344.334 25.7588 344.029 25.558C343.658 26.1103 342.91 26.3865 341.786 26.3865L340.039 26.3865H338.297H336.554H334.811H333.068H331.325H329.583H327.84H326.097H324.354H322.611H320.869H319.126H317.383H315.64L313.901 26.3865ZM346.086 24.5092C345.476 24.3431 344.95 24.1364 344.51 23.8892C344.545 23.7038 344.582 23.5164 344.62 23.3272C344.663 23.1379 344.703 22.9795 344.742 22.852C344.781 22.713 344.837 22.6067 344.91 22.5333C344.987 22.4561 345.117 22.3923 345.298 22.3421C345.48 22.2919 345.754 22.2475 346.121 22.2089C346.071 22.6454 346.046 23.1978 346.046 23.866C346.046 24.1171 346.059 24.3315 346.086 24.5092Z" fill="black"/>
<path d="M319.915 13.6391C318.845 13.6391 318.09 13.3513 317.65 12.7758C317.371 12.826 317.078 12.8665 316.769 12.8974C316.464 12.9283 316.213 12.9438 316.016 12.9438C315.683 12.9438 315.353 12.8434 315.025 12.6425C314.7 12.4416 314.434 12.1847 314.225 11.8719C314.02 11.5551 313.918 11.2345 313.918 10.91C313.918 10.6937 313.937 10.4523 313.976 10.1857C314.019 9.91532 314.084 9.54835 314.173 9.0848C314.273 8.5749 314.339 8.19248 314.37 7.93753L317.192 7.29437V6.657L318.843 6.51214L319.046 6.71494V11.1186C319.046 11.3156 319.071 11.4663 319.121 11.5706C319.175 11.671 319.264 11.7424 319.388 11.7849C319.51 11.8232 319.684 11.8425 319.909 11.8429C320.464 11.8426 320.92 11.833 321.279 11.8139C321.646 11.7907 321.924 11.7521 322.113 11.698C322.055 11.5976 322.007 11.4547 321.968 11.2692C321.929 11.08 321.91 10.9042 321.91 10.742V8.22145L323.515 8.0766L323.764 8.2794V10.6551C323.764 11.7251 323.793 12.5363 323.851 13.0887C323.372 13.2625 322.789 13.3977 322.101 13.4943C321.418 13.5908 320.692 13.6391 319.915 13.6391ZM315.772 10.6261C315.772 10.769 315.826 10.8926 315.935 10.9969C316.047 11.0974 316.176 11.1476 316.323 11.1476C316.512 11.1476 316.802 11.1205 317.192 11.0664V9.06163L315.952 9.32816L315.877 9.82068C315.807 10.261 315.772 10.5295 315.772 10.6261Z" fill="black"/>
<path d="M327.97 13.6391C327.325 13.6391 326.813 13.5657 326.434 13.4189C326.056 13.2683 325.779 13.0288 325.606 12.7004C325.432 12.3682 325.341 11.9182 325.333 11.3504L325.246 5.38225L326.898 5.2374L327.101 5.4402V11.2055C327.101 11.3832 327.126 11.5165 327.176 11.6053C327.23 11.6942 327.317 11.756 327.437 11.7907C327.56 11.8255 327.738 11.8429 327.97 11.8429C328.275 11.8429 328.525 11.8139 328.722 11.756C328.776 11.6092 328.85 11.2731 328.942 10.7478C329.008 10.3692 329.066 10.0582 329.116 9.81488C329.166 9.56766 329.228 9.34554 329.301 9.14854C329.41 8.84337 329.603 8.59036 329.881 8.38949C330.163 8.18862 330.557 8.02638 331.063 7.90277C331.573 7.77916 332.231 7.68258 333.039 7.61305L334.082 8.54014V11.0607C334.082 11.3542 334.091 11.6633 334.111 11.9877C334.13 12.3122 334.159 12.573 334.198 12.77L332.894 13.6971C332.345 13.6159 331.837 13.4981 331.37 13.3436C330.903 13.1891 330.516 13.0114 330.211 12.8105C329.84 13.3629 329.094 13.6391 327.97 13.6391ZM330.692 11.1418C331.132 11.389 331.658 11.5957 332.268 11.7618C332.241 11.5841 332.228 11.3697 332.228 11.1186C332.228 10.4503 332.253 9.89793 332.303 9.46143C331.936 9.50006 331.662 9.54448 331.48 9.5947C331.299 9.64492 331.169 9.70865 331.092 9.78591C331.019 9.8593 330.962 9.96553 330.924 10.1046C330.885 10.2321 330.845 10.3904 330.802 10.5797C330.764 10.769 330.727 10.9564 330.692 11.1418Z" fill="black"/>
<path d="M338.313 13.6391C337.668 13.6391 337.156 13.5657 336.778 13.4189C336.399 13.2683 336.123 13.0288 335.949 12.7004C335.776 12.3682 335.685 11.9182 335.677 11.3504L335.59 5.38225L337.241 5.2374L337.444 5.4402V11.2055C337.444 11.3832 337.469 11.5165 337.52 11.6053C337.574 11.6942 337.661 11.756 337.78 11.7907C337.904 11.8255 338.082 11.8429 338.313 11.8429C338.781 11.8429 339.11 11.8197 339.303 11.7734C339.496 11.727 339.624 11.6401 339.686 11.5126C339.751 11.3813 339.796 11.1534 339.819 10.8289L339.964 8.8878L341.586 8.74294L341.76 8.94574L341.65 11.0838C341.638 11.2692 341.619 11.4315 341.592 11.5706C341.685 11.7521 341.915 11.8429 342.282 11.8429C342.656 11.8429 342.956 11.7946 343.18 11.698L343.209 9.55414L344.831 9.40928L345.034 9.61208V11.3504C345.034 11.5087 345.08 11.6304 345.173 11.7154C345.266 11.8004 345.393 11.8429 345.555 11.8429C345.683 11.8429 345.816 11.8313 345.955 11.8081C346.094 11.7849 346.202 11.7579 346.28 11.727C346.226 11.6304 346.177 11.4817 346.135 11.2808C346.096 11.0761 346.077 10.8965 346.077 10.742V8.22145L347.728 8.0766L347.931 8.2794V10.6551C347.931 11.7251 347.96 12.4783 348.018 12.9148C347.67 13.1311 347.257 13.3069 346.778 13.4421C346.303 13.5734 345.847 13.6391 345.41 13.6391C344.734 13.6391 344.267 13.4324 344.008 13.0191C343.838 13.2277 343.593 13.3842 343.272 13.4885C342.952 13.5889 342.602 13.6391 342.224 13.6391C341.497 13.6391 340.964 13.4537 340.624 13.0829C340.08 13.4537 339.31 13.6391 338.313 13.6391Z" fill="black"/>
<path fill-rule="evenodd" clip-rule="evenodd" d="M294.687 12.8105C294.316 13.3629 293.573 13.6391 292.449 13.6391C291.8 13.6391 291.286 13.6256 290.908 13.5986C290.529 13.5715 290.232 13.529 290.015 13.4711C289.799 13.4131 289.617 13.3282 289.471 13.2161C289.077 13.3011 288.727 13.3861 288.422 13.4711C288.121 13.5561 287.908 13.6314 287.785 13.6971C287.715 13.8747 287.663 14.0563 287.628 14.2417C287.597 14.431 287.582 14.5971 287.582 14.74C287.582 14.9216 287.638 15.0819 287.75 15.221C287.866 15.3639 288.026 15.474 288.231 15.5512C288.439 15.6285 288.677 15.6671 288.943 15.6671C289.832 15.6671 290.662 15.6285 291.435 15.5512L291.667 15.812L291.58 17.3185C291.217 17.3571 290.751 17.3899 290.183 17.417C289.619 17.4479 289.177 17.4633 288.856 17.4633C288.215 17.4633 287.659 17.3552 287.188 17.1389C286.716 16.9264 286.355 16.6193 286.104 16.2176C285.853 15.8158 285.728 15.3426 285.728 14.798C285.728 14.4851 285.766 14.1683 285.843 13.8477C285.921 13.5271 286.025 13.2412 286.156 12.9902C286.288 12.7352 286.434 12.5459 286.597 12.4223C286.693 12.3528 286.803 12.289 286.927 12.2311C286.676 11.9414 286.498 11.5706 286.394 11.1186L285.988 9.32237L287.06 7.8738H290.189C290.405 7.8738 290.622 7.96071 290.838 8.13454C291.054 8.3045 291.232 8.52276 291.371 8.78929C291.51 9.05583 291.58 9.32044 291.58 9.58311C291.58 9.83806 291.531 10.178 291.435 10.6029C291.342 11.0278 291.217 11.4411 291.058 11.8429H292.449C292.754 11.8429 293.001 11.8139 293.198 11.756C293.252 11.6092 293.326 11.2731 293.418 10.7478C293.484 10.3692 293.542 10.0582 293.592 9.81488C293.642 9.56766 293.704 9.34554 293.778 9.14854C293.886 8.84337 294.079 8.59036 294.357 8.38949C294.639 8.18862 295.033 8.02638 295.539 7.90277C296.049 7.77916 296.707 7.68258 297.515 7.61305L298.558 8.54014V11.0607C298.558 11.3542 298.567 11.6633 298.587 11.9877C298.606 12.3122 298.635 12.573 298.674 12.77L297.37 13.6971C296.821 13.6159 296.313 13.4981 295.846 13.3436C295.379 13.1891 294.992 13.0114 294.687 12.8105ZM295.168 11.1418C295.609 11.389 296.134 11.5957 296.744 11.7618C296.717 11.5841 296.704 11.3697 296.704 11.1186C296.704 10.4503 296.729 9.89793 296.779 9.46143C296.412 9.50006 296.138 9.54448 295.956 9.5947C295.775 9.64492 295.645 9.70865 295.568 9.78591C295.495 9.8593 295.439 9.96553 295.4 10.1046C295.361 10.2321 295.321 10.3904 295.278 10.5797C295.24 10.769 295.203 10.9564 295.168 11.1418ZM288.306 11.3562C288.244 11.2094 288.186 11.0046 288.132 10.742L287.9 9.61208H289.801C289.774 9.91725 289.726 10.2379 289.656 10.5739C289.587 10.91 289.503 11.2268 289.407 11.5242L288.573 11.7328C288.461 11.6246 288.372 11.4991 288.306 11.3562Z" fill="black"/>
<path d="M302.789 13.6391C302.144 13.6391 301.633 13.5657 301.254 13.4189C300.875 13.2683 300.599 13.0288 300.425 12.7004C300.252 12.3682 300.161 11.9182 300.153 11.3504L300.066 5.38225L301.718 5.2374L301.92 5.4402V11.2055C301.92 11.3832 301.945 11.5165 301.996 11.6053C302.05 11.6942 302.137 11.756 302.256 11.7907C302.38 11.8255 302.558 11.8429 302.789 11.8429H304.237C304.828 11.8429 305.309 11.8139 305.68 11.756C306.055 11.698 306.395 11.5976 306.7 11.4547C307.005 11.3079 307.349 11.0935 307.731 10.8115C307.6 10.4638 307.484 10.2089 307.383 10.0467C307.287 9.88441 307.181 9.77239 307.065 9.71058C306.949 9.64878 306.789 9.60629 306.584 9.58311L305.622 9.47881C305.603 9.8651 305.566 10.2282 305.512 10.5681L305.28 10.742L303.629 10.5681C303.671 10.3827 303.71 10.0814 303.745 9.66423C303.783 9.24318 303.803 8.8878 303.803 8.59808L304.903 7.61305L306.874 7.81585C307.353 7.86221 307.721 7.93753 307.98 8.04183C308.239 8.14226 308.461 8.31802 308.647 8.56911C308.836 8.8202 309.027 9.20455 309.22 9.72217C309.425 9.60242 309.612 9.52517 309.782 9.4904C309.952 9.45564 310.18 9.43825 310.466 9.43825L310.617 9.62367L310.466 11.1765C310.242 11.1997 310.068 11.2306 309.944 11.2692C309.825 11.304 309.68 11.3793 309.51 11.4952C309.344 11.6072 309.073 11.81 308.699 12.1036C308.177 12.517 307.712 12.8318 307.302 13.0481C306.893 13.2606 306.452 13.4131 305.981 13.5058C305.514 13.5947 304.932 13.6391 304.237 13.6391H302.789Z" fill="black"/>
<path d="M253.867 18.8104C253.824 18.8623 253.427 19.4313 252.799 20.3437C252.683 20.512 252.192 21.219 251.709 21.9148C251.225 22.6104 250.83 23.1993 250.83 23.2232C250.83 23.2471 250.988 23.4952 251.181 23.7746C251.373 24.054 251.651 24.457 251.798 24.6704C251.945 24.8836 252.238 25.306 252.45 25.6091C252.661 25.9122 252.923 26.2887 253.032 26.4458C255.944 30.6599 255.802 30.4832 256.475 30.7355L256.738 30.8338H259.527C262.237 30.8338 262.316 30.8316 262.276 30.7576C262.253 30.7157 262.073 30.4501 261.874 30.1672C261.676 29.8844 261.412 29.5046 261.288 29.3232C261.164 29.1417 260.98 28.8753 260.878 28.7312C260.777 28.587 260.614 28.3537 260.516 28.2126C260.419 28.0716 259.339 26.5143 258.116 24.752C256.893 22.9897 255.747 21.3365 255.569 21.0784C255.391 20.8202 255.168 20.4988 255.073 20.3641C254.731 19.8751 254.388 19.3777 254.18 19.0689C253.952 18.7302 253.941 18.7215 253.867 18.8104Z" fill="black"/>
<path d="M254.509 17.8747L254.27 18.2222L256.026 20.7539C256.992 22.1463 257.887 23.4365 258.015 23.6208C258.143 23.8052 258.328 24.0714 258.425 24.2124C258.522 24.3535 258.685 24.5867 258.786 24.7308C258.888 24.8747 259.276 25.4346 259.648 25.9749C260.02 26.515 260.512 27.2236 260.74 27.5494C260.969 27.8751 261.297 28.3479 261.47 28.6C261.643 28.852 261.976 29.3338 262.21 29.6705C263.073 30.911 263.38 31.3607 263.38 31.3839C263.38 31.3968 261.853 31.4023 259.986 31.3959L256.592 31.3842L256.326 31.2856C255.521 30.9875 255.413 30.8746 254.07 28.9299C253.81 28.5542 253.438 28.0162 253.241 27.7342C253.045 27.4522 252.765 27.0469 252.618 26.8337C252.293 26.3604 251.382 25.0473 250.868 24.3132C250.619 23.957 250.528 23.8054 250.446 23.8106C250.381 23.8148 250.322 23.9175 250.197 24.0949C250.082 24.2569 250.01 24.3361 250 24.4227C249.984 24.5508 250.103 24.6952 250.417 25.1473C250.664 25.5024 250.963 25.936 251.083 26.111C251.203 26.2859 251.385 26.5471 251.486 26.6914C251.587 26.8355 251.75 27.0689 251.847 27.2099C251.944 27.351 252.194 27.7093 252.401 28.0064C252.778 28.546 253.932 30.2113 254.268 30.6989C254.767 31.4244 255.452 31.9204 256.27 32.1498C256.645 32.2548 264.98 32.3221 264.98 32.2201C264.98 32.1949 264.607 31.6385 264.152 30.9837C263.255 29.6931 262.883 29.1567 262.535 28.65C262.132 28.064 261.649 27.3695 261.045 26.5071C260.927 26.3388 260.712 26.0265 260.566 25.8133C260.42 25.5999 260.112 25.1552 259.882 24.8249C259.208 23.8586 259.176 23.8121 258.258 22.4871C257.776 21.7908 257.056 20.7529 256.659 20.1804C255.719 18.827 255.49 18.4958 255.128 17.9666C254.939 17.6892 254.858 17.5594 254.782 17.5615C254.713 17.5634 254.648 17.6716 254.509 17.8747Z" fill="black"/>
<path fill-rule="evenodd" clip-rule="evenodd" d="M235.913 4.24108C235.291 3.34308 234.645 2.41044 234.478 2.16854L234.173 1.72858L238.451 1.73991L242.729 1.75125L243.066 1.86461C243.96 2.16597 244.413 2.53278 245.088 3.50179C245.302 3.80946 245.643 4.29861 245.847 4.58885C246.05 4.8791 246.32 5.26858 246.448 5.45434C246.807 5.97579 247.272 6.64461 247.833 7.44528C247.951 7.61361 248.166 7.92588 248.312 8.13923C248.458 8.35248 248.724 8.7379 248.904 8.99563C249.083 9.25346 249.23 9.48489 249.23 9.50991C249.23 9.53504 248.874 10.068 248.439 10.6944C248.004 11.3207 247.521 12.0169 247.365 12.2413C247.21 12.4659 246.815 13.0353 246.488 13.5067C245.673 14.6825 245.592 14.7987 245.286 15.2415C245.138 15.4547 244.92 15.767 244.802 15.9353C244.683 16.1038 244.556 16.2919 244.519 16.3535C244.482 16.4151 244.434 16.4654 244.411 16.4654C244.388 16.4654 244.34 16.4151 244.302 16.3535C244.265 16.2919 244.093 16.0395 243.92 15.7924C243.747 15.5455 243.486 15.169 243.34 14.9557C243.193 14.7425 242.977 14.4302 242.859 14.2618C242.74 14.0935 242.481 13.7202 242.283 13.4323C242.085 13.1446 241.806 12.7404 241.662 12.5343C241.015 11.6035 240.646 11.0709 240.001 10.1393C239.621 9.58926 239.147 8.90505 238.949 8.61887C238.75 8.3328 238.399 7.8276 238.169 7.4964C237.939 7.1652 237.592 6.66461 237.397 6.38399C237.202 6.10337 236.534 5.13907 235.913 4.24108Z" fill="black"/>
<path fill-rule="evenodd" clip-rule="evenodd" d="M256.493 1.7752C255.988 1.8737 255.373 2.1618 254.993 2.47728C254.622 2.78549 254.521 2.91093 253.742 4.03703C253.649 4.17167 253.403 4.52544 253.196 4.82306C252.989 5.12068 252.653 5.60352 252.45 5.89601C252.247 6.1885 251.893 6.69808 251.663 7.02842C250.974 8.02031 250.936 8.07464 250.085 9.30244C249.634 9.95351 249.182 10.6056 249.082 10.7515C248.879 11.0458 248.327 11.8416 247.672 12.786C247.435 13.127 246.996 13.7594 246.697 14.1911C246.398 14.6229 246.051 15.1231 245.925 15.3027C245.399 16.058 243.206 19.219 242.896 19.6702C242.71 19.9396 242.462 20.2977 242.344 20.4661C242.226 20.6345 241.923 21.0715 241.671 21.4373C241.418 21.803 241.046 22.3401 240.843 22.6308C240.64 22.9214 240.311 23.3937 240.113 23.6801C238.451 26.0794 236.748 28.5359 236.052 29.5369C235.864 29.8066 235.594 30.1957 235.391 30.4886L235.265 30.6696C235.062 30.9621 234.744 31.4171 234.559 31.6809C234.373 31.9446 234.221 32.1834 234.22 32.2114C234.219 32.2796 242.041 32.2859 242.531 32.2181C243.66 32.0619 244.303 31.6007 245.209 30.2975C246.435 28.5342 246.645 28.2322 247.487 27.0173C247.969 26.3215 248.555 25.4765 248.79 25.1397C249.025 24.803 249.381 24.2887 249.581 23.9968C249.781 23.705 250.208 23.0897 250.528 22.6295C250.849 22.1692 251.228 21.622 251.37 21.4134C251.513 21.2048 251.676 20.9719 251.732 20.8956C251.788 20.8195 251.997 20.5218 252.195 20.2341C252.585 19.6687 254.906 16.3189 255.485 15.4864C255.68 15.2058 256.063 14.6547 256.335 14.2618C256.607 13.869 256.963 13.3547 257.127 13.1189C257.29 12.8832 257.532 12.533 257.664 12.3406C257.796 12.1482 258.058 11.7716 258.245 11.5038C258.615 10.9756 260.511 8.24361 261.03 7.49105C261.206 7.23557 261.47 6.85453 261.616 6.64429C261.763 6.43393 262.046 6.02766 262.244 5.74126L262.506 5.36384C262.723 5.0521 262.999 4.65479 263.229 4.32278C264.041 3.15369 264.323 2.74795 264.709 2.19003L265.027 1.73082L260.851 1.73531C258.554 1.73777 256.593 1.75574 256.493 1.7752ZM261.207 5.75132C262.497 3.9041 263.38 2.61727 263.38 2.58422C263.38 2.51663 256.969 2.5438 256.633 2.61278C255.937 2.75586 255.366 3.16791 254.877 3.88154C254.726 4.10173 254.478 4.46031 254.326 4.67837C254.174 4.89642 253.944 5.22709 253.816 5.41317C253.687 5.59914 253.149 6.37586 252.619 7.13911C252.09 7.90246 251.561 8.66475 251.445 8.83307C251.134 9.28223 250.2 10.6267 249.12 12.1802C248.769 12.6852 248.311 13.3465 248.102 13.6495C247.893 13.9526 247.25 14.8802 246.674 15.7109C246.098 16.5415 245.547 17.3365 245.449 17.4775C245.352 17.6186 245.189 17.8518 245.088 17.9958C244.986 18.1397 244.636 18.6447 244.309 19.1179C243.981 19.591 243.487 20.3038 243.209 20.7017C242.931 21.0998 242.566 21.6274 242.397 21.8744C242.228 22.1213 241.916 22.5713 241.705 22.8744C241.493 23.1775 241.2 23.5999 241.053 23.8131C240.907 24.0265 240.691 24.3387 240.573 24.5071C240.456 24.6754 240.239 24.9877 240.091 25.201C239.73 25.7227 239.339 26.2856 238.178 27.9562C236.798 29.9409 235.819 31.3638 235.819 31.3832C235.819 31.3966 237.346 31.4024 239.212 31.3961L242.606 31.3845L242.862 31.2922C243.617 31.0191 243.84 30.7946 244.957 29.1807C245.931 27.7726 246.073 27.5682 246.441 27.0378C246.574 26.847 246.759 26.5806 246.852 26.4459C246.945 26.3112 247.375 25.6916 247.808 25.0688C249.264 22.9736 249.642 22.4276 250.603 21.0375C250.797 20.7569 251.129 20.2794 251.341 19.9764C251.553 19.6733 251.865 19.2233 252.034 18.9762C252.203 18.7293 252.457 18.362 252.597 18.1599C252.738 17.9579 253.114 17.416 253.435 16.9558C253.755 16.4956 254.137 15.9445 254.285 15.7313C254.537 15.3663 257.639 10.893 258.007 10.3637C258.436 9.7454 258.729 9.32383 259.705 7.91465C260.28 7.08403 260.956 6.11054 261.207 5.75132Z" fill="black"/>
<path d="M182.869 28.5367L180.836 31.9152C180.757 32.0471 180.614 32.1278 180.46 32.1278H178.519L181.71 26.8484L178.591 21.6836H180.765L182.869 25.1602L184.844 21.8952C184.923 21.7639 185.066 21.6836 185.219 21.6836H187.161L184.013 26.8484L187.218 32.1278H185.043L182.869 28.5367Z" fill="black"/>
<path d="M164.327 21.6836H166.53L171.051 28.7942V21.6836H172.558C172.8 21.6836 172.997 21.88 172.997 22.1223V32.1278H170.922L166.272 24.7882V32.1278H164.765C164.523 32.1278 164.327 31.9313 164.327 31.6891V21.6836Z" fill="black"/>
<path d="M174.984 21.6836H176.491C176.733 21.6836 176.93 21.88 176.93 22.1223V32.1278H175.422C175.18 32.1278 174.984 31.9314 174.984 31.6891V21.6836Z" fill="black"/>
<path d="M157.351 21.9751C157.413 21.8003 157.578 21.6836 157.764 21.6836H159.414L163.134 32.1278H161.415C161.228 32.1278 161.062 32.0093 161.001 31.8326L160.459 30.2678H156.41L155.766 32.1278H153.735L157.351 21.9751ZM157.068 28.4079H159.815L158.442 24.4449L157.068 28.4079Z" fill="black"/>
<path d="M148.999 32.2708C148.198 32.2708 147.463 32.1325 146.796 31.8559C146.138 31.5698 145.575 31.1883 145.107 30.7114C144.64 30.2249 144.278 29.6574 144.02 29.0088C143.763 28.3507 143.634 27.6496 143.634 26.9057C143.634 26.1236 143.772 25.4082 144.049 24.7596C144.325 24.1015 144.702 23.534 145.179 23.0571C145.665 22.5802 146.233 22.2082 146.881 21.9411C147.54 21.6741 148.245 21.5405 148.999 21.5405C149.485 21.5405 149.953 21.6025 150.401 21.7265C150.859 21.8505 151.283 22.027 151.674 22.2559C152.075 22.4753 152.433 22.7471 152.747 23.0714C153.072 23.3861 153.348 23.739 153.577 24.1301L152.266 24.9675C152.054 25.1032 151.773 25.0305 151.626 24.8253C151.368 24.4631 151.064 24.1646 150.716 23.9298C150.248 23.6151 149.676 23.4577 148.999 23.4577C148.503 23.4577 148.045 23.5483 147.625 23.7295C147.206 23.9012 146.843 24.1444 146.538 24.4592C146.233 24.7644 145.994 25.1268 145.823 25.5465C145.651 25.9662 145.565 26.4192 145.565 26.9057C145.565 27.3826 145.651 27.8309 145.823 28.2505C145.994 28.6607 146.228 29.0231 146.524 29.3379C146.829 29.6431 147.187 29.8863 147.597 30.0675C148.017 30.2392 148.47 30.3251 148.956 30.3251C149.681 30.3251 150.291 30.1438 150.787 29.7814C151.171 29.499 151.489 29.1589 151.741 28.7611C151.873 28.5516 152.142 28.4603 152.362 28.5754L153.735 29.295C153.506 29.7337 153.224 30.1391 152.89 30.5111C152.566 30.8735 152.199 31.1883 151.789 31.4553C151.388 31.7128 150.949 31.9131 150.473 32.0562C150.005 32.1993 149.514 32.2708 148.999 32.2708Z" fill="black"/>
<path d="M135.313 32.1278V22.1223C135.313 21.88 135.509 21.6836 135.752 21.6836H138.661C139.281 21.6836 139.829 21.7742 140.306 21.9554C140.793 22.1271 141.203 22.3751 141.537 22.6994C141.87 23.0142 142.123 23.3957 142.295 23.844C142.476 24.2827 142.567 24.7739 142.567 25.3176C142.567 25.9471 142.414 26.5385 142.109 27.0917C141.813 27.6353 141.379 28.0598 140.807 28.365L142.896 32.1278H140.678L139.004 28.9373H137.259V31.6891C137.259 31.9313 137.062 32.1278 136.82 32.1278H135.313ZM138.489 27.1489C138.89 27.1489 139.224 27.1012 139.491 27.0058C139.767 26.9009 139.987 26.7626 140.149 26.5909C140.32 26.4097 140.44 26.2046 140.506 25.9757C140.583 25.7468 140.621 25.5036 140.621 25.2461C140.621 24.7119 140.449 24.2875 140.106 23.9727C139.772 23.658 139.233 23.5006 138.489 23.5006H137.259V27.1489H138.489Z" fill="black"/>
<path d="M128.223 21.9751C128.286 21.8003 128.451 21.6836 128.637 21.6836H130.287L134.007 32.1278H132.288C132.101 32.1278 131.935 32.0093 131.873 31.8326L131.332 30.2678H127.283L126.639 32.1278H124.607L128.223 21.9751ZM127.941 28.4079H130.688L129.314 24.4449L127.941 28.4079Z" fill="black"/>
<path d="M187.609 21.7478V21.671H188.145V21.7478H187.92V22.3863H187.834V21.7478H187.609Z" fill="black"/>
<path d="M188.279 21.671H188.382L188.625 22.2648H188.634L188.877 21.671H188.98V22.3863H188.899V21.8428H188.892L188.669 22.3863H188.591L188.367 21.8428H188.36V22.3863H188.279V21.671Z" fill="black"/>
<path d="M193.939 23.5434H191.149V21.6834H198.689V23.1047C198.689 23.347 198.493 23.5434 198.251 23.5434H195.885V32.1276H194.378C194.136 32.1276 193.939 31.9312 193.939 31.6889V23.5434Z" fill="black"/>
<path d="M217.861 21.6834H219.792L222.954 26.0757L226.245 21.6834H227.652C227.894 21.6834 228.09 21.8798 228.09 22.1221V32.1276H226.144V24.8024L222.94 29.1231L219.806 24.8739V32.1276H218.299C218.057 32.1276 217.861 31.9312 217.861 31.6889V21.6834Z" fill="black"/>
<path d="M199.881 21.6834H205.638C205.88 21.6834 206.076 21.8798 206.076 22.1221V23.5434H201.827V25.9469H206.076V27.8069H201.827V30.2677H206.076V32.1276H200.32C200.078 32.1276 199.881 31.9312 199.881 31.6889V21.6834Z" fill="black"/>
<path d="M210.885 21.9749C210.947 21.8002 211.112 21.6834 211.298 21.6834H212.949L216.668 32.1276H214.949C214.762 32.1276 214.596 32.0091 214.535 31.8324L213.993 30.2677H209.944L209.3 32.1276H207.269L210.885 21.9749ZM210.602 28.4078H213.349L211.976 24.4447L210.602 28.4078Z" fill="black"/>
<path fill-rule="evenodd" clip-rule="evenodd" d="M144.926 13.1127H144.994C144.97 13.1088 144.947 13.1088 144.926 13.1127Z" fill="black"/>
<path fill-rule="evenodd" clip-rule="evenodd" d="M163.166 19.5052H161.169V17.4911H163.166V19.5052ZM166.09 19.5052H164.076V17.4911H166.09V19.5052Z" fill="black"/>
<path fill-rule="evenodd" clip-rule="evenodd" d="M172.658 7.03539H170.644V5.0213H172.658V7.03539Z" fill="black"/>
<path d="M190.445 19.8555L189.85 18.0516L192.372 17.2284C192.816 17.0767 193.166 16.8139 193.423 16.4403C193.691 16.0667 193.826 15.6522 193.826 15.1968V9.13705H195.752V15.0042C195.752 15.4595 195.682 15.8974 195.542 16.3177C195.402 16.7497 195.203 17.1409 194.946 17.4911C194.701 17.8414 194.398 18.145 194.036 18.4019C193.685 18.6704 193.294 18.8806 192.862 19.0324L190.445 19.8555Z" fill="black"/>
<path d="M199.892 15.3895H197.965V4.75859H199.892V15.3895ZM195.584 4.32075V3.39251C195.584 2.85542 195.753 2.44677 196.091 2.16654C196.43 1.87465 196.81 1.7287 197.23 1.7287H200.855V3.39251H197.44C197.323 3.39251 197.23 3.43338 197.16 3.51511C197.101 3.58516 197.072 3.6669 197.072 3.7603V4.32075H195.584Z" fill="black"/>
<path fill-rule="evenodd" clip-rule="evenodd" d="M218.598 19.5052H216.601V17.4911H218.598V19.5052ZM221.522 19.5052H219.508V17.4911H221.522V19.5052Z" fill="black"/>
<path fill-rule="evenodd" clip-rule="evenodd" d="M225.165 7.03539H223.151V5.0213H225.165V7.03539ZM228.09 7.03539H226.076V5.0213H228.09V7.03539Z" fill="black"/>
<path d="M188.991 13.1127H178.174H177.351C177.117 13.1127 176.919 13.031 176.755 12.8675C176.592 12.704 176.51 12.5055 176.51 12.272V3.39251H174.583V12.3246C174.583 12.7449 174.665 13.1419 174.829 13.5155C174.992 13.8891 175.214 14.2161 175.494 14.4963C175.774 14.7765 176.101 14.9983 176.475 15.1618C176.849 15.3136 177.246 15.3895 177.666 15.3895H178.174H188.658C189.044 15.3895 189.411 15.3194 189.762 15.1793C190.124 15.0275 190.439 14.8232 190.708 14.5663C190.988 14.3095 191.204 14.0059 191.356 13.6556C191.519 13.3053 191.601 12.92 191.601 12.4997V11.2037C191.601 10.8067 191.525 10.4331 191.373 10.0828C191.221 9.73252 191.011 9.42895 190.743 9.17208C190.486 8.91521 190.182 8.71088 189.832 8.55909C189.493 8.40731 189.125 8.33141 188.728 8.33141H182.056L185.418 4.37329L184.035 3.07726L178.886 9.10202L180.269 10.4331H188.904C189.114 10.4331 189.295 10.509 189.447 10.6608C189.598 10.8009 189.674 10.976 189.674 11.1862V12.4297C189.674 12.6398 189.604 12.8091 189.464 12.9376C189.324 13.0543 189.166 13.1127 188.991 13.1127Z" fill="black"/>
<path d="M144.994 13.1127H155.811C155.986 13.1127 156.143 13.0485 156.284 12.92C156.424 12.7916 156.494 12.6281 156.494 12.4297V11.1862C156.494 10.976 156.418 10.8009 156.266 10.6608C156.114 10.509 155.933 10.4331 155.723 10.4331H147.089L145.705 9.10202L150.854 3.07726L152.238 4.37329L148.875 8.33141H155.548C155.945 8.33141 156.313 8.40731 156.651 8.55909C157.002 8.71088 157.305 8.91521 157.562 9.17208C157.831 9.42895 158.041 9.73252 158.193 10.0828C158.344 10.4331 158.42 10.8067 158.42 11.2037V12.272C158.42 12.5055 158.502 12.704 158.665 12.8675C158.829 13.031 159.027 13.1127 159.261 13.1127H160.347H161.852C162.086 13.1127 162.29 13.0426 162.465 12.9025C162.64 12.7624 162.798 12.5576 162.798 12.3421V9.18959H164.812V12.1669C164.812 12.4433 164.806 12.634 164.97 12.8325C165.133 13.0193 165.343 13.1127 165.6 13.1127H166.914H169.891C170.124 13.1127 170.323 13.031 170.486 12.8675C170.65 12.6924 170.732 12.488 170.732 12.2545V8.62915H172.658V12.2545C172.658 12.6865 172.576 13.0952 172.413 13.4805C172.249 13.8541 172.022 14.1869 171.73 14.4788C171.45 14.759 171.117 14.9808 170.732 15.1443C170.358 15.3078 169.955 15.3895 169.523 15.3895H166.914H165.583C165.209 15.3895 164.835 15.2902 164.462 15.0918C164.088 14.8816 163.837 14.6364 163.709 14.3562C163.627 14.4963 163.51 14.6306 163.358 14.759C163.206 14.8758 163.037 14.9867 162.85 15.0918C162.675 15.1852 162.483 15.2611 162.272 15.3194C162.074 15.3661 161.875 15.3895 161.677 15.3895H160.347H159.594C159.185 15.3895 158.806 15.3194 158.455 15.1793C158.105 15.0275 157.796 14.8232 157.527 14.5663C157.258 14.8232 156.943 15.0275 156.581 15.1793C156.231 15.3194 155.863 15.3895 155.478 15.3895H144.994H144.573C144.165 15.3895 143.773 15.3078 143.4 15.1443C143.038 14.9808 142.717 14.7181 142.437 14.3562C142.156 14.7181 141.812 14.9867 141.403 15.1618C141.006 15.3253 140.598 15.407 140.177 15.407C139.804 15.407 139.453 15.3253 139.126 15.1618C138.799 14.9867 138.519 14.7181 138.286 14.3562C138.017 14.7298 137.719 14.9983 137.393 15.1618C137.066 15.3136 136.704 15.3895 136.307 15.3895C136.108 15.3895 135.892 15.3603 135.659 15.3019C135.437 15.2319 135.244 15.0801 135.081 14.8466V15.3019C135.081 15.7456 134.987 16.1543 134.8 16.5279C134.614 16.9132 134.357 17.246 134.03 17.5262C133.703 17.8181 133.323 18.0458 132.891 18.2092C132.471 18.3727 132.033 18.4544 131.578 18.4544H128.531C127.993 18.4544 127.486 18.3493 127.007 18.1392C126.528 17.9407 126.108 17.6605 125.746 17.2985C125.396 16.9482 125.115 16.5337 124.905 16.055C124.707 15.5763 124.607 15.0684 124.607 14.5313V9.41727H126.534V14.2511C126.534 14.5196 126.581 14.7707 126.674 15.0042C126.779 15.2377 126.919 15.442 127.094 15.6172C127.27 15.7923 127.474 15.9266 127.707 16.02C127.941 16.1251 128.192 16.1776 128.46 16.1776H131.595C132.039 16.1776 132.413 16.0258 132.716 15.7223C133.02 15.4187 133.172 15.0451 133.172 14.6014V9.11954H135.098V12.3071C135.098 12.5289 135.18 12.7215 135.343 12.885C135.519 13.0368 135.717 13.1127 135.939 13.1127H136.447C136.68 13.1127 136.885 13.0426 137.06 12.9025C137.235 12.7624 137.393 12.582 137.393 12.3421V9.11954L139.389 9.10202V12.1669C139.389 12.4257 139.383 12.6515 139.547 12.85C139.722 13.0368 139.932 13.1302 140.177 13.1302H140.65C140.884 13.1302 141.082 13.0543 141.246 12.9025C141.409 12.7391 141.491 12.5406 141.491 12.3071L141.473 9.10202H143.4L143.417 12.2895C143.417 12.5231 143.499 12.7215 143.662 12.885C143.826 13.0368 144.024 13.1127 144.258 13.1127H144.926H144.994Z" fill="black"/>
<path d="M208.646 15.1268C209.008 15.3019 209.405 15.3895 209.837 15.3895H211.869C212.161 15.3895 212.429 15.3369 212.675 15.2319C212.92 15.1151 213.142 14.9225 213.34 14.6539C213.597 14.9225 213.877 15.1151 214.181 15.2319C214.496 15.3369 214.823 15.3895 215.162 15.3895H215.775H217.109C217.307 15.3895 217.506 15.3661 217.704 15.3194C217.915 15.2611 218.107 15.1852 218.282 15.0918C218.469 14.9867 218.638 14.8758 218.79 14.759C218.942 14.6306 219.059 14.4963 219.141 14.3562C219.269 14.6364 219.52 14.8816 219.894 15.0918C220.267 15.2902 220.641 15.3895 221.015 15.3895H222.346H224.955C225.387 15.3895 225.79 15.3078 226.164 15.1443C226.549 14.9808 226.882 14.759 227.162 14.4788C227.454 14.1869 227.681 13.8541 227.845 13.4805C228.008 13.0952 228.09 12.6865 228.09 12.2545V8.62915H226.164V12.2545C226.164 12.488 226.082 12.6924 225.918 12.8675C225.755 13.031 225.556 13.1127 225.323 13.1127H222.346H221.032C220.775 13.1127 220.565 13.0193 220.402 12.8325C220.238 12.634 220.186 12.4121 220.244 12.1669L220.769 9.52236L218.878 9.18959L218.23 12.3421C218.183 12.5756 218.072 12.7624 217.897 12.9025C217.722 13.0426 217.518 13.1127 217.284 13.1127H215.775H214.846C214.613 13.1127 214.414 13.031 214.251 12.8675C214.087 12.6924 214.006 12.488 214.006 12.2545V11.2037C214.006 10.8067 213.93 10.4389 213.778 10.1003C213.626 9.75004 213.416 9.44646 213.148 9.18959C212.891 8.92105 212.587 8.71088 212.237 8.55909C211.887 8.40731 211.513 8.33141 211.116 8.33141H206.965C206.533 8.33141 206.124 8.41315 205.739 8.57661C205.366 8.74007 205.033 8.96775 204.741 9.25965C204.461 9.53987 204.239 9.87263 204.075 10.2579C203.912 10.6316 203.83 11.0344 203.83 11.4664V19.873H205.757V11.3613C205.757 11.1278 205.838 10.9293 206.002 10.7658C206.165 10.6024 206.364 10.5206 206.597 10.5206H207.456L207.158 12.1319C207.076 12.5522 207.088 12.9609 207.193 13.3579C207.31 13.7549 207.491 14.1051 207.736 14.4087C207.981 14.7006 208.285 14.94 208.646 15.1268ZM209.172 12.92C209.067 12.7916 209.032 12.6398 209.067 12.4647L209.435 10.5206H211.396C211.583 10.5206 211.741 10.5849 211.869 10.7133C212.009 10.8417 212.079 10.9994 212.079 11.1862V13.1127H209.61C209.435 13.1127 209.289 13.0485 209.172 12.92Z" fill="black"/>
<path d="M73.8506 18.4008C73.8506 18.0552 74.1288 17.775 74.4721 17.775H80.9852C84.9255 17.775 88.1198 21.0203 88.1198 25.0235V31.6463C88.1198 31.9919 87.8416 32.2721 87.4983 32.2721H80.9852C77.0449 32.2721 73.8506 29.0268 73.8506 25.0235V18.4008Z" fill="black"/>
<path d="M103.906 18.4008C103.906 18.0552 103.628 17.775 103.285 17.775H96.7715C92.8312 17.775 89.6369 21.0203 89.6369 25.0235V31.6463C89.6369 31.9919 89.9151 32.2721 90.2584 32.2721H96.7715C100.712 32.2721 103.906 29.0268 103.906 25.0235V18.4008Z" fill="black"/>
<path d="M88.1198 2.3521C88.1198 2.00646 87.8416 1.72626 87.4983 1.72626H80.9852C77.0449 1.72626 73.8506 4.97155 73.8506 8.97482V15.5975C73.8506 15.9432 74.1288 16.2234 74.4721 16.2234H80.9852C84.9255 16.2234 88.1198 12.9781 88.1198 8.97482V2.3521Z" fill="black"/>
<path d="M89.6369 2.3521C89.6369 2.00646 89.9151 1.72626 90.2584 1.72626H96.7715C100.712 1.72626 103.906 4.97155 103.906 8.97482V15.5975C103.906 15.9432 103.628 16.2234 103.285 16.2234H96.7715C92.8312 16.2234 89.6369 12.9781 89.6369 8.97482V2.3521Z" fill="black"/>
<path d="M27.3673 4.88086H26.3866C25.9352 4.88086 25.5693 5.24677 25.5693 5.69814V16.0775H26.5501C27.0014 16.0775 27.3673 15.7116 27.3673 15.2602V4.88086Z" fill="black"/>
<path d="M32.9139 11.8767C32.8376 11.9312 32.7614 12.0075 32.6851 12.1056C32.6197 12.1927 32.587 12.318 32.587 12.4815V13.168C32.587 13.277 32.6088 13.3914 32.6524 13.5113C32.7069 13.6311 32.7777 13.7455 32.8649 13.8545C32.963 13.9526 33.0774 14.0398 33.2081 14.116C33.3389 14.1814 33.4915 14.2141 33.6658 14.2141H34.4177C34.6138 14.2141 34.7828 14.176 34.9244 14.0997C35.0661 14.0125 35.175 13.9144 35.2513 13.8055C35.3385 13.6965 35.3984 13.5875 35.4311 13.4786C35.4747 13.3587 35.4965 13.2715 35.4965 13.217V12.5305C35.4965 12.4107 35.4638 12.2908 35.3984 12.1709C35.3439 12.0511 35.2568 11.953 35.1369 11.8767C35.0933 11.8549 35.0061 11.8004 34.8754 11.7133C34.7555 11.6261 34.6193 11.5389 34.4667 11.4517C34.4504 11.4419 34.4338 11.4319 34.4171 11.4217C34.1197 11.241 33.7414 11.2494 33.464 11.4597L32.9139 11.8767ZM31.8925 8.56854C32.1396 8.18549 32.6524 8.07866 33.0319 8.33114L36.1013 10.3729C36.559 10.6781 36.8695 11.0322 37.033 11.4354C37.2073 11.8386 37.2945 12.2309 37.2945 12.6123V13.168C37.2945 13.5276 37.2291 13.8927 37.0984 14.2632C36.9785 14.6228 36.7878 14.9497 36.5263 15.2439C36.2647 15.5381 35.9378 15.7833 35.5455 15.9794C35.1641 16.1647 34.7119 16.2573 34.1889 16.2573H33.8456C33.3552 16.2573 32.9194 16.1647 32.538 15.9794C32.1566 15.7833 31.8351 15.5381 31.5736 15.2439C31.3121 14.9388 31.1159 14.6064 30.9852 14.2468C30.8544 13.8763 30.789 13.5167 30.789 13.168V12.6613C30.789 12.3998 30.8217 12.1491 30.8871 11.9094C30.9634 11.6697 31.0614 11.4517 31.1813 11.2556C31.3012 11.0485 31.4319 10.8687 31.5736 10.7162C31.7262 10.5636 31.8842 10.4438 32.0476 10.3566C32.1348 10.3021 32.2056 10.264 32.2601 10.2422C32.3146 10.2095 32.3582 10.1822 32.3909 10.1604C32.4236 10.1495 32.4454 10.1387 32.4562 10.1278L31.3611 9.39221L31.8925 8.56854Z" fill="black"/>
<path d="M45.3497 15.7342C45.3497 16.1592 45.2844 16.5679 45.1536 16.9602C45.0228 17.3633 44.8376 17.7284 44.5979 18.0553C44.369 18.3931 44.0857 18.6873 43.7479 18.938C43.421 19.1886 43.0505 19.3847 42.6364 19.5264L41.1836 20.0248C40.7514 20.173 40.2817 19.9382 40.1409 19.5035L39.8413 18.5784L42.146 17.8101C42.5601 17.6685 42.8925 17.4396 43.1431 17.1236C43.4046 16.8076 43.5354 16.4317 43.5354 15.9958V15.8814C43.4155 15.9358 43.2684 15.9849 43.0941 16.0285C42.9197 16.0612 42.7454 16.0775 42.571 16.0775H41.4759C41.0727 16.0775 40.7022 15.9958 40.3644 15.8323C40.0266 15.658 39.7378 15.4291 39.4981 15.1458C39.2692 14.8625 39.1058 14.541 39.0077 14.1814C38.9096 13.8109 38.8987 13.4295 38.975 13.0372L39.2529 11.5498C39.3074 11.2556 39.4109 10.9832 39.5635 10.7325C39.7269 10.471 39.9176 10.2476 40.1355 10.0624C40.3535 9.87712 40.5987 9.73546 40.8711 9.63739C41.1544 9.52842 41.4486 9.47394 41.7537 9.47394H42.6691C43.0396 9.47394 43.3883 9.54477 43.7152 9.68643C44.0421 9.82809 44.3254 10.0242 44.5652 10.2749C44.8049 10.5146 44.9956 10.7979 45.1372 11.1248C45.2789 11.4517 45.3497 11.8004 45.3497 12.1709V15.7342ZM42.7345 13.9526C43.1858 13.9526 43.5517 13.5867 43.5517 13.1353V12.1546C43.5517 11.9802 43.4918 11.8331 43.3719 11.7133C43.2521 11.5825 43.105 11.5171 42.9306 11.5171H41.6066C41.4541 11.5171 41.3233 11.5662 41.2143 11.6642C41.1054 11.7623 41.0345 11.8876 41.0019 12.0402L40.7403 13.3478C40.7076 13.5004 40.7403 13.642 40.8384 13.7728C40.9474 13.8927 41.0836 13.9526 41.247 13.9526H42.7345Z" fill="black"/>
<path fill-rule="evenodd" clip-rule="evenodd" d="M57.1091 4.44546L53.8477 8.26437L54.1959 8.53581C54.5406 8.80457 55.0358 8.75452 55.3197 8.4222L58.5552 4.63568L58.2975 4.38752C57.9585 4.06113 57.4147 4.08765 57.1091 4.44546Z" fill="black"/>
<path d="M64.6521 13.9526H53.1617H51.9685C51.7724 13.9526 51.5926 13.8927 51.4291 13.7728C51.2656 13.642 51.1839 13.4786 51.1839 13.2824V10.2258H50.2032C49.7518 10.2258 49.3859 10.5917 49.3859 11.0431V15.8814C49.3859 16.3063 49.2606 16.6932 49.01 17.0419C48.7702 17.4015 48.4433 17.6467 48.0292 17.7774L45.6755 18.5457L45.9726 19.4458C46.1151 19.8773 46.5821 20.1098 47.0122 19.9633L48.4869 19.461C48.8792 19.3302 49.2388 19.145 49.5657 18.9053C49.8926 18.6764 50.1759 18.404 50.4157 18.088C50.6554 17.772 50.8407 17.4233 50.9714 17.0419C51.1131 16.6714 51.1839 16.2791 51.1839 15.865V15.5708C51.3038 15.7778 51.4672 15.914 51.6743 15.9794C51.8813 16.0448 52.0775 16.0775 52.2627 16.0775H53.1617H64.2598C64.6194 16.0775 64.9626 16.0121 65.2895 15.8814C65.6273 15.7397 65.9215 15.549 66.1722 15.3093C66.4337 15.0695 66.6353 14.7862 66.777 14.4593C66.9295 14.1324 67.0058 13.7728 67.0058 13.3805V12.1709C67.0058 11.8004 66.935 11.4517 66.7933 11.1248C66.6516 10.7979 66.4555 10.5146 66.2049 10.2749C65.9651 10.0351 65.6818 9.84443 65.3549 9.70277C65.0389 9.56111 64.6956 9.49028 64.3251 9.49028H58.0975L61.2359 5.79621L60.5688 5.1714C60.2288 4.85285 59.6916 4.88266 59.3888 5.23689L55.139 10.2095L56.4303 11.4517H64.4886C64.6847 11.4517 64.8536 11.5226 64.9953 11.6642C65.137 11.795 65.2078 11.9584 65.2078 12.1546V13.3151C65.2078 13.5004 65.1424 13.6529 65.0117 13.7728C64.8918 13.8927 64.7719 13.9526 64.6521 13.9526Z" fill="black"/>
<path d="M3.46019 16.0775H2.98617C2.59388 16.0775 2.22339 16.0067 1.87468 15.865C1.52598 15.7125 1.22087 15.5054 0.959338 15.2439C0.697811 14.9824 0.490769 14.6772 0.338211 14.3285C0.185654 13.9798 0.109375 13.6093 0.109375 13.217V5.69814C0.109375 5.24677 0.47528 4.88086 0.926647 4.88086H1.90737V13.168C1.90737 13.3859 1.98365 13.5712 2.13621 13.7238C2.28877 13.8763 2.47402 13.9526 2.69196 13.9526H3.46019H3.9775C4.19544 13.9526 4.38069 13.8872 4.53324 13.7564C4.6967 13.6257 4.80022 13.4513 4.84381 13.2334L5.17072 11.5498C5.2252 11.2556 5.32872 10.9832 5.48128 10.7325C5.64474 10.471 5.83543 10.2531 6.05337 10.0787C6.27131 9.89347 6.51649 9.75181 6.78892 9.65374C7.07224 9.54477 7.36646 9.49028 7.67157 9.49028H8.58692C8.95741 9.49028 9.30612 9.56111 9.63302 9.70277C9.95993 9.84443 10.2433 10.0351 10.483 10.2749C10.7227 10.5146 10.9134 10.7979 11.0551 11.1248C11.1967 11.4517 11.2676 11.8004 11.2676 12.1709V13.168C11.2676 13.3859 11.3438 13.5712 11.4964 13.7238C11.649 13.8763 11.8342 13.9526 12.0522 13.9526H12.6733H13.4326C13.6505 13.9526 13.8358 13.8709 13.9883 13.7074C14.1409 13.544 14.2172 13.3533 14.2172 13.1353V11.0431C14.2172 10.5917 14.5831 10.2258 15.0344 10.2258H16.0152V13.1517C16.0152 13.3696 16.0914 13.5603 16.244 13.7238C16.3965 13.8763 16.5818 13.9526 16.7997 13.9526H17.2738C17.4917 13.9526 17.6824 13.8872 17.8458 13.7564C18.0093 13.6257 18.1128 13.4513 18.1564 13.2334L18.6005 11.0609C18.6897 10.6244 19.112 10.3398 19.55 10.4209L20.5265 10.6018L20.0361 13.0536C19.9816 13.2824 20.0307 13.4895 20.1832 13.6747C20.3467 13.86 20.5428 13.9526 20.7717 13.9526H21.9812V10.6018C21.9812 10.1504 22.3471 9.7845 22.7985 9.7845H23.7792V14.0834C23.7792 14.3558 23.7248 14.6173 23.6158 14.8679C23.5177 15.1077 23.3761 15.3202 23.1908 15.5054C23.0165 15.6798 22.804 15.8214 22.5533 15.9304C22.3136 16.0285 22.0575 16.0775 21.7851 16.0775H20.7717C20.423 16.0775 20.0961 16.0012 19.791 15.8487C19.4858 15.6961 19.2243 15.4455 19.0064 15.0968C18.7557 15.4455 18.467 15.6961 18.1401 15.8487C17.8132 16.0012 17.4699 16.0775 17.1103 16.0775C16.718 16.0775 16.3475 16.0012 15.9988 15.8487C15.661 15.6852 15.3668 15.44 15.1162 15.1131C14.8546 15.44 14.5495 15.6852 14.2008 15.8487C13.863 16.0012 13.498 16.0775 13.1057 16.0775H12.6733H12.3627C12.0467 16.0775 11.7416 16.023 11.4474 15.914C11.164 15.8051 10.9025 15.6253 10.6628 15.3746C10.3141 15.8432 9.85641 16.0775 9.28977 16.0775H7.3937C7.06679 16.0775 6.75623 16.0067 6.46201 15.865C6.16779 15.7233 5.90081 15.4782 5.66108 15.1295C5.41045 15.4782 5.13258 15.7233 4.82746 15.865C4.52235 16.0067 4.19544 16.0775 3.84674 16.0775H3.46019ZM7.16486 13.9526H8.6523C9.10366 13.9526 9.46957 13.5867 9.46957 13.1353V12.1546C9.46957 11.9802 9.40964 11.8331 9.28977 11.7133C9.1699 11.5934 9.02279 11.5335 8.84844 11.5335H7.52446C7.3719 11.5335 7.24114 11.5825 7.13217 11.6806C7.0232 11.7677 6.95237 11.8876 6.91968 12.0402L6.65815 13.3478C6.62546 13.5004 6.65815 13.642 6.75623 13.7728C6.8652 13.8927 7.00141 13.9526 7.16486 13.9526Z" fill="black"/>
<path d="M2.69026 22.8515C2.74825 22.6886 2.9024 22.5799 3.07524 22.5799H4.19786L6.87546 30.0978H5.70408C5.5299 30.0978 5.37487 29.9874 5.31789 29.8228L4.94965 28.759H2.03519L1.57176 30.0978H0.109375L2.69026 22.8515ZM2.50892 27.4202H4.48622L3.49757 24.5675L2.50892 27.4202Z" fill="black"/>
<path d="M10.2772 30.2008C9.59754 30.2008 9.02426 30.0738 8.5574 29.8197C8.09053 29.5588 7.68546 29.2362 7.34218 28.8517L8.24994 28.1343C8.4449 27.9802 8.72842 28.038 8.89166 28.2253C9.02318 28.3763 9.16922 28.5027 9.32978 28.6045C9.61127 28.7762 9.92366 28.862 10.2669 28.862C10.6377 28.862 10.9192 28.759 11.1114 28.553C11.3105 28.347 11.4101 28.1136 11.4101 27.8527C11.4101 27.6948 11.3654 27.5609 11.2762 27.4511C11.1869 27.3412 11.0702 27.2485 10.926 27.173C10.7819 27.0906 10.6137 27.0185 10.4214 26.9568C10.236 26.895 10.0438 26.8332 9.8447 26.7714C9.59067 26.689 9.33665 26.5997 9.08262 26.5036C8.82859 26.4075 8.59859 26.2805 8.39262 26.1226C8.19352 25.9578 8.02874 25.7587 7.8983 25.5253C7.77471 25.285 7.71292 24.9863 7.71292 24.6293C7.71292 24.3272 7.77471 24.0457 7.8983 23.7848C8.02188 23.5239 8.19352 23.2974 8.41322 23.1051C8.63978 22.906 8.90411 22.7516 9.2062 22.6417C9.51515 22.5319 9.84814 22.4769 10.2051 22.4769C10.5072 22.4769 10.7784 22.5044 11.0187 22.5593C11.2659 22.6142 11.489 22.6898 11.6881 22.7859C11.8941 22.882 12.0795 22.9987 12.2442 23.136C12.4159 23.2665 12.5772 23.4107 12.7283 23.5686L11.9198 24.1821C11.7326 24.3242 11.4682 24.2733 11.2942 24.1155C11.0056 23.8539 10.646 23.723 10.2154 23.723C9.87217 23.723 9.61127 23.8054 9.43276 23.9702C9.25426 24.135 9.165 24.3375 9.165 24.5778C9.165 24.7289 9.2062 24.8559 9.28859 24.9589C9.37097 25.0618 9.48082 25.1545 9.61814 25.2369C9.76232 25.3124 9.92709 25.3811 10.1125 25.4429C10.2978 25.5047 10.4935 25.5699 10.6995 25.6386C10.9535 25.7209 11.2075 25.8171 11.4616 25.9269C11.7225 26.0299 11.9559 26.1672 12.1619 26.3389C12.3747 26.5036 12.5463 26.7096 12.6768 26.9568C12.8072 27.1971 12.8725 27.4991 12.8725 27.863C12.8725 28.1582 12.8141 28.4466 12.6974 28.7281C12.5807 29.0096 12.4125 29.2602 12.1928 29.4799C11.9731 29.6927 11.7019 29.8678 11.3792 30.0051C11.0565 30.1356 10.6892 30.2008 10.2772 30.2008Z" fill="black"/>
<path d="M14.1003 22.5799H15.4906L17.7666 25.7415L20.1352 22.5799H21.055C21.2807 22.5799 21.4637 22.7629 21.4637 22.9886V30.0978H20.0631V24.825L17.7563 27.9351L15.5009 24.8765V30.0978H14.509C14.2833 30.0978 14.1003 29.9148 14.1003 29.6891V22.5799Z" fill="black"/>
<path d="M24.9886 22.5799H26.1112C26.284 22.5799 26.4382 22.6886 26.4962 22.8515L29.077 30.0978H27.6147L27.1512 28.759H24.2368L23.7733 30.0978H22.8903C22.6079 30.0978 22.4106 29.8181 22.5053 29.552L24.9886 22.5799ZM24.7105 27.4202H26.6878L25.6991 24.5675L24.7105 27.4202Z" fill="black"/>
<path d="M36.0452 30.2008C35.4616 30.2008 34.9295 30.0978 34.4489 29.8918C33.9683 29.6859 33.5564 29.4078 33.2131 29.0576C32.8698 28.7006 32.6055 28.2887 32.4201 27.8218C32.2348 27.355 32.1421 26.8606 32.1421 26.3389C32.1421 25.8033 32.2382 25.3021 32.4304 24.8353C32.6227 24.3615 32.887 23.953 33.2234 23.6098C33.5667 23.2596 33.9718 22.985 34.4386 22.7859C34.9124 22.5799 35.4273 22.4769 35.9834 22.4769C36.3747 22.4769 36.7421 22.525 37.0853 22.6211C37.4286 22.7104 37.7444 22.8408 38.0328 23.0124C38.328 23.1841 38.5889 23.3901 38.8155 23.6304C39.0489 23.8638 39.2446 24.1212 39.4025 24.4027L38.5334 24.9242C38.3336 25.044 38.077 24.9702 37.9384 24.7829C37.7477 24.5252 37.5252 24.3195 37.2707 24.1659C36.9137 23.9462 36.488 23.8363 35.9937 23.8363C35.6436 23.8363 35.3174 23.905 35.0153 24.0423C34.7201 24.1727 34.4592 24.3512 34.2327 24.5778C34.013 24.8044 33.8413 25.0687 33.7177 25.3708C33.5942 25.6729 33.5324 25.9956 33.5324 26.3389C33.5324 26.689 33.5942 27.0151 33.7177 27.3172C33.8413 27.6193 34.013 27.8836 34.2327 28.1102C34.4592 28.3368 34.727 28.5153 35.0359 28.6457C35.3449 28.7762 35.6813 28.8414 36.0452 28.8414C36.6082 28.8414 37.075 28.6938 37.4458 28.3985C37.8234 28.1033 38.0809 27.7085 38.2182 27.2142H36.2273C36.0016 27.2142 35.8186 27.0313 35.8186 26.8056V25.8754H39.7217V26.4315C39.7217 26.9396 39.6359 27.4236 39.4643 27.8836C39.2926 28.3368 39.0455 28.735 38.7228 29.0782C38.407 29.4215 38.0225 29.6961 37.5694 29.9021C37.1162 30.1012 36.6082 30.2008 36.0452 30.2008Z" fill="black"/>
<path d="M40.8251 30.0978V22.9886C40.8251 22.7629 41.0081 22.5799 41.2338 22.5799H43.235C43.6812 22.5799 44.076 22.6451 44.4193 22.7756C44.7694 22.8992 45.0647 23.0777 45.305 23.3111C45.5453 23.5377 45.7272 23.8123 45.8508 24.135C45.9812 24.4508 46.0465 24.8044 46.0465 25.1957C46.0465 25.6489 45.9366 26.0745 45.7169 26.4727C45.5041 26.8641 45.1917 27.1696 44.7797 27.3893L46.2833 30.0978H44.6871L43.4821 27.8012H42.2257V29.6891C42.2257 29.9148 42.0428 30.0978 41.8171 30.0978H40.8251ZM43.1114 26.5139C43.3997 26.5139 43.64 26.4796 43.8323 26.4109C44.0314 26.3354 44.1893 26.2359 44.306 26.1123C44.4296 25.9818 44.5154 25.8342 44.5635 25.6695C44.6184 25.5047 44.6459 25.3296 44.6459 25.1442C44.6459 24.7598 44.5223 24.4542 44.2751 24.2277C44.0348 24.0011 43.6469 23.8878 43.1114 23.8878H42.2257V26.5139H43.1114Z" fill="black"/>
<path d="M50.5333 30.2008C49.9978 30.2008 49.4966 30.1012 49.0297 29.9021C48.5629 29.6961 48.1544 29.4215 47.8042 29.0782C47.4609 28.7281 47.1897 28.3196 46.9906 27.8527C46.7915 27.379 46.692 26.8744 46.692 26.3389C46.692 25.8033 46.7915 25.3021 46.9906 24.8353C47.1897 24.3684 47.4609 23.9599 47.8042 23.6098C48.1544 23.2596 48.5629 22.985 49.0297 22.7859C49.4966 22.5799 49.9978 22.4769 50.5333 22.4769C51.0688 22.4769 51.57 22.5799 52.0369 22.7859C52.5037 22.985 52.9122 23.2596 53.2624 23.6098C53.6125 23.9599 53.8872 24.3684 54.0863 24.8353C54.2854 25.3021 54.3849 25.8033 54.3849 26.3389C54.3849 26.8744 54.2854 27.379 54.0863 27.8527C53.8872 28.3196 53.6125 28.7281 53.2624 29.0782C52.9122 29.4215 52.5037 29.6961 52.0369 29.9021C51.57 30.1012 51.0688 30.2008 50.5333 30.2008ZM50.5333 28.8208C50.8766 28.8208 51.1958 28.7556 51.4911 28.6251C51.7931 28.4947 52.054 28.3196 52.2737 28.0999C52.5003 27.8733 52.6754 27.609 52.799 27.3069C52.9294 27.0048 52.9946 26.6821 52.9946 26.3389C52.9946 25.9956 52.9294 25.6729 52.799 25.3708C52.6754 25.0687 52.5003 24.8078 52.2737 24.5881C52.054 24.3615 51.7931 24.183 51.4911 24.0526C51.1958 23.9221 50.8766 23.8569 50.5333 23.8569C50.19 23.8569 49.8673 23.9221 49.5652 24.0526C49.27 24.183 49.0126 24.3615 48.7929 24.5881C48.5732 24.8078 48.3981 25.0687 48.2676 25.3708C48.1441 25.6729 48.0823 25.9956 48.0823 26.3389C48.0823 26.6821 48.1441 27.0048 48.2676 27.3069C48.3981 27.609 48.5732 27.8733 48.7929 28.0999C49.0126 28.3196 49.27 28.4947 49.5652 28.6251C49.8673 28.7556 50.19 28.8208 50.5333 28.8208Z" fill="black"/>
<path d="M57.9925 30.1493C57.6011 30.1493 57.2407 30.0909 56.9111 29.9742C56.5816 29.8575 56.2932 29.6858 56.0461 29.4593C55.8058 29.2327 55.617 28.9512 55.4797 28.6148C55.3492 28.2784 55.284 27.8905 55.284 27.4511V22.5284H56.2759C56.5016 22.5284 56.6846 22.7114 56.6846 22.9371V27.5335C56.6846 27.7188 56.7155 27.8939 56.7773 28.0587C56.8459 28.2166 56.9386 28.3539 57.0553 28.4706C57.172 28.5873 57.3094 28.68 57.4673 28.7487C57.6252 28.8173 57.7968 28.8517 57.9822 28.8517C58.1676 28.8517 58.3392 28.8173 58.4971 28.7487C58.655 28.68 58.7923 28.5873 58.909 28.4706C59.0326 28.3539 59.1288 28.2166 59.1974 28.0587C59.2661 27.8939 59.3004 27.7188 59.3004 27.5335V22.9371C59.3004 22.7114 59.4834 22.5284 59.7091 22.5284H60.701V27.4511C60.701 27.8905 60.6323 28.2784 60.495 28.6148C60.3577 28.9512 60.1689 29.2327 59.9286 29.4593C59.6883 29.6858 59.4034 29.8575 59.0738 29.9742C58.7443 30.0909 58.3838 30.1493 57.9925 30.1493Z" fill="black"/>
<path d="M61.7227 22.9886C61.7227 22.7629 61.9057 22.5799 62.1314 22.5799H64.2973C64.6886 22.5799 65.0491 22.652 65.3786 22.7962C65.7082 22.9335 65.9931 23.1223 66.2334 23.3626C66.4737 23.6029 66.6625 23.8878 66.7998 24.2174C66.9371 24.5401 67.0058 24.8868 67.0058 25.2575C67.0058 25.6283 66.9371 25.9784 66.7998 26.308C66.6625 26.6375 66.4737 26.9224 66.2334 27.1627C65.9931 27.403 65.7048 27.5953 65.3683 27.7394C65.0388 27.8768 64.6783 27.9454 64.287 27.9454H63.1233V29.6891C63.1233 29.9148 62.9403 30.0978 62.7146 30.0978H61.7227V22.9886ZM63.1233 23.8775V26.6478H64.1943C64.4003 26.6478 64.5891 26.6135 64.7607 26.5448C64.9324 26.4693 65.08 26.3697 65.2036 26.2462C65.3271 26.1157 65.4233 25.9681 65.4919 25.8033C65.5606 25.6317 65.5949 25.4497 65.5949 25.2575C65.5949 25.0653 65.5606 24.8868 65.4919 24.722C65.4233 24.5504 65.3271 24.4027 65.2036 24.2792C65.08 24.1556 64.9324 24.0595 64.7607 23.9908C64.5891 23.9153 64.4003 23.8775 64.1943 23.8775H63.1233Z" fill="black"/>
</svg>
