<svg width="28" height="13" viewBox="0 0 28 13" fill="none" xmlns="http://www.w3.org/2000/svg">
<path d="M13.8571 7.4135C15.4827 7.4135 16.8005 6.0298 16.8005 4.32292C16.8005 2.61603 15.4827 1.23233 13.8571 1.23233C12.2315 1.23233 10.9137 2.61603 10.9137 4.32292C10.9137 6.0298 12.2315 7.4135 13.8571 7.4135Z" fill="#69B0B2"/>
<path d="M16.565 7.5804C15.9692 8.13141 15.2322 8.48611 14.4457 8.60029V9.26786C14.4457 9.43179 14.3837 9.58901 14.2733 9.70493C14.1629 9.82085 14.0132 9.88597 13.857 9.88597C13.7009 9.88597 13.5512 9.82085 13.4408 9.70493C13.3304 9.58901 13.2684 9.43179 13.2684 9.26786V8.60029C12.482 8.48576 11.7451 8.1311 11.1491 7.5804C10.4463 8.01969 9.84999 8.62385 9.40674 9.34556C8.96349 10.0673 8.68539 10.8869 8.59422 11.7403C8.55527 12.1511 8.54347 12.5641 8.55889 12.9766H19.1552C19.1552 10.8255 18.6372 8.87226 16.565 7.5804ZM20.6387 5.76931C21.0302 6.00449 21.468 6.14205 21.9182 6.17135C22.3684 6.20065 22.8189 6.12092 23.2351 5.93832C23.6513 5.75571 24.022 5.47511 24.3185 5.11819C24.615 4.76127 24.8294 4.33758 24.9451 3.87982C25.0609 3.42207 25.0749 2.94251 24.9861 2.47817C24.8973 2.01382 24.708 1.57712 24.4329 1.20179C24.1578 0.82645 23.8042 0.522521 23.3995 0.313467C22.9948 0.104413 22.5497 -0.00417284 22.0986 -0.00390576C21.4503 -0.00216416 20.8207 0.224267 20.3075 0.640232C19.7943 1.0562 19.4263 1.63842 19.2605 2.29652C19.0948 2.95461 19.1406 3.65175 19.3909 4.27971C19.6411 4.90766 20.0818 5.4313 20.6446 5.76931H20.6387Z" fill="#69B0B2"/>
<path d="M25.8426 7.19098C25.5338 6.86263 25.1855 6.57796 24.8065 6.34416C24.6037 6.53709 24.3805 6.70507 24.1413 6.84484C22.4871 7.82765 22.6873 6.79539 22.6873 8.03162C22.6873 8.19556 22.6253 8.35278 22.5149 8.4687C22.4045 8.58462 22.2547 8.64974 22.0986 8.64974C21.9425 8.64974 21.7927 8.58462 21.6823 8.4687C21.5719 8.35278 21.5099 8.19556 21.5099 8.03162C21.5099 6.79539 21.7336 7.82146 20.0559 6.84484C19.8182 6.69958 19.5936 6.532 19.3848 6.34416C18.9481 6.61614 18.5515 6.95346 18.2074 7.34551C19.3757 8.44816 20.1156 9.96455 20.2854 11.6043C20.3325 11.8021 19.4966 11.7403 27.3967 11.7403C27.3967 10.0034 27.1672 8.56939 25.8426 7.19098ZM4.16141 5.77549C4.55323 6.00865 4.99078 6.14429 5.44038 6.17197C5.88998 6.19965 6.33963 6.11863 6.75472 5.93514C7.16981 5.75166 7.53926 5.47061 7.83463 5.11363C8.13001 4.75664 8.34342 4.33325 8.45845 3.87605C8.57348 3.41884 8.58706 2.94002 8.49813 2.47644C8.4092 2.01286 8.22015 1.57689 7.94552 1.20209C7.67089 0.827294 7.31801 0.523666 6.91405 0.314585C6.51009 0.105503 6.06582 -0.00345605 5.61545 -0.00390486C4.96525 -0.0045528 4.33314 0.220873 3.81781 0.637181C3.30248 1.05349 2.93294 1.63725 2.76687 2.29732C2.6008 2.95739 2.64756 3.65662 2.89984 4.28584C3.15212 4.91507 3.59573 5.43888 4.16141 5.77549Z" fill="#69B0B2"/>
<path d="M9.49496 7.34522C9.15528 6.94829 8.75791 6.61033 8.31759 6.34387C7.72383 6.89441 6.98879 7.24913 6.20422 7.36376V8.03133C6.20422 8.19527 6.14219 8.35249 6.0318 8.46841C5.9214 8.58433 5.77166 8.64945 5.61553 8.64945C5.4594 8.64945 5.30967 8.58433 5.19927 8.46841C5.08887 8.35249 5.02685 8.19527 5.02685 8.03133V7.36376C4.2405 7.24923 3.50355 6.89457 2.90759 6.34387C2.11865 6.83647 1.46512 7.53584 1.01106 8.37344C0.55699 9.21104 0.317957 10.1581 0.317383 11.1219V11.74C8.20574 11.74 7.38158 11.8018 7.42279 11.5917C7.59386 9.95717 8.33138 8.44578 9.49496 7.34522Z" fill="#69B0B2"/>
</svg>
