<svg width="38" height="24" viewBox="0 0 38 24" fill="none" xmlns="http://www.w3.org/2000/svg">
<path d="M19.0179 0.635254C16.2762 0.635254 14.0179 2.89357 14.0179 5.63525C14.0179 8.37694 16.2762 10.6353 19.0179 10.6353C21.7596 10.6353 24.0179 8.37694 24.0179 5.63525C24.0179 2.89357 21.7596 0.635254 19.0179 0.635254ZM7.35124 3.96859C6.46718 3.96859 5.61934 4.31978 4.99421 4.9449C4.36909 5.57002 4.0179 6.41787 4.0179 7.30192C4.0179 8.18598 4.36909 9.03382 4.99421 9.65894C5.61934 10.2841 6.46718 10.6353 7.35124 10.6353C8.23529 10.6353 9.08314 10.2841 9.70826 9.65894C10.3334 9.03382 10.6846 8.18598 10.6846 7.30192C10.6846 6.41787 10.3334 5.57002 9.70826 4.9449C9.08314 4.31978 8.23529 3.96859 7.35124 3.96859ZM30.6846 3.96859C29.8005 3.96859 28.9527 4.31978 28.3275 4.9449C27.7024 5.57002 27.3512 6.41787 27.3512 7.30192C27.3512 8.18598 27.7024 9.03382 28.3275 9.65894C28.9527 10.2841 29.8005 10.6353 30.6846 10.6353C31.5686 10.6353 32.4165 10.2841 33.0416 9.65894C33.6667 9.03382 34.0179 8.18598 34.0179 7.30192C34.0179 6.41787 33.6667 5.57002 33.0416 4.9449C32.4165 4.31978 31.5686 3.96859 30.6846 3.96859ZM7.35124 13.9686C3.70957 13.9686 0.68457 15.4832 0.68457 17.6632V20.6353H5.68457V19.3299C5.68457 17.2382 6.56288 15.431 8.11621 14.0077C7.86288 13.9927 7.6129 13.9686 7.35124 13.9686ZM19.0179 13.9686C13.1312 13.9686 9.0179 16.1732 9.0179 19.3299V23.9686H29.0179V19.3299C29.0179 16.1732 24.9046 13.9686 19.0179 13.9686ZM30.6846 13.9686C30.4229 13.9686 30.1729 13.9927 29.9196 14.0077C31.4729 15.431 32.3512 17.2399 32.3512 19.3299V20.6353H37.3512V17.6632C37.3512 15.4832 34.3262 13.9686 30.6846 13.9686Z" fill="white"/>
</svg>
