<svg width="49" height="45" viewBox="0 0 49 45" fill="none" xmlns="http://www.w3.org/2000/svg">
<path d="M1.27709 0.334034C1.13912 0.335318 1.00305 0.366333 0.878154 0.424963C0.753256 0.483592 0.642466 0.56846 0.553334 0.673781C0.464202 0.779103 0.398824 0.902402 0.361656 1.03528C0.324487 1.16815 0.316402 1.30748 0.33795 1.44376V43.5326C0.33795 44.0624 0.767923 44.4924 1.29771 44.4924H17.6136C18.1434 44.4924 18.5734 44.0624 18.5734 43.5326V16.3538L19.8931 17.4091C19.9915 17.488 20.1046 17.5466 20.2257 17.5817C20.3468 17.6169 20.4737 17.6278 20.599 17.6139C20.7244 17.6 20.8458 17.5615 20.9563 17.5007C21.0667 17.4398 21.1642 17.3578 21.2429 17.2594C21.3217 17.1609 21.3803 17.0478 21.4154 16.9267C21.4505 16.8055 21.4614 16.6787 21.4475 16.5533C21.4335 16.428 21.395 16.3066 21.3342 16.1961C21.2733 16.0857 21.1913 15.9883 21.0928 15.9095L1.89756 0.553354C1.72304 0.409416 1.5033 0.331741 1.27709 0.334034ZM10.8953 2.26293C10.3655 2.26293 9.93556 2.6929 9.93556 3.22269V4.52736L15.6941 9.13309V3.22269C15.6941 2.6929 15.2641 2.26293 14.7344 2.26293H10.8953ZM40.6479 8.98125C39.6297 8.98125 38.6532 9.38572 37.9333 10.1057C37.2133 10.8256 36.8088 11.8021 36.8088 12.8203C36.8088 13.8385 37.2133 14.8149 37.9333 15.5349C38.6532 16.2549 39.6297 16.6593 40.6479 16.6593C41.6661 16.6593 42.6425 16.2549 43.3625 15.5349C44.0825 14.8149 44.4869 13.8385 44.4869 12.8203C44.4869 11.8021 44.0825 10.8256 43.3625 10.1057C42.6425 9.38572 41.6661 8.98125 40.6479 8.98125ZM37.5399 17.6247C37.1939 17.6131 36.8517 17.6563 36.5239 17.7466L29.4869 19.7448C29.0128 19.883 28.6013 20.1787 28.3191 20.5827L24.72 25.7414C24.0376 26.7204 24.2781 28.0658 25.2561 28.7482C25.6323 29.0112 26.0634 29.1362 26.4895 29.1362C27.1719 29.1362 27.8434 28.8138 28.2629 28.2121L31.4252 23.6795L32.9904 23.2239L31.8601 26.2644C31.8582 26.2712 31.8611 26.2765 31.8582 26.2832L31.2977 27.7903C30.9109 28.8297 31.1314 29.9876 31.8713 30.8139L36.5239 36.0064C36.5518 36.0371 36.5609 36.0759 36.5839 36.1095L37.6374 37.2867L39.3001 42.9365C39.5775 43.8781 40.4376 44.4868 41.3715 44.4868C41.8341 44.4868 42.3154 44.337 42.7492 44.0069C43.4355 43.4857 43.6913 42.5641 43.4484 41.7368L41.6564 35.6427C41.5882 35.3913 41.4727 35.1483 41.3115 34.9285L37.6861 29.8729L40.5579 22.148C41.2038 20.4089 40.3194 18.4759 38.5803 17.829C38.2372 17.7019 37.8859 17.6364 37.5399 17.6247ZM42.5599 22.0992C42.5081 22.3401 42.4439 22.581 42.3556 22.819L40.9141 26.6956L44.8712 29.6648C45.2599 29.9566 45.7136 30.096 46.1646 30.096C46.8221 30.096 47.4706 29.7971 47.8948 29.2318C48.6099 28.2778 48.4158 26.9242 47.4618 26.2082L43.3735 23.1433L42.5599 22.0992ZM5.13675 24.3374H10.8953C11.4251 24.3374 11.8551 24.7674 11.8551 25.2972V34.8948C11.8551 35.4246 11.4251 35.8545 10.8953 35.8545H5.13675C4.60697 35.8545 4.17699 35.4246 4.17699 34.8948V25.2972C4.17699 24.7674 4.60697 24.3374 5.13675 24.3374ZM30.3492 31.978L29.7194 37.0111L25.9234 40.8052C25.0798 41.6488 25.0798 43.017 25.9234 43.8607C26.3448 44.282 26.8984 44.4924 27.4512 44.4924C28.004 44.4924 28.5566 44.282 28.9789 43.8607L33.281 39.5567C33.5689 39.2755 33.7802 38.9123 33.8752 38.4976L34.3645 36.475L30.4411 32.0942C30.4075 32.0568 30.3818 32.0164 30.3492 31.978Z" fill="white"/>
</svg>
