<svg width="37" height="37" viewBox="0 0 37 37" fill="none" xmlns="http://www.w3.org/2000/svg">
<path d="M32.4885 6.78125H5.12854C3.53947 6.78125 2.24854 8.07219 2.24854 9.66125V26.9412C2.24854 28.5303 3.53947 29.8212 5.12854 29.8212H32.4885C34.0776 29.8212 35.3685 28.5303 35.3685 26.9412V9.66125C35.3685 8.07219 34.0776 6.78125 32.4885 6.78125ZM6.56853 24.7812C6.74291 21.8816 10.4723 22.3034 11.032 20.8016C11.077 20.2869 11.032 19.9269 11.032 19.4572C10.7985 19.3334 10.146 18.6725 10.0448 17.9356C10.0448 17.9356 9.51885 17.6853 9.49072 16.8922C9.47385 16.4731 9.76916 16.175 9.76916 16.175C9.22072 14.0628 9.45697 11.8719 12.2835 11.8212C12.9895 11.8212 13.521 12.1616 13.732 12.5356C15.6979 12.5356 15.1888 15.2778 14.8907 16.175C15.0004 16.2847 15.1354 16.5884 15.1354 16.9991C15.1354 17.5869 14.5785 17.9356 14.5785 17.9356C14.4745 18.6837 13.9457 19.3025 13.6251 19.4572C13.6251 19.9269 13.5773 20.2869 13.6251 20.8016C14.1848 22.3034 17.9142 21.8816 18.0885 24.7812H6.56853ZM30.3285 22.6212H21.6885C21.2892 22.6212 20.9685 22.3006 20.9685 21.9012C20.9685 21.5019 21.2892 21.1812 21.6885 21.1812H30.3285C30.7279 21.1812 31.0485 21.5019 31.0485 21.9012C31.0485 22.3006 30.7279 22.6212 30.3285 22.6212ZM30.3285 19.0212H21.6885C21.2892 19.0212 20.9685 18.6978 20.9685 18.3012C20.9685 17.9047 21.2892 17.5812 21.6885 17.5812H30.3285C30.7279 17.5812 31.0485 17.9047 31.0485 18.3012C31.0485 18.6978 30.7279 19.0212 30.3285 19.0212ZM30.3285 15.4212H21.6885C21.2892 15.4212 20.9685 15.0978 20.9685 14.7012C20.9685 14.3047 21.2892 13.9812 21.6885 13.9812H30.3285C30.7279 13.9812 31.0485 14.3047 31.0485 14.7012C31.0485 15.0978 30.7279 15.4212 30.3285 15.4212Z" fill="#69B0B2"/>
</svg>
