<svg width="28" height="30" viewBox="0 0 28 30" fill="none" xmlns="http://www.w3.org/2000/svg">
<path d="M1.87692 0.966797C1.28107 0.966797 0.797485 1.45039 0.797485 2.04624V24.7145C0.797485 27.099 2.73076 29.0322 5.11524 29.0322H21.3068H22.3863H23.4657C25.8502 29.0322 27.7835 27.099 27.7835 24.7145V9.60231C27.7835 9.00646 27.2999 8.52287 26.704 8.52287H24.5452V24.7145C24.5452 25.3114 24.0616 25.7939 23.4657 25.7939C22.8699 25.7939 22.3863 25.3114 22.3863 24.7145V2.04624C22.3863 1.45039 21.9027 0.966797 21.3068 0.966797H1.87692ZM4.0358 5.28456H19.148V8.52287H4.0358V5.28456ZM4.0358 12.8406H10.5124V14.9995H4.0358V12.8406ZM12.6713 12.8406H19.148V14.9995H12.6713V12.8406ZM4.0358 17.1584H10.5124V19.3173H4.0358V17.1584ZM12.6713 17.1584H19.148V19.3173H12.6713V17.1584ZM4.0358 21.4762H10.5124V23.635H4.0358V21.4762ZM12.6713 21.4762H19.148V23.635H12.6713V21.4762Z" fill="white"/>
</svg>
