<svg width="231" height="231" viewBox="0 0 231 231" fill="none" xmlns="http://www.w3.org/2000/svg">
<path d="M115.46 0C51.6972 0 0 51.6972 0 115.46C0 179.223 51.6972 230.92 115.46 230.92C179.223 230.92 230.92 179.223 230.92 115.46C230.92 51.6972 179.223 0 115.46 0ZM127.121 48.1083L125.197 134.703H105.723L103.799 48.1083H127.121ZM115.489 184.63C107.522 184.63 102.759 180.387 102.759 173.257C102.759 165.993 107.513 161.75 115.489 161.75C123.398 161.75 128.151 165.993 128.151 173.257C128.151 180.387 123.398 184.63 115.489 184.63Z" fill="white"/>
</svg>
