<svg width="19" height="21" viewBox="0 0 19 21" fill="none" xmlns="http://www.w3.org/2000/svg">
<path d="M6.12835 0.65625V2.56101H11.8426V0.65625H6.12835ZM15.6131 2.36384L14.3817 3.81659L17.1905 6.19754L18.4219 4.74479L15.6131 2.36384ZM8.98549 3.51339C4.24506 3.51339 0.414062 7.34439 0.414062 12.0848C0.414062 16.8253 4.24506 20.6562 8.98549 20.6562C13.7259 20.6562 17.5569 16.8253 17.5569 12.0848C17.5569 7.34439 13.7259 3.51339 8.98549 3.51339ZM8.98549 5.41815C12.7098 5.41815 15.6522 8.36049 15.6522 12.0848C15.6522 15.8092 12.7098 18.7515 8.98549 18.7515C5.26116 18.7515 2.31882 15.8092 2.31882 12.0848C2.31882 8.36049 5.26116 5.41815 8.98549 5.41815ZM8.03311 7.32292V13.0372H9.93787V7.32292H8.03311Z" fill="black"/>
</svg>
