<svg width="39" height="40" viewBox="0 0 39 40" fill="none" xmlns="http://www.w3.org/2000/svg">
<path d="M34.1924 14.7905L36.6324 12.2997C39.1664 9.7129 39.1664 5.50298 36.6324 2.91517C35.4054 1.66363 33.7744 0.975586 32.0354 0.975586C30.2964 0.975586 28.6644 1.66465 27.4384 2.91619L24.9994 5.406L34.1924 14.7905ZM22.8784 7.57119L4.80938 26.0166C4.42438 26.4096 4.13138 26.8945 3.96137 27.4203L0.611375 37.7521C0.432375 38.3013 0.573375 38.9067 0.974375 39.316C1.26138 39.608 1.64338 39.7642 2.03538 39.7642C2.19338 39.7642 2.35238 39.7387 2.50738 39.6866L12.6254 36.2658C13.1424 36.0923 13.6184 35.7931 14.0034 35.3991L32.0714 16.9547L22.8784 7.57119Z" fill="white"/>
</svg>
