<svg width="41" height="34" viewBox="0 0 41 34" fill="none" xmlns="http://www.w3.org/2000/svg">
<path fill-rule="evenodd" clip-rule="evenodd" d="M23.7648 0.852689C23.7282 0.875296 23.8897 0.98601 24.1939 1.14707C28.6868 3.52633 30.2515 9.05129 27.6492 13.3471C27.003 14.4138 25.7481 15.6928 24.8365 16.2139C24.7304 16.2745 24.546 16.3797 24.4267 16.4476C24.3075 16.5157 24.1176 16.6144 24.0049 16.6672C23.627 16.8441 23.9784 16.9245 24.4178 16.7617C24.4792 16.739 24.5861 16.7203 24.6554 16.7203C24.7248 16.7203 24.8481 16.6983 24.9295 16.6711C25.1196 16.6081 25.8945 16.3857 26.114 16.3312C26.2067 16.3081 26.402 16.2437 26.5478 16.188C26.6936 16.1322 26.9214 16.0472 27.0539 15.9989C27.2756 15.9181 27.5167 15.8126 28.1627 15.5133C29.594 14.8501 31.2232 13.4792 31.9702 12.3095C32.3412 11.7284 32.7151 10.8945 32.8239 10.4054C32.8504 10.2861 32.8953 10.1017 32.9235 9.99566C33.1188 9.26221 32.9956 7.75009 32.6636 6.8056C32.451 6.20082 31.7258 4.91478 31.5129 4.76533C31.4941 4.75213 31.3725 4.61966 31.2428 4.47107C31.0312 4.22886 30.5746 3.7948 30.1829 3.46376C28.9261 2.40159 26.5084 1.35555 24.2822 0.910856C24.1628 0.887027 24.0108 0.85611 23.9443 0.842057C23.8778 0.828004 23.797 0.83277 23.7648 0.852689ZM16.1835 0.907924C16.1173 0.929675 15.7702 1.0168 15.4123 1.10149C14.848 1.23506 13.9546 1.50268 13.6527 1.62867C13.5997 1.65078 13.4046 1.7296 13.2189 1.8039C8.69956 3.61138 6.52157 7.36931 7.87079 11.032C7.94399 11.2309 8.01902 11.4153 8.03747 11.4418C8.05593 11.4683 8.15271 11.6418 8.25255 11.8275C8.6871 12.635 9.48275 13.5922 10.1579 14.1195C10.6991 14.5422 11.2118 14.8945 11.6318 15.1325C11.9458 15.3106 12.7723 15.7293 12.9779 15.8146C13.6504 16.0937 14.3559 16.3388 14.882 16.476C14.9748 16.5002 15.1699 16.5552 15.3155 16.5981C16.186 16.8547 17.0956 16.9274 16.5808 16.6991C15.4159 16.1828 13.9829 15.0091 13.293 14.0061C13.1619 13.8153 13.0106 13.605 12.957 13.5388C12.9034 13.4725 12.859 13.404 12.8584 13.3864C12.8578 13.3689 12.767 13.1954 12.6567 13.0007C12.4305 12.6018 12.0379 11.6927 12.0379 11.5675C12.0379 11.5222 12.0201 11.4646 11.9985 11.4395C11.9612 11.3961 11.8229 10.847 11.7017 10.2608C11.2819 8.23083 11.9049 5.67316 13.3045 3.68067C13.5597 3.31724 14.6187 2.24749 15.0026 1.96521C15.1616 1.84826 15.299 1.7362 15.3078 1.71628C15.3166 1.69649 15.3456 1.68023 15.372 1.68023C15.3984 1.68023 15.5333 1.60496 15.6718 1.51306C15.8102 1.42117 16.1284 1.23726 16.3789 1.1043L16.8344 0.862587L16.5692 0.865398C16.4234 0.866986 16.2499 0.886172 16.1835 0.907924ZM20.0084 1.30019C19.752 1.56977 19.5337 1.82174 18.886 2.59613C18.6753 2.84799 18.4421 3.1216 18.3676 3.20421C18.2932 3.28669 18.1238 3.48173 17.9913 3.63741C17.8587 3.79309 17.588 4.1052 17.3895 4.3309C17.1912 4.55661 17.0128 4.76288 16.9931 4.7894C16.9736 4.81592 16.8511 4.95694 16.7212 5.10272C16.5913 5.24863 16.4228 5.44379 16.3467 5.53666C16.2705 5.62941 16.1843 5.72705 16.1549 5.75357C16.1257 5.78009 15.9206 6.01875 15.6991 6.2838C15.4777 6.54898 15.1733 6.9069 15.0226 7.07921C14.0025 8.24574 14.0669 9.56576 15.2059 10.8392C15.2415 10.8791 15.308 10.9571 15.3535 11.0129C15.4638 11.1475 15.8997 11.6517 15.9907 11.75C16.0305 11.7929 16.2242 12.0231 16.4212 12.2615C16.6182 12.5001 16.8135 12.73 16.855 12.7726C16.8967 12.8152 16.9843 12.9128 17.0498 12.9896C17.1153 13.0662 17.495 13.5067 17.8935 13.9683C18.292 14.43 18.6825 14.8855 18.7614 14.9806C19.4557 15.8182 20.2038 16.6273 20.272 16.6142C20.3522 16.5987 20.6293 16.2827 22.9224 13.5911C23.2293 13.2309 23.5685 12.8362 23.6764 12.7141C23.7842 12.5921 23.9731 12.3752 24.0962 12.2321C24.2192 12.0891 24.4904 11.7748 24.6988 11.5336C24.9071 11.2923 25.1856 10.9697 25.3178 10.8166C25.772 10.2902 25.9804 9.9502 26.1015 9.53765C26.1736 9.29178 26.1895 8.33629 26.1236 8.20321C26.0998 8.15507 25.9984 7.94537 25.8983 7.73714C25.7171 7.36039 25.5935 7.20483 24.2074 5.60888C22.9508 4.16226 22.6078 3.76218 22.4511 3.55993C22.3587 3.44079 22.2599 3.32164 22.2314 3.29512C22.2029 3.26861 22.0399 3.0842 21.8692 2.88538C21.6983 2.68644 21.5456 2.51291 21.5297 2.49972C21.5137 2.4864 21.3368 2.28036 21.1365 2.04171C20.9361 1.80305 20.6558 1.48019 20.5137 1.32426L20.2553 1.04063L20.0084 1.30019ZM14.619 18.0701L12.7894 18.0942L12.7631 18.2053C12.7487 18.2664 12.7427 19.335 12.7498 20.58L12.7629 22.8435L14.6781 22.8309L16.5933 22.8184L16.6067 20.5526C16.6204 18.2372 16.6148 18.0936 16.5094 18.0634C16.476 18.0539 15.6253 18.0568 14.619 18.0701ZM20.1846 18.0701L18.3288 18.0942L18.3153 20.3599C18.308 21.606 18.3139 22.6743 18.3283 22.734L18.3547 22.8424H20.2352C21.981 22.8424 22.1184 22.8364 22.1505 22.7581C22.2264 22.5735 22.1907 18.1747 22.1129 18.108C22.0555 18.0589 21.6551 18.051 20.1846 18.0701ZM23.8787 18.1785C23.8407 18.3201 23.8407 22.5924 23.8787 22.734L23.9077 22.8424H25.8063H27.7047L27.707 22.7098C27.7082 22.637 27.7081 21.6011 27.7067 20.4081C27.7054 19.215 27.7043 18.2009 27.7044 18.1544C27.7047 18.0755 27.5822 18.0701 25.8063 18.0701H23.9077L23.8787 18.1785ZM0.35334 24.1672C0.299815 24.3066 0.319734 32.9596 0.373869 33.0606C0.42666 33.1594 9.17297 33.2116 9.32657 33.1139C9.3746 33.0835 9.3845 32.1477 9.37484 28.5954L9.3625 24.1153L4.87258 24.1031C0.809516 24.0919 0.379857 24.098 0.35334 24.1672ZM10.6219 24.1649C10.5648 24.3137 10.5877 33.0186 10.6454 33.0881C10.7209 33.1791 19.5057 33.1869 19.5965 33.096C19.6407 33.0519 19.6544 31.9798 19.6544 28.5647V24.0912H15.1523C11.1569 24.0912 10.6471 24.0995 10.6219 24.1649ZM20.8888 24.1675C20.8121 24.3673 20.8578 33.0947 20.9358 33.1246C21.0572 33.1712 29.746 33.1571 29.8201 33.1101C29.8886 33.0668 29.9163 24.2468 29.8482 24.1368C29.7932 24.0477 20.9231 24.0781 20.8888 24.1675ZM31.1096 24.1995C31.0492 24.4248 31.0757 33.0347 31.1369 33.096C31.2041 33.1632 39.9765 33.1808 40.0818 33.1139C40.1297 33.0835 40.1397 32.1477 40.13 28.5954L40.1176 24.1153L35.6282 24.1031L31.1386 24.0907L31.1096 24.1995ZM5.89639 25.244C7.25649 25.3421 7.99299 26.2938 7.79393 27.696C7.61234 28.9753 6.92007 29.4242 5.04807 29.4764C4.53103 29.4908 4.08097 29.5241 4.04785 29.5505C4.00263 29.5865 3.9876 29.8893 3.9876 30.764C3.9876 32.1584 4.04944 32.0452 3.28861 32.0452C2.89916 32.0452 2.68604 32.0259 2.64742 31.9872C2.54062 31.8804 2.56653 25.3146 2.67394 25.252C2.77512 25.1931 5.10941 25.1873 5.89639 25.244ZM15.7809 25.2706C15.8364 25.3094 15.9302 25.4667 15.9894 25.6201C16.0485 25.7734 16.1899 26.1267 16.3035 26.4051C16.4173 26.6835 16.612 27.1715 16.7362 27.4897C16.8604 27.8078 16.9809 28.1115 17.0039 28.1645C17.0497 28.2702 17.4679 29.316 17.6785 29.8518C17.7515 30.0374 17.9463 30.5255 18.1114 30.9364C18.5931 32.1357 18.6234 32.0452 17.7406 32.0452C17.0813 32.0452 16.9067 31.993 16.9067 31.7961C16.9067 31.6633 16.4976 30.6637 16.4118 30.5869C16.2265 30.4211 13.6769 30.4713 13.6769 30.6408C13.6769 30.7779 13.2322 31.9223 13.1546 31.9849C13.0576 32.0631 11.8886 32.0694 11.8113 31.992C11.7448 31.9255 11.771 31.8334 12.0785 31.0482C12.3551 30.3426 13.0593 28.5281 13.3755 27.7066C13.4928 27.4018 13.6272 27.0547 13.6741 26.9353C13.7211 26.816 13.8403 26.5044 13.9392 26.2428C14.2132 25.5179 14.3008 25.3259 14.3873 25.2602C14.5074 25.1689 15.6479 25.1775 15.7809 25.2706ZM24.3585 25.2368C24.3874 25.2563 24.5517 25.5001 24.7238 25.7784C25.704 27.364 26.2104 28.1924 26.2104 28.2101C26.2104 28.2211 26.2971 28.3607 26.4032 28.5204C26.5092 28.68 26.5959 28.8316 26.5959 28.8572C26.5959 28.8828 26.614 28.9109 26.6361 28.9199C26.6581 28.9287 26.7517 29.066 26.8441 29.2251C26.9365 29.3842 27.0323 29.5089 27.0571 29.5023C27.0839 29.4952 27.1072 28.6476 27.1147 27.4097C27.1233 25.9714 27.1439 25.3092 27.1809 25.2645C27.2584 25.1711 28.2972 25.1729 28.3749 25.2667C28.4524 25.36 28.4506 31.8873 28.3731 31.9808C28.3334 32.0285 28.1545 32.0452 27.6773 32.0452H27.035L26.8637 31.7871C26.7695 31.6451 26.6923 31.5159 26.6923 31.5C26.6923 31.4841 26.5468 31.2477 26.369 30.9748C26.1911 30.7018 26.0105 30.4134 25.9676 30.3339C25.9248 30.2543 25.774 30.0049 25.6326 29.7794C25.4911 29.5541 25.3237 29.2829 25.2606 29.1768C25.0977 28.9031 25.0507 28.8271 24.859 28.5272C24.7654 28.3808 24.6468 28.1802 24.5956 28.0814C24.5168 27.9294 24.4077 27.8257 24.3678 27.8648C24.3618 27.8706 24.3456 28.8082 24.3317 29.9482L24.3062 32.0211L23.7076 32.0347C23.3784 32.0421 23.0896 32.0289 23.0659 32.0052C23.0004 31.9397 23.0182 25.3429 23.0841 25.2636C23.142 25.1938 24.2604 25.1704 24.3585 25.2368ZM36.2557 25.2544C36.3214 25.2844 36.4005 25.3765 36.4315 25.4592C36.5272 25.7149 36.5586 25.7944 36.6616 26.0435C36.7165 26.1761 36.9123 26.6641 37.0966 27.1281C37.8559 29.04 38.1288 29.7177 38.2169 29.9115C38.2681 30.0239 38.3099 30.1372 38.3099 30.1633C38.3099 30.1894 38.3523 30.3035 38.4041 30.417C38.6803 31.0216 38.9865 31.8674 38.9598 31.9517C38.9324 32.0382 38.8808 32.0452 38.266 32.0452C37.443 32.0452 37.5247 32.1184 37.1436 31.0401C36.9429 30.4726 37.0309 30.5026 35.5698 30.5026C34.1313 30.5026 34.2425 30.4536 33.9994 31.1932C33.8994 31.4968 33.7767 31.8129 33.7266 31.8952L33.6355 32.0452H33.0361C32.3017 32.0452 32.0977 31.9408 32.3242 31.6812C32.3462 31.6559 32.4682 31.3643 32.5952 31.0328C32.7222 30.7014 32.9018 30.235 32.9941 29.9965C33.0865 29.7578 33.2051 29.4432 33.2576 29.2975C33.3103 29.1516 33.3832 28.9654 33.4198 28.8837C33.4563 28.8019 33.6505 28.303 33.851 27.775C34.0517 27.2468 34.2501 26.7389 34.2922 26.6461C34.3342 26.5533 34.4416 26.2764 34.5309 26.0307C34.6203 25.785 34.7375 25.4976 34.7914 25.392L34.8894 25.1999H35.5127C35.8734 25.1999 36.1865 25.2229 36.2557 25.2544ZM4.04785 26.459C3.94459 26.5649 3.96426 28.1103 4.07021 28.2162C4.16871 28.3147 5.4088 28.2915 5.76588 28.1846C6.50984 27.9617 6.58365 26.857 5.8761 26.535C5.59614 26.4075 4.15636 26.3478 4.04785 26.459ZM35.5292 27.09C35.4628 27.1757 35.2489 27.7268 35.0465 28.3333C34.9536 28.6117 34.8457 28.9112 34.8066 28.9989C34.6832 29.2758 34.7415 29.2975 35.6135 29.2975C36.5051 29.2975 36.4693 29.3236 36.2815 28.8089C36.2006 28.5871 36.1017 28.308 36.062 28.1887C36.0222 28.0693 35.9617 27.9067 35.9276 27.8271C35.8935 27.7476 35.8156 27.5524 35.7545 27.3933C35.6221 27.048 35.5925 27.0081 35.5292 27.09ZM14.9593 27.2149C14.9209 27.2891 14.8458 27.4789 14.7924 27.6366C14.7389 27.7945 14.6272 28.108 14.5442 28.3333C14.2631 29.0967 14.2457 29.1545 14.2732 29.226C14.3076 29.3159 15.7914 29.3329 15.88 29.2443C15.9419 29.1823 15.786 28.6824 15.5207 28.0923C15.4671 27.9729 15.3852 27.756 15.3389 27.6102C15.1679 27.0723 15.0803 26.981 14.9593 27.2149Z" fill="#0D5DA7"/>
</svg>
