<svg width="31" height="29" viewBox="0 0 31 29" fill="none" xmlns="http://www.w3.org/2000/svg">
<path d="M6.70508 0.925781C3.40914 0.925781 0.705078 3.70495 0.705078 7.09245C0.705078 9.945 2.6314 12.3427 5.20508 13.0363V28.6758H12.7051V25.5924H8.20508V22.5091H11.2051V19.4258H8.20508V13.0363C10.7788 12.3427 12.7051 9.945 12.7051 7.09245C12.7051 3.70495 10.001 0.925781 6.70508 0.925781ZM6.70508 4.00911C8.3797 4.00911 9.70508 5.37131 9.70508 7.09245C9.70508 8.81359 8.3797 10.1758 6.70508 10.1758C5.03046 10.1758 3.70508 8.81359 3.70508 7.09245C3.70508 5.37131 5.03046 4.00911 6.70508 4.00911ZM15.7051 5.55078V13.2591H30.7051V5.55078H15.7051ZM15.7051 16.3424V24.0508H30.7051V16.3424H15.7051Z" fill="#69B0B2"/>
</svg>
