<svg width="79" height="28" viewBox="0 0 79 28" fill="none" xmlns="http://www.w3.org/2000/svg">
<path d="M71.5932 13.9644H73.3432V12.2144H71.5932V13.9644ZM69.2692 19.5504C69.2692 19.5038 69.2925 19.4571 69.3392 19.4104C69.3765 19.3638 69.4185 19.3404 69.4652 19.3404H72.1112C72.4938 19.3404 72.8672 19.2798 73.2312 19.1584C73.6045 19.0371 73.9172 18.8364 74.1692 18.5564L74.8412 17.7724C74.8598 17.7444 74.8785 17.7211 74.8972 17.7024C74.9158 17.6838 74.9345 17.6651 74.9532 17.6464C74.9718 17.6371 74.9858 17.6231 74.9952 17.6044L72.1672 16.7644C72.0925 16.7364 72.0272 16.7411 71.9712 16.7784C71.9152 16.8064 71.8778 16.8531 71.8592 16.9184L71.3272 18.3744L69.8292 17.9684L70.2072 16.6384C70.3005 16.3304 70.4405 16.0691 70.6272 15.8544C70.8232 15.6304 71.0425 15.4578 71.2852 15.3364C71.5372 15.2151 71.7985 15.1451 72.0692 15.1264C72.3398 15.0984 72.6012 15.1218 72.8532 15.1964L78.4672 16.8764L77.9772 18.4864L77.2212 18.2624C77.0065 18.2158 76.8385 18.2111 76.7172 18.2484C76.6052 18.2858 76.4838 18.3698 76.3532 18.5004L74.8132 20.1804C74.4212 20.6098 73.9452 20.9178 73.3852 21.1044C72.8252 21.2911 72.2512 21.3844 71.6632 21.3844H69.4652C69.3345 21.3844 69.2692 21.3191 69.2692 21.1884V19.5504Z" fill="#005BAA"/>
<path d="M65.9548 24.8283H67.7048V23.0783H65.9548V24.8283ZM69.6648 21.1883C69.6648 21.235 69.6461 21.2817 69.6088 21.3283C69.5714 21.3657 69.5248 21.3843 69.4688 21.3843H68.3348C68.0454 21.3843 67.7561 21.3143 67.4668 21.1743C67.1868 21.0343 66.9768 20.843 66.8368 20.6003C66.6595 20.843 66.4168 21.0343 66.1088 21.1743C65.8101 21.3143 65.5115 21.3843 65.2128 21.3843H64.0648C64.0181 21.3843 63.9761 21.3657 63.9388 21.3283C63.8921 21.291 63.8688 21.2443 63.8688 21.1883V19.5503C63.8688 19.4943 63.8921 19.4477 63.9388 19.4103C63.9761 19.3637 64.0181 19.3403 64.0648 19.3403H65.3808C65.5395 19.3403 65.6795 19.2937 65.8008 19.2003C65.9221 19.0977 65.9968 18.967 66.0248 18.8083L66.5708 16.1763L68.2648 16.4843L67.8308 18.6963C67.7934 18.8737 67.8261 19.0277 67.9288 19.1583C68.0314 19.2797 68.1714 19.3403 68.3488 19.3403H69.4688C69.5248 19.3403 69.5714 19.3637 69.6088 19.4103C69.6461 19.4477 69.6648 19.4943 69.6648 19.5503V21.1883Z" fill="#005BAA"/>
<path d="M62.6228 16.148V18.864C62.6228 19.004 62.6788 19.1207 62.7908 19.214C62.9028 19.298 63.0288 19.34 63.1688 19.34L64.0648 19.3403C64.1954 19.3403 64.2608 19.4054 64.2608 19.536V21.188C64.2608 21.3187 64.1954 21.3843 64.0648 21.3843L63.4488 21.384C63.3088 21.384 63.1595 21.356 63.0008 21.3C62.8422 21.2347 62.7115 21.1367 62.6088 21.006V21.244C62.6088 21.608 62.5482 21.9487 62.4268 22.266C62.3055 22.5834 62.1375 22.8727 61.9228 23.134C61.7175 23.3954 61.4702 23.624 61.1808 23.82C60.8915 24.0254 60.5742 24.184 60.2288 24.296L58.1848 24.982L57.6528 23.358L59.7808 22.672C60.1168 22.5694 60.3828 22.3734 60.5788 22.084C60.7842 21.7947 60.8868 21.4727 60.8868 21.118V16.148H62.6228Z" fill="#005BAA"/>
<path d="M49.8925 17.3947L48.6465 16.2047L52.9025 11.2207L54.1485 12.3687L51.5025 15.5047H56.7665C57.0932 15.5047 57.4012 15.5701 57.6905 15.7007C57.9892 15.8221 58.2458 15.9947 58.4605 16.2187C58.6845 16.4334 58.8572 16.6901 58.9785 16.9887C59.1092 17.2781 59.1745 17.5907 59.1745 17.9267V18.9627C59.1745 19.3081 59.1045 19.6301 58.9645 19.9287C58.8339 20.2274 58.6519 20.4841 58.4185 20.6987C58.1945 20.9134 57.9332 21.0814 57.6345 21.2027C57.3358 21.3241 57.0232 21.3847 56.6965 21.3847H46.7425C46.6119 21.3847 46.5465 21.3194 46.5465 21.1887V19.5367C46.5465 19.4901 46.5652 19.4481 46.6025 19.4107C46.6399 19.3641 46.6865 19.3407 46.7425 19.3407H57.0605C57.1445 19.3407 57.2285 19.2987 57.3125 19.2147C57.3965 19.1307 57.4385 19.0234 57.4385 18.8927V17.8987C57.4385 17.7587 57.3872 17.6421 57.2845 17.5487C57.1912 17.4461 57.0792 17.3947 56.9485 17.3947H49.8925ZM47.4005 14.5527L50.8165 10.5347L51.6285 11.3467L48.2965 15.2527L47.4005 14.5527Z" fill="#005BAA"/>
<path d="M46.3253 19.3407H46.7453C46.792 19.3407 46.834 19.364 46.8713 19.4107C46.918 19.448 46.9413 19.4947 46.9413 19.5507V21.1887C46.9413 21.2354 46.9226 21.282 46.8853 21.3287C46.848 21.366 46.8013 21.3847 46.7453 21.3847H46.4653C46.092 21.3847 45.7606 21.3147 45.4713 21.1747C45.182 21.0347 44.944 20.8807 44.7573 20.7127C44.5146 20.918 44.2393 21.0814 43.9313 21.2027C43.6326 21.324 43.306 21.3847 42.9513 21.3847H41.1453C40.8746 21.3847 40.618 21.3334 40.3753 21.2307C40.142 21.128 39.9366 20.988 39.7593 20.8107C39.582 20.624 39.442 20.414 39.3393 20.1807C39.2366 19.938 39.1853 19.6814 39.1853 19.4107V17.4787H40.6413V19.0467C40.6413 19.1307 40.6693 19.2007 40.7253 19.2567C40.7813 19.3127 40.8513 19.3407 40.9353 19.3407H42.9793C43.2313 19.3407 43.4366 19.252 43.5953 19.0747C43.754 18.888 43.81 18.6734 43.7633 18.4307L42.6153 14.2867L44.2673 13.6847L45.7233 18.8787C45.7606 19.0094 45.8353 19.1214 45.9473 19.2147C46.0593 19.2987 46.1853 19.3407 46.3253 19.3407ZM42.2653 10.7867H44.0153V12.5367H42.2653V10.7867Z" fill="#005BAA"/>
<path d="M37.8725 21.3845H36.1365V11.6685H37.8725V21.3845Z" fill="#005BAA"/>
<path d="M30.2536 25.0107L29.7216 23.3727L31.8496 22.6867C32.1762 22.5747 32.4422 22.3787 32.6476 22.0987C32.8529 21.8187 32.9556 21.5013 32.9556 21.1467V16.1627H34.6916V20.9647C34.6916 21.3473 34.6309 21.7113 34.5096 22.0567C34.3976 22.4113 34.2342 22.7333 34.0196 23.0227C33.8142 23.3213 33.5622 23.578 33.2636 23.7927C32.9742 24.0167 32.6522 24.1893 32.2976 24.3107L30.2536 25.0107Z" fill="#005BAA"/>
<path d="M28.2782 19.0186C28.6702 19.1119 28.9876 19.3126 29.2302 19.6206C29.4729 19.9286 29.5942 20.2879 29.5942 20.6986V21.1606C29.5942 21.5713 29.5149 21.9586 29.3562 22.3226C29.2069 22.6866 28.9969 23.0039 28.7262 23.2746C28.4556 23.5453 28.1382 23.7599 27.7742 23.9186C27.4102 24.0773 27.0229 24.1566 26.6122 24.1566H23.8122C23.3642 24.1566 22.9442 24.0726 22.5522 23.9046C22.1602 23.7366 21.8149 23.5033 21.5162 23.2046C21.2269 22.9153 20.9935 22.5699 20.8162 22.1686C20.6482 21.7766 20.5642 21.3566 20.5642 20.9086V17.7026H22.3002V20.6566C22.3002 20.8619 22.3375 21.0533 22.4122 21.2306C22.4869 21.4079 22.5896 21.5619 22.7202 21.6926C22.8602 21.8233 23.0189 21.9259 23.1962 22.0006C23.3736 22.0753 23.5602 22.1126 23.7562 22.1126H26.8222C27.1115 22.1126 27.3542 22.0099 27.5502 21.8046C27.7556 21.5993 27.8582 21.3519 27.8582 21.0626V20.7546L23.9102 19.8166V18.1226C23.9102 17.7399 23.9755 17.3806 24.1062 17.0446C24.2369 16.7086 24.4142 16.4099 24.6382 16.1486C24.8715 15.8779 25.1469 15.6539 25.4642 15.4766C25.7909 15.2993 26.1455 15.1873 26.5282 15.1406L28.6002 14.8746L28.8942 16.7926L26.5142 17.0866C26.2435 17.1239 26.0196 17.2406 25.8422 17.4366C25.6742 17.6233 25.5902 17.8473 25.5902 18.1086V18.4306L28.2782 19.0186Z" fill="#005BAA"/>
<path d="M15.6566 19.3404C15.8153 19.3404 15.9459 19.2891 16.0486 19.1864C16.1606 19.0744 16.2166 18.9391 16.2166 18.7804V15.7564H17.9526V18.7664C17.9526 19.1304 17.8826 19.4711 17.7426 19.7884C17.6119 20.1058 17.4253 20.3858 17.1826 20.6284C16.9493 20.8618 16.6739 21.0484 16.3566 21.1884C16.0393 21.3191 15.6986 21.3844 15.3346 21.3844H11.9886C11.9326 21.3844 11.8859 21.3658 11.8486 21.3284C11.8113 21.2818 11.7926 21.2351 11.7926 21.1884V19.5644C11.7926 19.5084 11.8113 19.4571 11.8486 19.4104C11.8859 19.3638 11.9326 19.3404 11.9886 19.3404H15.6566ZM12.4366 24.8144H14.1866V23.0644H12.4366V24.8144ZM14.9146 24.8144H16.6646V23.0644H14.9146V24.8144ZM13.6406 27.0824H15.3906V25.3324H13.6406V27.0824Z" fill="#005BAA"/>
<path d="M12.1898 21.1885C12.1898 21.3192 12.1245 21.3845 11.9938 21.3845H11.5738C11.2191 21.3845 10.8831 21.3192 10.5658 21.1885C10.2578 21.0485 9.98714 20.8665 9.75381 20.6425C9.52048 20.4092 9.33381 20.1385 9.19381 19.8305C9.06314 19.5132 8.99781 19.1772 8.99781 18.8225V11.6685H10.7338V18.7805C10.7338 18.9392 10.7851 19.0745 10.8878 19.1865C10.9998 19.2892 11.1351 19.3405 11.2938 19.3405H11.9938C12.0498 19.3405 12.0965 19.3639 12.1338 19.4105C12.1711 19.4479 12.1898 19.4945 12.1898 19.5505V21.1885Z" fill="#005BAA"/>
<path d="M5.39199 19.34C5.55065 19.34 5.68132 19.2887 5.78399 19.186C5.89599 19.074 5.95199 18.9387 5.95199 18.78V15.756H7.68799V18.766C7.68799 19.13 7.61799 19.4707 7.47799 19.788C7.34732 20.1053 7.16065 20.3853 6.91799 20.628C6.68465 20.8613 6.40932 21.048 6.09199 21.188C5.77465 21.3187 5.43399 21.384 5.06999 21.384H3.34799C3.29199 21.384 3.24532 21.3653 3.20799 21.328C3.17065 21.2813 3.15199 21.2347 3.15199 21.188V19.55C3.15199 19.494 3.17065 19.4473 3.20799 19.41C3.24532 19.3633 3.29199 19.34 3.34799 19.34H5.39199ZM5.92399 14.608H7.67399V12.858H5.92399V14.608Z" fill="#005BAA"/>
<path d="M3.54919 21.1885C3.54919 21.3192 3.48385 21.3845 3.35319 21.3845H2.93319C2.57852 21.3845 2.24252 21.3192 1.92519 21.1885C1.61719 21.0485 1.34652 20.8665 1.11319 20.6425C0.879852 20.4092 0.693185 20.1385 0.553185 19.8305C0.422519 19.5132 0.357185 19.1772 0.357185 18.8225V11.6685H2.09319V18.7805C2.09319 18.9392 2.14452 19.0745 2.24719 19.1865C2.35919 19.2892 2.49452 19.3405 2.65319 19.3405H3.35319C3.40919 19.3405 3.45585 19.3639 3.49319 19.4105C3.53052 19.4479 3.54919 19.4945 3.54919 19.5505V21.1885Z" fill="#005BAA"/>
<path d="M76.6899 4.54876H77.7286V3.74859C77.7286 3.66652 77.7003 3.59727 77.6439 3.54085C77.5875 3.48443 77.5183 3.45621 77.4362 3.45621H76.8438C76.7719 3.45621 76.7078 3.4793 76.6514 3.52546C76.595 3.57162 76.5616 3.63061 76.5514 3.70242L76.4514 4.24869C76.436 4.32563 76.4514 4.39488 76.4975 4.45643C76.5488 4.51798 76.6129 4.54876 76.6899 4.54876ZM78.5749 5.61822C78.5749 5.80801 78.539 5.98753 78.4672 6.1568C78.3954 6.32094 78.2953 6.46712 78.1671 6.59536C78.044 6.71846 77.8978 6.81592 77.7286 6.88773C77.5644 6.95954 77.3875 6.99544 77.1977 6.99544H75.2434C75.2126 6.99544 75.187 6.98518 75.1665 6.96467C75.146 6.93902 75.1357 6.91081 75.1357 6.88003V6.10294C75.1357 6.0773 75.146 6.05421 75.1665 6.0337C75.1819 6.00805 75.2075 5.99523 75.2434 5.99523H77.3592C77.4618 5.99523 77.549 5.95932 77.6208 5.88751C77.6926 5.8157 77.7286 5.7285 77.7286 5.62592V5.46434C77.5747 5.52076 77.4208 5.54898 77.2669 5.54898H76.813C76.6232 5.54898 76.4462 5.50794 76.2821 5.42587C76.118 5.3438 75.9795 5.23609 75.8666 5.10273C75.7589 4.96423 75.682 4.80779 75.6358 4.63339C75.5896 4.459 75.5845 4.27691 75.6204 4.08712L75.7358 3.4716C75.7615 3.32798 75.8102 3.19718 75.882 3.07921C75.9589 2.96124 76.0487 2.85865 76.1513 2.77145C76.2539 2.68425 76.3693 2.61757 76.4975 2.57141C76.6309 2.52011 76.7694 2.49447 76.913 2.49447H77.3285C77.5029 2.49447 77.6644 2.52781 77.8132 2.59449C77.9671 2.66117 78.1004 2.75093 78.2133 2.86378C78.3261 2.97662 78.4133 3.10999 78.4749 3.26387C78.5415 3.41262 78.5749 3.57162 78.5749 3.74089V5.61822ZM75.9974 0.924898H76.8822V1.8097H75.9974V0.924898ZM77.2823 0.924898H78.1671V1.8097H77.2823V0.924898Z" fill="#005BAA"/>
<path d="M75.0296 5.99541H75.245C75.2706 5.99541 75.2937 6.00824 75.3142 6.03388C75.3399 6.0544 75.3527 6.08005 75.3527 6.11082V6.88791C75.3527 6.91356 75.3425 6.93921 75.3219 6.96485C75.3014 6.98537 75.2758 6.99563 75.245 6.99563H75.0911C74.8859 6.99563 74.7039 6.9546 74.5448 6.87253C74.3858 6.79046 74.255 6.69813 74.1525 6.59554C74.0294 6.71352 73.8832 6.81098 73.7139 6.88791C73.5498 6.95972 73.3702 6.99563 73.1753 6.99563H72.1674C72.0289 6.99563 71.8981 6.96998 71.775 6.91869C71.6519 6.86227 71.5442 6.78789 71.4519 6.69557C71.3595 6.60324 71.2852 6.49552 71.2287 6.37242C71.1774 6.24419 71.1518 6.11082 71.1518 5.97233V4.97212H71.875V5.81845C71.875 5.86975 71.893 5.91334 71.9289 5.94925C71.9648 5.98003 72.0058 5.99541 72.052 5.99541H73.183C73.26 5.99541 73.3318 5.98003 73.3984 5.94925C73.4702 5.91334 73.5292 5.86975 73.5754 5.81845C73.6216 5.76203 73.6523 5.70048 73.6677 5.6338C73.6882 5.56199 73.6882 5.49018 73.6677 5.41837L73.0522 3.19481L73.8524 2.90244L74.6372 5.69535C74.6628 5.78255 74.7115 5.85436 74.7834 5.91078C74.8552 5.9672 74.9372 5.99541 75.0296 5.99541Z" fill="#005BAA"/>
<path d="M67.894 8.95685L67.6324 8.16437L68.7403 7.80276C68.9352 7.73607 69.0891 7.62067 69.202 7.45653C69.3199 7.29239 69.3789 7.1103 69.3789 6.91025V4.24814H70.2253V6.82562C70.2253 7.02566 70.1945 7.21801 70.1329 7.40267C70.0714 7.59245 69.9842 7.76429 69.8713 7.91817C69.7636 8.07204 69.6303 8.20541 69.4713 8.31825C69.3174 8.43623 69.1455 8.52855 68.9558 8.59523L67.894 8.95685Z" fill="#005BAA"/>
<path d="M67.1881 5.99492C67.2907 5.99492 67.3779 5.95902 67.4497 5.88721C67.5215 5.8154 67.5574 5.7282 67.5574 5.62561V4.01757H68.4038V5.61792C68.4038 5.8077 68.3679 5.98723 68.2961 6.1565C68.2243 6.32064 68.1242 6.46682 67.996 6.59505C67.8729 6.71816 67.7267 6.81561 67.5574 6.88742C67.3933 6.95924 67.2163 6.99514 67.0266 6.99514H64.1105C63.8951 6.99514 63.6925 6.95411 63.5027 6.87204C63.3129 6.78997 63.1462 6.67969 63.0026 6.5412C62.8641 6.39758 62.7538 6.23087 62.6718 6.04109C62.5897 5.8513 62.5487 5.6487 62.5487 5.43326V4.01757H63.395V5.35632C63.395 5.53585 63.4566 5.68717 63.5797 5.81027C63.7028 5.93337 63.8541 5.99492 64.0336 5.99492H67.1881ZM64.3875 4.01757H65.2723V3.13277H64.3875V4.01757ZM65.6724 4.01757H66.5572V3.13277H65.6724V4.01757Z" fill="#005BAA"/>
<path d="M55.9543 4.81775L55.3465 4.233L57.6086 1.58628L58.2164 2.15563L56.7391 3.89447H59.6705C59.8449 3.89447 60.0065 3.92781 60.1553 3.99449C60.3091 4.06117 60.4425 4.15094 60.5553 4.26378C60.6733 4.37663 60.7656 4.50999 60.8323 4.66387C60.899 4.81775 60.9323 4.98188 60.9323 5.15628V5.72564C60.9323 5.91029 60.8964 6.07956 60.8246 6.23344C60.7579 6.38732 60.6631 6.52068 60.54 6.63352C60.422 6.74637 60.2835 6.83613 60.1245 6.90281C59.9706 6.96436 59.809 6.99514 59.6398 6.99514H54.4156C54.3796 6.99514 54.354 6.98488 54.3386 6.96437C54.3181 6.93872 54.3078 6.91307 54.3078 6.88742V6.10264C54.3078 6.03083 54.3437 5.99492 54.4156 5.99492H59.8244C59.8808 5.99492 59.9373 5.96671 59.9937 5.91029C60.0552 5.85387 60.086 5.78206 60.086 5.69486V5.14859C60.086 5.05626 60.0527 4.97932 59.986 4.91777C59.9193 4.85109 59.8398 4.81775 59.7475 4.81775H55.9543ZM54.7387 3.31742L56.5391 1.20927L56.9546 1.60936L55.1926 3.67134L54.7387 3.31742Z" fill="#005BAA"/>
<path d="M53.4848 4.2413V5.68008C53.4848 5.7724 53.5233 5.84934 53.6003 5.9109C53.6772 5.96732 53.7618 5.99553 53.8542 5.99553L54.4156 5.99492C54.4874 5.99492 54.5235 6.03144 54.5235 6.10325V6.88803C54.5235 6.95984 54.4874 6.99514 54.4156 6.99514L53.9926 6.99575C53.9054 6.99575 53.8131 6.98036 53.7157 6.94958C53.6182 6.91881 53.5413 6.85469 53.4848 6.75723V6.89572C53.4848 7.09064 53.4515 7.27529 53.3848 7.44969C53.3233 7.62922 53.2361 7.79335 53.1232 7.94211C53.0104 8.09086 52.877 8.21909 52.7231 8.3268C52.5693 8.43965 52.4 8.52685 52.2153 8.5884L51.1536 8.95002L50.892 8.15754L51.9999 7.79592C52.1948 7.73437 52.3487 7.61896 52.4615 7.44969C52.5795 7.28555 52.6385 7.10346 52.6385 6.90342V4.2413H53.4848Z" fill="#005BAA"/>
<path d="M49.776 4.54855H50.8147V3.74837C50.8147 3.6663 50.7864 3.59706 50.73 3.54064C50.6736 3.48421 50.6044 3.456 50.5223 3.456H49.9298C49.858 3.456 49.7939 3.47908 49.7375 3.52525C49.6811 3.57141 49.6477 3.6304 49.6375 3.70221L49.5375 4.24848C49.5221 4.32542 49.5375 4.39467 49.5836 4.45622C49.6349 4.51777 49.699 4.54855 49.776 4.54855ZM51.661 5.61801C51.661 5.80779 51.6251 5.98732 51.5533 6.15659C51.4815 6.32073 51.3814 6.46691 51.2532 6.59514C51.1301 6.71825 50.9839 6.8157 50.8147 6.88751C50.6505 6.95932 50.4736 6.99523 50.2838 6.99523H48.3295C48.2987 6.99523 48.2731 6.98497 48.2526 6.96445C48.232 6.93881 48.2218 6.9106 48.2218 6.87982V6.10273C48.2218 6.07708 48.232 6.054 48.2526 6.03348C48.2679 6.00784 48.2936 5.99501 48.3295 5.99501H50.4453C50.5479 5.99501 50.6351 5.95911 50.7069 5.8873C50.7787 5.81549 50.8147 5.72829 50.8147 5.6257V5.46413C50.6608 5.52055 50.5069 5.54876 50.353 5.54876H49.8991C49.7093 5.54876 49.5323 5.50773 49.3682 5.42566C49.204 5.34359 49.0656 5.23588 48.9527 5.10251C48.845 4.96402 48.7681 4.80758 48.7219 4.63318C48.6757 4.45878 48.6706 4.27669 48.7065 4.08691L48.8219 3.47139C48.8476 3.32777 48.8963 3.19697 48.9681 3.079C49.045 2.96102 49.1348 2.85844 49.2374 2.77124C49.34 2.68404 49.4554 2.61736 49.5836 2.5712C49.717 2.5199 49.8555 2.49426 49.9991 2.49426H50.4146C50.589 2.49426 50.7505 2.5276 50.8993 2.59428C51.0532 2.66096 51.1865 2.75072 51.2994 2.86357C51.4122 2.97641 51.4994 3.10977 51.561 3.26365C51.6276 3.4124 51.661 3.57141 51.661 3.74068V5.61801ZM49.8221 0.916992H50.7069V1.8018H49.8221V0.916992Z" fill="#005BAA"/>
<path d="M45.7289 3.56375H46.6137V2.67894H45.7289V3.56375ZM47.0138 3.56375H47.8986V2.67894H47.0138V3.56375ZM48.4372 6.88755C48.4372 6.91319 48.427 6.93884 48.4064 6.96449C48.3859 6.985 48.3603 6.99523 48.3295 6.99523L47.7448 6.99526C47.5806 6.99526 47.4165 6.95166 47.2523 6.86446C47.0882 6.77214 46.9779 6.66442 46.9215 6.54132C46.8856 6.60287 46.8343 6.66186 46.7676 6.71828C46.7009 6.76957 46.6266 6.8183 46.5445 6.86446C46.4676 6.9055 46.3829 6.93884 46.2906 6.96449C46.2034 6.985 46.1162 6.99526 46.029 6.99526H45.4443C45.3724 6.99526 45.3365 6.95936 45.3365 6.88755V6.11045C45.3365 6.07968 45.3468 6.05403 45.3673 6.03351C45.3878 6.00787 45.4135 5.99504 45.4443 5.99504H46.1059C46.2085 5.99504 46.2983 5.96427 46.3752 5.90272C46.4522 5.84117 46.5009 5.7591 46.5214 5.65651L46.8061 4.27159L47.637 4.41778L47.4062 5.57957C47.3806 5.68729 47.4037 5.78474 47.4755 5.87194C47.5473 5.95401 47.6396 5.99504 47.7525 5.99504L48.3295 5.99501C48.3603 5.99501 48.3859 6.00787 48.4064 6.03351C48.427 6.05403 48.4372 6.07968 48.4372 6.11045V6.88755Z" fill="#005BAA"/>
<path d="M41.8636 4.95684C41.8636 4.79783 41.8892 4.64652 41.9405 4.50289C41.9918 4.35414 42.0636 4.22078 42.156 4.10281C42.2483 3.98483 42.356 3.88225 42.4791 3.79505C42.6073 3.70785 42.7484 3.6463 42.9023 3.61039L43.9179 3.36419V2.78714H44.7642V5.58005C44.7642 5.6929 44.8078 5.79035 44.895 5.87242C44.9874 5.95449 45.0925 5.99553 45.2105 5.99553H45.4413C45.4669 5.99553 45.49 6.00578 45.5105 6.0263C45.5362 6.04682 45.549 6.07247 45.549 6.10324V6.88803C45.549 6.9188 45.5362 6.94445 45.5105 6.96497C45.49 6.98548 45.4669 6.99574 45.4413 6.99574H45.2105C44.9489 6.99574 44.7258 6.93163 44.5411 6.80339C44.3564 6.67516 44.2051 6.50333 44.0872 6.2879C44.0307 6.32893 43.9538 6.36227 43.8563 6.38792C43.7589 6.40844 43.6691 6.41869 43.587 6.41869H42.833C42.6997 6.41869 42.574 6.39305 42.456 6.34175C42.3381 6.29046 42.2355 6.22122 42.1483 6.13402C42.0611 6.04682 41.9918 5.94423 41.9405 5.82626C41.8892 5.70828 41.8636 5.58262 41.8636 5.44925V4.95684ZM43.9179 4.27208L43.1331 4.46442C43.0049 4.4952 42.9023 4.56188 42.8253 4.66447C42.7484 4.76705 42.7099 4.88503 42.7099 5.01839V5.41848H43.9179V4.27208Z" fill="#005BAA"/>
<path d="M40.253 6.99583H39.4066V1.72546H40.253V6.99583Z" fill="#005BAA"/>
<path d="M36.1488 8.95776L35.8872 8.16529L36.9952 7.80367C37.1901 7.73699 37.344 7.62158 37.4568 7.45744C37.5748 7.2933 37.6338 7.11121 37.6338 6.91117V4.24905H38.4801V6.82653C38.4801 7.02658 38.4493 7.21893 38.3878 7.40358C38.3262 7.59337 38.239 7.7652 38.1262 7.91908C38.0185 8.07296 37.8851 8.20632 37.7261 8.31917C37.5722 8.43714 37.4004 8.52947 37.2106 8.59615L36.1488 8.95776ZM37.5953 2.6564H38.4801V3.54121H37.5953V2.6564Z" fill="#005BAA"/>
<path d="M34.7349 3.49521H35.689V4.54159H34.7349V3.49521ZM34.7349 5.94959H35.689V6.99597H34.7349V5.94959Z" fill="#005BAA"/>
</svg>
