<svg width="48" height="45" viewBox="0 0 48 45" fill="none" xmlns="http://www.w3.org/2000/svg">
<path d="M6.11367 0.197266C3.1985 0.197266 0.826172 2.56959 0.826172 5.48477V39.5598C0.826172 42.4749 3.1985 44.8473 6.11367 44.8473H11.19C9.86816 43.4737 9.05117 41.6113 9.05117 39.5598V5.48477C9.05117 3.43322 9.86816 1.57084 11.19 0.197266H6.11367ZM16.6887 0.197266C13.7735 0.197266 11.4012 2.56959 11.4012 5.48477V39.5598C11.4012 42.4749 13.7735 44.8473 16.6887 44.8473H42.5387C45.4538 44.8473 47.8262 42.4749 47.8262 39.5598V17.8223H35.4887C32.5735 17.8223 30.2012 15.4499 30.2012 12.5348V0.197266H16.6887ZM33.7262 1.22998V12.5348C33.7262 13.5065 34.5169 14.2973 35.4887 14.2973H46.7935L33.7262 1.22998ZM31.9637 22.5223H39.0137C39.9866 22.5223 40.7762 23.3119 40.7762 24.2848V31.3348C40.7762 32.3077 39.9866 33.0973 39.0137 33.0973C38.0408 33.0973 37.2512 32.3077 37.2512 31.3348V28.5395L30.8598 34.9309C30.5155 35.2764 30.0649 35.4473 29.6137 35.4473C29.1625 35.4473 28.7118 35.2752 28.3675 34.9309L24.9137 31.477L21.4598 34.9309C20.7713 35.6195 19.6561 35.6195 18.9675 34.9309C18.279 34.2424 18.279 33.1272 18.9675 32.4386L23.6675 27.7386C24.3561 27.0501 25.4713 27.0501 26.1598 27.7386L29.6137 31.1925L34.7589 26.0473H31.9637C30.9908 26.0473 30.2012 25.2577 30.2012 24.2848C30.2012 23.3119 30.9908 22.5223 31.9637 22.5223Z" fill="white"/>
</svg>
