<svg width="24" height="22" viewBox="0 0 24 22" fill="none" xmlns="http://www.w3.org/2000/svg">
<path d="M8.95013 7.19503C8.41336 7.19503 7.97557 7.6267 7.97557 8.15596V9.7575H12.1987V7.19503H8.95013ZM12.8484 7.19503V9.7575H17.3963V7.19503H12.8484ZM18.046 7.19503V9.7575H22.2691V8.15596C22.2691 7.6267 21.8313 7.19503 21.2946 7.19503H18.046ZM7.97557 10.3981V12.9606H12.1987V10.3981H7.97557ZM12.8484 10.3981V12.9606H17.3963V10.3981H12.8484ZM18.046 10.3981V12.9606H22.2691V10.3981H18.046ZM7.97557 13.6012V16.1636H12.1987V13.6012H7.97557ZM12.8484 13.6012V16.1636H17.3963V13.6012H12.8484ZM17.3963 16.1636C17.2466 16.3588 17.1222 16.5778 17.0207 16.8043H12.8484V19.3667H17.0207C17.5258 20.4941 18.6716 21.2886 19.9951 21.2886C21.7818 21.2886 23.2437 19.8472 23.2437 18.0855C23.2437 17.1946 22.8693 16.3851 22.2691 15.8033V13.6012H18.046V15.533C17.8024 15.7145 17.5803 15.9234 17.3963 16.1636ZM19.9951 15.523C20.084 15.523 20.1715 15.5243 20.2591 15.533C20.2895 15.5368 20.32 15.5393 20.3505 15.5431C20.3708 15.5456 20.3911 15.5493 20.4114 15.5531C20.504 15.5681 20.5954 15.5981 20.6855 15.6231C20.688 15.6244 20.6931 15.6219 20.6956 15.6231C20.6982 15.6244 20.7032 15.6219 20.7058 15.6231C20.7261 15.6294 20.7464 15.6369 20.7667 15.6432C20.8479 15.6682 20.9228 15.6907 21.0002 15.7232C21.0103 15.727 21.0205 15.7295 21.0306 15.7332C21.0573 15.7445 21.0852 15.7608 21.1118 15.7733C21.188 15.8096 21.2628 15.8509 21.3352 15.8934C21.3428 15.8984 21.3479 15.9084 21.3555 15.9134C21.4583 15.976 21.5572 16.0373 21.6499 16.1136C21.7247 16.1749 21.7958 16.245 21.8631 16.3138C21.9087 16.3613 21.9532 16.4039 21.995 16.4539C22.0255 16.4902 22.0572 16.5252 22.0864 16.564C22.108 16.5928 22.127 16.6241 22.1473 16.6541C22.1892 16.7154 22.2323 16.7792 22.2691 16.8443V16.8543C22.4734 17.2197 22.594 17.6401 22.594 18.0855C22.594 19.4944 21.424 20.648 19.9951 20.648C19.0384 20.648 18.2034 20.1312 17.7516 19.3667C17.6958 19.2729 17.6425 19.1778 17.5994 19.0764C17.5651 18.9976 17.5448 18.92 17.5181 18.8362C17.5029 18.7874 17.4902 18.7361 17.4775 18.6861C17.4598 18.6173 17.4382 18.5472 17.4268 18.4759C17.423 18.4496 17.4204 18.4233 17.4166 18.3958C17.4039 18.2932 17.3963 18.1918 17.3963 18.0855C17.3963 17.4436 17.6463 16.8543 18.046 16.4039V16.3939C18.1044 16.3288 18.1742 16.2625 18.2389 16.2037C18.2732 16.1724 18.3049 16.1424 18.3404 16.1136C18.3569 16.0998 18.3747 16.0861 18.3912 16.0736C18.4318 16.0423 18.4711 16.0123 18.513 15.9835C18.5333 15.9697 18.5536 15.956 18.5739 15.9434C18.6044 15.9234 18.6336 15.9022 18.6653 15.8834C18.7414 15.8383 18.8277 15.8008 18.9089 15.7633C18.9851 15.7282 19.0625 15.7007 19.1424 15.6732C19.1564 15.6682 19.1691 15.6582 19.183 15.6532C19.2769 15.6219 19.3784 15.5931 19.4774 15.5731C19.6436 15.5393 19.8188 15.523 19.9951 15.523ZM19.6703 16.1636V17.9253L18.5029 18.7862L18.8886 19.3067L20.32 18.2457V16.1636H19.6703ZM7.97557 16.8043V19.0464C7.97557 19.2241 8.1215 19.3667 8.30042 19.3667H12.1987V16.8043H7.97557Z" fill="black"/>
<path d="M7.13288 12.5166H2.28996C1.28561 12.5166 0.471191 11.7135 0.471191 10.7232C0.47129 9.73303 1.28567 8.93074 2.28996 8.93074H7.13288V12.5166Z" fill="black"/>
<path d="M12.1987 10.3981L12.1989 12.5166H7.97598L7.97557 10.3981H12.1987Z" fill="black"/>
<path d="M17.3963 10.3981L17.3967 12.5166H12.8485L12.8484 10.3981H17.3963Z" fill="black"/>
<path d="M19.4353 10.3985C19.4549 10.5039 19.4666 10.6123 19.4666 10.7232C19.4666 11.5784 18.8588 12.2926 18.0463 12.4719L18.046 10.3981L19.4353 10.3985Z" fill="black"/>
<path d="M12.1987 9.7575H7.97557L7.97598 8.93074H12.1989L12.1987 9.7575Z" fill="black"/>
<path d="M17.3963 9.7575H12.8484L12.8485 8.93074H17.3967L17.3963 9.7575Z" fill="black"/>
<path d="M18.0463 8.97458C18.5204 9.07918 18.9232 9.3663 19.1776 9.75718L18.046 9.7575L18.0463 8.97458Z" fill="black"/>
<path d="M17.6478 4.57124C18.6519 4.57134 19.4663 5.37378 19.4666 6.36375H8.95082C7.94842 6.36375 7.13288 7.16788 7.13288 8.15626L2.28996 8.15707C1.28569 8.15707 0.471316 7.35476 0.471191 6.36456C0.471191 5.37427 1.28561 4.57124 2.28996 4.57124H17.6478Z" fill="black"/>
<path d="M8.95013 7.19503H12.1987L12.1989 8.15707H7.97598C7.97598 7.62781 8.41336 7.19503 8.95013 7.19503Z" fill="black"/>
<path d="M17.3963 7.19503L17.3967 8.15707H12.8485L12.8484 7.19503H17.3963Z" fill="black"/>
<path d="M19.2583 7.19506C19.0139 7.65484 18.5737 7.99599 18.0463 8.11242L18.046 7.19503L19.2583 7.19506Z" fill="black"/>
<path d="M17.6478 0.210938C18.6521 0.211034 19.4666 1.01402 19.4666 2.00426C19.4665 2.99439 18.652 3.79667 17.6478 3.79676H2.28996C1.28569 3.79676 0.471316 2.99445 0.471191 2.00426C0.471191 1.01396 1.28561 0.210938 2.28996 0.210938H17.6478Z" fill="black"/>
</svg>
