<svg width="231" height="231" viewBox="0 0 231 231" fill="none" xmlns="http://www.w3.org/2000/svg">
<path d="M115.46 0C51.7996 0 0 51.7996 0 115.46C0 179.12 51.7996 230.92 115.46 230.92C179.12 230.92 230.92 179.12 230.92 115.46C230.92 51.7996 179.12 0 115.46 0ZM104.964 21.675C108.417 21.2656 111.902 20.9927 115.46 20.9927C119.018 20.9927 122.503 21.2656 125.956 21.675V52.4818H104.964V21.675ZM52.4818 125.956H21.7485C21.3391 122.503 20.9927 119.029 20.9927 115.46C20.9927 111.902 21.2656 108.417 21.675 104.964H52.4818V125.956ZM41.7021 56.6069C46.1 51.0963 51.0963 46.1 56.6069 41.7021L78.4078 63.503L63.503 78.4078L41.7021 56.6069ZM115.46 136.453C104.334 136.453 95.307 127.741 94.5722 116.72L68.7512 103.809L78.1979 85.1255L103.914 97.9311C107.273 95.7268 111.156 94.4673 115.46 94.4673C127.006 94.4673 136.453 103.914 136.453 115.46C136.453 127.006 127.006 136.453 115.46 136.453ZM152.512 63.503L174.313 41.7021C179.824 46.1 184.82 51.0963 189.218 56.6069L167.417 78.4078L152.512 63.503ZM178.438 125.956V104.964H209.245C209.654 108.417 209.927 111.902 209.927 115.46C209.927 119.029 209.581 122.503 209.172 125.956H178.438Z" fill="white"/>
</svg>
