<svg width="37" height="37" viewBox="0 0 37 37" fill="none" xmlns="http://www.w3.org/2000/svg">
<path d="M20.721 0.146484L22.4774 4.53709C23.6863 4.86233 24.8305 5.3365 25.8891 5.94804L30.232 4.08727L32.9811 6.83636L31.1195 11.1792C31.7311 12.2392 32.2073 13.3819 32.5313 14.5909L36.9219 16.3473V20.2347L32.5313 21.9911C32.206 23.2001 31.7311 24.3441 31.1195 25.4028L32.9811 29.7457L30.232 32.4948L25.8891 30.6332C24.8291 31.2448 23.6865 31.721 22.4774 32.0449L20.721 36.4355H16.8336L15.0772 32.0449C13.8682 31.7197 12.7243 31.2448 11.6656 30.6332L7.32269 32.4948L4.5736 29.7457L6.43437 25.4028C5.82283 24.3429 5.34737 23.2 5.02342 21.9911L0.632812 20.2347V16.3473L5.02342 14.5909C5.34865 13.382 5.82283 12.2379 6.43437 11.1792L4.5736 6.83636L7.32269 4.08727L11.6656 5.94804C12.7255 5.3365 13.8683 4.86103 15.0772 4.53709L16.8336 0.146484H20.721ZM18.7786 11.8111C15.2001 11.8112 12.2992 14.7122 12.299 18.2906C12.299 21.8692 15.2 24.7708 18.7786 24.7709C22.3572 24.7709 25.2581 21.8693 25.2581 18.2906C25.2579 14.7121 22.3571 11.8111 18.7786 11.8111Z" fill="#69B0B2"/>
</svg>
