<svg width="19" height="19" viewBox="0 0 19 19" fill="none" xmlns="http://www.w3.org/2000/svg">
<path d="M0.893513 0.176119C0.923712 0.177073 0.953833 0.179715 0.983734 0.184033H5.74013C5.84752 0.182514 5.95414 0.202354 6.0538 0.242399C6.15345 0.282445 6.24415 0.341897 6.32063 0.417301C6.39711 0.492705 6.45784 0.582557 6.49929 0.681635C6.54074 0.780713 6.56208 0.887042 6.56208 0.994441C6.56208 1.10184 6.54074 1.20817 6.49929 1.30725C6.45784 1.40633 6.39711 1.49618 6.32063 1.57158C6.24415 1.64699 6.15345 1.70644 6.0538 1.74648C5.95414 1.78653 5.84752 1.80637 5.74013 1.80485H2.83406L11.1756 10.1464C11.2533 10.221 11.3154 10.3105 11.3582 10.4094C11.401 10.5084 11.4236 10.6149 11.4247 10.7228C11.4258 10.8306 11.4054 10.9375 11.3646 11.0373C11.3239 11.1372 11.2636 11.2279 11.1874 11.3041C11.1111 11.3803 11.0204 11.4406 10.9206 11.4814C10.8208 11.5221 10.7138 11.5425 10.606 11.5415C10.4982 11.5404 10.3917 11.5178 10.2927 11.475C10.1937 11.4322 10.1043 11.3701 10.0296 11.2923L1.68809 2.95082V5.85689C1.68961 5.96428 1.66977 6.0709 1.62973 6.17055C1.58968 6.27021 1.53023 6.36091 1.45483 6.43739C1.37942 6.51386 1.28957 6.57459 1.19049 6.61604C1.09141 6.65749 0.985085 6.67884 0.877686 6.67884C0.770287 6.67884 0.663958 6.65749 0.564878 6.61604C0.465801 6.57459 0.375948 6.51386 0.300545 6.43739C0.225142 6.36091 0.165689 6.27021 0.125645 6.17055C0.085598 6.0709 0.0657578 5.96428 0.0672779 5.85689V1.09732C0.0511379 0.980647 0.0606232 0.861853 0.0950756 0.749214C0.129526 0.636576 0.188116 0.5328 0.266764 0.445114C0.345409 0.357427 0.442225 0.287936 0.550465 0.24148C0.658707 0.195024 0.775774 0.172719 0.893513 0.176119ZM17.0858 3.42567C17.9717 3.42567 18.7067 4.16065 18.7067 5.04648V17.2026C18.7067 18.0884 17.9717 18.8234 17.0858 18.8234H4.92973C4.0439 18.8234 3.30891 18.0884 3.30891 17.2026V9.09852V7.00919L4.92973 8.63V10.7193V17.2026H17.0858V5.04648H10.6026H8.98177H8.51325L6.89243 3.42567H8.98177H10.6026H17.0858Z" fill="white"/>
</svg>
