<svg width="43" height="54" viewBox="0 0 43 54" fill="none" xmlns="http://www.w3.org/2000/svg">
<path d="M22.9706 16.1584C24.2719 9.14644 28.8955 3.89898 36.2637 1.07212C37.1314 0.739085 37.2704 0.712625 37.2014 0.893071C37.1756 0.960713 37.1544 6.48172 37.1544 13.1624V25.3086L36.4766 25.4785C33.3824 26.2534 29.4911 28.7426 27.3582 31.3119C21.8882 37.9 22.76 47.6079 29.2123 51.9601C29.5121 52.1624 29.7907 52.3556 29.8314 52.3892C29.9073 52.4523 29.2829 53.1494 29.1505 53.1494C28.9738 53.1494 27.1657 51.7279 26.6299 51.1677C25.075 49.5421 23.5992 46.5817 23.0572 44.0016C22.7703 42.636 22.7406 41.0916 22.766 28.8638L22.7904 17.1288L22.9706 16.1584Z" fill="#69B0B2"/>
<path d="M39.8459 9.21587C40.4455 8.82295 41.3209 8.40138 42.0728 8.14334C42.4134 8.02636 42.7533 7.92808 42.8278 7.9251C42.9563 7.92012 42.9635 8.49051 42.9635 18.8581V29.7963L41.9372 29.8078C33.2994 29.9045 25.8403 37.635 27.3834 44.8911C27.936 47.4897 29.6779 50.1186 31.566 51.2031C31.6772 51.2672 31.6566 51.3143 31.4085 51.5654L31.1232 51.8543L30.6806 51.5499C23.8795 46.8706 23.9531 36.4469 30.8264 30.9126C33.13 29.0576 36.6785 27.3727 39.0714 26.9977L39.4005 26.9461V18.2268V9.50773L39.8459 9.21587Z" fill="#69B0B2"/>
<path d="M29.8617 39.7809C31.7722 35.7617 35.3833 33.0986 40.0826 32.2435C40.9021 32.0943 42.8023 32.0567 42.9323 32.1872C42.9619 32.2169 42.9236 32.6963 42.8475 33.253L42.7091 34.2649L42.4295 34.266C37.864 34.2859 32.8927 37.3637 31.262 41.1797C29.9884 44.1599 30.7377 47.7659 33.037 49.7219L33.3979 50.0289L33.131 50.3068C32.7578 50.6954 32.7473 50.6906 31.7424 49.6718C29.1408 47.0337 28.3617 42.9366 29.8617 39.7809Z" fill="#69B0B2"/>
<path d="M32.8046 42.9722C33.8081 39.766 36.6604 37.5256 40.6785 36.7877C40.9767 36.7328 41.3705 36.6849 41.5535 36.6811L41.8862 36.6741L41.8327 36.9654C41.6282 38.0805 41.3808 38.6133 41.0659 38.6158C40.3235 38.622 38.0726 39.4148 37.1104 40.0091C34.1187 41.8563 33.0529 45.3236 34.6836 47.9035L34.9181 48.2746L34.6614 48.5545C34.5202 48.7085 34.3925 48.8525 34.3776 48.8742C34.259 49.0483 33.0475 47.2715 32.8058 46.569C32.537 45.7875 32.5362 43.8299 32.8046 42.9722Z" fill="#69B0B2"/>
<path d="M20.5587 16.1584C19.2574 9.14644 14.6338 3.89898 7.26562 1.07212C6.39793 0.739085 6.25893 0.712625 6.32794 0.893071C6.35371 0.960713 6.37493 6.48172 6.37493 13.1624V25.3086L7.05266 25.4785C10.1469 26.2534 14.0382 28.7426 16.1711 31.3119C21.6411 37.9 20.7693 47.6079 14.317 51.9601C14.0171 52.1624 13.7386 52.3556 13.6979 52.3892C13.622 52.4523 14.2464 53.1494 14.3788 53.1494C14.5555 53.1494 16.3636 51.7279 16.8994 51.1677C18.4543 49.5421 19.9301 46.5817 20.4721 44.0016C20.759 42.636 20.7887 41.0916 20.7633 28.8638L20.7389 17.1288L20.5587 16.1584Z" fill="#69B0B2"/>
<path d="M3.68344 9.21587C3.08383 8.82295 2.20841 8.40138 1.45652 8.14334C1.11587 8.02636 0.776014 7.92808 0.70146 7.9251C0.572973 7.92012 0.565834 8.49051 0.565834 18.8581V29.7963L1.59215 29.8078C10.2299 29.9045 17.689 37.635 16.1459 44.8911C15.5933 47.4897 13.8514 50.1186 11.9633 51.2031C11.8521 51.2672 11.8727 51.3143 12.1208 51.5654L12.4061 51.8543L12.8487 51.5499C19.6498 46.8706 19.5762 36.4469 12.7029 30.9126C10.3993 29.0576 6.85081 27.3727 4.45793 26.9977L4.12878 26.9461V18.2268V9.50773L3.68344 9.21587Z" fill="#69B0B2"/>
<path d="M13.6676 39.7809C11.7571 35.7617 8.14599 33.0986 3.44669 32.2435C2.62718 32.0943 0.727036 32.0567 0.59696 32.1872C0.567417 32.2169 0.605688 32.6963 0.681829 33.253L0.820229 34.2649L1.09981 34.266C5.66527 34.2859 10.6366 37.3637 12.2673 41.1797C13.5409 44.1599 12.7916 47.7659 10.4923 49.7219L10.1314 50.0289L10.3983 50.3068C10.7715 50.6954 10.782 50.6906 11.7869 49.6718C14.3885 47.0337 15.1676 42.9366 13.6676 39.7809Z" fill="#69B0B2"/>
<path d="M10.7247 42.9722C9.72115 39.766 6.86885 37.5256 2.85084 36.7877C2.55263 36.7328 2.15884 36.6849 1.97582 36.6811L1.6431 36.6741L1.69664 36.9654C1.90107 38.0805 2.14853 38.6133 2.4634 38.6158C3.20578 38.622 5.45668 39.4148 6.41894 40.0091C9.41064 41.8563 10.4764 45.3236 8.84573 47.9035L8.61117 48.2746L8.86794 48.5545C9.00912 48.7085 9.13681 48.8525 9.15168 48.8742C9.27026 49.0483 10.4818 47.2715 10.7235 46.569C10.9923 45.7875 10.9931 43.8299 10.7247 42.9722Z" fill="#69B0B2"/>
</svg>
