<svg width="189" height="64" viewBox="0 0 189 64" fill="none" xmlns="http://www.w3.org/2000/svg">
<path d="M164.653 19.1146C166.212 10.7136 171.752 4.42657 180.58 1.03971C181.619 0.640695 181.786 0.608993 181.703 0.825186C181.672 0.906228 181.647 7.52096 181.647 15.5251V30.0775L180.835 30.281C177.128 31.2095 172.465 34.1918 169.91 37.27C163.356 45.1633 164.401 56.7943 172.131 62.0087C172.491 62.2511 172.824 62.4826 172.873 62.5228C172.964 62.5984 172.216 63.4336 172.057 63.4336C171.846 63.4336 169.679 61.7305 169.037 61.0593C167.174 59.1117 165.406 55.5649 164.757 52.4736C164.413 50.8375 164.378 48.9871 164.408 34.337L164.437 20.2773L164.653 19.1146Z" fill="white"/>
<path d="M184.871 10.7968C185.59 10.326 186.639 9.8209 187.54 9.51175C187.948 9.37159 188.355 9.25385 188.444 9.25027C188.598 9.24431 188.607 9.92769 188.607 22.3491V35.4542L187.377 35.468C177.028 35.5838 168.091 44.8458 169.94 53.5393C170.602 56.6527 172.689 59.8024 174.951 61.1017C175.085 61.1785 175.06 61.235 174.763 61.5358L174.421 61.8819L173.891 61.5172C165.742 55.911 165.83 43.4223 174.065 36.7916C176.825 34.5691 181.077 32.5505 183.944 32.1012L184.338 32.0394V21.5928V11.1464L184.871 10.7968Z" fill="white"/>
<path d="M172.909 47.4168C175.198 42.6014 179.525 39.4107 185.155 38.3862C186.137 38.2075 188.414 38.1624 188.569 38.3188C188.605 38.3543 188.559 38.9288 188.468 39.5957L188.302 40.808L187.967 40.8094C182.497 40.8333 176.541 44.5207 174.587 49.0927C173.061 52.6633 173.959 56.9836 176.714 59.3272L177.146 59.6949L176.826 60.0279C176.379 60.4934 176.367 60.4877 175.163 59.2671C172.046 56.1064 171.112 51.1976 172.909 47.4168Z" fill="white"/>
<path d="M176.435 51.2403C177.638 47.3989 181.055 44.7147 185.869 43.8306C186.226 43.7648 186.698 43.7074 186.917 43.7029L187.316 43.6945L187.252 44.0435C187.007 45.3795 186.71 46.0178 186.333 46.0209C185.444 46.0283 182.747 46.9782 181.594 47.6902C178.01 49.9033 176.733 54.0575 178.687 57.1485L178.968 57.5931L178.66 57.9284C178.491 58.1129 178.338 58.2855 178.32 58.3115C178.178 58.5201 176.726 56.3913 176.437 55.5496C176.115 54.6133 176.114 52.2679 176.435 51.2403Z" fill="white"/>
<path d="M161.79 19.1146C160.231 10.7136 154.692 4.42657 145.864 1.03971C144.824 0.640695 144.658 0.608993 144.74 0.825186C144.771 0.906228 144.797 7.52096 144.797 15.5251V30.0775L145.609 30.281C149.316 31.2095 153.978 34.1918 156.533 37.27C163.087 45.1633 162.042 56.7943 154.312 62.0087C153.953 62.2511 153.619 62.4826 153.57 62.5228C153.479 62.5984 154.227 63.4336 154.386 63.4336C154.598 63.4336 156.764 61.7305 157.406 61.0593C159.269 59.1117 161.037 55.5649 161.686 52.4736C162.03 50.8375 162.066 48.9871 162.035 34.337L162.006 20.2773L161.79 19.1146Z" fill="white"/>
<path d="M141.572 10.7968C140.854 10.326 139.805 9.8209 138.904 9.51175C138.496 9.37159 138.089 9.25385 137.999 9.25027C137.845 9.24431 137.837 9.92769 137.837 22.3491V35.4542L139.066 35.468C149.415 35.5838 158.352 44.8458 156.503 53.5393C155.841 56.6527 153.754 59.8024 151.492 61.1017C151.359 61.1785 151.383 61.235 151.681 61.5358L152.023 61.8819L152.553 61.5172C160.701 55.911 160.613 43.4223 152.378 36.7916C149.618 34.5691 145.367 32.5505 142.5 32.1012L142.105 32.0394V21.5928V11.1464L141.572 10.7968Z" fill="white"/>
<path d="M153.534 47.4168C151.245 42.6014 146.918 39.4107 141.288 38.3862C140.306 38.2075 138.03 38.1624 137.874 38.3188C137.839 38.3543 137.884 38.9288 137.976 39.5957L138.141 40.808L138.476 40.8094C143.946 40.8333 149.903 44.5207 151.856 49.0927C153.382 52.6633 152.484 56.9836 149.73 59.3272L149.297 59.6949L149.617 60.0279C150.064 60.4934 150.077 60.4877 151.281 59.2671C154.398 56.1064 155.331 51.1976 153.534 47.4168Z" fill="white"/>
<path d="M150.008 51.2403C148.806 47.3989 145.388 44.7147 140.574 43.8306C140.217 43.7648 139.745 43.7074 139.526 43.7029L139.127 43.6945L139.192 44.0435C139.436 45.3795 139.733 46.0178 140.11 46.0209C141 46.0283 143.696 46.9782 144.849 47.6902C148.434 49.9033 149.711 54.0575 147.757 57.1485L147.476 57.5931L147.783 57.9284C147.953 58.1129 148.106 58.2855 148.123 58.3115C148.265 58.5201 149.717 56.3913 150.007 55.5496C150.329 54.6133 150.33 52.2679 150.008 51.2403Z" fill="white"/>
<path d="M115.53 47.8777H118.728V45.3831C118.728 45.1412 118.644 44.9371 118.478 44.7708C118.312 44.6045 118.108 44.5213 117.866 44.5213H116.029C115.817 44.5213 115.636 44.5894 115.485 44.7254C115.333 44.8464 115.235 45.0127 115.19 45.2243L114.827 47.0386C114.782 47.2503 114.827 47.4468 114.963 47.6282C115.114 47.7946 115.303 47.8777 115.53 47.8777ZM112.31 46.8799L112.763 44.544C112.839 44.1358 112.982 43.7578 113.194 43.4101C113.421 43.0472 113.685 42.7448 113.988 42.5029C114.29 42.2459 114.63 42.0494 115.008 41.9133C115.401 41.7621 115.81 41.6865 116.233 41.6865H117.503C118.017 41.6865 118.501 41.7848 118.954 41.9813C119.408 42.1779 119.801 42.4425 120.134 42.7751C120.466 43.1077 120.731 43.5008 120.927 43.9544C121.124 44.4079 121.222 44.8917 121.222 45.4058V48.0591C121.222 48.4371 121.147 48.8 120.995 49.1477C120.859 49.4803 120.663 49.7751 120.406 50.0322C120.164 50.2741 119.877 50.4706 119.544 50.6218C119.211 50.7579 118.856 50.8259 118.478 50.8259H115.847C115.394 50.8259 114.963 50.7352 114.555 50.5538C114.147 50.3572 113.776 50.017 113.444 49.5332C113.096 50.017 112.71 50.3572 112.287 50.5538C111.864 50.7352 111.41 50.8259 110.926 50.8259H110.382C110.17 50.8259 110.064 50.7201 110.064 50.5084V48.1952C110.064 47.9835 110.17 47.8777 110.382 47.8777H111.108C111.41 47.8777 111.667 47.787 111.879 47.6056C112.106 47.4241 112.249 47.1822 112.31 46.8799Z" fill="white"/>
<path d="M109.751 47.8769H110.386C110.462 47.8769 110.53 47.9147 110.59 47.9903C110.666 48.0508 110.704 48.1264 110.704 48.2171V50.5076C110.704 50.5832 110.673 50.6588 110.613 50.7344C110.552 50.7949 110.477 50.8251 110.386 50.8251H109.933C109.328 50.8251 108.791 50.7042 108.322 50.4623C107.854 50.2204 107.468 49.9482 107.166 49.6459C106.803 49.9936 106.372 50.2809 105.873 50.5076C105.389 50.7193 104.86 50.8251 104.286 50.8251H101.315C100.907 50.8251 100.521 50.7495 100.158 50.5983C99.7954 50.432 99.4779 50.2128 99.2057 49.9407C98.9336 49.6685 98.7144 49.351 98.5481 48.9882C98.3969 48.6102 98.3213 48.2171 98.3213 47.8089V44.8607H100.453V47.3553C100.453 47.5065 100.506 47.635 100.612 47.7409C100.718 47.8316 100.839 47.8769 100.975 47.8769H104.308C104.535 47.8769 104.747 47.8316 104.943 47.7409C105.155 47.635 105.329 47.5065 105.465 47.3553C105.601 47.189 105.692 47.0076 105.737 46.8111C105.798 46.5994 105.798 46.3877 105.737 46.1761L103.923 39.622L106.281 38.7603L108.595 46.9925C108.67 47.2495 108.814 47.4612 109.025 47.6275C109.237 47.7938 109.479 47.8769 109.751 47.8769Z" fill="white"/>
<path d="M95.833 50.8257H93.3384V35.291H95.833V50.8257Z" fill="white"/>
<path d="M83.7364 56.6086L82.9653 54.2728L86.231 53.2069C86.8055 53.0103 87.2591 52.6702 87.5917 52.1864C87.9394 51.7026 88.1133 51.1658 88.1133 50.5762V42.7295H90.6079V50.3267C90.6079 50.9164 90.5172 51.4833 90.3358 52.0276C90.1544 52.587 89.8973 53.0935 89.5647 53.5471C89.2472 54.0006 88.8541 54.3937 88.3855 54.7263C87.9319 55.0741 87.4254 55.3462 86.866 55.5428L83.7364 56.6086Z" fill="white"/>
<path d="M75.952 50.8261C75.695 50.8261 75.4304 50.7883 75.1582 50.7127C74.9012 50.6219 74.6669 50.4254 74.4552 50.123V50.69C74.4552 51.2796 74.3267 51.8239 74.0697 52.3228C73.8278 52.8217 73.4952 53.2526 73.0718 53.6155C72.6636 53.9783 72.1874 54.2656 71.6431 54.4773C71.0988 54.6889 70.5318 54.7948 69.9422 54.7948H65.9735C65.278 54.7948 64.6204 54.6587 64.0005 54.3866C63.3806 54.1295 62.8363 53.7667 62.3676 53.298C61.9141 52.8444 61.5512 52.3077 61.2791 51.6878C61.0221 51.068 60.8936 50.4103 60.8936 49.7148V43.0701H63.3882V49.3293C63.3882 49.677 63.4487 50.0021 63.5696 50.3044C63.7057 50.6068 63.8871 50.8714 64.1139 51.0982C64.3407 51.325 64.6052 51.5064 64.9076 51.6425C65.21 51.7785 65.5351 51.8466 65.8828 51.8466H69.9649C70.5394 51.8466 71.0232 51.6425 71.4163 51.2343C71.8094 50.8412 72.0059 50.3649 72.0059 49.8055V42.7072H74.4779V46.8347C74.5081 47.137 74.6215 47.3865 74.8181 47.583C75.0297 47.7796 75.2792 47.8779 75.5664 47.8779H76.2241C76.5265 47.8779 76.7911 47.7872 77.0179 47.6057C77.2446 47.4243 77.3883 47.1824 77.4487 46.88L78.2652 42.7752L80.7144 43.2288L80.0341 46.6306C79.9736 46.9632 80.0492 47.258 80.2609 47.515C80.4725 47.7569 80.7447 47.8779 81.0773 47.8779H82.7555V42.0269H85.2501V48.0593C85.2501 48.4373 85.1745 48.8001 85.0233 49.1479C84.8872 49.4805 84.6907 49.7753 84.4337 50.0323C84.1918 50.2742 83.9045 50.4708 83.5719 50.6219C83.2393 50.758 82.884 50.8261 82.506 50.8261H81.0546C80.5708 50.8261 80.1172 50.7278 79.6939 50.5312C79.2857 50.3196 78.9304 49.9718 78.628 49.488C78.2803 49.9718 77.8796 50.3196 77.4261 50.5312C76.9725 50.7278 76.4811 50.8261 75.952 50.8261Z" fill="white"/>
<path d="M41.4583 44.4072L39.6667 42.6837L46.3342 34.8823L48.1258 36.5605L43.7715 41.6858H52.412C52.926 41.6858 53.4023 41.7841 53.8407 41.9806C54.2943 42.1772 54.6874 42.4418 55.02 42.7744C55.3677 43.107 55.6399 43.5001 55.8364 43.9537C56.0329 44.4072 56.1312 44.891 56.1312 45.4051V47.0833C56.1312 47.6276 56.0254 48.1265 55.8137 48.58C55.6172 49.0336 55.3375 49.4267 54.9746 49.7593C54.6269 50.0919 54.2187 50.3565 53.75 50.5531C53.2964 50.7345 52.8202 50.8252 52.3213 50.8252H38.7369C38.5253 50.795 38.4194 50.6891 38.4194 50.5077V48.1945C38.4194 47.9828 38.5253 47.877 38.7369 47.877H52.7521C52.9789 47.877 53.183 47.8014 53.3645 47.6502C53.5459 47.4839 53.6366 47.2647 53.6366 46.9926V45.3824C53.6366 45.1103 53.5383 44.8835 53.3418 44.702C53.1452 44.5055 52.9109 44.4072 52.6388 44.4072H41.4583Z" fill="white"/>
<path d="M27.4311 50.8257C26.8868 50.8257 26.3803 50.7199 25.9117 50.5082C25.443 50.2965 25.0272 49.9564 24.6643 49.4877C24.3015 49.9564 23.8782 50.2965 23.3944 50.5082C22.9257 50.7199 22.4192 50.8257 21.8749 50.8257H21.2853C21.2097 50.8257 21.1416 50.7954 21.0812 50.735C21.0056 50.6594 20.9678 50.5838 20.9678 50.5082V48.2177C20.9678 48.127 21.0056 48.0514 21.0812 47.9909C21.1416 47.9153 21.2097 47.8775 21.2853 47.8775H22.3058C22.6082 47.8775 22.8652 47.7717 23.0769 47.56C23.2885 47.3332 23.3944 47.0686 23.3944 46.7663V42.7068H25.889V46.9477C25.889 47.2198 26.0024 47.4466 26.2291 47.628C26.4559 47.7944 26.6978 47.8775 26.9549 47.8775H27.6806C27.9829 47.8775 28.2475 47.7868 28.4743 47.6054C28.7011 47.4088 28.8447 47.1594 28.9052 46.857L29.6989 42.7522L32.1709 43.2058L31.4905 46.6529C31.4149 46.9704 31.483 47.2576 31.6946 47.5146C31.9214 47.7566 32.1936 47.8775 32.5111 47.8775H33.1234C33.4257 47.8775 33.6828 47.7792 33.8944 47.5827C34.1061 47.371 34.2119 47.114 34.2119 46.8116V42.1172H36.7065V46.8116C36.7065 47.114 36.8124 47.371 37.024 47.5827C37.2357 47.7792 37.4927 47.8775 37.7951 47.8775H38.7476C38.8383 47.8775 38.9139 47.9153 38.9744 47.9909C39.0349 48.0514 39.0651 48.1194 39.0651 48.195V50.4855C39.0651 50.5762 39.0349 50.6594 38.9744 50.735C38.929 50.7954 38.8534 50.8257 38.7476 50.8257H38.2033C37.659 50.8257 37.1526 50.7199 36.6839 50.5082C36.2152 50.2965 35.807 49.9564 35.4592 49.4877C35.0964 49.9564 34.673 50.2965 34.1892 50.5082C33.7054 50.7199 33.199 50.8257 32.6698 50.8257C32.1709 50.8257 31.6871 50.7274 31.2184 50.5309C30.7497 50.3192 30.3642 49.9715 30.0618 49.4877C29.7141 49.9715 29.3134 50.3192 28.8598 50.5309C28.4063 50.7274 27.93 50.8257 27.4311 50.8257ZM32.8739 40.7338H30.2659V38.1258H32.8739V40.7338ZM29.0866 40.7338H26.4786V38.1258H29.0866V40.7338ZM30.9462 37.2867H28.3382V34.6787H30.9462V37.2867Z" fill="white"/>
<path d="M14.3293 50.8256C13.7699 50.8256 13.2558 50.7122 12.7872 50.4854C12.3185 50.2435 11.9254 49.926 11.6079 49.533C11.2904 49.1399 11.056 48.6939 10.9048 48.1949C10.7688 47.6809 10.7537 47.1517 10.8595 46.6075L11.245 44.5437C11.3206 44.1355 11.4642 43.7575 11.6759 43.4098C11.9027 43.047 12.1673 42.737 12.4697 42.48C12.772 42.223 13.1122 42.0264 13.4902 41.8904C13.8833 41.7392 14.2915 41.6636 14.7148 41.6636H15.9848C16.4988 41.6636 16.9826 41.7618 17.4362 41.9584C17.8898 42.1549 18.2829 42.4271 18.6155 42.7748C18.9481 43.1074 19.2127 43.5005 19.4092 43.9541C19.6058 44.4077 19.704 44.8915 19.704 45.4055V47.8774H21.2915C21.5032 47.8774 21.609 47.9833 21.609 48.1949V50.5081C21.609 50.7198 21.5032 50.8256 21.2915 50.8256H19.6814C19.6814 50.8407 19.6814 50.8785 19.6814 50.939C19.6814 50.9995 19.6738 51.0751 19.6587 51.1658C19.568 52.1636 19.1824 53.0632 18.5021 53.8645C17.8369 54.6658 16.9826 55.2479 15.9394 55.6108L12.8325 56.6766L12.0614 54.2954L15.2591 53.2295C15.8336 53.033 16.2947 52.7155 16.6425 52.277C17.0053 51.8386 17.1867 51.317 17.1867 50.7122V50.5535C17.0204 50.6291 16.8163 50.6971 16.5744 50.7576C16.3325 50.8029 16.0906 50.8256 15.8487 50.8256H14.3293ZM14.0118 47.8774H17.2094V45.3828C17.2094 45.1409 17.1263 44.9368 16.96 44.7705C16.7937 44.5891 16.5896 44.4984 16.3476 44.4984H14.5107C14.299 44.4984 14.1176 44.5664 13.9664 44.7025C13.8152 44.8385 13.717 45.0124 13.6716 45.2241L13.3088 47.0383C13.2634 47.25 13.3088 47.4466 13.4448 47.628C13.596 47.7943 13.785 47.8774 14.0118 47.8774Z" fill="white"/>
<path d="M1.41608 56.6086L0.64502 54.2728L3.9107 53.2069C4.48522 53.0103 4.93879 52.6702 5.2714 52.1864C5.61914 51.7026 5.793 51.1658 5.793 50.5762V42.7295H8.28762V50.3267C8.28762 50.9164 8.19691 51.4833 8.01548 52.0276C7.83405 52.587 7.57703 53.0935 7.24442 53.5471C6.92692 54.0006 6.53383 54.3937 6.06514 54.7263C5.61158 55.0741 5.10509 55.3462 4.54569 55.5428L1.41608 56.6086Z" fill="white"/>
<path d="M110.935 24.7202C110.329 24.7202 109.758 24.6025 109.22 24.3672C108.699 24.115 108.245 23.7368 107.858 23.2325C107.455 23.7368 106.984 24.115 106.446 24.3672C105.925 24.6025 105.362 24.7202 104.757 24.7202H104.102C103.866 24.7202 103.749 24.6025 103.749 24.3672V21.8205C103.749 21.7197 103.791 21.6356 103.875 21.5684C103.942 21.4843 104.017 21.4423 104.102 21.4423H105.261C105.598 21.4423 105.883 21.3163 106.119 21.0641C106.354 20.812 106.472 20.5178 106.472 20.1816V15.6935H109.245V20.2068C109.245 20.543 109.363 20.8372 109.598 21.0893C109.834 21.3247 110.119 21.4423 110.456 21.4423H111.187C111.523 21.4423 111.817 21.3415 112.069 21.1398C112.321 20.938 112.481 20.6691 112.548 20.3329L113.481 15.7691L116.204 16.2734L115.448 20.0555C115.364 20.4085 115.44 20.7279 115.675 21.0137C115.927 21.2994 116.23 21.4423 116.583 21.4423H118.448V15.0127H121.222V21.644C121.222 22.0643 121.138 22.4677 120.97 22.8543C120.819 23.2241 120.6 23.5519 120.314 23.8377C120.045 24.1066 119.718 24.3252 119.331 24.4932C118.961 24.6445 118.566 24.7202 118.146 24.7202H116.583C116.045 24.7202 115.54 24.6025 115.07 24.3672C114.599 24.1318 114.196 23.7452 113.859 23.2073C113.473 23.7452 113.027 24.1318 112.523 24.3672C112.019 24.6025 111.489 24.7202 110.935 24.7202Z" fill="white"/>
<path d="M104.463 24.367C104.463 24.6023 104.346 24.72 104.11 24.72H103.379C102.774 24.72 102.202 24.6107 101.665 24.3922C101.127 24.1569 100.656 23.8375 100.253 23.4341C99.8491 23.0306 99.5297 22.56 99.2944 22.0221C99.0591 21.4842 98.9414 20.9126 98.9414 20.3075V7.44824H101.715V20.2319C101.715 20.568 101.833 20.8538 102.068 21.0891C102.303 21.3245 102.589 21.4421 102.925 21.4421H104.11C104.211 21.4421 104.295 21.4842 104.362 21.5682C104.43 21.6354 104.463 21.7195 104.463 21.8204V24.367Z" fill="white"/>
<path d="M89.831 21.4421H93.3862V18.6685C93.3862 18.3996 93.2938 18.1726 93.1089 17.9877C92.924 17.8028 92.697 17.7104 92.4281 17.7104H90.3857C90.1504 17.7104 89.9487 17.786 89.7806 17.9373C89.6125 18.0718 89.5032 18.2567 89.4528 18.492L89.0494 20.5092C88.999 20.7445 89.0494 20.963 89.2007 21.1647C89.3688 21.3496 89.5789 21.4421 89.831 21.4421ZM86.2506 20.3327L86.7549 17.7356C86.8389 17.2817 86.9986 16.8615 87.234 16.4749C87.4861 16.0714 87.7803 15.7353 88.1165 15.4663C88.4526 15.1805 88.8309 14.962 89.2511 14.8107C89.6881 14.6426 90.142 14.5586 90.6127 14.5586H92.0247C92.5962 14.5586 93.1341 14.6679 93.6384 14.8864C94.1427 15.1049 94.5797 15.3991 94.9495 15.7689C95.3193 16.1387 95.6135 16.5757 95.832 17.08C96.0505 17.5843 96.1598 18.1222 96.1598 18.6937V21.6438C96.1598 22.064 96.0758 22.4675 95.9077 22.8541C95.7564 23.2239 95.5378 23.5517 95.2521 23.8374C94.9831 24.1064 94.6638 24.3249 94.2939 24.493C93.9241 24.6443 93.5291 24.7199 93.1089 24.7199H90.184C89.6797 24.7199 89.2007 24.6191 88.7468 24.4174C88.293 24.1988 87.8811 23.8206 87.5113 23.2827C87.1247 23.8206 86.6961 24.1988 86.2254 24.4174C85.7547 24.6191 85.2504 24.7199 84.7125 24.7199H84.1074C83.8721 24.7199 83.7544 24.6023 83.7544 24.3669V21.7951C83.7544 21.5597 83.8721 21.4421 84.1074 21.4421H84.9142C85.2504 21.4421 85.5362 21.3412 85.7715 21.1395C86.0237 20.9378 86.1834 20.6688 86.2506 20.3327Z" fill="white"/>
<path d="M84.4692 24.367C84.4692 24.6023 84.3515 24.72 84.1162 24.72H83.385C82.7798 24.72 82.2083 24.6107 81.6704 24.3922C81.1325 24.1569 80.6618 23.8375 80.2584 23.4341C79.855 23.0306 79.5356 22.56 79.3003 22.0221C79.0649 21.4842 78.9473 20.9126 78.9473 20.3075V7.44824H81.7208V20.2319C81.7208 20.568 81.8385 20.8538 82.0738 21.0891C82.3092 21.3245 82.5949 21.4421 82.9311 21.4421H84.1162C84.217 21.4421 84.3011 21.4842 84.3683 21.5682C84.4356 21.6354 84.4692 21.7195 84.4692 21.8204V24.367Z" fill="white"/>
<path d="M72.1922 21.4424C72.5283 21.4424 72.8141 21.3248 73.0494 21.0894C73.2848 20.8373 73.4024 20.5431 73.4024 20.2069V14.9876H76.176V20.2069C76.176 20.8289 76.0583 21.4172 75.823 21.9719C75.5877 22.5098 75.2599 22.9889 74.8396 23.4091C74.4362 23.8126 73.9572 24.1319 73.4024 24.3673C72.8645 24.6026 72.2846 24.7203 71.6626 24.7203H67.9057C67.8049 24.7203 67.7208 24.6867 67.6536 24.6194C67.5864 24.5354 67.5527 24.4513 67.5527 24.3673V21.8206C67.5527 21.7198 67.5864 21.6357 67.6536 21.5685C67.7208 21.4845 67.8049 21.4424 67.9057 21.4424H72.1922ZM73.2764 12.6931H76.176V9.79346H73.2764V12.6931Z" fill="white"/>
<path d="M56.1714 18.0386C56.1714 17.5175 56.2554 17.0217 56.4235 16.551C56.5916 16.0635 56.827 15.6265 57.1295 15.2399C57.4321 14.8532 57.7851 14.517 58.1885 14.2313C58.6088 13.9455 59.071 13.7438 59.5753 13.6261L62.9036 12.8193V10.9282H65.6772V20.081C65.6772 20.4508 65.82 20.7702 66.1058 21.0391C66.4084 21.3081 66.753 21.4426 67.1396 21.4426H67.896C67.9801 21.4426 68.0557 21.4762 68.1229 21.5434C68.207 21.6107 68.249 21.6947 68.249 21.7956V24.3674C68.249 24.4683 68.207 24.5523 68.1229 24.6196C68.0557 24.6868 67.9801 24.7204 67.896 24.7204H67.1396C66.2823 24.7204 65.5511 24.5103 64.9459 24.0901C64.3408 23.6698 63.8449 23.1067 63.4583 22.4007C63.2734 22.5352 63.0213 22.6444 62.7019 22.7285C62.3825 22.7957 62.0883 22.8293 61.8194 22.8293H59.3484C58.9113 22.8293 58.4995 22.7453 58.1129 22.5772C57.7263 22.4091 57.3901 22.1822 57.1043 21.8964C56.8186 21.6107 56.5916 21.2745 56.4235 20.8878C56.2554 20.5012 56.1714 20.0894 56.1714 19.6523V18.0386ZM62.9036 15.7946L60.3317 16.4249C59.9115 16.5258 59.5753 16.7443 59.3232 17.0805C59.071 17.4167 58.945 17.8033 58.945 18.2404V19.5515H62.9036V15.7946Z" fill="white"/>
<path d="M34.5327 21.8208C34.5327 21.7368 34.5747 21.6528 34.6588 21.5687C34.726 21.4847 34.8017 21.4426 34.8857 21.4426H39.3991C40.1051 21.4426 40.8027 21.3334 41.4918 21.1148C42.181 20.8795 42.7694 20.5013 43.2568 19.9802L44.7193 18.4169C44.8033 18.3329 44.879 18.2572 44.9462 18.19C45.0134 18.1228 45.0555 18.0891 45.0723 18.0891L39.7773 16.5006C39.6092 16.4502 39.4579 16.467 39.3234 16.5511C39.2057 16.6183 39.1133 16.7276 39.0461 16.8789L38.0879 19.4003L35.6674 18.7447L36.3229 16.425C36.4742 15.9039 36.7095 15.4585 37.0289 15.0886C37.3651 14.7188 37.7349 14.4331 38.1383 14.2314C38.5586 14.0128 39.004 13.8868 39.4747 13.8531C39.9454 13.8027 40.3992 13.8447 40.8363 13.9792L50.8715 16.9797L50.0395 19.5768L48.8544 19.2238C48.451 19.1397 48.1232 19.1481 47.871 19.249C47.6357 19.333 47.392 19.5011 47.1398 19.7533L44.2402 22.6277C43.5174 23.3505 42.6769 23.88 41.7188 24.2162C40.7606 24.5524 39.7773 24.7205 38.7687 24.7205H34.8857C34.6504 24.7205 34.5327 24.6028 34.5327 24.3675V21.8208ZM41.8448 30.671H44.7445V27.7714H41.8448V30.671Z" fill="white"/>
<path d="M35.2475 24.367C35.2475 24.6023 35.1298 24.72 34.8945 24.72H34.1633C33.5582 24.72 32.9866 24.6107 32.4487 24.3922C31.9108 24.1569 31.4402 23.8375 31.0367 23.4341C30.6333 23.0306 30.3139 22.56 30.0786 22.0221C29.8433 21.4842 29.7256 20.9126 29.7256 20.3075V7.44824H32.4992V20.2319C32.4992 20.568 32.6168 20.8538 32.8522 21.0891C33.0875 21.3245 33.3732 21.4421 33.7094 21.4421H34.8945C34.9954 21.4421 35.0794 21.4842 35.1466 21.5682C35.2139 21.6354 35.2475 21.7195 35.2475 21.8204V24.367Z" fill="white"/>
<path d="M20.6152 21.4421H24.1704V18.6685C24.1704 18.3996 24.078 18.1726 23.8931 17.9877C23.7082 17.8028 23.4812 17.7104 23.2123 17.7104H21.1699C20.9346 17.7104 20.7329 17.786 20.5648 17.9373C20.3967 18.0718 20.2874 18.2567 20.237 18.492L19.8336 20.5092C19.7831 20.7445 19.8336 20.963 19.9848 21.1647C20.1529 21.3496 20.3631 21.4421 20.6152 21.4421ZM17.0348 20.3327L17.5391 17.7356C17.6231 17.2817 17.7828 16.8615 18.0181 16.4749C18.2703 16.0714 18.5644 15.7353 18.9006 15.4663C19.2368 15.1805 19.615 14.962 20.0353 14.8107C20.4723 14.6426 20.9262 14.5586 21.3968 14.5586H22.8088C23.3804 14.5586 23.9183 14.6679 24.4226 14.8864C24.9268 15.1049 25.3639 15.3991 25.7337 15.7689C26.1035 16.1387 26.3977 16.5757 26.6162 17.08C26.8347 17.5843 26.944 18.1222 26.944 18.6937V21.6438C26.944 22.064 26.8599 22.4675 26.6918 22.8541C26.5406 23.2239 26.322 23.5517 26.0363 23.8374C25.7673 24.1064 25.4479 24.3249 25.0781 24.493C24.7083 24.6443 24.3133 24.7199 23.8931 24.7199H20.9682C20.4639 24.7199 19.9848 24.6191 19.531 24.4174C19.0771 24.1988 18.6653 23.8206 18.2955 23.2827C17.9089 23.8206 17.4802 24.1988 17.0096 24.4174C16.5389 24.6191 16.0346 24.7199 15.4967 24.7199H14.8916C14.6562 24.7199 14.5386 24.6023 14.5386 24.3669V21.7951C14.5386 21.5597 14.6562 21.4421 14.8916 21.4421H15.6984C16.0346 21.4421 16.3204 21.3412 16.5557 21.1395C16.8079 20.9378 16.9675 20.6688 17.0348 20.3327Z" fill="white"/>
<path d="M4.30108 16.905V18.1657L7.35201 20.082L9.9995 18.3927V17.9388C9.9995 17.653 9.89024 17.4093 9.67172 17.2076C9.47 17.0059 9.20945 16.905 8.89007 16.905H4.30108ZM8.89007 13.728C9.42798 13.728 9.92386 13.8289 10.3777 14.0306C10.8484 14.2323 11.2518 14.5097 11.588 14.8627C11.941 15.2157 12.2184 15.6275 12.4201 16.0982C12.6218 16.5688 12.7226 17.0731 12.7226 17.611V18.2414C12.7226 18.712 12.6134 19.1659 12.3949 19.6029C12.1931 20.04 11.899 20.393 11.5124 20.6619L10.529 21.3427C10.6971 21.3932 10.8736 21.4268 11.0585 21.4436C11.2602 21.4436 11.4619 21.4436 11.6636 21.4436H14.8911C15.1264 21.4436 15.2441 21.5781 15.2441 21.847V24.3936C15.2441 24.4777 15.2104 24.5533 15.1432 24.6206C15.076 24.6878 14.9919 24.7214 14.8911 24.7214H11.6384C10.8484 24.7214 10.0835 24.6374 9.34393 24.4693C8.60431 24.2844 7.8815 24.0238 7.17551 23.6877L5.00708 25.2257C4.58684 25.5115 4.25906 25.8981 4.02373 26.3856C3.78839 26.873 3.67073 27.3857 3.67073 27.9236C3.67073 28.4111 3.76318 28.865 3.94808 29.2852C4.1498 29.7223 4.41034 30.1005 4.72973 30.4198C5.06592 30.756 5.45253 31.0166 5.88958 31.2015C6.32663 31.3864 6.79729 31.4788 7.30158 31.4788H13.8321V34.7567H7.32679C6.40227 34.7567 5.52818 34.5802 4.70451 34.2272C3.89766 33.8742 3.19166 33.3951 2.58652 32.79C1.98137 32.2017 1.5023 31.5041 1.1493 30.6972C0.813114 29.9072 0.64502 29.0583 0.64502 28.1506C0.64502 27.1924 0.846734 26.2931 1.25016 25.4526C1.65359 24.6122 2.22511 23.923 2.96473 23.3851L4.70451 22.0487L1.52752 19.8803V16.3503C1.52752 15.5603 1.75445 14.9299 2.2083 14.4592C2.67897 13.9718 3.30932 13.728 4.09937 13.728H8.89007Z" fill="white"/>
</svg>
