<svg width="170" height="210" viewBox="0 0 170 210" fill="none" xmlns="http://www.w3.org/2000/svg">
<path d="M89.7942 62.0351C94.9676 34.1591 113.349 13.2979 142.641 2.05972C146.09 0.735718 146.643 0.630525 146.369 1.34789C146.266 1.6168 146.182 23.5656 146.182 50.1246V98.4118L143.487 99.0872C131.186 102.168 115.717 112.064 107.237 122.278C85.491 148.469 88.957 187.063 114.608 204.365C115.8 205.169 116.908 205.937 117.069 206.071C117.371 206.322 114.889 209.093 114.362 209.093C113.66 209.093 106.472 203.442 104.342 201.215C98.1601 194.752 92.293 182.983 90.1387 172.726C88.998 167.297 88.8798 161.157 88.9807 112.545L89.0776 65.8932L89.7942 62.0351Z" fill="white"/>
<path d="M156.882 34.4352C159.266 32.8731 162.746 31.1972 165.735 30.1713C167.089 29.7063 168.44 29.3156 168.737 29.3037C169.247 29.2839 169.276 31.5515 169.276 72.7678V116.253L165.196 116.298C130.856 116.683 101.203 147.416 107.337 176.262C109.534 186.593 116.459 197.044 123.965 201.355C124.407 201.61 124.325 201.797 123.339 202.796L122.205 203.944L120.445 202.734C93.4076 184.132 93.7001 142.692 121.025 120.69C130.183 113.316 144.29 106.618 153.803 105.127L155.111 104.922V70.2583V35.5955L156.882 34.4352Z" fill="white"/>
<path d="M117.19 155.946C124.785 139.968 139.141 129.381 157.823 125.982C161.081 125.388 168.635 125.239 169.152 125.758C169.27 125.876 169.117 127.782 168.815 129.995L168.264 134.017L167.153 134.022C149.003 134.101 129.239 146.337 122.757 161.507C117.694 173.355 120.672 187.691 129.813 195.467L131.248 196.687L130.187 197.792C128.703 199.337 128.662 199.318 124.667 195.268C114.324 184.78 111.227 168.492 117.19 155.946Z" fill="white"/>
<path d="M128.889 168.633C132.879 155.887 144.218 146.981 160.192 144.047C161.377 143.829 162.943 143.638 163.67 143.623L164.993 143.595L164.78 144.753C163.968 149.186 162.984 151.304 161.732 151.315C158.781 151.339 149.832 154.491 146.007 156.854C134.113 164.197 129.876 177.981 136.359 188.238L137.292 189.713L136.271 190.826C135.71 191.438 135.202 192.011 135.143 192.097C134.671 192.789 129.855 185.725 128.894 182.933C127.825 179.826 127.822 172.043 128.889 168.633Z" fill="white"/>
<path d="M80.2058 62.0351C75.0324 34.1591 56.6514 13.2979 27.3592 2.05972C23.9097 0.735718 23.3571 0.630525 23.6314 1.34789C23.7339 1.6168 23.8182 23.5656 23.8182 50.1246V98.4118L26.5126 99.0872C38.8136 102.168 54.2834 112.064 62.7629 122.278C84.509 148.469 81.043 187.063 55.3918 204.365C54.1999 205.169 53.0924 205.937 52.9308 206.071C52.6289 206.322 55.1111 209.093 55.6377 209.093C56.34 209.093 63.5283 203.442 65.6582 201.215C71.8399 194.752 77.707 182.983 79.8613 172.726C81.002 167.297 81.1202 161.157 81.0193 112.545L80.9224 65.8932L80.2058 62.0351Z" fill="white"/>
<path d="M13.1182 34.4352C10.7345 32.8731 7.25426 31.1972 4.26513 30.1713C2.91087 29.7063 1.55978 29.3156 1.26338 29.3037C0.752579 29.2839 0.724197 31.5515 0.724197 72.7678V116.253L4.80431 116.298C39.1439 116.683 68.7971 147.415 62.6628 176.262C60.4659 186.593 53.5409 197.044 46.035 201.355C45.5927 201.61 45.6747 201.797 46.6608 202.796L47.7952 203.944L49.5546 202.734C76.5924 184.132 76.2999 142.692 48.9752 120.69C39.8171 113.316 25.7101 106.618 16.1972 105.127L14.8887 104.922V70.2583V35.5955L13.1182 34.4352Z" fill="white"/>
<path d="M52.8102 155.946C45.2151 139.968 30.8591 129.381 12.177 125.982C8.91909 125.388 1.36506 125.239 0.847946 125.758C0.730492 125.876 0.882645 127.782 1.18534 129.995L1.73555 134.017L2.84702 134.022C20.997 134.101 40.7606 146.337 47.2434 161.507C52.3064 173.355 49.3276 187.691 40.1868 195.467L38.7521 196.687L39.8131 197.792C41.2966 199.337 41.3384 199.318 45.3334 195.268C55.6763 184.78 58.7735 168.492 52.8102 155.946Z" fill="white"/>
<path d="M41.1106 168.633C37.1212 155.887 25.7818 146.981 9.80826 144.047C8.62269 143.829 7.0572 143.638 6.32962 143.623L5.00688 143.595L5.21973 144.753C6.03244 149.186 7.01621 151.304 8.26799 151.315C11.2193 151.339 20.1677 154.491 23.9932 156.854C35.8867 164.197 40.1237 177.981 33.6409 188.238L32.7084 189.713L33.7292 190.826C34.2905 191.438 34.7981 192.011 34.8572 192.097C35.3286 192.789 40.145 185.725 41.1059 182.933C42.1748 179.826 42.1779 172.043 41.1106 168.633Z" fill="white"/>
</svg>
