<svg width="33" height="32" viewBox="0 0 33 32" fill="none" xmlns="http://www.w3.org/2000/svg">
<path d="M10.8413 0.00390625C9.09115 0.00390625 7.66822 1.38371 7.66822 3.08083C7.66822 4.77794 9.09115 6.15775 10.8413 6.15775C12.5914 6.15775 14.0144 4.77794 14.0144 3.08083C14.0144 1.38371 12.5914 0.00390625 10.8413 0.00390625ZM3.3449 6.73467C2.97802 6.78275 2.66071 7.04237 2.47231 7.50391L0.171826 14.7731C-0.0810292 15.5135 0.290816 16.2635 0.925431 16.3885L2.47231 16.7347C3.10692 16.8597 3.73162 16.5135 3.86053 15.7731L5.64538 8.38852C5.77429 7.77314 5.36774 7.12891 4.73312 7.00391L3.74154 6.77314C3.61263 6.74429 3.46885 6.72025 3.3449 6.73467ZM7.9062 7.38852C7.27158 7.38852 7.0336 8.11929 7.0336 8.11929C6.5279 10.2106 5.25867 15.7635 5.12976 16.5039C4.8769 17.7347 5.49665 18.7203 6.00235 19.5808C6.50806 20.3212 12.6113 29.6674 13.4987 30.7731C14.2623 31.7587 15.0159 32.2347 16.1562 31.6193C17.0437 31.1289 16.9396 29.9029 16.4338 29.0424C15.9281 28.1818 9.69106 18.3501 9.69106 18.3501L10.9603 14.0424C10.9603 14.0424 11.7288 15.0039 12.1105 15.6193C12.2394 15.8645 12.4774 15.9895 12.9831 16.2347C13.6177 16.4799 15.0357 17.3645 15.7992 17.7347C16.5628 18.1049 17.4403 18.2058 17.8221 17.4654C18.2038 16.8501 17.7031 16.1337 17.0685 15.8885C16.4338 15.6433 13.7764 14.0424 13.7764 14.0424C13.7764 14.0424 12.3584 11.0712 11.5949 9.35006C10.8314 7.8741 10.3505 7.38852 9.33408 7.38852H7.9062ZM26.7067 8.61929C25.3036 8.61929 24.1682 9.72025 24.1682 11.0808C24.1682 12.4414 25.3036 13.5424 26.7067 13.5424C28.1098 13.5424 29.2451 12.4414 29.2451 11.0808C29.2451 9.72025 28.1098 8.61929 26.7067 8.61929ZM21.7487 13.6578C21.367 13.6578 21.0051 13.9029 20.8762 14.2731L19.2103 19.5808C18.9574 20.0712 19.2202 20.5712 19.7259 20.6962L20.9951 20.927C21.3769 21.052 21.8975 20.6818 22.0264 20.3116L23.2956 14.8885C23.4245 14.3981 23.0428 14.052 22.661 13.927L21.7487 13.6578ZM24.5649 14.7731C24.0591 14.7731 23.9302 15.2731 23.9302 15.2731C23.5485 16.7491 22.7899 20.0808 22.661 20.6962C22.5321 21.6818 22.9139 22.2731 23.2956 22.8885C23.6774 23.3789 28.0949 30.2635 28.7295 31.0039C29.3641 31.7443 29.8698 32.1097 30.6334 31.6193C31.268 31.2491 31.2928 30.3885 30.911 29.7731C30.5292 29.1578 25.9531 22.0424 25.9531 22.0424L26.7067 19.5808L27.4603 20.6962C27.5892 20.9414 27.7131 20.9126 28.0949 21.1578C28.4767 21.4029 30.1177 22.1433 30.7524 22.3885C31.2581 22.6337 32.0464 22.7635 32.2992 22.2731C32.681 21.7828 32.4083 21.2876 31.9026 21.0424L28.8485 19.5808C28.8485 19.5808 27.8569 17.3404 27.2223 16.2347C26.7166 15.1289 26.32 14.7731 25.5564 14.7731H24.5649ZM5.01077 21.1578L3.97952 24.6193C3.97952 24.6193 1.33198 28.326 0.56846 29.3116C0.0627512 30.052 -0.447916 31.0328 0.56846 31.7731C1.58484 32.5135 2.48222 31.5039 2.98793 30.8885C3.49364 30.3981 5.52639 27.5904 6.16101 26.8501C6.54277 26.3597 6.78571 25.9895 6.91461 25.6193C7.04352 25.3741 7.17738 25.1193 7.43024 24.5039L5.01077 21.1578ZM22.78 23.8885L22.0264 26.4654C22.0264 26.4654 20.1126 29.1866 19.6069 29.927C19.2252 30.5424 18.8434 31.1289 19.6069 31.6193C20.3704 32.2347 21.01 31.4943 21.3918 31.0039C21.7735 30.6337 23.2708 28.5712 23.6526 28.0808C23.9054 27.7106 24.0393 27.4414 24.1682 27.1962C24.2971 26.951 24.4359 26.7251 24.5649 26.2347L22.78 23.8885Z" fill="#68B0AB"/>
</svg>
