<svg width="38" height="36" viewBox="0 0 38 36" fill="none" xmlns="http://www.w3.org/2000/svg">
<path d="M2.96775 0.672852C1.67741 0.672852 0.625 1.72526 0.625 3.0156V6.92019H10.7769V0.672852H2.96775ZM12.3388 0.672852V6.92019H23.2716V0.672852H12.3388ZM24.8334 0.672852V6.92019H34.9854V3.0156C34.9854 1.72526 33.933 0.672852 32.6426 0.672852H24.8334ZM0.625 8.48203V14.7294H10.7769V8.48203H0.625ZM12.3388 8.48203V14.7294H23.2716V8.48203H12.3388ZM24.8334 8.48203V14.7294H34.9854V8.48203H24.8334ZM0.625 16.2912V22.5385H10.7769V16.2912H0.625ZM12.3388 16.2912V22.5385H23.2716V16.2912H12.3388ZM23.2716 22.5385C22.9117 23.0144 22.6127 23.5482 22.3687 24.1004H12.3388V30.3477H22.3687C23.5828 33.0962 26.3373 35.0332 29.5189 35.0332C33.814 35.0332 37.3281 31.5191 37.3281 27.224C37.3281 25.0521 36.4282 23.0785 34.9854 21.66V16.2912H24.8334V21.0011C24.2478 21.4434 23.7139 21.9529 23.2716 22.5385ZM29.5189 20.9767C29.7325 20.9767 29.943 20.9798 30.1534 21.0011C30.2267 21.0103 30.2999 21.0164 30.3731 21.0255C30.4219 21.0316 30.4707 21.0408 30.5195 21.0499C30.7422 21.0865 30.9618 21.1597 31.1784 21.2207C31.1845 21.2238 31.1967 21.2177 31.2028 21.2207C31.2089 21.2238 31.2211 21.2177 31.2272 21.2207C31.276 21.236 31.3248 21.2543 31.3736 21.2696C31.5689 21.3306 31.7488 21.3855 31.9349 21.4648C31.9593 21.4739 31.9837 21.48 32.0081 21.4892C32.0722 21.5166 32.1393 21.5563 32.2034 21.5868C32.3864 21.6753 32.5664 21.7759 32.7402 21.8796C32.7585 21.8918 32.7707 21.9162 32.789 21.9284C33.0361 22.081 33.2741 22.2304 33.4967 22.4165C33.6767 22.566 33.8475 22.7368 34.0092 22.9046C34.119 23.0205 34.2258 23.1242 34.3265 23.2462C34.3997 23.3347 34.4759 23.4201 34.5461 23.5147C34.598 23.5848 34.6437 23.6611 34.6925 23.7343C34.7932 23.8838 34.8969 24.0394 34.9854 24.198V24.2224C35.4765 25.1131 35.7663 26.1381 35.7663 27.224C35.7663 30.6589 32.9538 33.4714 29.5189 33.4714C27.2189 33.4714 25.2117 32.2115 24.1257 30.3477C23.9915 30.1189 23.8634 29.8871 23.7597 29.64C23.6773 29.4478 23.6285 29.2587 23.5645 29.0543C23.5278 28.9354 23.4973 28.8103 23.4668 28.6883C23.4241 28.5205 23.3723 28.3497 23.3448 28.1758C23.3357 28.1117 23.3296 28.0477 23.3204 27.9806C23.2899 27.7304 23.2716 27.4833 23.2716 27.224C23.2716 25.6592 23.8725 24.2224 24.8334 23.1242V23.0998C24.9738 22.9412 25.1415 22.7795 25.2971 22.6362C25.3795 22.5599 25.4557 22.4867 25.5411 22.4165C25.5808 22.383 25.6235 22.3494 25.6632 22.3189C25.7608 22.2426 25.8553 22.1694 25.956 22.0993C26.0048 22.0657 26.0536 22.0322 26.1024 22.0017C26.1756 21.9529 26.2458 21.901 26.3221 21.8552C26.5051 21.7454 26.7125 21.6539 26.9078 21.5624C27.0908 21.477 27.2769 21.4099 27.469 21.3428C27.5026 21.3306 27.5331 21.3062 27.5667 21.294C27.7924 21.2177 28.0364 21.1475 28.2744 21.0987C28.674 21.0164 29.0949 20.9767 29.5189 20.9767ZM28.738 22.5385V26.8336L25.9316 28.9323L26.8589 30.2013L30.2999 27.6145V22.5385H28.738ZM0.625 24.1004V29.5668C0.625 30 0.975803 30.3477 1.40592 30.3477H10.7769V24.1004H0.625Z" fill="white"/>
</svg>
