<svg width="41" height="41" viewBox="0 0 41 41" fill="none" xmlns="http://www.w3.org/2000/svg">
<path d="M8.39433 5.22607C7.51028 5.22607 6.66243 5.57726 6.03731 6.20238C5.41219 6.82751 5.061 7.67535 5.061 8.55941C5.061 9.44346 5.41219 10.2913 6.03731 10.9164C6.66243 11.5416 7.51028 11.8927 8.39433 11.8927C9.27839 11.8927 10.1262 11.5416 10.7514 10.9164C11.3765 10.2913 11.7277 9.44346 11.7277 8.55941C11.7277 7.67535 11.3765 6.82751 10.7514 6.20238C10.1262 5.57726 9.27839 5.22607 8.39433 5.22607ZM12.1134 5.22607C12.1167 5.22941 12.1158 5.23739 12.1183 5.24072C12.9083 6.12572 13.3943 7.28691 13.3943 8.55941C13.3943 10.0711 12.713 11.4293 11.643 12.3468L15.3198 13.3983L18.5603 12.1011C19.2837 11.8127 20.0776 11.8213 20.7934 12.1271C21.5093 12.4338 22.0619 13.0021 22.351 13.7254C22.6402 14.4488 22.6317 15.2418 22.325 15.9585C22.0183 16.6752 21.45 17.2277 20.7267 17.5177L16.56 19.1844C15.9642 19.4219 15.301 19.4571 14.6801 19.2821L13.3943 18.9142V18.9761V26.0594H35.4777C36.1677 26.0594 36.7277 25.5002 36.7277 24.8094C36.7277 24.1186 36.1677 23.5594 35.4777 23.5594H35.061V6.47607C35.061 5.78524 34.501 5.22607 33.811 5.22607H12.1134ZM9.61992 13.5464C9.53026 13.5455 9.44077 13.5542 9.35299 13.5724C9.31063 13.5703 9.27055 13.5594 9.22766 13.5594H6.72766C5.34683 13.5594 4.22766 14.6786 4.22766 16.0594V26.0594V33.9761C4.22532 34.1417 4.25592 34.3062 4.31769 34.4599C4.37946 34.6136 4.47116 34.7535 4.58746 34.8715C4.70377 34.9894 4.84236 35.0831 4.99518 35.147C5.148 35.211 5.31201 35.2439 5.47766 35.2439C5.64332 35.2439 5.80733 35.211 5.96015 35.147C6.11297 35.0831 6.25156 34.9894 6.36786 34.8715C6.48417 34.7535 6.57587 34.6136 6.63764 34.4599C6.69941 34.3062 6.73001 34.1417 6.72766 33.9761V26.0594H9.22766V33.9761C9.22532 34.1417 9.25592 34.3062 9.31769 34.4599C9.37946 34.6136 9.47116 34.7535 9.58746 34.8715C9.70377 34.9894 9.84236 35.0831 9.99518 35.147C10.148 35.211 10.312 35.2439 10.4777 35.2439C10.6433 35.2439 10.8073 35.211 10.9601 35.147C11.113 35.0831 11.2516 34.9894 11.3679 34.8715C11.4842 34.7535 11.5759 34.6136 11.6376 34.4599C11.6994 34.3062 11.73 34.1417 11.7277 33.9761V23.1427V16.7039L15.1342 17.6772C15.4004 17.7535 15.6844 17.7391 15.9415 17.6366L20.1082 15.9699C20.3834 15.8644 20.6124 15.665 20.7549 15.407C20.8974 15.149 20.9442 14.849 20.8869 14.5599C20.8297 14.2707 20.6721 14.0111 20.4421 13.8269C20.2121 13.6427 19.9243 13.5456 19.6297 13.5529C19.4753 13.5569 19.323 13.5894 19.1805 13.6489L15.4109 15.1561L9.98776 13.6082C9.86893 13.5693 9.74493 13.5485 9.61992 13.5464Z" fill="white"/>
</svg>
