<svg width="378" height="35" viewBox="0 0 378 35" fill="none" xmlns="http://www.w3.org/2000/svg">
<rect x="275.393" y="0.540894" width="1" height="33.6502" rx="0.5" fill="white"/>
<rect x="114.272" y="0.540894" width="1" height="33.6502" rx="0.5" fill="white"/>
<path d="M365.478 11.0627C366.237 6.97311 368.933 3.91263 373.23 2.26393C373.737 2.06969 373.818 2.05425 373.777 2.1595C373.762 2.19895 373.75 5.41897 373.75 9.31535V16.3994L373.355 16.4985C371.55 16.9504 369.281 18.4022 368.037 19.9007C364.846 23.7431 365.355 29.405 369.118 31.9434C369.293 32.0614 369.455 32.174 369.479 32.1936C369.523 32.2304 369.159 32.637 369.082 32.637C368.979 32.637 367.924 31.8079 367.612 31.4812C366.705 30.5331 365.844 28.8065 365.528 27.3017C365.361 26.5052 365.343 25.6045 365.358 18.4729L365.372 11.6287L365.478 11.0627Z" fill="white"/>
<path d="M375.32 7.01361C375.669 6.78444 376.18 6.53857 376.619 6.38808C376.817 6.31985 377.015 6.26253 377.059 6.26079C377.134 6.25789 377.138 6.59055 377.138 12.6372V19.0167L376.539 19.0235C371.502 19.0799 367.151 23.5885 368.051 27.8205C368.374 29.3361 369.389 30.8694 370.491 31.5018C370.555 31.5392 370.543 31.5667 370.399 31.7131L370.232 31.8816L369.974 31.7041C366.008 28.975 366.051 22.8956 370.059 19.6678C371.403 18.5859 373.472 17.6032 374.868 17.3845L375.06 17.3544V12.2691V7.18383L375.32 7.01361Z" fill="white"/>
<path d="M369.497 24.8401C370.611 22.496 372.717 20.9428 375.458 20.444C375.936 20.357 377.044 20.3351 377.12 20.4112C377.137 20.4285 377.115 20.7081 377.07 21.0328L376.99 21.6229L376.827 21.6236C374.164 21.6352 371.264 23.4303 370.313 25.6559C369.571 27.3941 370.008 29.4972 371.349 30.638L371.559 30.817L371.403 30.9791C371.186 31.2057 371.18 31.2029 370.594 30.6087C369.076 29.0701 368.622 26.6806 369.497 24.8401Z" fill="white"/>
<path d="M371.213 26.7013C371.798 24.8314 373.462 23.5247 375.805 23.0943C375.979 23.0623 376.209 23.0344 376.316 23.0322L376.51 23.0281L376.478 23.198C376.359 23.8483 376.215 24.1591 376.031 24.1606C375.598 24.1642 374.285 24.6266 373.724 24.9732C371.979 26.0505 371.358 28.0727 372.309 29.5774L372.446 29.7938L372.296 29.9571C372.214 30.0469 372.139 30.1309 372.13 30.1436C372.061 30.2451 371.355 29.2088 371.214 28.7991C371.057 28.3433 371.056 27.2016 371.213 26.7013Z" fill="white"/>
<path d="M364.071 11.0627C363.312 6.97311 360.615 3.91263 356.318 2.26393C355.812 2.06969 355.731 2.05425 355.771 2.1595C355.786 2.19895 355.798 5.41897 355.798 9.31535V16.3994L356.194 16.4985C357.998 16.9504 360.268 18.4022 361.512 19.9007C364.702 23.7431 364.194 29.405 360.43 31.9434C360.256 32.0614 360.093 32.174 360.069 32.1936C360.025 32.2304 360.389 32.637 360.467 32.637C360.57 32.637 361.624 31.8079 361.937 31.4812C362.843 30.5331 363.704 28.8065 364.02 27.3017C364.188 26.5052 364.205 25.6045 364.19 18.4729L364.176 11.6287L364.071 11.0627Z" fill="white"/>
<path d="M354.229 7.01361C353.879 6.78444 353.368 6.53857 352.93 6.38808C352.731 6.31985 352.533 6.26253 352.489 6.26079C352.415 6.25789 352.41 6.59055 352.41 12.6372V19.0167L353.009 19.0235C358.047 19.0799 362.397 23.5885 361.497 27.8205C361.175 29.3361 360.159 30.8694 359.058 31.5018C358.993 31.5392 359.005 31.5667 359.15 31.7131L359.316 31.8816L359.574 31.7041C363.541 28.975 363.498 22.8956 359.489 19.6678C358.146 18.5859 356.076 17.6032 354.68 17.3845L354.488 17.3544V12.2691V7.18383L354.229 7.01361Z" fill="white"/>
<path d="M360.052 24.8401C358.937 22.496 356.831 20.9428 354.091 20.444C353.613 20.357 352.504 20.3351 352.429 20.4112C352.411 20.4285 352.434 20.7081 352.478 21.0328L352.559 21.6229L352.722 21.6236C355.384 21.6352 358.284 23.4303 359.235 25.6559C359.978 27.3941 359.541 29.4972 358.2 30.638L357.989 30.817L358.145 30.9791C358.363 31.2057 358.369 31.2029 358.955 30.6087C360.472 29.0701 360.927 26.6806 360.052 24.8401Z" fill="white"/>
<path d="M358.335 26.7013C357.75 24.8314 356.086 23.5247 353.743 23.0943C353.569 23.0623 353.339 23.0344 353.233 23.0322L353.039 23.0281L353.07 23.198C353.189 23.8483 353.333 24.1591 353.517 24.1606C353.95 24.1642 355.263 24.6266 355.824 24.9732C357.569 26.0505 358.191 28.0727 357.239 29.5774L357.103 29.7938L357.252 29.9571C357.335 30.0469 357.409 30.1309 357.418 30.1436C357.487 30.2451 358.194 29.2088 358.335 28.7991C358.491 28.3433 358.492 27.2016 358.335 26.7013Z" fill="white"/>
<path fill-rule="evenodd" clip-rule="evenodd" d="M305.434 14.9961C305.198 15.0038 304.997 15.0115 304.831 15.0192L304.802 16.7575L306.628 16.7285L306.651 16.2534C306.674 15.844 306.686 15.616 306.686 15.5697C306.686 15.3997 306.631 15.2607 306.523 15.1525C306.415 15.0443 306.276 14.9903 306.106 14.9903C305.897 14.9903 305.673 14.9922 305.434 14.9961Z" fill="white"/>
<path fill-rule="evenodd" clip-rule="evenodd" d="M322.736 7.50984C322.976 7.50211 323.178 7.49438 323.345 7.48666L323.374 5.74837L321.548 5.77734L321.525 6.25248C321.502 6.66194 321.49 6.88985 321.49 6.9362C321.49 7.10617 321.544 7.24523 321.653 7.35339C321.761 7.46155 321.9 7.51563 322.07 7.51563C322.278 7.51563 322.501 7.5137 322.736 7.50984Z" fill="white"/>
<path d="M299.785 21.3929V23.7686C299.785 24.8386 299.814 25.5919 299.872 26.0284C299.524 26.2447 299.111 26.4205 298.632 26.5557C298.157 26.687 297.701 26.7527 297.264 26.7527C296.588 26.7527 296.121 26.546 295.862 26.1327C295.696 26.3374 295.457 26.4919 295.144 26.5962C294.835 26.7005 294.508 26.7527 294.164 26.7527C293.867 26.7527 293.62 26.7005 293.423 26.5962C293.438 27.2838 293.463 27.7995 293.498 28.1433C292.923 28.4176 292.274 28.6397 291.551 28.8096C290.829 28.9835 290.184 29.0704 289.616 29.0704C289.002 29.0704 288.465 28.9641 288.005 28.7517C287.549 28.5392 287.196 28.236 286.945 27.842C286.698 27.448 286.574 26.9883 286.574 26.4629C286.574 26.1307 286.643 25.4122 286.783 24.3075C286.856 23.7744 286.893 23.4499 286.893 23.334V22.6387L288.515 22.4649C288.612 22.7546 288.66 23.0443 288.66 23.334C288.66 23.4036 288.648 23.5368 288.625 23.7338C288.602 23.927 288.577 24.1356 288.55 24.3596C288.492 24.827 288.447 25.2133 288.417 25.5185C288.386 25.8198 288.37 26.067 288.37 26.2601C288.37 26.4571 288.42 26.631 288.521 26.7816C288.625 26.9361 288.774 27.0559 288.967 27.1409C289.164 27.2297 289.4 27.2741 289.674 27.2741C290.427 27.2741 291.122 27.1583 291.76 26.9265C291.702 26.8415 291.654 26.7082 291.615 26.5267C291.576 26.3413 291.557 26.1752 291.557 26.0284V21.9144L293.208 21.7696L293.411 21.9724V24.2032C293.411 24.4813 293.471 24.6764 293.591 24.7884C293.711 24.9004 293.921 24.9564 294.222 24.9564C294.539 24.9564 294.81 24.9081 295.034 24.8116L295.063 22.6677L296.685 22.5228L296.888 22.7256V24.4639C296.888 24.6223 296.934 24.744 297.027 24.829C297.12 24.9139 297.247 24.9564 297.409 24.9564C297.537 24.9564 297.67 24.9448 297.809 24.9217C297.948 24.8985 298.056 24.8714 298.134 24.8405C298.079 24.744 298.031 24.5953 297.989 24.3944C297.95 24.1897 297.931 24.01 297.931 23.8555V21.335L299.582 21.1901L299.785 21.3929Z" fill="white"/>
<path d="M303.175 21.9724V26.2601C303.175 26.8087 303.054 27.3012 302.81 27.7377C302.567 28.1742 302.235 28.5141 301.814 28.7575C301.397 29.0047 300.933 29.1283 300.423 29.1283C300.188 29.1283 299.929 29.109 299.647 29.0704C299.365 29.0317 299.156 28.9873 299.021 28.9371L298.859 28.6937L299.09 27.2162C299.322 27.2703 299.569 27.3128 299.832 27.3437C300.091 27.3746 300.307 27.39 300.481 27.39C300.609 27.39 300.738 27.3379 300.869 27.2336C301.001 27.1332 301.109 26.996 301.194 26.8222C301.279 26.6522 301.321 26.4649 301.321 26.2601V21.9144L302.973 21.7696L303.175 21.9724Z" fill="white"/>
<path d="M306.422 18.5537L306.364 25.7966L306.451 26.5499L304.829 26.8106C304.736 26.5788 304.668 26.3644 304.626 26.1674C304.587 25.9666 304.568 25.7271 304.568 25.4489V18.4958L306.219 18.3509L306.422 18.5537Z" fill="white"/>
<path fill-rule="evenodd" clip-rule="evenodd" d="M314.148 26.7527C314.148 26.7527 314.148 26.7527 314.148 26.7527C314.146 26.7527 314.15 26.7527 314.148 26.7527Z" fill="white"/>
<path fill-rule="evenodd" clip-rule="evenodd" d="M342.033 26.7527C342.033 26.7527 342.033 26.7527 342.033 26.7527C343.157 26.7527 343.905 26.4765 344.276 25.9241C343.905 26.4758 343.155 26.752 342.033 26.7527Z" fill="white"/>
<path fill-rule="evenodd" clip-rule="evenodd" d="M314.148 26.7527C313.553 26.7527 313.105 26.6831 312.792 26.5441C312.483 26.4011 312.27 26.1906 312.154 25.9125C311.923 26.1636 311.617 26.3664 311.239 26.5209C310.864 26.6754 310.503 26.7527 310.155 26.7527C309.769 26.7527 309.421 26.6812 309.112 26.5383C308.803 26.3953 308.562 26.2041 308.388 25.9646C308.214 25.7251 308.127 25.4663 308.127 25.1882C308.127 25.08 308.143 24.883 308.174 24.5972L308.197 24.2959C308.208 24.1954 308.214 24.1163 308.214 24.0583V23.7107L309.75 23.5368C309.781 23.6141 309.808 23.6971 309.831 23.786C309.854 23.8748 309.866 23.9463 309.866 24.0004C309.866 24.1124 309.86 24.2302 309.848 24.3538L309.837 24.6377C309.837 24.7382 309.873 24.8174 309.947 24.8753C310.024 24.9294 310.122 24.9564 310.242 24.9564C310.447 24.9564 310.646 24.9217 310.839 24.8521C311.032 24.7787 311.189 24.688 311.308 24.5798C311.428 24.4716 311.488 24.3654 311.488 24.2611C311.488 24.0796 311.438 23.5716 311.337 22.7372C311.241 21.899 311.156 21.2095 311.082 20.6687L312.734 20.321L312.937 20.5238L313.284 24.2321C313.307 24.491 313.381 24.6764 313.504 24.7884C313.632 24.9004 313.848 24.9564 314.153 24.9564H315.887H317.629H319.372H321.115H322.858H324.601H326.344H328.086H329.829H331.572H333.315H335.058H336.8H338.543H340.286H342.029C342.334 24.9564 342.59 24.9275 342.787 24.8695C342.841 24.7227 342.914 24.3867 343.007 23.8613C343.072 23.4827 343.13 23.1718 343.181 22.9284C343.231 22.6812 343.293 22.4591 343.366 22.2621C343.474 21.9569 343.667 21.7039 343.945 21.503C344.227 21.3022 344.621 21.1399 345.128 21.0163C345.637 20.8927 346.296 20.7961 347.103 20.7266L348.146 21.6537V24.1742C348.146 24.4678 348.156 24.7768 348.175 25.1013C348.195 25.4258 348.224 25.6865 348.262 25.8835L346.959 26.8106C346.41 26.7295 345.902 26.6117 345.435 26.4571C344.967 26.3026 344.581 26.1249 344.276 25.9241C343.905 26.4765 343.157 26.7527 342.033 26.7527L340.286 26.7527H338.543H336.8H335.058H333.315H331.572H329.829H328.086H326.344H324.601H322.858H321.115H319.372H317.629H315.887L314.148 26.7527ZM346.333 24.8753C345.722 24.7092 345.197 24.5025 344.757 24.2553C344.791 24.0699 344.828 23.8826 344.867 23.6933C344.909 23.504 344.95 23.3456 344.988 23.2181C345.027 23.0791 345.083 22.9729 345.157 22.8995C345.234 22.8222 345.363 22.7585 345.545 22.7082C345.726 22.658 346.001 22.6136 346.368 22.575C346.317 23.0115 346.292 23.5639 346.292 24.2321C346.292 24.4832 346.306 24.6976 346.333 24.8753Z" fill="white"/>
<path d="M320.162 14.0052C319.092 14.0052 318.337 13.7174 317.896 13.1419C317.618 13.1921 317.324 13.2327 317.015 13.2636C316.71 13.2945 316.459 13.3099 316.262 13.3099C315.93 13.3099 315.6 13.2095 315.271 13.0086C314.947 12.8077 314.68 12.5509 314.472 12.238C314.267 11.9212 314.165 11.6006 314.165 11.2761C314.165 11.0598 314.184 10.8184 314.223 10.5518C314.265 10.2814 314.331 9.91446 314.42 9.45092C314.52 8.94102 314.586 8.5586 314.617 8.30365L317.438 7.66049V7.02312L319.09 6.87826L319.293 7.08106V11.4847C319.293 11.6817 319.318 11.8324 319.368 11.9367C319.422 12.0371 319.511 12.1086 319.634 12.1511C319.757 12.1893 319.931 12.2087 320.156 12.209C320.71 12.2088 321.167 12.1991 321.525 12.18C321.892 12.1569 322.17 12.1182 322.36 12.0641C322.302 11.9637 322.253 11.8208 322.215 11.6354C322.176 11.4461 322.157 11.2703 322.157 11.1081V8.58757L323.762 8.44272L324.011 8.64552V11.0212C324.011 12.0912 324.04 12.9024 324.098 13.4548C323.619 13.6286 323.036 13.7638 322.348 13.8604C321.664 13.9569 320.938 14.0052 320.162 14.0052ZM316.019 10.9922C316.019 11.1351 316.073 11.2587 316.181 11.363C316.293 11.4635 316.423 11.5137 316.569 11.5137C316.759 11.5137 317.048 11.4866 317.438 11.4326V9.42774L316.198 9.69428L316.123 10.1868C316.054 10.6272 316.019 10.8956 316.019 10.9922Z" fill="white"/>
<path d="M328.216 14.0052C327.571 14.0052 327.059 13.9318 326.681 13.785C326.302 13.6344 326.026 13.3949 325.852 13.0666C325.678 12.7343 325.588 12.2843 325.58 11.7165L325.493 5.74837L327.144 5.60352L327.347 5.80632V11.5716C327.347 11.7493 327.372 11.8826 327.422 11.9714C327.477 12.0603 327.563 12.1221 327.683 12.1569C327.807 12.1916 327.985 12.209 328.216 12.209C328.521 12.209 328.772 12.18 328.969 12.1221C329.023 11.9753 329.096 11.6392 329.189 11.1139C329.254 10.7353 329.312 10.4244 329.363 10.181C329.413 9.93378 329.475 9.71166 329.548 9.51466C329.656 9.20949 329.849 8.95648 330.127 8.75561C330.409 8.55474 330.803 8.3925 331.31 8.26889C331.819 8.14528 332.478 8.0487 333.285 7.97917L334.328 8.90626V11.4268C334.328 11.7204 334.338 12.0294 334.357 12.3539C334.377 12.6783 334.406 12.9391 334.444 13.1361L333.141 14.0632C332.592 13.9821 332.084 13.8642 331.617 13.7097C331.149 13.5552 330.763 13.3775 330.458 13.1766C330.087 13.729 329.34 14.0052 328.216 14.0052ZM330.939 11.5079C331.379 11.7551 331.904 11.9618 332.515 12.1279C332.488 11.9502 332.474 11.7358 332.474 11.4847C332.474 10.8164 332.499 10.2641 332.549 9.82755C332.183 9.86618 331.908 9.9106 331.727 9.96082C331.545 10.011 331.416 10.0748 331.338 10.152C331.265 10.2254 331.209 10.3317 331.17 10.4707C331.132 10.5982 331.091 10.7566 331.049 10.9458C331.01 11.1351 330.973 11.3225 330.939 11.5079Z" fill="white"/>
<path d="M338.56 14.0052C337.915 14.0052 337.403 13.9318 337.024 13.785C336.646 13.6344 336.37 13.3949 336.196 13.0666C336.022 12.7343 335.931 12.2843 335.924 11.7165L335.837 5.74837L337.488 5.60352L337.691 5.80632V11.5716C337.691 11.7493 337.716 11.8826 337.766 11.9714C337.82 12.0603 337.907 12.1221 338.027 12.1569C338.151 12.1916 338.328 12.209 338.56 12.209C339.027 12.209 339.357 12.1858 339.55 12.1395C339.743 12.0931 339.871 12.0062 339.932 11.8787C339.998 11.7474 340.042 11.5195 340.066 11.195L340.21 9.25392L341.833 9.10906L342.007 9.31186L341.897 11.4499C341.885 11.6354 341.866 11.7976 341.839 11.9367C341.931 12.1182 342.161 12.209 342.528 12.209C342.903 12.209 343.202 12.1607 343.426 12.0641L343.455 9.92026L345.078 9.7754L345.28 9.9782V11.7165C345.28 11.8749 345.327 11.9965 345.42 12.0815C345.512 12.1665 345.64 12.209 345.802 12.209C345.929 12.209 346.063 12.1974 346.202 12.1742C346.341 12.1511 346.449 12.124 346.526 12.0931C346.472 11.9965 346.424 11.8478 346.381 11.647C346.343 11.4422 346.323 11.2626 346.323 11.1081V8.58757L347.975 8.44272L348.178 8.64552V11.0212C348.178 12.0912 348.207 12.8444 348.265 13.2809C347.917 13.4973 347.504 13.673 347.025 13.8082C346.549 13.9396 346.094 14.0052 345.657 14.0052C344.981 14.0052 344.514 13.7986 344.255 13.3852C344.085 13.5938 343.84 13.7503 343.519 13.8546C343.198 13.955 342.849 14.0052 342.47 14.0052C341.744 14.0052 341.211 13.8198 340.871 13.449C340.326 13.8198 339.557 14.0052 338.56 14.0052Z" fill="white"/>
<path fill-rule="evenodd" clip-rule="evenodd" d="M294.934 13.1766C294.563 13.729 293.82 14.0052 292.695 14.0052C292.047 14.0052 291.533 13.9917 291.154 13.9647C290.776 13.9376 290.478 13.8951 290.262 13.8372C290.046 13.7793 289.864 13.6943 289.717 13.5822C289.323 13.6672 288.974 13.7522 288.668 13.8372C288.367 13.9222 288.155 13.9975 288.031 14.0632C287.962 14.2409 287.909 14.4224 287.875 14.6078C287.844 14.7971 287.828 14.9632 287.828 15.1061C287.828 15.2877 287.884 15.448 287.996 15.5871C288.112 15.73 288.273 15.8401 288.477 15.9173C288.686 15.9946 288.923 16.0332 289.19 16.0332C290.078 16.0332 290.909 15.9946 291.681 15.9173L291.913 16.1781L291.826 17.6846C291.463 17.7232 290.998 17.7561 290.43 17.7831C289.866 17.814 289.424 17.8295 289.103 17.8295C288.462 17.8295 287.906 17.7213 287.434 17.505C286.963 17.2925 286.602 16.9854 286.351 16.5837C286.1 16.1819 285.974 15.7087 285.974 15.1641C285.974 14.8512 286.013 14.5344 286.09 14.2138C286.167 13.8932 286.272 13.6074 286.403 13.3563C286.534 13.1013 286.681 12.912 286.843 12.7884C286.94 12.7189 287.05 12.6552 287.174 12.5972C286.922 12.3075 286.745 11.9367 286.64 11.4847L286.235 9.68849L287.307 8.23992H290.436C290.652 8.23992 290.868 8.32683 291.085 8.50066C291.301 8.67062 291.479 8.88888 291.618 9.15541C291.757 9.42195 291.826 9.68656 291.826 9.94923C291.826 10.2042 291.778 10.5441 291.681 10.969C291.589 11.3939 291.463 11.8073 291.305 12.209H292.695C293.001 12.209 293.248 12.18 293.445 12.1221C293.499 11.9753 293.572 11.6392 293.665 11.1139C293.731 10.7353 293.788 10.4244 293.839 10.181C293.889 9.93378 293.951 9.71166 294.024 9.51466C294.132 9.20949 294.325 8.95648 294.604 8.75561C294.886 8.55474 295.28 8.3925 295.786 8.26889C296.295 8.14528 296.954 8.0487 297.761 7.97917L298.804 8.90626V11.4268C298.804 11.7204 298.814 12.0294 298.833 12.3539C298.853 12.6783 298.882 12.9391 298.92 13.1361L297.617 14.0632C297.068 13.9821 296.56 13.8642 296.093 13.7097C295.625 13.5552 295.239 13.3775 294.934 13.1766ZM295.415 11.5079C295.855 11.7551 296.38 11.9618 296.991 12.1279C296.964 11.9502 296.95 11.7358 296.95 11.4847C296.95 10.8164 296.975 10.2641 297.026 9.82755C296.659 9.86618 296.384 9.9106 296.203 9.96082C296.021 10.011 295.892 10.0748 295.815 10.152C295.741 10.2254 295.685 10.3317 295.647 10.4707C295.608 10.5982 295.567 10.7566 295.525 10.9458C295.486 11.1351 295.449 11.3225 295.415 11.5079ZM288.553 11.7223C288.491 11.5755 288.433 11.3708 288.379 11.1081L288.147 9.9782H290.048C290.02 10.2834 289.972 10.604 289.903 10.9401C289.833 11.2761 289.75 11.5929 289.653 11.8903L288.819 12.0989C288.707 11.9907 288.618 11.8652 288.553 11.7223Z" fill="white"/>
<path d="M303.036 14.0052C302.391 14.0052 301.879 13.9318 301.501 13.785C301.122 13.6344 300.846 13.3949 300.672 13.0666C300.498 12.7343 300.407 12.2843 300.4 11.7165L300.313 5.74837L301.964 5.60352L302.167 5.80632V11.5716C302.167 11.7493 302.192 11.8826 302.242 11.9714C302.296 12.0603 302.383 12.1221 302.503 12.1569C302.627 12.1916 302.804 12.209 303.036 12.209H304.484C305.075 12.209 305.556 12.18 305.926 12.1221C306.301 12.0641 306.641 11.9637 306.946 11.8208C307.251 11.674 307.595 11.4596 307.978 11.1776C307.846 10.83 307.73 10.575 307.63 10.4128C307.533 10.2505 307.427 10.1385 307.311 10.0767C307.195 10.0149 307.035 9.97241 306.83 9.94923L305.869 9.84493C305.849 10.2312 305.813 10.5943 305.758 10.9343L305.527 11.1081L303.875 10.9343C303.918 10.7488 303.956 10.4475 303.991 10.0303C304.03 9.6093 304.049 9.25392 304.049 8.9642L305.15 7.97917L307.12 8.18197C307.599 8.22833 307.968 8.30365 308.227 8.40795C308.486 8.50838 308.708 8.68414 308.893 8.93523C309.082 9.18632 309.274 9.57067 309.467 10.0883C309.672 9.96854 309.859 9.89129 310.029 9.85652C310.199 9.82176 310.427 9.80437 310.713 9.80437L310.863 9.98979L310.713 11.5427C310.489 11.5658 310.315 11.5967 310.191 11.6354C310.071 11.6701 309.926 11.7455 309.756 11.8613C309.59 11.9734 309.32 12.1762 308.945 12.4697C308.424 12.8831 307.958 13.1979 307.549 13.4142C307.139 13.6267 306.699 13.7793 306.228 13.872C305.76 13.9608 305.179 14.0052 304.484 14.0052H303.036Z" fill="white"/>
<path d="M254.113 19.1766C254.07 19.2286 253.673 19.7975 253.045 20.71C252.929 20.8783 252.438 21.5853 251.955 22.2811C251.471 22.9767 251.076 23.5655 251.076 23.5895C251.076 23.6133 251.234 23.8615 251.427 24.1409C251.62 24.4202 251.897 24.8233 252.044 25.0366C252.191 25.2499 252.484 25.6723 252.696 25.9754C252.907 26.2785 253.169 26.655 253.278 26.8121C256.19 31.0262 256.048 30.8495 256.722 31.1018L256.984 31.2001H259.773C262.484 31.2001 262.562 31.1979 262.522 31.1239C262.499 31.082 262.319 30.8163 262.12 30.5335C261.922 30.2507 261.659 29.8709 261.535 29.6895C261.41 29.508 261.226 29.2416 261.124 29.0975C261.023 28.9533 260.86 28.7199 260.762 28.5789C260.665 28.4378 259.585 26.8805 258.362 25.1182C257.139 23.3559 255.993 21.7028 255.815 21.4447C255.637 21.1865 255.414 20.865 255.319 20.7304C254.977 20.2414 254.634 19.744 254.426 19.4352C254.198 19.0964 254.187 19.0878 254.113 19.1766Z" fill="white"/>
<path d="M254.755 18.241L254.516 18.5884L256.272 21.1202C257.238 22.5126 258.133 23.8027 258.261 23.9871C258.389 24.1715 258.574 24.4377 258.671 24.5787C258.768 24.7198 258.931 24.953 259.033 25.0971C259.134 25.241 259.522 25.8009 259.894 26.3411C260.266 26.8813 260.758 27.5899 260.986 27.9156C261.215 28.2414 261.543 28.7142 261.716 28.9662C261.889 29.2183 262.222 29.7001 262.457 30.0367C263.319 31.2773 263.626 31.727 263.626 31.7502C263.626 31.7631 262.099 31.7686 260.232 31.7621L256.838 31.7505L256.572 31.6519C255.767 31.3537 255.659 31.2409 254.316 29.2962C254.057 28.9205 253.684 28.3824 253.488 28.1004C253.291 27.8184 253.011 27.4132 252.864 27.2C252.539 26.7266 251.628 25.4136 251.114 24.6795C250.865 24.3232 250.774 24.1717 250.692 24.1769C250.627 24.1811 250.569 24.2838 250.443 24.4612C250.328 24.6232 250.256 24.7023 250.246 24.789C250.23 24.9171 250.349 25.0615 250.663 25.5136C250.91 25.8687 251.21 26.3023 251.33 26.4773C251.449 26.6522 251.631 26.9134 251.732 27.0576C251.834 27.2018 251.996 27.4351 252.093 27.5762C252.191 27.7173 252.44 28.0756 252.647 28.3727C253.024 28.9122 254.178 30.5775 254.514 31.0652C255.014 31.7907 255.698 32.2867 256.516 32.5161C256.891 32.6211 265.226 32.6884 265.226 32.5863C265.226 32.5612 264.853 32.0048 264.398 31.35C263.501 30.0594 263.129 29.523 262.781 29.0163C262.378 28.4302 261.895 27.7358 261.291 26.8734C261.174 26.705 260.958 26.3928 260.812 26.1795C260.666 25.9662 260.358 25.5215 260.128 25.1912C259.454 24.2248 259.422 24.1783 258.504 22.8534C258.022 22.1571 257.302 21.1191 256.905 20.5467C255.965 19.1933 255.736 18.8621 255.374 18.3329C255.185 18.0554 255.105 17.9256 255.028 17.9278C254.959 17.9297 254.894 18.0379 254.755 18.241Z" fill="white"/>
<path fill-rule="evenodd" clip-rule="evenodd" d="M236.159 4.60735C235.537 3.70936 234.891 2.77671 234.724 2.53481L234.419 2.09485L238.697 2.10618L242.976 2.11752L243.312 2.23088C244.206 2.53224 244.659 2.89905 245.334 3.86806C245.548 4.17573 245.89 4.66489 246.093 4.95513C246.296 5.24537 246.566 5.63485 246.694 5.82061C247.053 6.34206 247.519 7.01088 248.079 7.81155C248.197 7.97988 248.412 8.29215 248.558 8.5055C248.704 8.71875 248.97 9.10417 249.15 9.3619C249.33 9.61974 249.476 9.85116 249.476 9.87618C249.476 9.90131 249.12 10.4343 248.685 11.0607C248.25 11.6869 247.767 12.3831 247.611 12.6076C247.456 12.8322 247.061 13.4015 246.734 13.8729C245.919 15.0488 245.838 15.165 245.532 15.6078C245.384 15.821 245.166 16.1333 245.048 16.3016C244.929 16.47 244.802 16.6581 244.765 16.7197C244.728 16.7813 244.68 16.8317 244.657 16.8317C244.635 16.8317 244.586 16.7813 244.549 16.7197C244.511 16.6581 244.339 16.4058 244.166 16.1587C243.993 15.9118 243.732 15.5352 243.586 15.322C243.44 15.1088 243.223 14.7965 243.105 14.6281C242.986 14.4597 242.727 14.0865 242.529 13.7986C242.331 13.5108 242.052 13.1067 241.908 12.9006C241.261 11.9698 240.892 11.4372 240.248 10.5055C239.867 9.95553 239.393 9.27132 239.195 8.98514C238.996 8.69907 238.645 8.19387 238.415 7.86267C238.186 7.53147 237.838 7.03088 237.643 6.75026C237.448 6.46964 236.78 5.50534 236.159 4.60735Z" fill="white"/>
<path fill-rule="evenodd" clip-rule="evenodd" d="M256.739 2.14148C256.234 2.23997 255.619 2.52807 255.239 2.84355C254.868 3.15176 254.767 3.2772 253.988 4.4033C253.895 4.53795 253.649 4.89171 253.442 5.18933C253.235 5.48695 252.899 5.96979 252.696 6.26228C252.493 6.55477 252.139 7.06435 251.909 7.39469C251.22 8.38658 251.183 8.44091 250.331 9.66871C249.88 10.3198 249.428 10.9719 249.328 11.1178C249.125 11.4121 248.574 12.2078 247.918 13.1523C247.681 13.4933 247.242 14.1256 246.943 14.5574C246.644 14.9892 246.297 15.4894 246.172 15.6689C245.645 16.4243 243.453 19.5853 243.142 20.0364C242.956 20.3058 242.708 20.664 242.59 20.8324C242.472 21.0007 242.169 21.4378 241.917 21.8036C241.664 22.1693 241.292 22.7064 241.089 22.997C240.886 23.2877 240.557 23.76 240.359 24.0464C238.697 26.4457 236.994 28.9022 236.298 29.9032C236.11 30.1729 235.84 30.5619 235.637 30.8549L235.511 31.0359C235.308 31.3284 234.99 31.7834 234.805 32.0471C234.62 32.3109 234.467 32.5497 234.467 32.5777C234.465 32.6459 242.287 32.6522 242.777 32.5844C243.906 32.4282 244.549 31.9669 245.455 30.6637C246.681 28.9005 246.891 28.5985 247.733 27.3836C248.215 26.6877 248.801 25.8428 249.036 25.506C249.271 25.1692 249.627 24.655 249.827 24.3631C250.028 24.0713 250.454 23.4559 250.774 22.9958C251.095 22.5355 251.474 21.9883 251.616 21.7797C251.759 21.5711 251.922 21.3382 251.978 21.2619C252.035 21.1858 252.243 20.888 252.441 20.6004C252.831 20.035 255.153 16.6852 255.731 15.8527C255.926 15.572 256.309 15.021 256.581 14.6281C256.853 14.2353 257.209 13.721 257.373 13.4852C257.536 13.2495 257.778 12.8992 257.91 12.7068C258.043 12.5144 258.304 12.1379 258.492 11.8701C258.861 11.3418 260.757 8.60988 261.276 7.85733C261.452 7.60184 261.716 7.22081 261.863 7.01056C262.009 6.8002 262.292 6.39393 262.49 6.10754L262.753 5.73011C262.969 5.41837 263.245 5.02106 263.475 4.68905C264.287 3.51996 264.569 3.11422 264.955 2.5563L265.273 2.09709L261.097 2.10159C258.8 2.10405 256.839 2.12201 256.739 2.14148ZM261.453 6.11759C262.743 4.27038 263.626 2.98354 263.626 2.95049C263.626 2.88291 257.215 2.91007 256.879 2.97905C256.183 3.12214 255.612 3.53418 255.123 4.24781C254.972 4.468 254.724 4.82658 254.572 5.04464C254.42 5.26269 254.19 5.59336 254.062 5.77944C253.933 5.96541 253.395 6.74213 252.865 7.50538C252.336 8.26873 251.807 9.03102 251.691 9.19935C251.38 9.6485 250.446 10.993 249.366 12.5464C249.015 13.0515 248.557 13.7127 248.348 14.0158C248.139 14.3189 247.497 15.2465 246.92 16.0771C246.344 16.9077 245.793 17.7028 245.696 17.8438C245.598 17.9849 245.435 18.2181 245.334 18.3621C245.232 18.506 244.882 19.011 244.555 19.4842C244.228 19.9573 243.733 20.6701 243.455 21.068C243.177 21.4661 242.812 21.9937 242.643 22.2406C242.474 22.4876 242.162 22.9376 241.951 23.2407C241.739 23.5437 241.446 23.9661 241.299 24.1794C241.153 24.3927 240.937 24.705 240.819 24.8733C240.702 25.0417 240.485 25.3539 240.337 25.5673C239.976 26.089 239.585 26.6519 238.424 28.3224C237.044 30.3072 236.065 31.7301 236.065 31.7495C236.065 31.7629 237.592 31.7687 239.459 31.7624L242.853 31.7508L243.108 31.6585C243.863 31.3854 244.086 31.1609 245.203 29.5469C246.177 28.1388 246.319 27.9345 246.687 27.404C246.82 27.2132 247.005 26.9468 247.098 26.8122C247.191 26.6775 247.622 26.0578 248.054 25.4351C249.51 23.3399 249.888 22.7938 250.849 21.4038C251.043 21.1232 251.376 20.6457 251.587 20.3426C251.799 20.0396 252.111 19.5895 252.28 19.3425C252.449 19.0956 252.703 18.7282 252.843 18.5262C252.984 18.3242 253.361 17.7823 253.681 17.322C254.001 16.8619 254.383 16.3108 254.531 16.0976C254.783 15.7326 257.885 11.2593 258.253 10.73C258.682 10.1117 258.975 9.6901 259.951 8.28092C260.526 7.4503 261.202 6.47681 261.453 6.11759Z" fill="white"/>
<path d="M183.115 28.9028L181.083 32.2813C181.003 32.4132 180.861 32.4938 180.707 32.4938H178.766L181.956 27.2145L178.837 22.0497H181.012L183.115 25.5263L185.09 22.2613C185.17 22.1299 185.312 22.0497 185.466 22.0497H187.407L184.26 27.2145L187.465 32.4938H185.29L183.115 28.9028Z" fill="white"/>
<path d="M164.573 22.0497H166.776L171.297 29.1603V22.0497H172.805C173.047 22.0497 173.243 22.2461 173.243 22.4884V32.4938H171.169L166.519 25.1543V32.4938H165.012C164.77 32.4938 164.573 32.2974 164.573 32.0552V22.0497Z" fill="white"/>
<path d="M175.23 22.0497H176.737C176.98 22.0497 177.176 22.2461 177.176 22.4884V32.4938H175.669C175.427 32.4938 175.23 32.2974 175.23 32.0552V22.0497Z" fill="white"/>
<path d="M157.597 22.3412C157.659 22.1664 157.825 22.0497 158.01 22.0497H159.661L163.381 32.4938H161.662C161.475 32.4938 161.308 32.3753 161.247 32.1987L160.705 30.6339H156.657L156.013 32.4938H153.981L157.597 22.3412ZM157.315 28.774H160.062L158.688 24.811L157.315 28.774Z" fill="white"/>
<path d="M149.246 32.6369C148.444 32.6369 147.71 32.4986 147.042 32.222C146.384 31.9359 145.821 31.5543 145.354 31.0774C144.887 30.591 144.524 30.0235 144.267 29.3749C144.009 28.7168 143.88 28.0157 143.88 27.2718C143.88 26.4896 144.019 25.7743 144.295 25.1257C144.572 24.4676 144.949 23.9001 145.426 23.4232C145.912 22.9463 146.479 22.5743 147.128 22.3072C147.786 22.0401 148.492 21.9066 149.246 21.9066C149.732 21.9066 150.199 21.9686 150.648 22.0926C151.105 22.2166 151.53 22.3931 151.921 22.622C152.322 22.8413 152.679 23.1132 152.994 23.4375C153.318 23.7522 153.595 24.1051 153.824 24.4962L152.513 25.3336C152.3 25.4693 152.019 25.3966 151.873 25.1914C151.615 24.8292 151.311 24.5307 150.962 24.2959C150.495 23.9811 149.923 23.8238 149.246 23.8238C148.75 23.8238 148.292 23.9144 147.872 24.0956C147.452 24.2673 147.09 24.5105 146.785 24.8253C146.479 25.1305 146.241 25.4929 146.069 25.9126C145.898 26.3323 145.812 26.7853 145.812 27.2718C145.812 27.7487 145.898 28.197 146.069 28.6166C146.241 29.0268 146.475 29.3892 146.77 29.704C147.076 30.0092 147.433 30.2524 147.843 30.4336C148.263 30.6053 148.716 30.6912 149.203 30.6912C149.927 30.6912 150.538 30.5099 151.034 30.1475C151.418 29.8651 151.735 29.525 151.987 29.1272C152.12 28.9177 152.389 28.8264 152.608 28.9415L153.981 29.661C153.752 30.0998 153.471 30.5052 153.137 30.8771C152.813 31.2396 152.446 31.5543 152.035 31.8214C151.635 32.0789 151.196 32.2792 150.719 32.4223C150.252 32.5654 149.761 32.6369 149.246 32.6369Z" fill="white"/>
<path d="M135.56 32.4938V22.4884C135.56 22.2461 135.756 22.0497 135.998 22.0497H138.907C139.527 22.0497 140.076 22.1403 140.553 22.3215C141.039 22.4932 141.449 22.7412 141.783 23.0655C142.117 23.3802 142.37 23.7618 142.541 24.2101C142.723 24.6488 142.813 25.14 142.813 25.6837C142.813 26.3132 142.661 26.9045 142.355 27.4578C142.06 28.0014 141.626 28.4259 141.053 28.7311L143.142 32.4938H140.925L139.251 29.3034H137.505V32.0552C137.505 32.2974 137.309 32.4938 137.067 32.4938H135.56ZM138.736 27.515C139.136 27.515 139.47 27.4673 139.737 27.3719C140.014 27.267 140.233 27.1287 140.395 26.957C140.567 26.7758 140.686 26.5707 140.753 26.3418C140.829 26.1129 140.867 25.8697 140.867 25.6121C140.867 25.078 140.696 24.6536 140.352 24.3388C140.019 24.0241 139.48 23.8667 138.736 23.8667H137.505V27.515H138.736Z" fill="white"/>
<path d="M128.47 22.3412C128.532 22.1664 128.698 22.0497 128.883 22.0497H130.534L134.254 32.4938H132.535C132.348 32.4938 132.181 32.3753 132.12 32.1987L131.578 30.6339H127.529L126.886 32.4938H124.854L128.47 22.3412ZM128.188 28.774H130.935L129.561 24.811L128.188 28.774Z" fill="white"/>
<path d="M187.855 22.1139V22.0371H188.392V22.1139H188.167V22.7524H188.08V22.1139H187.855Z" fill="white"/>
<path d="M188.526 22.0371H188.629L188.872 22.6309H188.88L189.124 22.0371H189.227V22.7524H189.146V22.2089H189.139L188.915 22.7524H188.837L188.614 22.2089H188.607V22.7524H188.526V22.0371Z" fill="white"/>
<path d="M194.186 23.9094H191.396V22.0495H198.936V23.4708C198.936 23.713 198.739 23.9094 198.497 23.9094H196.132V32.4937H194.624C194.382 32.4937 194.186 32.2973 194.186 32.055V23.9094Z" fill="white"/>
<path d="M218.107 22.0495H220.039L223.201 26.4418L226.491 22.0495H227.898C228.14 22.0495 228.337 22.2459 228.337 22.4882V32.4937H226.391V25.1685L223.186 29.4892L220.053 25.24V32.4937H218.546C218.304 32.4937 218.107 32.2973 218.107 32.055V22.0495Z" fill="white"/>
<path d="M200.128 22.0495H205.884C206.127 22.0495 206.323 22.2459 206.323 22.4882V23.9094H202.074V26.313H206.323V28.1729H202.074V30.6338H206.323V32.4937H200.567C200.324 32.4937 200.128 32.2973 200.128 32.055V22.0495Z" fill="white"/>
<path d="M211.131 22.341C211.194 22.1662 211.359 22.0495 211.544 22.0495H213.195L216.915 32.4937H215.196C215.009 32.4937 214.842 32.3752 214.781 32.1985L214.24 30.6338H210.191L209.547 32.4937H207.515L211.131 22.341ZM210.849 28.7738H213.596L212.222 24.8108L210.849 28.7738Z" fill="white"/>
<path fill-rule="evenodd" clip-rule="evenodd" d="M145.172 13.4788H145.24C145.217 13.4749 145.194 13.4749 145.172 13.4788Z" fill="white"/>
<path fill-rule="evenodd" clip-rule="evenodd" d="M163.412 19.8714H161.416V17.8573H163.412V19.8714ZM166.337 19.8714H164.323V17.8573H166.337V19.8714Z" fill="white"/>
<path fill-rule="evenodd" clip-rule="evenodd" d="M172.905 7.40154H170.891V5.38745H172.905V7.40154Z" fill="white"/>
<path d="M190.692 20.2217L190.096 18.4177L192.618 17.5946C193.062 17.4428 193.412 17.1801 193.669 16.8065C193.938 16.4328 194.072 16.0183 194.072 15.563V9.5032H195.999V15.3703C195.999 15.8257 195.929 16.2635 195.788 16.6839C195.648 17.1159 195.45 17.507 195.193 17.8573C194.948 18.2076 194.644 18.5111 194.282 18.768C193.932 19.0366 193.541 19.2467 193.109 19.3985L190.692 20.2217Z" fill="white"/>
<path d="M200.139 15.7556H198.212V5.12474H200.139V15.7556ZM195.83 4.6869V3.75866C195.83 3.22157 195.999 2.81292 196.338 2.53269C196.677 2.2408 197.056 2.09485 197.476 2.09485H201.102V3.75866H197.687C197.57 3.75866 197.476 3.79953 197.406 3.88126C197.348 3.95131 197.319 4.03305 197.319 4.12645V4.6869H195.83Z" fill="white"/>
<path fill-rule="evenodd" clip-rule="evenodd" d="M218.844 19.8714H216.848V17.8573H218.844V19.8714ZM221.769 19.8714H219.755V17.8573H221.769V19.8714Z" fill="white"/>
<path fill-rule="evenodd" clip-rule="evenodd" d="M225.412 7.40154H223.398V5.38745H225.412V7.40154ZM228.337 7.40154H226.323V5.38745H228.337V7.40154Z" fill="white"/>
<path d="M189.238 13.4788H178.42H177.597C177.364 13.4788 177.165 13.3971 177.002 13.2336C176.838 13.0702 176.757 12.8717 176.757 12.6382V3.75866H174.83V12.6907C174.83 13.1111 174.912 13.508 175.075 13.8817C175.239 14.2553 175.46 14.5822 175.741 14.8624C176.021 15.1427 176.348 15.3645 176.721 15.528C177.095 15.6797 177.492 15.7556 177.912 15.7556H178.42H188.905C189.29 15.7556 189.658 15.6856 190.008 15.5455C190.37 15.3937 190.686 15.1894 190.954 14.9325C191.234 14.6756 191.45 14.372 191.602 14.0218C191.766 13.6715 191.847 13.2862 191.847 12.8659V11.5698C191.847 11.1729 191.771 10.7992 191.62 10.4489C191.468 10.0987 191.258 9.7951 190.989 9.53823C190.732 9.28136 190.429 9.07703 190.078 8.92524C189.74 8.77346 189.372 8.69756 188.975 8.69756H182.302L185.665 4.73944L184.281 3.44341L179.132 9.46817L180.516 10.7992H189.15C189.36 10.7992 189.541 10.8751 189.693 11.0269C189.845 11.167 189.921 11.3422 189.921 11.5523V12.7958C189.921 13.006 189.851 13.1753 189.711 13.3037C189.57 13.4205 189.413 13.4788 189.238 13.4788Z" fill="white"/>
<path d="M145.24 13.4788H156.057C156.232 13.4788 156.39 13.4146 156.53 13.2862C156.67 13.1578 156.74 12.9943 156.74 12.7958V11.5523C156.74 11.3422 156.664 11.167 156.513 11.0269C156.361 10.8751 156.18 10.7992 155.97 10.7992H147.335L145.952 9.46817L151.101 3.44341L152.484 4.73944L149.122 8.69756H155.795C156.191 8.69756 156.559 8.77346 156.898 8.92524C157.248 9.07703 157.552 9.28136 157.809 9.53823C158.077 9.7951 158.287 10.0987 158.439 10.4489C158.591 10.7992 158.667 11.1729 158.667 11.5698V12.6382C158.667 12.8717 158.749 13.0702 158.912 13.2336C159.075 13.3971 159.274 13.4788 159.507 13.4788H160.593H162.099C162.332 13.4788 162.537 13.4088 162.712 13.2687C162.887 13.1286 163.044 12.9238 163.044 12.7082V9.55574H165.059V12.5331C165.059 12.8095 165.053 13.0001 165.216 13.1986C165.38 13.3854 165.59 13.4788 165.847 13.4788H167.16H170.138C170.371 13.4788 170.57 13.3971 170.733 13.2336C170.896 13.0585 170.978 12.8542 170.978 12.6207V8.9953H172.905V12.6207C172.905 13.0527 172.823 13.4613 172.66 13.8466C172.496 14.2203 172.268 14.553 171.976 14.8449C171.696 15.1251 171.363 15.347 170.978 15.5104C170.605 15.6739 170.202 15.7556 169.77 15.7556H167.16H165.829C165.455 15.7556 165.082 15.6564 164.708 15.4579C164.335 15.2477 164.084 15.0025 163.955 14.7223C163.873 14.8624 163.757 14.9967 163.605 15.1251C163.453 15.2419 163.284 15.3528 163.097 15.4579C162.922 15.5513 162.729 15.6272 162.519 15.6856C162.321 15.7323 162.122 15.7556 161.924 15.7556H160.593H159.84C159.432 15.7556 159.052 15.6856 158.702 15.5455C158.352 15.3937 158.042 15.1894 157.774 14.9325C157.505 15.1894 157.19 15.3937 156.828 15.5455C156.478 15.6856 156.11 15.7556 155.724 15.7556H145.24H144.82C144.411 15.7556 144.02 15.6739 143.646 15.5104C143.284 15.347 142.963 15.0843 142.683 14.7223C142.403 15.0843 142.058 15.3528 141.65 15.528C141.253 15.6914 140.844 15.7732 140.424 15.7732C140.05 15.7732 139.7 15.6914 139.373 15.528C139.046 15.3528 138.766 15.0843 138.532 14.7223C138.264 15.096 137.966 15.3645 137.639 15.528C137.312 15.6797 136.95 15.7556 136.553 15.7556C136.355 15.7556 136.139 15.7264 135.905 15.6681C135.683 15.598 135.491 15.4462 135.327 15.2127V15.6681C135.327 16.1118 135.234 16.5204 135.047 16.894C134.86 17.2793 134.603 17.6121 134.276 17.8923C133.95 18.1842 133.57 18.4119 133.138 18.5754C132.718 18.7388 132.28 18.8206 131.825 18.8206H128.777C128.24 18.8206 127.732 18.7155 127.253 18.5053C126.775 18.3068 126.354 18.0266 125.992 17.6646C125.642 17.3144 125.362 16.8999 125.152 16.4212C124.953 15.9425 124.854 15.4346 124.854 14.8975V9.78342H126.781V14.6172C126.781 14.8858 126.827 15.1368 126.921 15.3703C127.026 15.6039 127.166 15.8082 127.341 15.9833C127.516 16.1585 127.72 16.2927 127.954 16.3861C128.187 16.4912 128.439 16.5438 128.707 16.5438H131.842C132.286 16.5438 132.659 16.392 132.963 16.0884C133.266 15.7848 133.418 15.4112 133.418 14.9675V9.48569H135.345V12.6732C135.345 12.895 135.427 13.0877 135.59 13.2512C135.765 13.4029 135.964 13.4788 136.185 13.4788H136.693C136.927 13.4788 137.131 13.4088 137.306 13.2687C137.481 13.1286 137.639 12.9481 137.639 12.7082V9.48569L139.636 9.46817V12.5331C139.636 12.7919 139.63 13.0176 139.793 13.2161C139.968 13.4029 140.179 13.4964 140.424 13.4964H140.897C141.13 13.4964 141.329 13.4205 141.492 13.2687C141.656 13.1052 141.737 12.9067 141.737 12.6732L141.72 9.46817H143.646L143.664 12.6557C143.664 12.8892 143.746 13.0877 143.909 13.2512C144.073 13.4029 144.271 13.4788 144.505 13.4788H145.172H145.24Z" fill="white"/>
<path d="M208.893 15.4929C209.255 15.6681 209.652 15.7556 210.084 15.7556H212.116C212.407 15.7556 212.676 15.7031 212.921 15.598C213.166 15.4813 213.388 15.2886 213.587 15.0201C213.844 15.2886 214.124 15.4813 214.427 15.598C214.743 15.7031 215.07 15.7556 215.408 15.7556H216.021H217.355C217.554 15.7556 217.752 15.7323 217.951 15.6856C218.161 15.6272 218.354 15.5513 218.529 15.4579C218.716 15.3528 218.885 15.2419 219.037 15.1251C219.189 14.9967 219.305 14.8624 219.387 14.7223C219.516 15.0025 219.767 15.2477 220.14 15.4579C220.514 15.6564 220.887 15.7556 221.261 15.7556H222.592H225.202C225.634 15.7556 226.037 15.6739 226.41 15.5104C226.795 15.347 227.128 15.1251 227.408 14.8449C227.7 14.553 227.928 14.2203 228.091 13.8466C228.255 13.4613 228.337 13.0527 228.337 12.6207V8.9953H226.41V12.6207C226.41 12.8542 226.328 13.0585 226.165 13.2336C226.001 13.3971 225.803 13.4788 225.569 13.4788H222.592H221.279C221.022 13.4788 220.812 13.3854 220.648 13.1986C220.485 13.0001 220.432 12.7783 220.49 12.5331L221.016 9.88851L219.124 9.55574L218.476 12.7082C218.43 12.9418 218.319 13.1286 218.144 13.2687C217.968 13.4088 217.764 13.4788 217.531 13.4788H216.021H215.093C214.859 13.4788 214.661 13.3971 214.497 13.2336C214.334 13.0585 214.252 12.8542 214.252 12.6207V11.5698C214.252 11.1729 214.176 10.8051 214.025 10.4665C213.873 10.1162 213.663 9.81261 213.394 9.55574C213.137 9.2872 212.834 9.07703 212.483 8.92524C212.133 8.77346 211.759 8.69756 211.362 8.69756H207.212C206.78 8.69756 206.371 8.7793 205.986 8.94276C205.612 9.10622 205.279 9.3339 204.987 9.6258C204.707 9.90602 204.485 10.2388 204.322 10.6241C204.158 10.9977 204.077 11.4005 204.077 11.8325V20.2392H206.003V11.7275C206.003 11.4939 206.085 11.2955 206.248 11.132C206.412 10.9685 206.61 10.8868 206.844 10.8868H207.702L207.404 12.4981C207.323 12.9184 207.334 13.3271 207.439 13.724C207.556 14.121 207.737 14.4713 207.982 14.7749C208.228 15.0668 208.531 15.3061 208.893 15.4929ZM209.418 13.2862C209.313 13.1578 209.278 13.006 209.313 12.8308L209.681 10.8868H211.643C211.83 10.8868 211.987 10.951 212.116 11.0794C212.256 11.2079 212.326 11.3655 212.326 11.5523V13.4788H209.856C209.681 13.4788 209.535 13.4146 209.418 13.2862Z" fill="white"/>
<path d="M74.0977 18.767C74.0977 18.4213 74.3759 18.1411 74.7191 18.1411H81.2323C85.1726 18.1411 88.3669 21.3864 88.3669 25.3897V32.0124C88.3669 32.3581 88.0886 32.6383 87.7454 32.6383H81.2323C77.2919 32.6383 74.0977 29.393 74.0977 25.3897V18.767Z" fill="white"/>
<path d="M104.153 18.767C104.153 18.4213 103.875 18.1411 103.532 18.1411H97.0186C93.0782 18.1411 89.884 21.3864 89.884 25.3897V32.0124C89.884 32.3581 90.1622 32.6383 90.5054 32.6383H97.0186C100.959 32.6383 104.153 29.393 104.153 25.3897V18.767Z" fill="white"/>
<path d="M88.3669 2.71825C88.3669 2.3726 88.0886 2.09241 87.7454 2.09241H81.2323C77.2919 2.09241 74.0977 5.3377 74.0977 9.34097V15.9637C74.0977 16.3093 74.3759 16.5895 74.7191 16.5895H81.2323C85.1726 16.5895 88.3669 13.3442 88.3669 9.34097V2.71825Z" fill="white"/>
<path d="M89.884 2.71825C89.884 2.3726 90.1622 2.09241 90.5054 2.09241H97.0186C100.959 2.09241 104.153 5.3377 104.153 9.34097V15.9637C104.153 16.3093 103.875 16.5895 103.532 16.5895H97.0186C93.0782 16.5895 89.884 13.3442 89.884 9.34097V2.71825Z" fill="white"/>
<path d="M27.6139 5.24695H26.6332C26.1818 5.24695 25.8159 5.61286 25.8159 6.06423V16.4436H26.7966C27.248 16.4436 27.6139 16.0777 27.6139 15.6263V5.24695Z" fill="white"/>
<path d="M33.1605 12.2428C33.0842 12.2973 33.0079 12.3736 32.9317 12.4716C32.8663 12.5588 32.8336 12.6841 32.8336 12.8476V13.5341C32.8336 13.6431 32.8554 13.7575 32.899 13.8774C32.9535 13.9972 33.0243 14.1116 33.1115 14.2206C33.2095 14.3187 33.324 14.4059 33.4547 14.4821C33.5855 14.5475 33.738 14.5802 33.9124 14.5802H34.6643C34.8604 14.5802 35.0293 14.5421 35.171 14.4658C35.3127 14.3786 35.4216 14.2805 35.4979 14.1716C35.5851 14.0626 35.645 13.9536 35.6777 13.8447C35.7213 13.7248 35.7431 13.6376 35.7431 13.5831V12.8966C35.7431 12.7768 35.7104 12.6569 35.645 12.537C35.5905 12.4172 35.5033 12.3191 35.3835 12.2428C35.3399 12.221 35.2527 12.1665 35.122 12.0794C35.0021 11.9922 34.8659 11.905 34.7133 11.8178C34.6969 11.808 34.6804 11.798 34.6637 11.7878C34.3662 11.607 33.988 11.6155 33.7106 11.8258L33.1605 12.2428ZM32.1391 8.93463C32.3862 8.55158 32.8989 8.44475 33.2785 8.69723L36.3479 10.739C36.8055 11.0441 37.1161 11.3983 37.2796 11.8015C37.4539 12.2047 37.5411 12.597 37.5411 12.9784V13.5341C37.5411 13.8937 37.4757 14.2587 37.3449 14.6292C37.2251 14.9888 37.0344 15.3158 36.7728 15.61C36.5113 15.9042 36.1844 16.1494 35.7921 16.3455C35.4107 16.5308 34.9585 16.6234 34.4354 16.6234H34.0922C33.6018 16.6234 33.166 16.5308 32.7846 16.3455C32.4032 16.1494 32.0817 15.9042 31.8202 15.61C31.5586 15.3049 31.3625 14.9725 31.2317 14.6129C31.101 14.2424 31.0356 13.8828 31.0356 13.5341V13.0274C31.0356 12.7659 31.0683 12.5152 31.1337 12.2755C31.2099 12.0358 31.308 11.8178 31.4279 11.6217C31.5478 11.4146 31.6785 11.2348 31.8202 11.0823C31.9727 10.9297 32.1307 10.8099 32.2942 10.7227C32.3814 10.6682 32.4522 10.6301 32.5067 10.6083C32.5612 10.5756 32.6048 10.5483 32.6374 10.5265C32.6701 10.5156 32.6919 10.5047 32.7028 10.4938L31.6077 9.7583L32.1391 8.93463Z" fill="white"/>
<path d="M45.5963 16.1003C45.5963 16.5253 45.5309 16.934 45.4002 17.3262C45.2694 17.7294 45.0842 18.0945 44.8444 18.4214C44.6156 18.7592 44.3323 19.0534 43.9945 19.304C43.6676 19.5547 43.2971 19.7508 42.883 19.8925L41.4302 20.3909C40.998 20.5391 40.5282 20.3043 40.3875 19.8696L40.0879 18.9444L42.3926 18.1762C42.8067 18.0345 43.1391 17.8057 43.3897 17.4897C43.6512 17.1737 43.782 16.7977 43.782 16.3619V16.2474C43.6621 16.3019 43.515 16.351 43.3407 16.3946C43.1663 16.4272 42.9919 16.4436 42.8176 16.4436H41.7225C41.3193 16.4436 40.9488 16.3619 40.611 16.1984C40.2732 16.0241 39.9844 15.7952 39.7447 15.5119C39.5158 15.2286 39.3524 14.9071 39.2543 14.5475C39.1562 14.177 39.1453 13.7956 39.2216 13.4033L39.4995 11.9159C39.554 11.6217 39.6575 11.3493 39.81 11.0986C39.9735 10.8371 40.1642 10.6137 40.3821 10.4285C40.6001 10.2432 40.8452 10.1016 41.1177 10.0035C41.401 9.89451 41.6952 9.84003 42.0003 9.84003H42.9157C43.2862 9.84003 43.6349 9.91086 43.9618 10.0525C44.2887 10.1942 44.572 10.3903 44.8117 10.641C45.0515 10.8807 45.2422 11.164 45.3838 11.4909C45.5255 11.8178 45.5963 12.1665 45.5963 12.537V16.1003ZM42.9811 14.3187C43.4324 14.3187 43.7983 13.9528 43.7983 13.5014V12.5207C43.7983 12.3463 43.7384 12.1992 43.6185 12.0794C43.4987 11.9486 43.3515 11.8832 43.1772 11.8832H41.8532C41.7007 11.8832 41.5699 11.9322 41.4609 12.0303C41.352 12.1284 41.2811 12.2537 41.2484 12.4063L40.9869 13.7139C40.9542 13.8665 40.9869 14.0081 41.085 14.1389C41.194 14.2587 41.3302 14.3187 41.4936 14.3187H42.9811Z" fill="white"/>
<path fill-rule="evenodd" clip-rule="evenodd" d="M57.3557 4.81155L54.0943 8.63046L54.4424 8.9019C54.7872 9.17066 55.2823 9.12061 55.5663 8.78829L58.8018 5.00177L58.5441 4.75361C58.2051 4.42722 57.6613 4.45373 57.3557 4.81155Z" fill="white"/>
<path d="M64.8986 14.3187H53.4083H52.2151C52.0189 14.3187 51.8391 14.2587 51.6757 14.1389C51.5122 14.0081 51.4305 13.8447 51.4305 13.6485V10.5919H50.4498C49.9984 10.5919 49.6325 10.9578 49.6325 11.4092V16.2474C49.6325 16.6724 49.5072 17.0593 49.2566 17.408C49.0168 17.7676 48.6899 18.0128 48.2758 18.1435L45.9221 18.9117L46.2192 19.8119C46.3616 20.2434 46.8287 20.4758 47.2588 20.3294L48.7335 19.8271C49.1258 19.6963 49.4854 19.5111 49.8123 19.2713C50.1392 19.0425 50.4225 18.7701 50.6623 18.4541C50.902 18.1381 51.0872 17.7894 51.218 17.408C51.3597 17.0375 51.4305 16.6452 51.4305 16.2311V15.9369C51.5504 16.1439 51.7138 16.2801 51.9209 16.3455C52.1279 16.4109 52.324 16.4436 52.5093 16.4436H53.4083H64.5063C64.8659 16.4436 65.2092 16.3782 65.5361 16.2474C65.8739 16.1058 66.1681 15.9151 66.4188 15.6754C66.6803 15.4356 66.8819 15.1523 67.0235 14.8254C67.1761 14.4985 67.2524 14.1389 67.2524 13.7466V12.537C67.2524 12.1665 67.1815 11.8178 67.0399 11.4909C66.8982 11.164 66.7021 10.8807 66.4515 10.641C66.2117 10.4012 65.9284 10.2105 65.6015 10.0689C65.2855 9.9272 64.9422 9.85637 64.5717 9.85637H58.3441L61.4824 6.1623L60.8154 5.53749C60.4753 5.21894 59.9382 5.24875 59.6354 5.60298L55.3856 10.5756L56.6769 11.8178H64.7352C64.9313 11.8178 65.1002 11.8887 65.2419 12.0303C65.3836 12.1611 65.4544 12.3245 65.4544 12.5207V13.6812C65.4544 13.8665 65.389 14.019 65.2582 14.1389C65.1384 14.2587 65.0185 14.3187 64.8986 14.3187Z" fill="white"/>
<path d="M3.70677 16.4436H3.23276C2.84047 16.4436 2.46997 16.3728 2.12127 16.2311C1.77256 16.0785 1.46745 15.8715 1.20592 15.61C0.944393 15.3484 0.737351 15.0433 0.584793 14.6946C0.432236 14.3459 0.355957 13.9754 0.355957 13.5831V6.06423C0.355957 5.61286 0.721862 5.24695 1.17323 5.24695H2.15396V13.5341C2.15396 13.752 2.23024 13.9373 2.38279 14.0898C2.53535 14.2424 2.7206 14.3187 2.93854 14.3187H3.70677H4.22408C4.44202 14.3187 4.62727 14.2533 4.77983 14.1225C4.94328 13.9918 5.0468 13.8174 5.09039 13.5995L5.4173 11.9159C5.47178 11.6217 5.57531 11.3493 5.72786 11.0986C5.89132 10.8371 6.08201 10.6192 6.29995 10.4448C6.51789 10.2596 6.76307 10.1179 7.0355 10.0198C7.31882 9.91086 7.61304 9.85637 7.91815 9.85637H8.8335C9.20399 9.85637 9.5527 9.9272 9.87961 10.0689C10.2065 10.2105 10.4898 10.4012 10.7296 10.641C10.9693 10.8807 11.16 11.164 11.3017 11.4909C11.4433 11.8178 11.5142 12.1665 11.5142 12.537V13.5341C11.5142 13.752 11.5904 13.9373 11.743 14.0898C11.8955 14.2424 12.0808 14.3187 12.2987 14.3187H12.9199H13.6792C13.8971 14.3187 14.0823 14.2369 14.2349 14.0735C14.3875 13.91 14.4637 13.7193 14.4637 13.5014V11.4092C14.4637 10.9578 14.8296 10.5919 15.281 10.5919H16.2617V13.5178C16.2617 13.7357 16.338 13.9264 16.4906 14.0898C16.6431 14.2424 16.8284 14.3187 17.0463 14.3187H17.5203C17.7383 14.3187 17.929 14.2533 18.0924 14.1225C18.2559 13.9918 18.3594 13.8174 18.403 13.5995L18.8471 11.427C18.9363 10.9905 19.3586 10.7059 19.7966 10.787L20.7731 10.9679L20.2827 13.4197C20.2282 13.6485 20.2773 13.8556 20.4298 14.0408C20.5933 14.2261 20.7894 14.3187 21.0183 14.3187H22.2278V10.9679C22.2278 10.5165 22.5937 10.1506 23.0451 10.1506H24.0258V14.4494C24.0258 14.7219 23.9713 14.9834 23.8624 15.234C23.7643 15.4738 23.6226 15.6862 23.4374 15.8715C23.263 16.0458 23.0505 16.1875 22.7999 16.2965C22.5602 16.3946 22.3041 16.4436 22.0317 16.4436H21.0183C20.6696 16.4436 20.3426 16.3673 20.0375 16.2148C19.7324 16.0622 19.4709 15.8116 19.253 15.4629C19.0023 15.8116 18.7136 16.0622 18.3866 16.2148C18.0597 16.3673 17.7165 16.4436 17.3569 16.4436C16.9646 16.4436 16.5941 16.3673 16.2454 16.2148C15.9076 16.0513 15.6134 15.8061 15.3627 15.4792C15.1012 15.8061 14.7961 16.0513 14.4474 16.2148C14.1096 16.3673 13.7445 16.4436 13.3522 16.4436H12.9199H12.6093C12.2933 16.4436 11.9882 16.3891 11.694 16.2801C11.4106 16.1712 11.1491 15.9914 10.9094 15.7407C10.5607 16.2093 10.103 16.4436 9.53635 16.4436H7.64028C7.31337 16.4436 7.00281 16.3728 6.70859 16.2311C6.41437 16.0894 6.1474 15.8443 5.90766 15.4956C5.65703 15.8443 5.37916 16.0894 5.07404 16.2311C4.76893 16.3728 4.44202 16.4436 4.09332 16.4436H3.70677ZM7.41144 14.3187H8.89888C9.35025 14.3187 9.71615 13.9528 9.71615 13.5014V12.5207C9.71615 12.3463 9.65622 12.1992 9.53635 12.0794C9.41649 11.9595 9.26938 11.8996 9.09503 11.8996H7.77104C7.61849 11.8996 7.48772 11.9486 7.37875 12.0467C7.26978 12.1338 7.19895 12.2537 7.16626 12.4063L6.90473 13.7139C6.87204 13.8665 6.90474 14.0081 7.00281 14.1389C7.11178 14.2587 7.24799 14.3187 7.41144 14.3187Z" fill="white"/>
<path d="M2.93684 23.2176C2.99483 23.0547 3.14898 22.946 3.32182 22.946H4.44445L7.12204 30.4639H5.95066C5.77648 30.4639 5.62145 30.3535 5.56447 30.1889L5.19623 29.1251H2.28177L1.81834 30.4639H0.355957L2.93684 23.2176ZM2.7555 27.7863H4.7328L3.74415 24.9336L2.7555 27.7863Z" fill="white"/>
<path d="M10.5238 30.5669C9.84412 30.5669 9.27084 30.4398 8.80398 30.1858C8.33711 29.9249 7.93204 29.6022 7.58876 29.2178L8.49652 28.5003C8.69149 28.3463 8.975 28.4041 9.13824 28.5914C9.26976 28.7424 9.4158 28.8688 9.57636 28.9706C9.85785 29.1422 10.1702 29.2281 10.5135 29.2281C10.8843 29.2281 11.1658 29.1251 11.358 28.9191C11.5571 28.7131 11.6567 28.4797 11.6567 28.2188C11.6567 28.0609 11.612 27.927 11.5228 27.8172C11.4335 27.7073 11.3168 27.6146 11.1726 27.5391C11.0284 27.4567 10.8602 27.3846 10.668 27.3228C10.4826 27.2611 10.2904 27.1993 10.0913 27.1375C9.83726 27.0551 9.58323 26.9658 9.3292 26.8697C9.07517 26.7736 8.84517 26.6466 8.6392 26.4887C8.4401 26.3239 8.27532 26.1248 8.14488 25.8914C8.0213 25.6511 7.9595 25.3524 7.9595 24.9954C7.9595 24.6933 8.0213 24.4118 8.14488 24.1509C8.26846 23.89 8.4401 23.6635 8.6598 23.4712C8.88636 23.2721 9.15069 23.1176 9.45278 23.0078C9.76173 22.8979 10.0947 22.843 10.4517 22.843C10.7538 22.843 11.025 22.8705 11.2653 22.9254C11.5125 22.9803 11.7356 23.0558 11.9347 23.152C12.1407 23.2481 12.3261 23.3648 12.4908 23.5021C12.6625 23.6326 12.8238 23.7767 12.9749 23.9347L12.1664 24.5482C11.9792 24.6903 11.7148 24.6394 11.5407 24.4816C11.2522 24.2199 10.8926 24.0891 10.462 24.0891C10.1187 24.0891 9.85785 24.1715 9.67935 24.3363C9.50084 24.5011 9.41159 24.7036 9.41159 24.9439C9.41159 25.0949 9.45278 25.222 9.53517 25.3249C9.61755 25.4279 9.72741 25.5206 9.86472 25.603C10.0089 25.6785 10.1737 25.7472 10.359 25.809C10.5444 25.8708 10.7401 25.936 10.9461 26.0046C11.2001 26.087 11.4541 26.1831 11.7081 26.293C11.969 26.396 12.2025 26.5333 12.4084 26.7049C12.6213 26.8697 12.7929 27.0757 12.9234 27.3228C13.0538 27.5631 13.119 27.8652 13.119 28.2291C13.119 28.5243 13.0607 28.8127 12.944 29.0942C12.8272 29.3757 12.659 29.6263 12.4393 29.846C12.2196 30.0588 11.9484 30.2339 11.6258 30.3712C11.3031 30.5016 10.9358 30.5669 10.5238 30.5669Z" fill="white"/>
<path d="M14.3469 22.946H15.7372L18.0131 26.1076L20.3818 22.946H21.3016C21.5273 22.946 21.7103 23.129 21.7103 23.3547V30.4639H20.3097V25.1911L18.0028 28.3012L15.7475 25.2426V30.4639H14.7556C14.5299 30.4639 14.3469 30.2809 14.3469 30.0552V22.946Z" fill="white"/>
<path d="M25.2351 22.946H26.3578C26.5306 22.946 26.6848 23.0547 26.7427 23.2176L29.3236 30.4639H27.8612L27.3978 29.1251H24.4833L24.0199 30.4639H23.1369C22.8545 30.4639 22.6572 30.1842 22.7519 29.9181L25.2351 22.946ZM24.9571 27.7863H26.9344L25.9457 24.9336L24.9571 27.7863Z" fill="white"/>
<path d="M36.2918 30.5669C35.7082 30.5669 35.1761 30.4639 34.6955 30.2579C34.2149 30.0519 33.803 29.7739 33.4597 29.4237C33.1164 29.0667 32.8521 28.6548 32.6667 28.1879C32.4813 27.7211 32.3887 27.2267 32.3887 26.7049C32.3887 26.1694 32.4848 25.6682 32.677 25.2014C32.8693 24.7276 33.1336 24.3191 33.47 23.9758C33.8133 23.6257 34.2184 23.3511 34.6852 23.152C35.1589 22.946 35.6739 22.843 36.23 22.843C36.6213 22.843 36.9886 22.8911 37.3319 22.9872C37.6752 23.0764 37.991 23.2069 38.2794 23.3785C38.5746 23.5502 38.8355 23.7561 39.0621 23.9964C39.2955 24.2299 39.4912 24.4873 39.6491 24.7688L38.78 25.2903C38.5802 25.4101 38.3236 25.3363 38.185 25.149C37.9943 24.8913 37.7718 24.6856 37.5173 24.532C37.1603 24.3123 36.7346 24.2024 36.2403 24.2024C35.8901 24.2024 35.564 24.2711 35.2619 24.4084C34.9667 24.5388 34.7058 24.7173 34.4792 24.9439C34.2595 25.1705 34.0879 25.4348 33.9643 25.7369C33.8407 26.039 33.779 26.3617 33.779 26.7049C33.779 27.0551 33.8407 27.3812 33.9643 27.6833C34.0879 27.9854 34.2595 28.2497 34.4792 28.4763C34.7058 28.7028 34.9736 28.8813 35.2825 29.0118C35.5915 29.1422 35.9279 29.2075 36.2918 29.2075C36.8548 29.2075 37.3216 29.0599 37.6924 28.7646C38.07 28.4694 38.3274 28.0746 38.4647 27.5803H36.4739C36.2482 27.5803 36.0652 27.3973 36.0652 27.1716V26.2415H39.9683V26.7976C39.9683 27.3057 39.8825 27.7897 39.7109 28.2497C39.5392 28.7028 39.2921 29.101 38.9694 29.4443C38.6536 29.7876 38.2691 30.0622 37.8159 30.2682C37.3628 30.4673 36.8548 30.5669 36.2918 30.5669Z" fill="white"/>
<path d="M41.0717 30.4639V23.3547C41.0717 23.129 41.2547 22.946 41.4804 22.946H43.4816C43.9278 22.946 44.3226 23.0112 44.6659 23.1417C45.016 23.2653 45.3112 23.4438 45.5515 23.6772C45.7918 23.9038 45.9738 24.1784 46.0974 24.5011C46.2278 24.8169 46.293 25.1705 46.293 25.5618C46.293 26.0149 46.1832 26.4406 45.9635 26.8388C45.7506 27.2302 45.4383 27.5357 45.0263 27.7554L46.5299 30.4639H44.9336L43.7287 28.1673H42.4723V30.0552C42.4723 30.2809 42.2893 30.4639 42.0636 30.4639H41.0717ZM43.358 26.88C43.6463 26.88 43.8866 26.8457 44.0789 26.777C44.278 26.7015 44.4359 26.602 44.5526 26.4784C44.6762 26.3479 44.762 26.2003 44.8101 26.0355C44.865 25.8708 44.8924 25.6957 44.8924 25.5103C44.8924 25.1258 44.7689 24.8203 44.5217 24.5938C44.2814 24.3672 43.8935 24.2539 43.358 24.2539H42.4723V26.88H43.358Z" fill="white"/>
<path d="M50.7799 30.5669C50.2444 30.5669 49.7432 30.4673 49.2763 30.2682C48.8094 30.0622 48.4009 29.7876 48.0508 29.4443C47.7075 29.0942 47.4363 28.6857 47.2372 28.2188C47.0381 27.7451 46.9386 27.2405 46.9386 26.7049C46.9386 26.1694 47.0381 25.6682 47.2372 25.2014C47.4363 24.7345 47.7075 24.326 48.0508 23.9758C48.4009 23.6257 48.8094 23.3511 49.2763 23.152C49.7432 22.946 50.2444 22.843 50.7799 22.843C51.3154 22.843 51.8166 22.946 52.2835 23.152C52.7503 23.3511 53.1588 23.6257 53.509 23.9758C53.8591 24.326 54.1337 24.7345 54.3328 25.2014C54.532 25.6682 54.6315 26.1694 54.6315 26.7049C54.6315 27.2405 54.532 27.7451 54.3328 28.2188C54.1337 28.6857 53.8591 29.0942 53.509 29.4443C53.1588 29.7876 52.7503 30.0622 52.2835 30.2682C51.8166 30.4673 51.3154 30.5669 50.7799 30.5669ZM50.7799 29.1869C51.1232 29.1869 51.4424 29.1216 51.7376 28.9912C52.0397 28.8607 52.3006 28.6857 52.5203 28.466C52.7469 28.2394 52.922 27.9751 53.0455 27.673C53.176 27.3709 53.2412 27.0482 53.2412 26.7049C53.2412 26.3617 53.176 26.039 53.0455 25.7369C52.922 25.4348 52.7469 25.1739 52.5203 24.9542C52.3006 24.7276 52.0397 24.5491 51.7376 24.4187C51.4424 24.2882 51.1232 24.223 50.7799 24.223C50.4366 24.223 50.1139 24.2882 49.8118 24.4187C49.5166 24.5491 49.2591 24.7276 49.0394 24.9542C48.8197 25.1739 48.6447 25.4348 48.5142 25.7369C48.3906 26.039 48.3288 26.3617 48.3288 26.7049C48.3288 27.0482 48.3906 27.3709 48.5142 27.673C48.6447 27.9751 48.8197 28.2394 49.0394 28.466C49.2591 28.6857 49.5166 28.8607 49.8118 28.9912C50.1139 29.1216 50.4366 29.1869 50.7799 29.1869Z" fill="white"/>
<path d="M58.2391 30.5154C57.8477 30.5154 57.4873 30.457 57.1577 30.3403C56.8282 30.2236 56.5398 30.0519 56.2927 29.8254C56.0524 29.5988 55.8636 29.3173 55.7262 28.9809C55.5958 28.6445 55.5306 28.2566 55.5306 27.8172V22.8945H56.5225C56.7482 22.8945 56.9312 23.0775 56.9312 23.3032V27.8996C56.9312 28.0849 56.9621 28.26 57.0238 28.4248C57.0925 28.5827 57.1852 28.72 57.3019 28.8367C57.4186 28.9534 57.5559 29.0461 57.7138 29.1148C57.8718 29.1834 58.0434 29.2178 58.2288 29.2178C58.4141 29.2178 58.5858 29.1834 58.7437 29.1148C58.9016 29.0461 59.0389 28.9534 59.1556 28.8367C59.2792 28.72 59.3753 28.5827 59.444 28.4248C59.5126 28.26 59.547 28.0849 59.547 27.8996V23.3032C59.547 23.0775 59.7299 22.8945 59.9556 22.8945H60.9476V27.8172C60.9476 28.2566 60.8789 28.6445 60.7416 28.9809C60.6043 29.3173 60.4155 29.5988 60.1752 29.8254C59.9349 30.0519 59.65 30.2236 59.3204 30.3403C58.9909 30.457 58.6304 30.5154 58.2391 30.5154Z" fill="white"/>
<path d="M61.9693 23.3547C61.9693 23.129 62.1522 22.946 62.3779 22.946H64.5439C64.9352 22.946 65.2957 23.0181 65.6252 23.1623C65.9548 23.2996 66.2397 23.4884 66.48 23.7287C66.7203 23.969 66.9091 24.2539 67.0464 24.5835C67.1837 24.9061 67.2524 25.2529 67.2524 25.6236C67.2524 25.9943 67.1837 26.3445 67.0464 26.674C66.9091 27.0036 66.7203 27.2885 66.48 27.5288C66.2397 27.7691 65.9513 27.9614 65.6149 28.1055C65.2854 28.2428 64.9249 28.3115 64.5336 28.3115H63.3699V30.0552C63.3699 30.2809 63.1869 30.4639 62.9612 30.4639H61.9693V23.3547ZM63.3699 24.2436V27.0139H64.4409C64.6469 27.0139 64.8357 26.9796 65.0073 26.9109C65.179 26.8354 65.3266 26.7358 65.4501 26.6123C65.5737 26.4818 65.6699 26.3342 65.7385 26.1694C65.8072 25.9978 65.8415 25.8158 65.8415 25.6236C65.8415 25.4314 65.8072 25.2529 65.7385 25.0881C65.6699 24.9164 65.5737 24.7688 65.4501 24.6452C65.3266 24.5217 65.179 24.4255 65.0073 24.3569C64.8357 24.2814 64.6469 24.2436 64.4409 24.2436H63.3699Z" fill="white"/>
</svg>
