<svg width="22" height="21" viewBox="0 0 22 21" fill="none" xmlns="http://www.w3.org/2000/svg">
<path fill-rule="evenodd" clip-rule="evenodd" d="M11.0131 0.0634766C5.3715 0.0634766 0.797852 4.63713 0.797852 10.2787C0.797852 15.9203 5.3715 20.494 11.0131 20.494C16.6547 20.494 21.2284 15.9203 21.2284 10.2787C21.2284 4.63713 16.6547 0.0634766 11.0131 0.0634766ZM16.5851 5.63544C16.8226 5.63544 17.0601 5.72595 17.2417 5.9075C17.6048 6.27061 17.6048 6.85758 17.2417 7.22069L9.81238 14.65C9.63129 14.831 9.39353 14.922 9.15579 14.922C8.91805 14.922 8.68029 14.831 8.4992 14.65L4.78456 10.9353C4.42145 10.5722 4.42145 9.98525 4.78456 9.62214C5.14766 9.25904 5.73463 9.25904 6.09774 9.62214L9.15579 12.6802L15.9285 5.9075C16.11 5.72595 16.3476 5.63544 16.5851 5.63544Z" fill="white"/>
</svg>
