<svg width="33" height="23" viewBox="0 0 33 23" fill="none" xmlns="http://www.w3.org/2000/svg">
<path d="M28.527 0.722401L26.6584 2.59105L22.1988 7.05062L16.7818 12.4676L12.1249 17.1245C11.369 17.8804 10.6047 18.6237 9.85728 19.3921L9.82369 19.4257H12.7926L10.9239 17.5571L6.4643 13.0975L10.5456 17.2607L5.88867 12.6037C5.13281 11.8479 4.38535 11.0836 3.62109 10.3361L3.5875 10.3026C3.20537 9.92042 2.64268 9.68946 2.10098 9.68946C1.58447 9.68946 0.971388 9.91622 0.614455 10.3026C0.249123 10.7015 -0.0238267 11.2264 0.00136862 11.7891C0.0265639 12.3476 0.215529 12.8725 0.614455 13.2756L2.48311 15.1442L6.94268 19.6038L2.86137 15.4407L7.51831 20.0976C8.27417 20.8535 9.02164 21.6177 9.7859 22.3652L9.81949 22.3988C10.6215 23.2008 11.9863 23.2008 12.7884 22.3988C13.4182 21.7731 14.0397 21.1474 14.6654 20.5259L19.125 16.0663L24.542 10.6494L29.1989 5.99242C29.9548 5.23656 30.719 4.4891 31.4665 3.72484L31.5001 3.69125C31.8822 3.30912 32.1132 2.74642 32.1132 2.20472C32.1132 1.68822 31.8864 1.07513 31.5001 0.718201C31.1012 0.352869 30.5763 0.0799198 30.0136 0.105116C29.4551 0.13451 28.9302 0.319275 28.527 0.722401Z" fill="white"/>
</svg>
