<svg width="28" height="30" viewBox="0 0 28 30" fill="none" xmlns="http://www.w3.org/2000/svg">
<path d="M13.6027 7.48145C8.68467 7.48145 4.69727 11.4688 4.69727 16.3869C4.69727 21.3049 8.68467 25.2923 13.6027 25.2923C18.5207 25.2923 22.5081 21.3049 22.5081 16.3869C22.5081 11.4688 18.5207 7.48145 13.6027 7.48145ZM17.3133 17.129H14.3448V20.0975C14.3448 20.5078 14.0123 20.8396 13.6027 20.8396C13.193 20.8396 12.8606 20.5078 12.8606 20.0975V17.129H9.89209C9.48244 17.129 9.14997 16.7973 9.14997 16.3869C9.14997 15.9765 9.48244 15.6447 9.89209 15.6447H12.8606V12.6763C12.8606 12.2659 13.193 11.9342 13.6027 11.9342C14.0123 11.9342 14.3448 12.2659 14.3448 12.6763V15.6447H17.3133C17.7229 15.6447 18.0554 15.9765 18.0554 16.3869C18.0554 16.7973 17.7229 17.129 17.3133 17.129Z" fill="black"/>
<path d="M10.134 0.289062V2.59869H17.0629V0.289062H10.134ZM23.667 2.92349L22.007 4.58353L22.9092 5.48573L21.7183 6.71272C19.5169 4.87675 16.6795 3.75351 13.5985 3.75351C6.59741 3.75351 0.895508 9.45541 0.895508 16.4565C0.895508 23.4576 6.59741 29.1595 13.5985 29.1595C20.5996 29.1595 26.3015 23.4576 26.3015 16.4565C26.3015 13.3755 25.1782 10.5381 23.3422 8.33668L24.5692 7.14578L25.4714 8.04798L27.1315 6.38793L23.667 2.92349ZM13.5985 6.06314C19.35 6.06314 23.9918 10.705 23.9918 16.4565C23.9918 22.208 19.35 26.8498 13.5985 26.8498C7.84696 26.8498 3.20514 22.208 3.20514 16.4565C3.20514 10.705 7.84696 6.06314 13.5985 6.06314Z" fill="black"/>
</svg>
