<svg width="36" height="42" viewBox="0 0 36 42" fill="none" xmlns="http://www.w3.org/2000/svg">
<path d="M16.801 0.569336C14.0968 0.569336 11.9285 2.68833 11.7745 5.34938H5.46685C4.51824 5.34938 3.88993 5.97769 3.88993 6.92631H3.24931C1.83254 6.92631 0.736084 8.02276 0.736084 9.43953V10.0802H35.4284V9.43953C35.4284 8.02276 34.3319 6.92631 32.9152 6.92631H32.2745C32.2745 5.97769 31.6462 5.34938 30.6976 5.34938H24.3899C24.2359 2.68833 22.0677 0.569336 19.3635 0.569336H16.801ZM16.801 3.82174H19.3635C20.2382 3.82174 20.9835 4.50548 21.1375 5.34938H15.0269C15.1809 4.50548 15.9263 3.82174 16.801 3.82174ZM2.46084 11.6571L7.04378 41.6186H29.1207L33.7036 11.6571H2.46084ZM6.89594 16.3878H8.6207L11.2818 36.8878H9.70483L6.89594 16.3878ZM13.6471 16.3878H15.4212L16.5053 36.8878H14.6327L13.6471 16.3878ZM20.7433 16.3878H22.5173L21.5318 36.8878H19.807L20.7433 16.3878ZM27.5438 16.3878H29.1207L26.4596 36.8878H24.8827L27.5438 16.3878Z" fill="white"/>
</svg>
