<svg width="231" height="231" viewBox="0 0 231 231" fill="none" xmlns="http://www.w3.org/2000/svg">
<path d="M115.46 0.000488281C51.7884 0.000488281 0 51.7888 0 115.46C0 179.132 51.7884 230.92 115.46 230.92C179.132 230.92 230.92 179.132 230.92 115.46C230.92 51.7888 179.132 0.000488281 115.46 0.000488281ZM115.46 45.1805C135.56 45.1805 154.306 53.7498 167.542 68.398L180.72 55.2205V90.3605H145.58L160.464 75.477C149.09 62.6917 132.854 55.2205 115.46 55.2205C82.2417 55.2205 55.22 82.2422 55.22 115.46H45.18C45.18 76.7124 76.7119 45.1805 115.46 45.1805ZM115.46 185.74C95.4192 185.74 76.5942 177.191 63.3579 162.543L50.2 175.7V140.56H85.34L70.4565 155.444C81.8103 168.229 98.1057 175.7 115.46 175.7C148.678 175.7 175.7 148.679 175.7 115.46H185.74C185.74 154.209 154.208 185.74 115.46 185.74Z" fill="white"/>
</svg>
