<svg width="72" height="72" viewBox="0 0 72 72" fill="none" xmlns="http://www.w3.org/2000/svg">
<g clip-path="url(#clip0_1022_831)">
<path d="M36.1095 0.249023C27.0958 0.249023 19.7249 5.98791 19.7249 16.6336C19.7249 23.7592 23.0423 31.1409 27.9172 35.237V38.9918C27.9172 40.6345 26.8078 42.0426 25.4424 42.3199C14.7967 45.5947 6.07104 52.6457 6.07104 56.7418V61.6913C6.07104 66.8755 19.4475 71.249 36.1095 71.249C52.7715 71.249 66.148 66.8755 66.148 61.6913V56.7418C66.148 52.923 57.6996 45.5947 46.7766 42.3199C45.4112 42.0426 44.3018 40.3572 44.3018 38.9918V35.237C49.1767 31.1409 52.4941 23.7592 52.4941 16.6336C52.4941 5.98791 45.1232 0.249023 36.1095 0.249023Z" fill="#69B0B2"/>
</g>
<defs>
<clipPath id="clip0_1022_831">
<rect width="71" height="71" fill="white" transform="translate(0.609497 0.249023)"/>
</clipPath>
</defs>
</svg>
