<svg width="35" height="36" viewBox="0 0 35 36" fill="none" xmlns="http://www.w3.org/2000/svg">
<path d="M0.520508 19.5525C0.520508 19.1633 0.837405 18.8478 1.22832 18.8478H8.64622C13.1339 18.8478 16.7719 22.5019 16.7719 27.0095V34.4666C16.7719 34.8557 16.455 35.1712 16.0641 35.1712H8.64622C4.15851 35.1712 0.520508 31.5171 0.520508 27.0095V19.5525Z" fill="#C5DADA"/>
<path d="M34.7512 19.5525C34.7512 19.1633 34.4343 18.8478 34.0434 18.8478H26.6255C22.1378 18.8478 18.4998 22.5019 18.4998 27.0095V34.4666C18.4998 34.8557 18.8167 35.1712 19.2076 35.1712H26.6255C31.1132 35.1712 34.7512 31.5171 34.7512 27.0095V19.5525Z" fill="#C5DADA"/>
<path d="M16.7719 1.48202C16.7719 1.09284 16.455 0.777344 16.0641 0.777344H8.64622C4.15852 0.777344 0.520509 4.43146 0.520509 8.93905V16.3961C0.520509 16.7853 0.837406 17.1007 1.22832 17.1007H8.64622C13.1339 17.1007 16.7719 13.4466 16.7719 8.93905V1.48202Z" fill="#C5DADA"/>
<path d="M18.4998 1.48202C18.4998 1.09284 18.8167 0.777344 19.2076 0.777344H26.6255C31.1132 0.777344 34.7512 4.43146 34.7512 8.93905V16.3961C34.7512 16.7853 34.4343 17.1007 34.0434 17.1007H26.6255C22.1378 17.1007 18.4998 13.4466 18.4998 8.93905V1.48202Z" fill="#C5DADA"/>
</svg>
