<svg width="91" height="80" viewBox="0 0 91 80" fill="none" xmlns="http://www.w3.org/2000/svg">
<path d="M42.1709 2.43701C43.7105 -0.229625 47.559 -0.229565 49.0986 2.43701L90.3457 73.8774C91.8853 76.5441 89.9601 79.8774 86.8809 79.8774H4.38867C1.30947 79.8774 -0.614796 76.5441 0.924805 73.8774L42.1709 2.43701ZM45.6348 61.1538C44.7444 61.1538 43.9961 61.4565 43.3906 62.062C42.7851 62.6319 42.4824 63.362 42.4824 64.2524C42.4824 65.1428 42.7852 65.9083 43.3906 66.5493C43.9961 67.1548 44.7443 67.4575 45.6348 67.4575C46.525 67.4574 47.2725 67.1547 47.8779 66.5493C48.4834 65.9082 48.7861 65.1428 48.7861 64.2524C48.7861 63.362 48.4834 62.6319 47.8779 62.062C47.2726 61.4567 46.525 61.1539 45.6348 61.1538ZM45.6348 23.6489C44.7443 23.6489 44.0313 23.9697 43.4971 24.6108C42.963 25.2162 42.6964 25.9286 42.6963 26.7476C42.6963 27.8873 42.7677 29.3838 42.9102 31.2358C43.0882 33.0878 43.2834 35.029 43.4971 37.0591C43.9245 40.9056 44.2634 44.485 44.5127 47.7974C44.7976 51.1097 44.9575 54.5472 44.9932 58.1089H46.2754C46.3466 54.6541 46.5065 51.3946 46.7559 48.3315C47.0052 45.2329 47.3441 41.5288 47.7715 37.2192C47.9852 35.1537 48.1632 33.1771 48.3057 31.2896C48.4837 29.4019 48.5732 27.8873 48.5732 26.7476C48.5732 25.9285 48.3056 25.2162 47.7715 24.6108C47.2373 23.9698 46.525 23.649 45.6348 23.6489Z" fill="#FFBB27"/>
</svg>
