<svg width="41" height="41" viewBox="0 0 41 41" fill="none" xmlns="http://www.w3.org/2000/svg">
<path d="M10.0176 1.96851V5.30184H8.35091C6.51758 5.30184 5.01758 6.80184 5.01758 8.63517V31.9685C5.01758 33.8018 6.51758 35.3018 8.35091 35.3018H31.6842C33.5176 35.3018 35.0176 33.8018 35.0176 31.9685V8.63517C35.0176 6.80184 33.5176 5.30184 31.6842 5.30184H30.0176V1.96851H26.6842V5.30184H13.3509V1.96851H10.0176ZM8.35091 8.63517H31.6842V11.9685H8.35091V8.63517ZM8.35091 15.3018H31.6842V31.9685H8.35091V15.3018ZM11.6842 18.6352V21.9685H18.3509V18.6352H11.6842ZM21.6842 21.9685V25.3018H28.3509V21.9685H21.6842ZM11.6842 25.3018V28.6352H18.3509V25.3018H11.6842Z" fill="white"/>
</svg>
