<svg width="37" height="38" viewBox="0 0 37 38" fill="none" xmlns="http://www.w3.org/2000/svg">
<path d="M31.1577 12.5475L28.0013 15.7039L33.2313 20.9338L36.3877 17.7775L31.1577 12.5475ZM26.0273 17.6779L11.5452 32.1599V37.3899H16.7752L31.2573 22.9079L26.0273 17.6779Z" fill="#69B0B2"/>
<path d="M21.8973 29.72C22.5691 29.7201 23.1081 30.2646 23.1081 30.9316V31.0569L22.0226 32.1424H11.5629L13.9853 29.72H21.8973Z" fill="#69B0B2"/>
<path d="M10.645 29.72L9.18361 31.1814V32.1424H0.0976562V30.9316C0.0976562 30.2646 0.636812 29.7202 1.30845 29.72H10.645Z" fill="#69B0B2"/>
<path d="M26.7413 18.3924V26.0869H27.9528C27.9931 26.0869 28.0328 26.0884 28.072 26.0923L25.6558 28.5092H15.1961L20.6865 23.0188V26.0869H23.1081V20.5972L26.0273 17.6779L26.7413 18.3924Z" fill="#69B0B2"/>
<path d="M8.57552 11.5535V26.0869H10.9971V11.5535H14.631V25.734L11.8558 28.5092H2.52001V27.2977C2.5202 26.6308 3.05921 26.0869 3.73081 26.0869H4.94237V11.5535H8.57552Z" fill="#69B0B2"/>
<path d="M20.6865 11.5535V19.6785L17.0526 23.3124V11.5535H20.6865Z" fill="#69B0B2"/>
<path d="M26.7413 11.5535V13.6245L26.3315 14.0343L26.0271 14.3379L23.1081 17.2569V11.5535H26.7413Z" fill="#69B0B2"/>
<path d="M31.586 7.92035V9.13192H29.1636C29.1635 9.79882 28.6245 10.3426 27.9528 10.3427H3.73081C3.05917 10.3426 2.52014 9.79882 2.52001 9.13192H0.0976562V7.92035L15.8418 0.654053L31.586 7.92035Z" fill="#69B0B2"/>
</svg>
