<svg width="31" height="32" viewBox="0 0 31 32" fill="none" xmlns="http://www.w3.org/2000/svg">
<path d="M15.6842 0.869141C14.4011 0.869141 13.3619 1.90837 13.3619 3.19145C13.3619 3.29341 13.3786 3.39006 13.3914 3.48854C9.38072 4.51508 6.39495 8.15564 6.39495 12.4807V22.9311C6.39495 23.5872 5.88988 24.0922 5.23379 24.0922H4.07264V26.4145H5.23379H12.6838C12.5247 26.8117 12.2007 27.1247 12.2007 27.5757C12.2007 29.4857 13.7741 31.0591 15.6842 31.0591C17.5942 31.0591 19.1676 29.4857 19.1676 27.5757C19.1676 27.1247 18.8437 26.8117 18.6846 26.4145H26.1346H27.2957V24.0922H26.1346C25.4785 24.0922 24.9734 23.5872 24.9734 22.9311V12.8209C24.9734 8.46049 22.0593 4.57128 17.9747 3.49308C17.9879 3.39309 18.0065 3.29503 18.0065 3.19145C18.0065 1.90837 16.9673 0.869141 15.6842 0.869141ZM15.8996 5.51602C19.6928 5.62986 22.6511 8.96654 22.6511 12.8209V22.9311C22.6511 23.382 22.975 23.6951 23.1342 24.0922H15.6842H8.2342C8.39331 23.6951 8.71725 23.382 8.71725 22.9311V12.4807C8.71725 8.54711 11.9356 5.39702 15.8996 5.51602ZM1.97032 7.35301C0.148184 11.3383 0.146136 15.9435 1.97485 19.9307L4.08625 18.9645C2.54065 15.5947 2.54114 11.6886 4.08171 8.31912L1.97032 7.35301ZM29.398 7.35301L27.2866 8.31912C28.8272 11.6886 28.8277 15.5947 27.2821 18.9645L29.3935 19.9307C31.2222 15.9435 31.2202 11.3383 29.398 7.35301ZM15.6842 26.4145C16.3403 26.4145 16.8453 26.9196 16.8453 27.5757C16.8453 28.2318 16.3403 28.7368 15.6842 28.7368C15.0281 28.7368 14.523 28.2318 14.523 27.5757C14.523 26.9196 15.0281 26.4145 15.6842 26.4145Z" fill="white"/>
</svg>
