<svg width="40" height="40" viewBox="0 0 40 40" fill="none" xmlns="http://www.w3.org/2000/svg">
<path fill-rule="evenodd" clip-rule="evenodd" d="M32.113 32.8258C34.6847 31.3312 36.7528 29.1049 38.0537 26.4308C39.3545 23.7566 39.8291 20.7558 39.417 17.8109C39.0048 14.866 37.7246 12.1106 35.7396 9.89597C33.7545 7.68132 31.1546 6.10784 28.2713 5.37617C30.3301 6.92604 32.0628 8.86656 33.3704 11.0867C34.678 13.3067 35.5347 15.7628 35.8916 18.3143C36.2484 20.8658 36.0983 23.4625 35.45 25.956C34.8016 28.4494 33.6677 30.7709 32.113 32.8258Z" fill="black"/>
<path fill-rule="evenodd" clip-rule="evenodd" d="M1.94621 26.4308C3.24705 29.1049 5.31517 31.3312 7.88685 32.8258C6.33223 30.7709 5.19829 28.4494 4.54992 25.956C3.90156 23.4625 3.7515 20.8658 4.10833 18.3143C4.46517 15.7628 5.32189 13.3067 6.62947 11.0867C7.93704 8.86656 9.6698 6.92604 11.7285 5.37617C8.84529 6.10784 6.24538 7.68132 4.26033 9.89597C2.27529 12.1106 0.995062 14.866 0.582915 17.8109C0.170767 20.7558 0.645373 23.7566 1.94621 26.4308Z" fill="black"/>
<path fill-rule="evenodd" clip-rule="evenodd" d="M19.9999 4.47489C20.5954 5.30567 21.3909 5.97282 22.3128 6.41459V17.9352L21.7238 32.5514C23.9947 30.9012 25.8924 28.7766 27.2788 26.3146C29.0625 23.147 29.9296 19.5458 29.7829 15.9137C29.6363 12.2817 28.4818 8.76207 26.4485 5.74843C29.5723 8.44352 31.6671 12.1359 32.3775 16.1991C33.0879 20.2623 32.3702 24.446 30.3461 28.0405C28.6456 31.0602 26.1111 33.5078 23.0651 35.1031C25.5105 35.9978 28.1198 36.3998 30.741 36.2741C27.7577 37.2404 24.59 37.3999 21.5541 36.762L21.5288 37.3909L19.9999 39.4873L18.4711 37.3909L18.4458 36.762C15.4099 37.3999 12.2422 37.2403 9.25888 36.2741C11.8801 36.3998 14.4893 35.9978 16.9348 35.1031C13.8888 33.5078 11.3543 31.0602 9.65382 28.0405C7.62971 24.446 6.91198 20.2623 7.62239 16.1991C8.3328 12.1359 10.4276 8.44352 13.5514 5.74843C11.5181 8.76207 10.3636 12.2817 10.217 15.9137C10.0703 19.5458 10.9374 23.147 12.7211 26.3146C14.1075 28.7766 16.0052 30.9012 18.2761 32.5514L17.6871 17.9352V6.41459C18.609 5.97282 19.4045 5.30567 19.9999 4.47489Z" fill="black"/>
<path d="M19.9999 3.6324C20.3942 4.20627 20.9868 4.61417 21.6637 4.77767C22.3407 4.94116 23.0542 4.84871 23.6671 4.51808C24.28 4.18745 24.7489 3.64199 24.9838 2.98661C25.2186 2.33122 25.2027 1.61219 24.9393 0.967773C24.8358 1.50333 24.5704 1.99424 24.1789 2.3742C23.7874 2.75417 23.2886 3.00487 22.75 3.09247C22.2115 3.18006 21.659 3.10032 21.1671 2.86401C20.6753 2.62771 20.2679 2.24622 19.9999 1.77108C19.732 2.24622 19.3245 2.62771 18.8327 2.86401C18.3409 3.10032 17.7884 3.18006 17.2498 3.09247C16.7113 3.00487 16.2125 2.75417 15.821 2.3742C15.4295 1.99424 15.1641 1.50333 15.0606 0.967773C14.7971 1.61219 14.7813 2.33122 15.0161 2.98661C15.251 3.64199 15.7199 4.18745 16.3328 4.51808C16.9457 4.84871 17.6592 4.94116 18.3362 4.77767C19.0131 4.61417 19.6057 4.20627 19.9999 3.6324Z" fill="black"/>
</svg>
