<svg width="101" height="35" viewBox="0 0 101 35" fill="none" xmlns="http://www.w3.org/2000/svg">
<path d="M44.242 3.47266C44.3424 3.19191 44.6094 3.00442 44.9088 3.00442H46.8531L51.4906 15.9676H49.4618C49.1602 15.9676 48.8917 15.7772 48.793 15.4934L48.1552 13.6591H43.1074L42.3048 15.9676H39.772L44.242 3.47266ZM43.9279 11.3506H47.3525L45.6402 6.43166L43.9279 11.3506Z" fill="#C5DADA"/>
<path d="M57.3824 16.1451C56.2052 16.1451 55.2123 15.9261 54.4037 15.4881C53.5951 15.0382 52.8935 14.4818 52.299 13.8189L53.8712 12.5818C54.2089 12.3161 54.6999 12.4158 54.9826 12.7389C55.2104 12.9992 55.4634 13.2171 55.7415 13.3927C56.229 13.6887 56.77 13.8366 57.3646 13.8366C58.0067 13.8366 58.4942 13.6591 58.8272 13.3039C59.172 12.9487 59.3445 12.5462 59.3445 12.0964C59.3445 11.8241 59.2672 11.5932 59.1126 11.4038C58.958 11.2144 58.7558 11.0546 58.5061 10.9244C58.2564 10.7823 57.9651 10.658 57.6321 10.5515C57.3111 10.4449 56.9781 10.3384 56.6333 10.2318C56.1933 10.0898 55.7533 9.93585 55.3134 9.77011C54.8734 9.60437 54.4751 9.38536 54.1183 9.11308C53.7735 8.82895 53.4881 8.48563 53.2622 8.08312C53.0481 7.66878 52.9411 7.15381 52.9411 6.53821C52.9411 6.01731 53.0481 5.53194 53.2622 5.08208C53.4762 4.63221 53.7735 4.24154 54.154 3.91006C54.5464 3.56674 55.0042 3.30038 55.5274 3.11096C56.0625 2.92155 56.6392 2.82684 57.2576 2.82684C57.7808 2.82684 58.2505 2.8742 58.6667 2.9689C59.0947 3.06361 59.4812 3.19383 59.826 3.35957C60.1828 3.52531 60.5038 3.72656 60.7892 3.96333C61.0865 4.18826 61.3659 4.43688 61.6275 4.70916L60.2273 5.76716C59.9031 6.01212 59.4452 5.92442 59.1437 5.65224C58.6439 5.2011 58.0212 4.97552 57.2754 4.97552C56.6808 4.97552 56.229 5.11758 55.9198 5.40171C55.6106 5.68583 55.4561 6.03507 55.4561 6.44942C55.4561 6.70986 55.5274 6.92887 55.6701 7.10645C55.8128 7.28403 56.0031 7.44385 56.2409 7.58591C56.4906 7.71614 56.776 7.83452 57.097 7.94106C57.4181 8.04761 57.757 8.16008 58.1137 8.27847C58.5537 8.42053 58.9937 8.58626 59.4336 8.77568C59.8855 8.95325 60.2898 9.19003 60.6465 9.48599C61.0152 9.77011 61.3124 10.1253 61.5384 10.5515C61.7643 10.9658 61.8773 11.4867 61.8773 12.1141C61.8773 12.6232 61.7762 13.1204 61.574 13.6058C61.3719 14.0912 61.0806 14.5233 60.7 14.9021C60.3195 15.2691 59.8498 15.571 59.2909 15.8077C58.7321 16.0327 58.0959 16.1451 57.3824 16.1451Z" fill="#C5DADA"/>
<path d="M64.0039 3.00442H66.4118L70.3537 8.45604L74.4561 3.00442H76.0492C76.4402 3.00442 76.757 3.31991 76.757 3.70909V15.9676H74.3313V6.8756L70.3359 12.2384L66.4296 6.96439V15.9676H64.7117C64.3207 15.9676 64.0039 15.6521 64.0039 15.2629V3.00442Z" fill="#C5DADA"/>
<path d="M82.862 3.00442H84.8064C85.1057 3.00442 85.3727 3.19191 85.4732 3.47266L89.9432 15.9676H87.4104L86.6077 13.6591H81.56L80.7573 15.9676H79.228C78.7388 15.9676 78.397 15.4853 78.5612 15.0265L82.862 3.00442ZM82.3804 11.3506H85.8051L84.0928 6.43166L82.3804 11.3506Z" fill="#C5DADA"/>
<path d="M46.5321 32.6722C45.5213 32.6722 44.5998 32.4946 43.7674 32.1394C42.935 31.7843 42.2215 31.3048 41.627 30.7011C41.0324 30.0855 40.5746 29.3752 40.2536 28.5701C39.9325 27.7651 39.772 26.9128 39.772 26.013C39.772 25.0896 39.9385 24.2254 40.2714 23.4204C40.6044 22.6035 41.0622 21.8991 41.6448 21.3072C42.2394 20.7035 42.9409 20.2299 43.7495 19.8866C44.57 19.5315 45.4619 19.3539 46.425 19.3539C47.1028 19.3539 47.739 19.4367 48.3336 19.6025C48.9281 19.7564 49.4751 19.9813 49.9745 20.2773C50.4858 20.5732 50.9377 20.9284 51.3301 21.3427C51.7344 21.7453 52.0733 22.1892 52.3468 22.6746L50.8416 23.5737C50.4956 23.7804 50.0511 23.6531 49.811 23.3301C49.4808 22.8857 49.0953 22.5311 48.6546 22.2661C48.0363 21.8873 47.299 21.6979 46.4429 21.6979C45.8364 21.6979 45.2716 21.8163 44.7484 22.053C44.2371 22.278 43.7852 22.5858 43.3928 22.9764C43.0123 23.3671 42.715 23.8229 42.501 24.3438C42.2869 24.8647 42.1799 25.4211 42.1799 26.013C42.1799 26.6168 42.2869 27.1791 42.501 27.7C42.715 28.2209 43.0123 28.6767 43.3928 29.0674C43.7852 29.458 44.249 29.7658 44.7841 29.9908C45.3192 30.2157 45.9018 30.3282 46.5321 30.3282C47.5071 30.3282 48.3157 30.0736 48.9578 29.5646C49.6119 29.0555 50.0578 28.3748 50.2956 27.5224H46.8475C46.4565 27.5224 46.1397 27.2069 46.1397 26.8178V25.2139H52.8997V26.1728C52.8997 27.0489 52.7511 27.8835 52.4538 28.6767C52.1565 29.458 51.7285 30.1447 51.1696 30.7366C50.6226 31.3285 49.9567 31.802 49.1719 32.1572C48.3871 32.5005 47.5071 32.6722 46.5321 32.6722Z" fill="#C5DADA"/>
<path d="M54.8108 32.4946V20.2361C54.8108 19.8469 55.1277 19.5315 55.5186 19.5315H58.9846C59.7575 19.5315 60.4412 19.6439 61.0358 19.8688C61.6422 20.0819 62.1535 20.3897 62.5697 20.7922C62.9859 21.1829 63.301 21.6565 63.5151 22.2129C63.741 22.7574 63.854 23.3671 63.854 24.0419C63.854 24.8233 63.6637 25.5572 63.2832 26.2439C62.9146 26.9187 62.3735 27.4455 61.66 27.8243L64.2642 32.4946H61.4995L59.4126 28.5346H57.2366V31.7899C57.2366 32.1791 56.9197 32.4946 56.5288 32.4946H54.8108ZM58.7705 26.3149C59.2699 26.3149 59.6861 26.2557 60.0191 26.1373C60.3639 26.0071 60.6374 25.8354 60.8396 25.6224C61.0536 25.3974 61.2022 25.1429 61.2855 24.8588C61.3806 24.5746 61.4282 24.2728 61.4282 23.9531C61.4282 23.2902 61.2141 22.7634 60.7861 22.3727C60.3699 21.982 59.698 21.7867 58.7705 21.7867H57.2366V26.3149H58.7705Z" fill="#C5DADA"/>
<path d="M71.6251 32.6722C70.6976 32.6722 69.8295 32.5005 69.0209 32.1572C68.2123 31.802 67.5048 31.3285 66.8984 30.7366C66.3038 30.1328 65.8341 29.4284 65.4893 28.6234C65.1444 27.8066 64.972 26.9364 64.972 26.013C64.972 25.0896 65.1444 24.2254 65.4893 23.4204C65.8341 22.6154 66.3038 21.911 66.8984 21.3072C67.5048 20.7035 68.2123 20.2299 69.0209 19.8866C69.8295 19.5314 70.6976 19.3539 71.6251 19.3539C72.5526 19.3539 73.4206 19.5314 74.2292 19.8866C75.0378 20.2299 75.7453 20.7035 76.3518 21.3072C76.9582 21.911 77.4339 22.6154 77.7787 23.4204C78.1236 24.2254 78.296 25.0896 78.296 26.013C78.296 26.9364 78.1236 27.8066 77.7787 28.6234C77.4339 29.4284 76.9582 30.1328 76.3518 30.7366C75.7453 31.3285 75.0378 31.802 74.2292 32.1572C73.4206 32.5005 72.5526 32.6722 71.6251 32.6722ZM71.6251 30.2926C72.2196 30.2926 72.7726 30.1802 73.2839 29.9552C73.8071 29.7303 74.2589 29.4284 74.6395 29.0496C75.0319 28.6589 75.3351 28.2031 75.5491 27.6823C75.7751 27.1614 75.888 26.6049 75.888 26.013C75.888 25.4211 75.7751 24.8647 75.5491 24.3438C75.3351 23.8229 75.0319 23.373 74.6395 22.9942C74.2589 22.6035 73.8071 22.2957 73.2839 22.0708C72.7726 21.8459 72.2196 21.7334 71.6251 21.7334C71.0305 21.7334 70.4716 21.8459 69.9484 22.0708C69.4371 22.2957 68.9912 22.6035 68.6107 22.9942C68.2302 23.373 67.9269 23.8229 67.701 24.3438C67.487 24.8647 67.3799 25.4211 67.3799 26.013C67.3799 26.6049 67.487 27.1614 67.701 27.6823C67.9269 28.2031 68.2302 28.6589 68.6107 29.0496C68.9912 29.4284 69.4371 29.7303 69.9484 29.9552C70.4716 30.1802 71.0305 30.2926 71.6251 30.2926Z" fill="#C5DADA"/>
<path d="M84.5441 32.5834C83.8663 32.5834 83.2421 32.4828 82.6713 32.2815C82.1005 32.0802 81.6011 31.7843 81.173 31.3936C80.7568 31.0029 80.4298 30.5176 80.192 29.9375C79.9661 29.3574 79.8531 28.6885 79.8531 27.9309V19.4427H81.5711C81.962 19.4427 82.2789 19.7582 82.2789 20.1473V28.0729C82.2789 28.3926 82.3324 28.6944 82.4394 28.9786C82.5583 29.2509 82.7189 29.4876 82.921 29.6889C83.1232 29.8901 83.361 30.05 83.6345 30.1683C83.908 30.2867 84.2052 30.3459 84.5263 30.3459C84.8474 30.3459 85.1446 30.2867 85.4181 30.1683C85.6916 30.05 85.9295 29.8901 86.1316 29.6889C86.3456 29.4876 86.5121 29.2509 86.631 28.9786C86.7499 28.6944 86.8094 28.3926 86.8094 28.0729V20.1473C86.8094 19.7582 87.1263 19.4427 87.5172 19.4427H89.2352V27.9309C89.2352 28.6885 89.1163 29.3574 88.8784 29.9375C88.6406 30.5176 88.3136 31.0029 87.8974 31.3936C87.4812 31.7843 86.9878 32.0802 86.417 32.2815C85.8462 32.4828 85.2219 32.5834 84.5441 32.5834Z" fill="#C5DADA"/>
<path d="M91.0047 20.2361C91.0047 19.8469 91.3216 19.5315 91.7125 19.5315H95.4639C96.1416 19.5315 96.7659 19.6558 97.3367 19.9044C97.9075 20.1411 98.401 20.4667 98.8171 20.881C99.2333 21.2954 99.5603 21.7867 99.7982 22.3549C100.036 22.9113 100.155 23.5092 100.155 24.1485C100.155 24.7877 100.036 25.3915 99.7982 25.9598C99.5603 26.528 99.2333 27.0193 98.8171 27.4336C98.401 27.848 97.9015 28.1795 97.3189 28.4281C96.7481 28.6648 96.1238 28.7832 95.446 28.7832H93.4305V31.7899C93.4305 32.1791 93.1136 32.4946 92.7227 32.4946H91.0047V20.2361ZM93.4305 21.7689V26.5458H95.2855C95.6422 26.5458 95.9692 26.4866 96.2665 26.3682C96.5638 26.238 96.8194 26.0663 97.0335 25.8532C97.2475 25.6283 97.414 25.3737 97.5329 25.0896C97.6518 24.7937 97.7113 24.4799 97.7113 24.1485C97.7113 23.817 97.6518 23.5092 97.5329 23.2251C97.414 22.9291 97.2475 22.6746 97.0335 22.4615C96.8194 22.2484 96.5638 22.0826 96.2665 21.9643C95.9692 21.834 95.6422 21.7689 95.2855 21.7689H93.4305Z" fill="#C5DADA"/>
<path d="M0.587036 19.3277C0.587036 18.9385 0.90393 18.623 1.29484 18.623H8.71267C13.2003 18.623 16.8383 22.2771 16.8383 26.7847V34.2416C16.8383 34.6308 16.5214 34.9463 16.1305 34.9463H8.71267C4.22501 34.9463 0.587036 31.2922 0.587036 26.7847V19.3277Z" fill="#C5DADA"/>
<path d="M34.8174 19.3277C34.8174 18.9385 34.5005 18.623 34.1096 18.623H26.6917C22.2041 18.623 18.5661 22.2771 18.5661 26.7847V34.2416C18.5661 34.6308 18.883 34.9463 19.2739 34.9463H26.6917C31.1794 34.9463 34.8174 31.2922 34.8174 26.7847V19.3277Z" fill="#C5DADA"/>
<path d="M16.8383 1.25741C16.8383 0.868227 16.5214 0.552734 16.1305 0.552734H8.71267C4.22501 0.552734 0.587037 4.20682 0.587037 8.71436V16.1713C0.587037 16.5605 0.903931 16.876 1.29484 16.876H8.71267C13.2003 16.876 16.8383 13.2219 16.8383 8.71436V1.25741Z" fill="#C5DADA"/>
<path d="M18.5661 1.25741C18.5661 0.868227 18.883 0.552734 19.2739 0.552734H26.6917C31.1794 0.552734 34.8174 4.20682 34.8174 8.71436V16.1713C34.8174 16.5605 34.5005 16.876 34.1096 16.876H26.6917C22.2041 16.876 18.5661 13.2219 18.5661 8.71436V1.25741Z" fill="#C5DADA"/>
<path d="M90.8429 15.4813V14.6608H91.2635C91.2973 14.6608 91.334 14.6704 91.3737 14.6897C91.4135 14.7082 91.4472 14.7371 91.475 14.7764C91.5034 14.8149 91.5177 14.8639 91.5177 14.9232C91.5177 14.9832 91.5031 15.0343 91.4738 15.0766C91.4446 15.1181 91.409 15.1496 91.367 15.1711C91.3258 15.1926 91.2868 15.2034 91.25 15.2034H90.9464V15.0699H91.1938C91.2185 15.0699 91.2452 15.0577 91.2737 15.0332C91.3029 15.0088 91.3175 14.9721 91.3175 14.9232C91.3175 14.8728 91.3029 14.8387 91.2737 14.8209C91.2452 14.8031 91.22 14.7942 91.1983 14.7942H91.0251V15.4813H90.8429ZM91.3445 15.0944L91.5514 15.4813H91.3512L91.1488 15.0944H91.3445ZM91.1578 15.9705C91.0333 15.9705 90.9168 15.9476 90.808 15.9016C90.6993 15.8556 90.6037 15.7919 90.5213 15.7104C90.4388 15.6288 90.3743 15.5343 90.3278 15.4268C90.2813 15.3194 90.2581 15.2041 90.2581 15.081C90.2581 14.958 90.2813 14.8427 90.3278 14.7353C90.3743 14.6278 90.4388 14.5333 90.5213 14.4517C90.6037 14.3702 90.6993 14.3064 90.808 14.2605C90.9168 14.2145 91.0333 14.1916 91.1578 14.1916C91.2823 14.1916 91.3989 14.2145 91.5076 14.2605C91.6163 14.3064 91.7119 14.3702 91.7943 14.4517C91.8768 14.5333 91.9413 14.6278 91.9878 14.7353C92.0343 14.8427 92.0575 14.958 92.0575 15.081C92.0575 15.2041 92.0343 15.3194 91.9878 15.4268C91.9413 15.5343 91.8768 15.6288 91.7943 15.7104C91.7119 15.7919 91.6163 15.8556 91.5076 15.9016C91.3989 15.9476 91.2823 15.9705 91.1578 15.9705ZM91.1578 15.7571C91.2838 15.7571 91.3985 15.7267 91.5019 15.6659C91.6054 15.6051 91.6879 15.5236 91.7494 15.4213C91.8108 15.319 91.8416 15.2056 91.8416 15.081C91.8416 14.9565 91.8108 14.8431 91.7494 14.7408C91.6879 14.6385 91.6054 14.557 91.5019 14.4962C91.3985 14.4354 91.2838 14.405 91.1578 14.405C91.0318 14.405 90.9171 14.4354 90.8137 14.4962C90.7102 14.557 90.6277 14.6385 90.5662 14.7408C90.5048 14.8431 90.474 14.9565 90.474 15.081C90.474 15.2056 90.5048 15.319 90.5662 15.4213C90.6277 15.5236 90.7102 15.6051 90.8137 15.6659C90.9171 15.7267 91.0318 15.7571 91.1578 15.7571Z" fill="#C5DADA"/>
</svg>
