<svg width="100" height="35" viewBox="0 0 100 35" fill="none" xmlns="http://www.w3.org/2000/svg">
<path d="M43.8053 2.95411C43.9058 2.67335 44.1728 2.48587 44.4721 2.48587H46.4165L51.054 15.449H49.0252C48.7235 15.449 48.455 15.2587 48.3563 14.9748L47.7185 13.1405H42.6708L41.8681 15.449H39.3353L43.8053 2.95411ZM43.4913 10.832H46.9159L45.2036 5.91311L43.4913 10.832Z" fill="#69b0b2"/>
<path d="M56.9458 15.6266C55.7686 15.6266 54.7757 15.4076 53.9671 14.9696C53.1585 14.5197 52.4569 13.9633 51.8623 13.3003L53.4345 12.0633C53.7722 11.7976 54.2633 11.8973 54.546 12.2203C54.7738 12.4806 55.0267 12.6986 55.3048 12.8741C55.7923 13.1701 56.3334 13.3181 56.9279 13.3181C57.5701 13.3181 58.0576 13.1405 58.3905 12.7853C58.7354 12.4302 58.9078 12.0277 58.9078 11.5778C58.9078 11.3055 58.8305 11.0747 58.6759 10.8853C58.5213 10.6959 58.3192 10.536 58.0695 10.4058C57.8198 10.2638 57.5284 10.1394 57.1955 10.0329C56.8744 9.92635 56.5415 9.81981 56.1966 9.71326C55.7567 9.5712 55.3167 9.4173 54.8767 9.25156C54.4368 9.08582 54.0384 8.86681 53.6817 8.59452C53.3368 8.3104 53.0514 7.96708 52.8255 7.56457C52.6115 7.15022 52.5045 6.63525 52.5045 6.01965C52.5045 5.49876 52.6115 5.01338 52.8255 4.56352C53.0396 4.11366 53.3368 3.72298 53.7173 3.3915C54.1097 3.04819 54.5676 2.78183 55.0908 2.59241C55.6259 2.40299 56.2026 2.30829 56.8209 2.30829C57.3441 2.30829 57.8138 2.35564 58.23 2.45035C58.6581 2.54506 59.0446 2.67528 59.3894 2.84101C59.7461 3.00675 60.0672 3.20801 60.3526 3.44478C60.6498 3.66971 60.9293 3.91832 61.1909 4.19061L59.7906 5.2486C59.4664 5.49357 59.0086 5.40587 58.7071 5.13369C58.2073 4.68254 57.5845 4.45697 56.8388 4.45697C56.2442 4.45697 55.7923 4.59903 55.4832 4.88315C55.174 5.16728 55.0194 5.51651 55.0194 5.93086C55.0194 6.19131 55.0908 6.41032 55.2335 6.5879C55.3762 6.76547 55.5664 6.9253 55.8042 7.06736C56.0539 7.19758 56.3393 7.31596 56.6604 7.42251C56.9814 7.52906 57.3203 7.64153 57.6771 7.75991C58.117 7.90197 58.557 8.06771 58.997 8.25712C59.4488 8.4347 59.8531 8.67147 60.2099 8.96744C60.5785 9.25156 60.8758 9.60671 61.1017 10.0329C61.3276 10.4472 61.4406 10.9681 61.4406 11.5956C61.4406 12.1046 61.3395 12.6019 61.1374 13.0872C60.9352 13.5726 60.6439 14.0047 60.2634 14.3835C59.8829 14.7505 59.4132 15.0524 58.8543 15.2892C58.2954 15.5141 57.6592 15.6266 56.9458 15.6266Z" fill="#69b0b2"/>
<path d="M63.5672 2.48587H65.9752L69.9171 7.93749L74.0195 2.48587H75.6126C76.0035 2.48587 76.3204 2.80136 76.3204 3.19054V15.449H73.8946V6.35704L69.8992 11.7199L65.993 6.44583V15.449H64.275C63.8841 15.449 63.5672 15.1335 63.5672 14.7443V2.48587Z" fill="#69b0b2"/>
<path d="M82.4254 2.48587H84.3697C84.6691 2.48587 84.9361 2.67335 85.0365 2.95411L89.5065 15.449H86.9737L86.1711 13.1405H81.1233L80.3207 15.449H78.7913C78.3021 15.449 77.9604 14.9667 78.1245 14.5079L82.4254 2.48587ZM81.9438 10.832H85.3684L83.6561 5.91311L81.9438 10.832Z" fill="#69b0b2"/>
<path d="M46.0954 32.1536C45.0847 32.1536 44.1631 31.976 43.3307 31.6209C42.4984 31.2657 41.7849 30.7863 41.1903 30.1825C40.5958 29.5669 40.138 28.8566 39.8169 28.0516C39.4959 27.2466 39.3353 26.3942 39.3353 25.4945C39.3353 24.5711 39.5018 23.7069 39.8348 22.9018C40.1677 22.085 40.6255 21.3806 41.2082 20.7887C41.8027 20.1849 42.5043 19.7114 43.3129 19.3681C44.1334 19.0129 45.0252 18.8353 45.9884 18.8353C46.6662 18.8353 47.3024 18.9182 47.8969 19.0839C48.4915 19.2378 49.0385 19.4628 49.5379 19.7587C50.0492 20.0547 50.5011 20.4098 50.8935 20.8242C51.2978 21.2267 51.6367 21.6706 51.9102 22.156L50.405 23.0551C50.0589 23.2618 49.6144 23.1345 49.3744 22.8115C49.0442 22.3672 48.6587 22.0125 48.218 21.7476C47.5996 21.3688 46.8624 21.1793 46.0062 21.1793C45.3998 21.1793 44.835 21.2977 44.3118 21.5345C43.8004 21.7594 43.3486 22.0672 42.9562 22.4579C42.5756 22.8486 42.2784 23.3043 42.0643 23.8252C41.8503 24.3461 41.7433 24.9025 41.7433 25.4945C41.7433 26.0982 41.8503 26.6606 42.0643 27.1815C42.2784 27.7023 42.5756 28.1581 42.9562 28.5488C43.3486 28.9395 43.8123 29.2473 44.3474 29.4722C44.8825 29.6971 45.4652 29.8096 46.0954 29.8096C47.0705 29.8096 47.8791 29.5551 48.5212 29.046C49.1752 28.537 49.6211 27.8562 49.8589 27.0039H46.4108C46.0199 27.0039 45.703 26.6884 45.703 26.2992V24.6954H52.4631V25.6543C52.4631 26.5303 52.3144 27.365 52.0172 28.1581C51.7199 28.9395 51.2918 29.6261 50.7329 30.218C50.1859 30.81 49.5201 31.2835 48.7352 31.6386C47.9504 31.982 47.0705 32.1536 46.0954 32.1536Z" fill="#69b0b2"/>
<path d="M54.3741 31.976V19.7176C54.3741 19.3284 54.691 19.0129 55.0819 19.0129H58.5479C59.3208 19.0129 60.0046 19.1254 60.5991 19.3503C61.2056 19.5634 61.7169 19.8712 62.1331 20.2737C62.5493 20.6644 62.8644 21.1379 63.0784 21.6943C63.3043 22.2389 63.4173 22.8486 63.4173 23.5234C63.4173 24.3047 63.2271 25.0387 62.8465 25.7253C62.4779 26.4001 61.9369 26.9269 61.2234 27.3058L63.8275 31.976H61.0629L58.976 28.0161H56.7999V31.2714C56.7999 31.6605 56.483 31.976 56.0921 31.976H54.3741ZM58.3339 25.7963C58.8333 25.7963 59.2495 25.7372 59.5824 25.6188C59.9273 25.4886 60.2008 25.3169 60.4029 25.1038C60.617 24.8789 60.7656 24.6243 60.8488 24.3402C60.944 24.0561 60.9915 23.7542 60.9915 23.4346C60.9915 22.7716 60.7775 22.2448 60.3494 21.8541C59.9332 21.4635 59.2614 21.2681 58.3339 21.2681H56.7999V25.7963H58.3339Z" fill="#69b0b2"/>
<path d="M71.1884 32.1536C70.2609 32.1536 69.3929 31.982 68.5843 31.6386C67.7757 31.2835 67.0682 30.81 66.4617 30.218C65.8672 29.6143 65.3975 28.9099 65.0526 28.1049C64.7078 27.288 64.5354 26.4179 64.5354 25.4945C64.5354 24.5711 64.7078 23.7069 65.0526 22.9018C65.3975 22.0968 65.8672 21.3924 66.4617 20.7887C67.0682 20.1849 67.7757 19.7114 68.5843 19.368C69.3929 19.0129 70.2609 18.8353 71.1884 18.8353C72.1159 18.8353 72.984 19.0129 73.7926 19.368C74.6012 19.7114 75.3087 20.1849 75.9151 20.7887C76.5216 21.3924 76.9972 22.0968 77.3421 22.9018C77.6869 23.7069 77.8593 24.5711 77.8593 25.4945C77.8593 26.4179 77.6869 27.288 77.3421 28.1049C76.9972 28.9099 76.5216 29.6143 75.9151 30.218C75.3087 30.81 74.6012 31.2835 73.7926 31.6386C72.984 31.982 72.1159 32.1536 71.1884 32.1536ZM71.1884 29.7741C71.783 29.7741 72.3359 29.6616 72.8472 29.4367C73.3704 29.2118 73.8223 28.9099 74.2028 28.531C74.5952 28.1404 74.8984 27.6846 75.1125 27.1637C75.3384 26.6428 75.4514 26.0864 75.4514 25.4945C75.4514 24.9025 75.3384 24.3461 75.1125 23.8252C74.8984 23.3044 74.5952 22.8545 74.2028 22.4757C73.8223 22.085 73.3704 21.7772 72.8472 21.5523C72.3359 21.3273 71.783 21.2149 71.1884 21.2149C70.5939 21.2149 70.035 21.3273 69.5118 21.5523C69.0005 21.7772 68.5546 22.085 68.174 22.4757C67.7935 22.8545 67.4903 23.3044 67.2644 23.8252C67.0503 24.3461 66.9433 24.9025 66.9433 25.4945C66.9433 26.0864 67.0503 26.6428 67.2644 27.1637C67.4903 27.6846 67.7935 28.1404 68.174 28.531C68.5546 28.9099 69.0005 29.2118 69.5118 29.4367C70.035 29.6616 70.5939 29.7741 71.1884 29.7741Z" fill="#69b0b2"/>
<path d="M84.1075 32.0648C83.4297 32.0648 82.8054 31.9642 82.2346 31.7629C81.6639 31.5617 81.1644 31.2657 80.7364 30.8751C80.3202 30.4844 79.9932 29.999 79.7554 29.4189C79.5294 28.8388 79.4165 28.17 79.4165 27.4123V18.9241H81.1344C81.5253 18.9241 81.8422 19.2396 81.8422 19.6288V27.5544C81.8422 27.874 81.8958 28.1759 82.0028 28.46C82.1217 28.7323 82.2822 28.9691 82.4844 29.1703C82.6865 29.3716 82.9243 29.5314 83.1978 29.6498C83.4713 29.7682 83.7686 29.8274 84.0897 29.8274C84.4107 29.8274 84.708 29.7682 84.9815 29.6498C85.255 29.5314 85.4928 29.3716 85.695 29.1703C85.909 28.9691 86.0755 28.7323 86.1944 28.46C86.3133 28.1759 86.3727 27.874 86.3727 27.5544V19.6288C86.3727 19.2396 86.6896 18.9241 87.0806 18.9241H88.7985V27.4123C88.7985 28.17 88.6796 28.8388 88.4418 29.4189C88.204 29.999 87.877 30.4844 87.4608 30.8751C87.0446 31.2657 86.5511 31.5617 85.9803 31.7629C85.4096 31.9642 84.7853 32.0648 84.1075 32.0648Z" fill="#69b0b2"/>
<path d="M90.5681 19.7176C90.5681 19.3284 90.8849 19.0129 91.2759 19.0129H95.0272C95.705 19.0129 96.3293 19.1372 96.9001 19.3858C97.4708 19.6226 97.9643 19.9481 98.3805 20.3625C98.7967 20.7768 99.1237 21.2681 99.3615 21.8364C99.5993 22.3928 99.7183 22.9906 99.7183 23.6299C99.7183 24.2692 99.5993 24.873 99.3615 25.4412C99.1237 26.0094 98.7967 26.5007 98.3805 26.9151C97.9643 27.3294 97.4649 27.6609 96.8822 27.9095C96.3114 28.1463 95.6872 28.2647 95.0094 28.2647H92.9938V31.2714C92.9938 31.6605 92.6769 31.976 92.286 31.976H90.5681V19.7176ZM92.9938 21.2504V26.0272H94.8488C95.2056 26.0272 95.5326 25.968 95.8299 25.8496C96.1271 25.7194 96.3828 25.5477 96.5968 25.3346C96.8109 25.1097 96.9774 24.8552 97.0963 24.5711C97.2152 24.2751 97.2746 23.9614 97.2746 23.6299C97.2746 23.2984 97.2152 22.9906 97.0963 22.7065C96.9774 22.4105 96.8109 22.156 96.5968 21.9429C96.3828 21.7298 96.1271 21.5641 95.8299 21.4457C95.5326 21.3155 95.2056 21.2504 94.8488 21.2504H92.9938Z" fill="#69b0b2"/>
<path d="M0.150391 18.8092C0.150391 18.42 0.467285 18.1045 0.858193 18.1045H8.27602C12.7637 18.1045 16.4017 21.7586 16.4017 26.2661V33.7231C16.4017 34.1122 16.0848 34.4277 15.6939 34.4277H8.27602C3.78836 34.4277 0.150391 30.7737 0.150391 26.2661V18.8092Z" fill="#69b0b2"/>
<path d="M34.3807 18.8092C34.3807 18.42 34.0638 18.1045 33.6729 18.1045H26.2551C21.7674 18.1045 18.1295 21.7586 18.1295 26.2661V33.7231C18.1295 34.1122 18.4464 34.4277 18.8373 34.4277H26.2551C30.7428 34.4277 34.3807 30.7737 34.3807 26.2661V18.8092Z" fill="#69b0b2"/>
<path d="M16.4017 0.738852C16.4017 0.349672 16.0848 0.0341797 15.6939 0.0341797H8.27602C3.78836 0.0341797 0.150391 3.68827 0.150391 8.1958V15.6528C0.150391 16.0419 0.467286 16.3574 0.858194 16.3574H8.27602C12.7637 16.3574 16.4017 12.7033 16.4017 8.1958V0.738852Z" fill="#69b0b2"/>
<path d="M18.1295 0.738852C18.1295 0.349672 18.4464 0.0341797 18.8373 0.0341797H26.2551C30.7428 0.0341797 34.3807 3.68827 34.3807 8.1958V15.6528C34.3807 16.0419 34.0638 16.3574 33.6729 16.3574H26.2551C21.7674 16.3574 18.1295 12.7033 18.1295 8.1958V0.738852Z" fill="#69b0b2"/>
<path d="M90.4063 14.9628V14.1422H90.8269C90.8606 14.1422 90.8974 14.1518 90.9371 14.1711C90.9768 14.1896 91.0106 14.2186 91.0383 14.2578C91.0668 14.2964 91.081 14.3453 91.081 14.4046C91.081 14.4646 91.0664 14.5158 91.0372 14.558C91.0079 14.5996 90.9723 14.6311 90.9303 14.6526C90.8891 14.674 90.8501 14.6848 90.8134 14.6848H90.5097V14.5514H90.7571C90.7819 14.5514 90.8085 14.5391 90.837 14.5147C90.8662 14.4902 90.8809 14.4535 90.8809 14.4046C90.8809 14.3542 90.8662 14.3201 90.837 14.3023C90.8085 14.2845 90.7834 14.2756 90.7617 14.2756H90.5885V14.9628H90.4063ZM90.9079 14.5758L91.1148 14.9628H90.9146L90.7122 14.5758H90.9079ZM90.7212 15.452C90.5967 15.452 90.4801 15.429 90.3714 15.383C90.2627 15.3371 90.1671 15.2733 90.0846 15.1918C90.0021 15.1103 89.9377 15.0158 89.8912 14.9083C89.8447 14.8008 89.8214 14.6855 89.8214 14.5625C89.8214 14.4394 89.8447 14.3242 89.8912 14.2167C89.9377 14.1092 90.0021 14.0147 90.0846 13.9332C90.1671 13.8516 90.2627 13.7879 90.3714 13.7419C90.4801 13.696 90.5967 13.673 90.7212 13.673C90.8456 13.673 90.9622 13.696 91.0709 13.7419C91.1796 13.7879 91.2752 13.8516 91.3577 13.9332C91.4402 14.0147 91.5047 14.1092 91.5511 14.2167C91.5976 14.3242 91.6209 14.4394 91.6209 14.5625C91.6209 14.6855 91.5976 14.8008 91.5511 14.9083C91.5047 15.0158 91.4402 15.1103 91.3577 15.1918C91.2752 15.2733 91.1796 15.3371 91.0709 15.383C90.9622 15.429 90.8456 15.452 90.7212 15.452ZM90.7212 15.2385C90.8471 15.2385 90.9618 15.2081 91.0653 15.1473C91.1688 15.0865 91.2512 15.005 91.3127 14.9027C91.3742 14.8004 91.4049 14.687 91.4049 14.5625C91.4049 14.438 91.3742 14.3246 91.3127 14.2223C91.2512 14.12 91.1688 14.0384 91.0653 13.9777C90.9618 13.9169 90.8471 13.8865 90.7212 13.8865C90.5952 13.8865 90.4805 13.9169 90.377 13.9777C90.2736 14.0384 90.1911 14.12 90.1296 14.2223C90.0681 14.3246 90.0374 14.438 90.0374 14.5625C90.0374 14.687 90.0681 14.8004 90.1296 14.9027C90.1911 15.005 90.2736 15.0865 90.377 15.1473C90.4805 15.2081 90.5952 15.2385 90.7212 15.2385Z" fill="#69b0b2"/>
</svg>
