<svg width="35" height="36" viewBox="0 0 35 36" fill="none" xmlns="http://www.w3.org/2000/svg">
<path d="M0.740234 19.7517C0.740234 19.3625 1.05713 19.047 1.44804 19.047H8.86594C13.3537 19.047 16.9917 22.7012 16.9917 27.2087V34.6658C16.9917 35.055 16.6748 35.3704 16.2838 35.3704H8.86594C4.37824 35.3704 0.740234 31.7163 0.740234 27.2087V19.7517Z" fill="#C5DADA"/>
<path d="M34.9709 19.7517C34.9709 19.3625 34.654 19.047 34.2631 19.047H26.8452C22.3575 19.047 18.7195 22.7012 18.7195 27.2087V34.6658C18.7195 35.055 19.0364 35.3704 19.4273 35.3704H26.8452C31.3329 35.3704 34.9709 31.7163 34.9709 27.2087V19.7517Z" fill="#C5DADA"/>
<path d="M16.9917 1.68124C16.9917 1.29206 16.6748 0.976562 16.2838 0.976562H8.86595C4.37824 0.976562 0.740235 4.63068 0.740235 9.13827V16.5953C0.740235 16.9845 1.05713 17.3 1.44804 17.3H8.86595C13.3537 17.3 16.9917 13.6459 16.9917 9.13827V1.68124Z" fill="#C5DADA"/>
<path d="M18.7195 1.68124C18.7195 1.29206 19.0364 0.976562 19.4273 0.976562H26.8452C31.3329 0.976562 34.9709 4.63068 34.9709 9.13827V16.5953C34.9709 16.9845 34.654 17.3 34.2631 17.3H26.8452C22.3575 17.3 18.7195 13.6459 18.7195 9.13827V1.68124Z" fill="#C5DADA"/>
</svg>
