<svg width="28" height="28" viewBox="0 0 28 28" fill="none" xmlns="http://www.w3.org/2000/svg">
<path d="M13.2166 0.449717C11.2347 0.453821 11.3824 0.983158 12.4287 2.02542L15.8099 5.40661L9.99954 11.217C8.79724 12.4193 8.79724 14.3479 9.99954 15.5502L12.56 18.0779C13.7623 19.2761 15.6909 19.2802 16.8932 18.0779L22.7036 12.3003L26.0192 15.6158C27.1763 16.773 27.5949 16.8099 27.5949 14.828V4.02787C27.5949 0.41689 27.6318 0.449717 24.0167 0.449717H13.2166ZM5.40374 5.70205C2.57651 5.70205 0.282715 7.99585 0.282715 10.8231V22.6408C0.282715 25.4681 2.57651 27.7619 5.40374 27.7619H17.2215C20.0487 27.7619 22.3425 25.4681 22.3425 22.6408V15.9441L19.1911 19.0955V22.6408C19.1911 23.7282 18.3089 24.6105 17.2215 24.6105H5.40374C4.31634 24.6105 3.43412 23.7282 3.43412 22.6408V10.8231C3.43412 9.73568 4.31634 8.85345 5.40374 8.85345H9.01472L12.1661 5.70205H5.40374Z" fill="#69B0B2"/>
</svg>
