<svg width="30" height="32" viewBox="0 0 30 32" fill="none" xmlns="http://www.w3.org/2000/svg">
<path d="M5.90625 0.871094V2.18359H0.65625V31.0586H29.5312V2.18359H24.2812V0.871094H21.6562V2.18359H8.53125V0.871094H5.90625ZM3.28125 4.80859H5.90625V6.12109H8.53125V4.80859H21.6562V6.12109H24.2812V4.80859H26.9062V7.43359H3.28125V4.80859ZM3.28125 10.0586H26.9062V28.4336H3.28125V10.0586ZM11.1562 12.6836V15.3086H13.7812V12.6836H11.1562ZM16.4062 12.6836V15.3086H19.0312V12.6836H16.4062ZM21.6562 12.6836V15.3086H24.2812V12.6836H21.6562ZM5.90625 17.9336V20.5586H8.53125V17.9336H5.90625ZM11.1562 17.9336V20.5586H13.7812V17.9336H11.1562ZM16.4062 17.9336V20.5586H19.0312V17.9336H16.4062ZM21.6562 17.9336V20.5586H24.2812V17.9336H21.6562ZM5.90625 23.1836V25.8086H8.53125V23.1836H5.90625ZM11.1562 23.1836V25.8086H13.7812V23.1836H11.1562ZM16.4062 23.1836V25.8086H19.0312V23.1836H16.4062Z" fill="white"/>
</svg>
