<svg width="42" height="42" viewBox="0 0 42 42" fill="none" xmlns="http://www.w3.org/2000/svg">
<path d="M3.9468 0.876953C0.806721 0.876953 0.826237 2.50134 0.826237 2.92795C0.805727 13.1829 5.6032 23.0855 12.6115 30.0917C19.6197 37.0979 29.5202 41.8974 39.7752 41.8769C40.2018 41.8769 41.8262 41.8964 41.8262 38.7563V30.1477C41.8262 29.1243 41.0589 28.2673 40.0396 28.1688C38.3167 28.0007 35.6773 27.6609 33.6222 27.0272C32.6951 26.7421 31.979 26.4799 31.415 26.246C30.935 26.0471 30.39 26.1553 30.0249 26.5224L25.302 31.2453C22.3752 29.662 19.7025 27.6707 17.3664 25.3367C15.0303 23.0027 13.0391 20.3279 11.4578 17.4011L16.1807 12.6782C16.5478 12.3111 16.654 11.7661 16.4571 11.2882C16.2233 10.7241 15.961 10.008 15.6759 9.08095C15.0442 7.02585 14.7025 4.3864 14.5343 2.66356C14.4358 1.64422 13.5788 0.876953 12.5554 0.876953H3.9468ZM33.6222 3.95345L24.3927 11.1319L33.6222 18.3104V13.1829H41.8262V9.08095H33.6222V3.95345Z" fill="white"/>
</svg>
