<svg width="37" height="41" viewBox="0 0 37 41" fill="none" xmlns="http://www.w3.org/2000/svg">
<path fill-rule="evenodd" clip-rule="evenodd" d="M25.8828 19.417C31.6841 19.4173 36.3877 24.1205 36.3877 29.9219C36.3872 35.7229 31.6839 40.4264 25.8828 40.4268C20.0815 40.4268 15.3784 35.7231 15.3779 29.9219C15.3779 24.1202 20.0812 19.417 25.8828 19.417ZM22.6221 26.8721C21.611 26.8723 20.791 27.693 20.791 28.7041V33.2832H18.959L22.0117 36.3359L25.0645 33.2832H23.2334V29.3145H27.5068V26.8721H22.6221ZM26.2861 25.957H28.1172V29.9248H23.8438V32.3672H28.7285C29.7395 32.367 30.5594 31.5471 30.5596 30.5361V25.957H32.3916L29.3389 22.9033L26.2861 25.957Z" fill="#69B0B2"/>
<path d="M15.4316 23.2363C14.194 25.1673 13.4678 27.458 13.4678 29.9219C13.468 33.2373 14.7775 36.2409 16.8945 38.4678C16.3963 38.4983 15.8905 38.5166 15.3779 38.5166C6.81013 38.5166 0.0974037 34.1953 0.0966797 28.6797V27.5342C0.0966797 25.1648 2.02615 23.2363 4.39551 23.2363H15.4316Z" fill="#69B0B2"/>
<path d="M15.3779 0.31543C20.6433 0.315842 24.9276 4.60074 24.9277 9.86621C24.9275 15.1316 20.6433 19.4166 15.3779 19.417C10.1122 19.417 5.82839 15.1319 5.82812 9.86621C5.8283 4.60049 10.1122 0.31543 15.3779 0.31543Z" fill="#69B0B2"/>
</svg>
