<svg width="28" height="28" viewBox="0 0 28 28" fill="none" xmlns="http://www.w3.org/2000/svg">
<path d="M3.1376 0.681641C2.55345 0.681641 1.99322 0.913693 1.58017 1.32675C1.16711 1.7398 0.935059 2.30003 0.935059 2.88418V9.49179C0.935775 9.94797 1.07812 10.3927 1.34243 10.7645C1.60674 11.1363 1.97997 11.4168 2.41059 11.5674C2.64406 11.6503 2.88985 11.6932 3.1376 11.6943C3.14548 11.6944 3.15337 11.6944 3.16126 11.6943L16.3528 13.8969L3.16126 16.1016C3.15337 16.1008 3.14549 16.1001 3.1376 16.0994C2.88912 16.1003 2.64259 16.1432 2.40844 16.2263C1.97822 16.3772 1.60545 16.658 1.34155 17.0297C1.07765 17.4015 0.935619 17.846 0.935059 18.3019V24.9096C0.935059 25.4937 1.16711 26.0539 1.58017 26.467C1.99322 26.88 2.55345 27.1121 3.1376 27.1121C3.52107 27.1114 3.89772 27.0105 4.23026 26.8196H4.23241L26.6944 14.9121L26.6966 14.9078C26.8947 14.8232 27.0637 14.6823 27.1826 14.5027C27.3016 14.323 27.3651 14.1123 27.3655 13.8969C27.3658 13.6804 27.3023 13.4687 27.1829 13.2881C27.0636 13.1076 26.8937 12.9662 26.6944 12.8816L4.23241 0.974165C3.89923 0.782837 3.5218 0.681991 3.1376 0.681641Z" fill="white"/>
</svg>
