<svg width="28" height="32" viewBox="0 0 28 32" fill="none" xmlns="http://www.w3.org/2000/svg">
<path d="M19.4407 0.0380859C17.4413 0.0380859 15.4439 0.81178 13.9462 2.35515L3.07895 13.5522C-0.984323 17.7403 -0.984323 24.4728 3.07895 28.661C3.20421 28.7899 3.35474 28.8929 3.52159 28.9639C3.52423 28.9648 3.52688 28.9656 3.52954 28.9665C7.62335 32.7556 14.0091 32.7133 17.9405 28.661L25.5847 20.783C25.7141 20.658 25.8165 20.5089 25.8857 20.3445C25.9549 20.1802 25.9896 20.0039 25.9877 19.8262C25.9857 19.6484 25.9472 19.4729 25.8745 19.31C25.8017 19.1471 25.6961 19.0002 25.564 18.8779C25.4319 18.7557 25.276 18.6606 25.1056 18.5984C24.9351 18.5362 24.7536 18.5081 24.5718 18.5158C24.39 18.5235 24.2116 18.5668 24.0473 18.6432C23.883 18.7196 23.7361 18.8274 23.6153 18.9604L15.9712 26.8384C12.9153 29.9882 8.10679 29.9882 5.05095 26.8384C1.99499 23.6885 1.99499 18.5246 5.05095 15.3747L15.9155 4.17774C17.9033 2.12943 20.9809 2.12943 22.9686 4.17774C24.9561 6.22584 24.9561 9.60638 22.9686 11.6545L13.0794 21.847C12.1581 22.7957 10.8133 22.795 9.89349 21.847C8.97371 20.8989 8.97371 19.3026 9.89349 18.3546L17.8478 10.1555C17.9772 10.0306 18.0795 9.88147 18.1488 9.7171C18.218 9.55273 18.2527 9.37644 18.2507 9.19872C18.2488 9.02099 18.2103 8.84546 18.1375 8.68256C18.0648 8.51966 17.9592 8.37272 17.8271 8.25048C17.695 8.12823 17.5391 8.03318 17.3686 7.97097C17.1982 7.90876 17.0167 7.88067 16.8349 7.88836C16.6531 7.89605 16.4747 7.93937 16.3104 8.01575C16.1461 8.09212 15.9992 8.19998 15.8784 8.33293L7.92149 16.532C5.99411 18.5186 5.99411 21.6829 7.92149 23.6696C8.05013 23.8018 8.20533 23.9067 8.37738 23.9777C10.3324 25.5729 13.253 25.5189 15.0488 23.6696L24.938 13.4771C27.81 10.5175 27.8513 5.88578 25.2163 2.78491C25.1528 2.62546 25.0583 2.47952 24.938 2.35515C23.4402 0.81178 21.4401 0.0380859 19.4407 0.0380859Z" fill="white"/>
</svg>
