<svg width="23" height="23" viewBox="0 0 23 23" fill="none" xmlns="http://www.w3.org/2000/svg">
<path d="M9.49782 11.3782L8.77285 14.2328C8.72754 14.3687 8.77285 14.55 8.90878 14.6859C8.99941 14.7765 9.13534 14.8218 9.22596 14.8218C9.27127 14.8218 9.31658 14.8218 9.31658 14.8218L12.1712 14.0969C12.2618 14.0969 12.3071 14.0515 12.3977 13.9609L21.0068 5.39717L18.1975 2.58789L9.58845 11.197C9.54314 11.2423 9.49782 11.2876 9.49782 11.3782Z" fill="#69B0B2"/>
<path d="M22.2756 8.84112H18.7414L13.7118 13.8706H20.0101C20.2819 13.8706 20.4632 14.0519 20.4632 14.3237C20.4632 14.5956 20.2819 14.7768 20.0101 14.7768H12.715C12.6244 14.8222 12.4885 14.9128 12.3525 14.9128L9.54325 15.6377C9.45263 15.6831 9.31669 15.6831 9.22607 15.6831C8.86358 15.6831 8.5011 15.5471 8.27454 15.2753C8.13861 15.1393 8.04799 14.9581 7.95737 14.7768H3.69814C3.42628 14.7768 3.24504 14.5956 3.24504 14.3237C3.24504 14.0519 3.42628 13.8706 3.69814 13.8706H7.91206L8.36516 12.0129H3.69814C3.42628 12.0129 3.24504 11.8316 3.24504 11.5598C3.24504 11.2879 3.42628 11.1067 3.69814 11.1067H8.63703C8.68234 10.8801 8.81827 10.6989 8.99952 10.5176L10.676 8.84112H1.4326C1.16074 8.84112 0.979492 9.02236 0.979492 9.29423V22.1172C0.979492 22.3891 1.16074 22.5703 1.4326 22.5703H22.2756C22.5475 22.5703 22.7287 22.3891 22.7287 22.1172V9.29423C22.7287 9.06767 22.5475 8.84112 22.2756 8.84112ZM13.3494 17.5408H3.69814C3.42628 17.5408 3.24504 17.3596 3.24504 17.0877C3.24504 16.8158 3.42628 16.6346 3.69814 16.6346H13.3494C13.6212 16.6346 13.8025 16.8158 13.8025 17.0877C13.8025 17.3596 13.6212 17.5408 13.3494 17.5408ZM20.0101 20.3048H17.0195C16.7477 20.3048 16.5664 20.1235 16.5664 19.8517C16.5664 19.5798 16.7477 19.3986 17.0195 19.3986H20.0101C20.2819 19.3986 20.4632 19.5798 20.4632 19.8517C20.4632 20.1235 20.2819 20.3048 20.0101 20.3048ZM22.3662 3.94754C22.8193 3.44912 22.8193 2.72415 22.3662 2.22573L21.3241 1.18358C20.871 0.730473 20.1007 0.730473 19.6023 1.18358L18.832 1.95387L21.5959 4.71783L22.3662 3.94754Z" fill="#69B0B2"/>
</svg>
