<svg width="32" height="32" viewBox="0 0 32 32" fill="none" xmlns="http://www.w3.org/2000/svg">
<path d="M8.59997 0.871094C5.27387 2.54136 2.56871 5.24653 0.898438 8.57262L3.09337 9.65084C4.52297 6.80127 6.82862 4.49563 9.67818 3.06603L8.59997 0.871094ZM24.003 0.871094L22.9248 3.06603C25.7744 4.49563 28.08 6.80127 29.5096 9.65084L31.7046 8.57262C30.0343 5.24653 27.3291 2.54136 24.003 0.871094ZM16.3015 2.71946C8.83101 2.71946 2.7468 8.80367 2.7468 16.2742C2.7468 19.9131 4.18122 23.2344 6.52056 25.67L3.94054 29.7518L6.01996 31.0611L8.40743 27.2873C10.6312 28.8854 13.3653 29.8289 16.3015 29.8289C19.2377 29.8289 21.9718 28.8854 24.1956 27.2873L26.5445 31.0611L28.6239 29.7518L26.0824 25.67C28.4218 23.2344 29.8562 19.9131 29.8562 16.2742C29.8562 8.80367 23.772 2.71946 16.3015 2.71946ZM16.3015 5.18395C22.4387 5.18395 27.3917 10.137 27.3917 16.2742C27.3917 22.4113 22.4387 27.3644 16.3015 27.3644C10.1643 27.3644 5.21129 22.4113 5.21129 16.2742C5.21129 10.137 10.1643 5.18395 16.3015 5.18395ZM15.0693 7.64844V17.5064H22.4627V15.0419H17.5337V7.64844H15.0693Z" fill="white"/>
</svg>
