<svg width="36" height="37" viewBox="0 0 36 37" fill="none" xmlns="http://www.w3.org/2000/svg">
<path d="M12.5624 0.867188H3.73994C1.79369 0.867188 0.210938 2.44994 0.210938 4.39619V16.7477C0.210938 18.6939 1.79369 20.2767 3.73994 20.2767H12.5624C14.5087 20.2767 16.0914 18.6939 16.0914 16.7477V4.39619C16.0914 2.44994 14.5087 0.867188 12.5624 0.867188ZM31.9719 0.867188H23.1494C21.2032 0.867188 19.6204 2.44994 19.6204 4.39619V9.68969C19.6204 11.6359 21.2032 13.2187 23.1494 13.2187H31.9719C33.9182 13.2187 35.5009 11.6359 35.5009 9.68969V4.39619C35.5009 2.44994 33.9182 0.867188 31.9719 0.867188ZM12.5624 23.8057H3.73994C1.79369 23.8057 0.210938 25.3884 0.210938 27.3347V32.6282C0.210938 34.5744 1.79369 36.1572 3.73994 36.1572H12.5624C14.5087 36.1572 16.0914 34.5744 16.0914 32.6282V27.3347C16.0914 25.3884 14.5087 23.8057 12.5624 23.8057ZM31.9719 16.7477H23.1494C21.2032 16.7477 19.6204 18.3304 19.6204 20.2767V32.6282C19.6204 34.5744 21.2032 36.1572 23.1494 36.1572H31.9719C33.9182 36.1572 35.5009 34.5744 35.5009 32.6282V20.2767C35.5009 18.3304 33.9182 16.7477 31.9719 16.7477Z" fill="#69B0B2"/>
</svg>
