<svg width="1021" height="1021" viewBox="0 0 1021 1021" fill="none" xmlns="http://www.w3.org/2000/svg">
<rect x="0.810547" y="0.987305" width="1019.48" height="1019.48" fill="#C5DADA"/>
<path d="M621.628 739.651C618.286 703.33 619.605 678.001 619.605 644.845C636.051 636.227 665.513 581.26 670.438 534.825C683.366 533.77 703.769 521.193 709.75 471.416C712.916 444.68 700.164 429.641 692.336 424.892C713.356 361.659 757.065 165.979 611.602 145.752C596.563 119.456 558.219 106.176 508.441 106.176C309.067 109.87 285.058 256.739 328.767 424.892C320.94 429.641 308.188 444.68 311.354 471.416C317.422 521.193 337.738 533.77 350.666 534.825C355.591 581.26 386.196 636.227 402.73 644.845C402.73 678.001 403.961 703.33 400.619 739.651C361.219 845.714 95.0947 815.901 82.7822 1020.46H938.322C926.009 815.901 661.028 845.714 621.628 739.651Z" fill="#69B0B2"/>
</svg>
