<svg width="23" height="23" viewBox="0 0 23 23" fill="none" xmlns="http://www.w3.org/2000/svg">
<path d="M11.3096 0.456055C5.24992 0.456055 0.336914 5.36906 0.336914 11.4287C0.336914 17.4884 5.24992 22.4014 11.3096 22.4014C17.3692 22.4014 22.2822 17.4884 22.2822 11.4287C22.2822 5.36906 17.3692 0.456055 11.3096 0.456055ZM12.6025 11.4287C12.6025 11.4287 15.4728 14.299 15.6136 14.4398C15.9711 14.7973 15.9711 15.3761 15.6136 15.7327C15.2561 16.0903 14.6773 16.0903 14.3206 15.7327C14.1798 15.5928 11.3096 12.7217 11.3096 12.7217C11.3096 12.7217 8.43931 15.5919 8.29849 15.7327C7.94096 16.0903 7.36216 16.0903 7.00555 15.7327C6.64802 15.3752 6.64802 14.7964 7.00555 14.4398C7.14545 14.299 10.0166 11.4287 10.0166 11.4287C10.0166 11.4287 7.14636 8.55845 7.00555 8.41763C6.64802 8.06011 6.64802 7.4813 7.00555 7.12469C7.36307 6.76716 7.94188 6.76716 8.29849 7.12469C8.43931 7.26459 11.3096 10.1358 11.3096 10.1358C11.3096 10.1358 14.1798 7.2655 14.3206 7.12469C14.6782 6.76716 15.257 6.76716 15.6136 7.12469C15.9711 7.48221 15.9711 8.06102 15.6136 8.41763C15.4737 8.55845 12.6025 11.4287 12.6025 11.4287Z" fill="#69B0B2"/>
</svg>
