<svg width="27" height="35" viewBox="0 0 27 35" fill="none" xmlns="http://www.w3.org/2000/svg">
<path d="M26.2042 9.65879L17.8666 1.32115C17.6254 1.08 17.2996 0.945312 16.9597 0.945312H3.49121C2.07381 0.945312 0.925781 2.09334 0.925781 3.51074V31.7305C0.925781 33.1479 2.07381 34.2959 3.49121 34.2959H24.0146C25.432 34.2959 26.5801 33.1479 26.5801 31.7305V10.5657C26.5801 10.2258 26.4454 9.89995 26.2042 9.65879ZM17.6011 25.3169H7.33936C6.6313 25.3169 6.05664 24.7422 6.05664 24.0342C6.05664 23.3261 6.6313 22.7515 7.33936 22.7515H17.6011C18.3091 22.7515 18.8838 23.3261 18.8838 24.0342C18.8838 24.7422 18.3091 25.3169 17.6011 25.3169ZM20.1665 20.186H7.33936C6.6313 20.186 6.05664 19.6114 6.05664 18.9033C6.05664 18.1953 6.6313 17.6206 7.33936 17.6206H20.1665C20.8746 17.6206 21.4492 18.1953 21.4492 18.9033C21.4492 19.6114 20.8746 20.186 20.1665 20.186ZM17.6011 11.207C16.893 11.207 16.3184 10.6324 16.3184 9.92432V3.3876L24.1378 11.207H17.6011Z" fill="white"/>
</svg>
