<svg width="31" height="35" viewBox="0 0 31 35" fill="none" xmlns="http://www.w3.org/2000/svg">
<path fill-rule="evenodd" clip-rule="evenodd" d="M22.1758 16.7975C27.0343 16.7976 30.9731 20.7363 30.9731 25.5948C30.9729 30.4532 27.0342 34.392 22.1758 34.3921C17.3173 34.3921 13.3786 30.4532 13.3785 25.5948C13.3785 20.7362 17.3172 16.7975 22.1758 16.7975ZM16.8763 28.1734V30.4069H19.1098L25.2933 24.2233L23.0598 21.9899L16.8763 28.1734ZM23.903 21.1467L26.1365 23.3802L27.4842 22.0324L25.2508 19.7989L23.903 21.1467Z" fill="#69B0B2"/>
<path d="M13.4235 19.996C12.387 21.6131 11.7788 23.5314 11.7788 25.5948C11.7789 28.3715 12.8755 30.8866 14.6485 32.7516C14.2311 32.7771 13.8079 32.7924 13.3785 32.7925C6.20317 32.7925 0.582306 29.1738 0.582031 24.5545V23.5952C0.582031 21.611 2.19705 19.996 4.18126 19.996H13.4235Z" fill="#69B0B2"/>
<path d="M13.3785 0.801758C17.7882 0.801882 21.3758 4.38953 21.3759 8.79923C21.3759 13.209 17.7883 16.7974 13.3785 16.7975C8.96858 16.7975 5.381 13.2091 5.381 8.79923C5.38115 4.38945 8.96867 0.801758 13.3785 0.801758Z" fill="#69B0B2"/>
</svg>
