<svg width="41" height="41" viewBox="0 0 41 41" fill="none" xmlns="http://www.w3.org/2000/svg">
<path d="M10.7295 2.65495V5.98828H9.06283C7.22949 5.98828 5.72949 7.48828 5.72949 9.32162V32.6549C5.72949 34.4883 7.22949 35.9883 9.06283 35.9883H32.3962C34.2295 35.9883 35.7295 34.4883 35.7295 32.6549V9.32162C35.7295 7.48828 34.2295 5.98828 32.3962 5.98828H30.7295V2.65495H27.3962V5.98828H14.0628V2.65495H10.7295ZM9.06283 9.32162H32.3962V12.6549H9.06283V9.32162ZM9.06283 15.9883H32.3962V32.6549H9.06283V15.9883ZM12.3962 19.3216V22.6549H19.0628V19.3216H12.3962ZM22.3962 22.6549V25.9883H29.0628V22.6549H22.3962ZM12.3962 25.9883V29.3216H19.0628V25.9883H12.3962Z" fill="#69B0B2"/>
</svg>
