<svg width="41" height="41" viewBox="0 0 41 41" fill="none" xmlns="http://www.w3.org/2000/svg">
<path d="M1.71424 0.368164C0.866887 0.368164 0.175781 1.05927 0.175781 1.90663V23.4451C0.175781 25.1278 1.57001 26.522 3.2527 26.522H17.9162C18.4691 26.528 18.9859 26.2396 19.2683 25.7588C19.5448 25.278 19.5448 24.6891 19.2683 24.2083C18.9859 23.7275 18.4691 23.4391 17.9162 23.4451H3.2527V8.06047H37.0989V23.4451H31.7142C31.1614 23.4391 30.6445 23.7275 30.3621 24.2083C30.0856 24.6891 30.0856 25.278 30.3621 25.7588C30.6445 26.2396 31.1614 26.528 31.7142 26.522H37.0989C38.7816 26.522 40.1758 25.1278 40.1758 23.4451V1.90663C40.1758 1.05927 39.4847 0.368164 38.6373 0.368164H1.71424ZM6.66617 11.1374C5.81881 11.2576 5.22386 12.0448 5.34405 12.8922C5.46424 13.7396 6.2515 14.3345 7.09886 14.2143H19.4066C19.9594 14.2203 20.4763 13.9319 20.7587 13.4511C21.0352 12.9703 21.0352 12.3814 20.7587 11.9006C20.4763 11.4198 19.9594 11.1314 19.4066 11.1374H7.09886C7.05078 11.1374 7.0027 11.1374 6.95463 11.1374C6.90655 11.1374 6.85847 11.1374 6.8104 11.1374C6.76232 11.1374 6.71424 11.1374 6.66617 11.1374ZM26.6662 11.1374C25.8188 11.2576 25.2239 12.0448 25.3441 12.8922C25.4642 13.7396 26.2515 14.3345 27.0989 14.2143H33.2527C33.8056 14.2203 34.3224 13.9319 34.6049 13.4511C34.8813 12.9703 34.8813 12.3814 34.6049 11.9006C34.3224 11.4198 33.8056 11.1314 33.2527 11.1374H27.0989C27.0508 11.1374 27.0027 11.1374 26.9546 11.1374C26.9066 11.1374 26.8585 11.1374 26.8104 11.1374C26.7623 11.1374 26.7142 11.1374 26.6662 11.1374ZM6.66617 15.7528C5.81881 15.873 5.22386 16.6602 5.34405 17.5076C5.46424 18.3549 6.2515 18.9499 7.09886 18.8297H19.4066C19.9594 18.8357 20.4763 18.5473 20.7587 18.0665C21.0352 17.5857 21.0352 16.9968 20.7587 16.516C20.4763 16.0352 19.9594 15.7468 19.4066 15.7528H7.09886C7.05078 15.7528 7.0027 15.7528 6.95463 15.7528C6.90655 15.7528 6.85847 15.7528 6.8104 15.7528C6.76232 15.7528 6.71424 15.7528 6.66617 15.7528ZM32.2431 16.522C32.1289 16.5761 32.0267 16.6602 31.9546 16.7624L31.0892 17.6278C29.4666 17.8381 26.6181 19.647 25.8969 20.3682L17.7239 28.5412L21.3296 32.147L29.5027 23.9739C30.1097 23.367 32.0448 20.284 32.195 18.6374L33.0123 17.8201C33.2467 17.5797 33.3008 17.2251 33.1445 16.9247C32.9943 16.6302 32.6698 16.4679 32.3392 16.522C32.3092 16.522 32.2731 16.522 32.2431 16.522ZM16.2816 29.9355L10.3681 35.8489C9.62891 36.5881 9.28035 38.6073 10.2719 39.5989C11.2575 40.5905 13.0664 40.3561 13.9739 39.4547L19.8873 33.5412L16.2816 29.9355ZM23.1566 31.4259C22.8801 31.4679 22.6277 31.6061 22.4354 31.8105L16.2335 37.9643C15.8669 38.2588 15.6986 38.7396 15.8068 39.1963C15.909 39.659 16.2695 40.0196 16.7323 40.1218C17.189 40.2299 17.6698 40.0617 17.9642 39.6951L24.1662 33.5412C24.5568 33.1747 24.665 32.5977 24.4306 32.117C24.2022 31.6302 23.6854 31.3537 23.1566 31.4259Z" fill="white"/>
</svg>
