<svg width="29" height="30" viewBox="0 0 29 30" fill="none" xmlns="http://www.w3.org/2000/svg">
<path d="M14.4321 0.626953C6.56391 0.626953 0.162598 7.02826 0.162598 14.8965C0.162598 22.7647 6.56391 29.166 14.4321 29.166C22.3003 29.166 28.7017 22.7647 28.7017 14.8965C28.7017 7.02826 22.3003 0.626953 14.4321 0.626953ZM7.35872 12.8174L8.84703 11.3291L7.35872 9.84079L9.37643 7.82308L12.8825 11.3291L9.37643 14.8351L7.35872 12.8174ZM14.4321 22.0312C11.5782 22.0312 10.1513 20.8897 10.1513 20.8897C10.1513 20.8897 10.1513 16.3234 14.4321 16.3234C18.713 16.3234 18.713 20.8897 18.713 20.8897C18.713 20.8897 17.286 22.0312 14.4321 22.0312ZM19.4265 13.4695C18.2449 13.4695 17.286 12.5106 17.286 11.3291C17.286 10.1476 18.2449 9.18867 19.4265 9.18867C20.608 9.18867 21.5669 10.1476 21.5669 11.3291C21.5669 12.5106 20.608 13.4695 19.4265 13.4695Z" fill="white"/>
</svg>
