<svg width="221" height="130" viewBox="0 0 221 130" fill="none" xmlns="http://www.w3.org/2000/svg">
<path d="M205.382 36.5683C203.443 37.6181 201.29 38.0362 198.924 37.8227C197.429 37.6626 196.726 36.9686 196.815 35.7409C196.904 34.4954 197.58 33.7748 198.844 33.5791C201.886 33.5257 204.101 32.8762 205.489 31.6307C206.877 30.3852 207.74 28.5792 208.078 26.2128C208.434 23.8463 209.092 22.3606 210.053 21.7556C210.053 21.6488 210.32 21.5866 210.854 21.5688C212.758 21.9424 213.372 23.3748 212.695 25.8658C212.001 29.1397 211.094 31.4795 209.973 32.8851C208.852 34.273 207.322 35.5007 205.382 36.5683ZM219.048 5.84863C219.51 5.84863 219.848 6.09774 220.062 6.59594L219.555 8.41083C219.448 9.03358 215.631 9.85206 208.105 10.8663H207.945C206.699 10.8663 206.076 10.4036 206.076 9.47841C206.076 8.32186 206.779 7.53897 208.185 7.12973C210.124 6.7027 213.745 6.27567 219.048 5.84863Z" fill="white"/>
<path d="M198.07 33.1257C198.586 33.4104 199.093 33.5794 199.591 33.6328C200.089 33.6684 200.481 34.0154 200.765 34.6737C201.068 35.3321 201.059 35.9815 200.739 36.622C200.418 37.2448 199.938 37.6362 199.297 37.7964C198.675 37.9387 197.918 37.743 197.029 37.2092C196.157 36.6576 195.463 35.8569 194.947 34.8072C194.431 33.7574 194.831 32.414 196.148 30.777C197.483 29.1401 198.007 29.0511 197.723 30.5101C197.456 31.9692 197.571 32.841 198.07 33.1257ZM194.2 22.7168H194.333C195.472 22.7168 196.415 23.2773 197.162 24.3982C197.927 25.5192 198.274 27.1473 198.203 29.2824C198.15 31.3998 197.563 33.357 196.442 35.1541C195.321 36.9512 193.515 37.8765 191.024 37.9298C188.817 37.7519 187.296 36.8445 186.46 35.2075C184.823 37.1647 183.319 38.0366 181.949 37.8231C180.828 37.5206 180.25 36.8889 180.214 35.9281C180.161 34.9495 180.419 34.2823 180.988 33.9264C181.558 33.5527 182.172 33.3303 182.83 33.2592C183.506 33.1702 184.245 32.6275 185.045 31.6311C185.846 30.6347 187.091 28.8999 188.782 26.4266C190.472 23.9534 192.278 22.7168 194.2 22.7168ZM190.783 33.9264C191.798 34.1933 192.785 33.873 193.746 32.9656C194.725 32.0403 195.178 30.9995 195.107 29.8429C195.054 28.6686 194.653 27.9213 193.906 27.601C193.159 27.2807 192.189 27.9213 190.997 29.5226C189.805 31.124 189.12 32.1649 188.942 32.6453C189.155 33.2325 189.769 33.6595 190.783 33.9264Z" fill="white"/>
<path d="M185.019 12.2812H185.74C186.647 12.2812 187.261 12.8328 187.581 13.936V14.3363C187.581 15.0659 186.558 16.4804 184.512 18.58C180.526 23.2951 178.533 26.8626 178.533 29.2825V29.8963C178.8 32.3162 179.823 33.5261 181.603 33.5261C183.115 33.5261 183.871 34.14 183.871 35.3677V35.9816C183.871 37.0847 183.115 37.7075 181.603 37.8498C178.169 37.8498 175.838 35.9549 174.61 32.165L174.396 29.8963V29.6028C174.396 25.1723 177.662 19.5052 184.192 12.6015L185.019 12.2812Z" fill="white"/>
<path d="M164.788 22.7168H164.921C166.06 22.7168 167.003 23.2773 167.75 24.3982C168.515 25.5192 168.862 27.1473 168.791 29.2824C168.738 31.3998 168.15 33.357 167.03 35.1541C165.909 36.9512 164.103 37.8765 161.612 37.9298C159.405 37.7519 157.884 36.8445 157.048 35.2075C155.411 37.1647 153.907 38.0366 152.537 37.8231C151.416 37.5206 150.838 36.8889 150.802 35.9281C150.749 34.9495 151.007 34.2823 151.576 33.9264C152.146 33.5527 152.76 33.3303 153.418 33.2592C154.094 33.1702 154.832 32.6275 155.633 31.6311C156.434 30.6347 157.679 28.8999 159.37 26.4266C161.06 23.9534 162.866 22.7168 164.788 22.7168ZM161.371 33.9264C162.386 34.1933 163.373 33.873 164.334 32.9656C165.312 32.0403 165.766 30.9995 165.695 29.8429C165.642 28.6686 165.241 27.9213 164.494 27.601C163.747 27.2807 162.777 27.9213 161.585 29.5226C160.393 31.124 159.708 32.1649 159.53 32.6453C159.743 33.2325 160.357 33.6595 161.371 33.9264Z" fill="white"/>
<path d="M135.216 20.2344H136.043C137.342 20.2344 138.098 20.7148 138.312 21.6756L138.365 21.9959C138.365 23.4727 136.87 25.5812 133.881 28.3213L133.321 28.4548H133.054C131.844 28.4548 131.123 27.7163 130.892 26.2395C130.981 25.8837 131.319 25.3321 131.906 24.5848C127.511 25.3321 123.846 26.6843 120.91 28.6416C119.184 29.5846 116.666 31.5685 113.357 34.5933C110.652 37.547 109.3 40.1626 109.3 42.4401C109.3 44.3261 110.635 46.1143 113.304 47.8047C115.688 49.0324 118.366 49.6462 121.337 49.6462H122.618C126.728 49.6462 131.435 48.8278 136.737 47.1908C139.139 46.3012 141.203 45.3047 142.929 44.2016C145.936 42.1376 147.44 40.723 147.44 39.9579C147.44 39.4597 146.087 38.5345 143.383 37.1822C142.529 36.6129 142.102 35.9634 142.102 35.2339V35.1538C142.102 33.8727 142.84 33.161 144.317 33.0187H144.397L147.68 33.4457L148.56 33.5258L152.297 33.4457H152.484L153.391 33.3923C154.37 33.3923 155.046 34.0062 155.42 35.2339V35.6075C155.42 36.7819 154.699 37.4758 153.258 37.6893H152.43L151.043 37.7694C151.505 38.6235 151.737 39.3975 151.737 40.0914C151.737 41.7995 149.922 43.8012 146.292 46.0965C143.961 47.8047 140.883 49.3527 137.057 50.7405C131.684 52.502 126.337 53.3828 121.017 53.3828C112.779 53.3828 107.734 50.7494 105.884 45.4827C105.635 44.5574 105.51 43.6856 105.51 42.8671V42.3066C105.51 38.9615 108.153 34.9136 113.437 30.1629C117.263 27.0847 120.492 25.0385 123.125 24.0243C128.499 21.4977 132.529 20.2344 135.216 20.2344Z" fill="white"/>
<path d="M92.1925 36.5687C90.2531 37.6185 88.1001 38.0366 85.7336 37.8231C84.239 37.663 83.5362 36.969 83.6252 35.7413C83.7141 34.4958 84.3903 33.7752 85.6536 33.5795C88.6962 33.5261 90.9114 32.8766 92.2993 31.6311C93.6871 30.3856 94.5501 28.5796 94.8882 26.2131C95.244 23.8467 95.9024 22.3609 96.8632 21.756C96.8632 21.6492 97.1301 21.587 97.6639 21.5692C99.5677 21.9428 100.182 23.3752 99.5054 25.8662C98.8115 29.1401 97.9041 31.4799 96.7831 32.8855C95.6622 34.2734 94.132 35.5011 92.1925 36.5687ZM94.7814 6.38281C96.0803 6.38281 97.1835 7.23688 98.0909 8.94501V9.4788C98.0909 10.3685 97.308 10.9734 95.7422 11.2937H95.2084C93.8562 11.2937 93.0377 10.2617 92.753 8.1977C92.753 7.16571 93.4291 6.56074 94.7814 6.38281Z" fill="white"/>
<path d="M84.7456 29.7629C84.5855 30.2789 84.5232 30.9906 84.5588 31.8981C84.5944 32.7877 85.226 33.3126 86.4538 33.4728C87.5747 33.3838 88.2864 34.0332 88.5889 35.4211V35.9015C88.3042 37.2004 87.5658 37.8499 86.3737 37.8499C83.4378 37.8676 81.8187 36.7823 81.5162 34.5937C80.7333 35.8037 79.9237 36.6488 79.0874 37.1292C78.2512 37.6096 77.2192 37.8765 75.9915 37.9299C74.4079 37.6808 73.6695 36.8979 73.7762 35.5812C73.8652 34.2646 74.5769 33.4995 75.9114 33.2859C78.011 33.2859 79.6123 31.6312 80.7155 28.3217C81.8365 25.0122 82.7083 23.0283 83.3311 22.3699C83.9538 21.7116 84.6478 21.4981 85.4129 21.7294C86.8897 22.4767 87.1032 23.9179 86.0534 26.0531C85.3417 27.9925 84.9058 29.2291 84.7456 29.7629ZM86.2669 47.5915C86.6762 47.5915 86.9787 47.8406 87.1744 48.3388L86.7207 50.1537C86.6139 50.7765 83.162 51.595 76.3651 52.6092H76.205C75.084 52.6092 74.5235 52.1465 74.5235 51.2213C74.5235 50.0648 75.1552 49.2819 76.4185 48.8726C78.18 48.4456 81.4628 48.0186 86.2669 47.5915Z" fill="white"/>
<path d="M79.0077 12.2812H79.7283C80.6358 12.2812 81.2496 12.8328 81.5699 13.936V14.3363C81.5699 15.0659 80.5468 16.4804 78.5006 18.58C74.515 23.2951 72.5221 26.8626 72.5221 29.2825V29.8963C72.789 32.3162 73.8121 33.5261 75.5914 33.5261C77.1038 33.5261 77.86 34.14 77.86 35.3677V35.9816C77.86 37.0847 77.1038 37.7075 75.5914 37.8498C72.1574 37.8498 69.8265 35.9549 68.5988 32.165L68.3853 29.8963V29.6028C68.3853 25.1723 71.6503 19.5052 78.1803 12.6015L79.0077 12.2812Z" fill="white"/>
<path d="M66.0634 22.3967C66.8463 22.3967 67.4602 22.797 67.905 23.5977C68.0295 23.8468 68.0918 24.1226 68.0918 24.4251V24.5051C68.0918 24.9677 67.8249 25.5816 67.2911 26.3467C66.3125 28.0015 65.2538 29.674 64.1151 31.3643C63.3856 32.6454 62.2201 34.229 60.6188 36.1151C57.7541 39.8694 54.2311 44.0952 50.0497 48.7926C48.1992 50.821 46.5534 52.5914 45.1121 54.1038C44.436 54.8689 43.9823 55.2515 43.751 55.2515C43.5374 55.3582 43.2617 55.4116 42.9236 55.4116C42.1051 55.4116 41.4824 54.9668 41.0553 54.0771C40.9664 53.8458 40.9219 53.6323 40.9219 53.4366V53.2764C40.9219 52.6359 41.3133 51.9865 42.0962 51.3281C42.0962 51.2747 43.5997 49.7801 46.6067 46.8443C49.7739 43.6593 51.7667 41.533 52.5852 40.4655C54.9161 37.7253 56.8911 35.1454 58.5103 32.7255C60.5743 29.6295 62.5226 26.4624 64.3553 23.224C64.8001 22.6724 65.3695 22.3967 66.0634 22.3967ZM67.131 0.51123C68.4299 0.51123 69.5331 1.3653 70.4405 3.07343V3.60722C70.4405 4.47907 69.6576 5.08404 68.0918 5.42211H67.558C66.2058 5.42211 65.3873 4.39011 65.1026 2.32612C65.1026 1.29412 65.7787 0.689161 67.131 0.51123Z" fill="white"/>
<path d="M19.5968 22.5034C22.0878 22.5034 25.9133 22.8059 31.0733 23.4109C35.4148 24.1404 37.5856 25.8663 37.5856 28.5886C37.5856 30.9373 36.0643 33.028 33.0216 34.8607C31.7583 35.7859 29.1339 36.4976 25.1482 36.9958C23.3867 37.2805 21.5362 37.4229 19.5968 37.4229C17.6574 37.3695 16.6876 37.3072 16.6876 37.236C14.0721 37.7698 11.2519 37.9745 8.22707 37.8499C6.92817 37.6008 6.21645 36.9069 6.0919 35.7681C5.94956 34.6116 6.64349 33.8999 8.17369 33.633C9.27685 33.6152 10.0864 33.5796 10.6024 33.5262C10.4245 33.2593 10.3355 32.9924 10.3355 32.7255C10.3355 30.7861 11.4743 28.6954 13.7518 26.4535C15.1397 25.1902 16.5275 24.3183 17.9154 23.8379C18.3068 22.9482 18.8673 22.5034 19.5968 22.5034ZM27.7104 27.2542C27.835 27.4499 27.8973 27.6723 27.8973 27.9214C27.8973 29.1669 27.1055 30.7861 25.5219 32.7789C27.4969 32.5476 29.1428 32.1472 30.4594 31.5779C32.4523 30.4035 33.4487 29.3893 33.4487 28.5353C33.4487 28.1794 32.1053 27.7879 29.4186 27.3609L27.7104 27.1741V27.2542ZM14.3657 33.0992C14.3657 33.5084 14.6948 33.713 15.3532 33.713C17.4172 33.713 19.7303 32.4675 22.2925 29.9765C23.2711 28.8733 23.7604 28.1616 23.7604 27.8413C23.3333 27.4499 22.6038 27.2542 21.5718 27.2542C18.8673 27.2542 16.6254 28.7132 14.8461 31.6312C14.5258 32.2362 14.3657 32.7255 14.3657 33.0992Z" fill="white"/>
<path d="M11.163 12.2812H11.8836C12.791 12.2812 13.4049 12.8328 13.7252 13.936V14.3363C13.7252 15.0659 12.7021 16.4804 10.6559 18.58C6.67022 23.2951 4.67741 26.8626 4.67741 29.2825V29.8963C4.9443 32.3162 5.9674 33.5261 7.7467 33.5261C9.25911 33.5261 10.0153 34.14 10.0153 35.3677V35.9816C10.0153 37.0847 9.25911 37.7075 7.7467 37.8498C4.31265 37.8498 1.98176 35.9549 0.754044 32.165L0.540527 29.8963V29.6028C0.540527 25.1723 3.80555 19.5052 10.3356 12.6015L11.163 12.2812Z" fill="white"/>
<path d="M210.578 54.1651C210.618 54.1669 210.699 54.1715 210.783 54.1968C210.82 54.2076 210.923 54.2407 211.021 54.3303C211.151 54.4494 211.252 54.6581 211.192 54.8974C211.149 55.0704 211.04 55.1699 211.007 55.1993C210.961 55.2398 210.917 55.2667 210.89 55.2816C210.796 55.3347 210.674 55.3767 210.575 55.4084C210.351 55.4802 210 55.5735 209.533 55.6875C208.595 55.9172 207.135 56.2441 205.161 56.6706C201.212 57.5241 195.182 58.7815 187.094 60.4655C154.737 67.2026 89.369 80.7854 55.3764 87.9418C38.3789 91.5203 29.7257 93.3879 25.2817 94.4013C23.0564 94.9087 21.8997 95.1989 21.2816 95.3804C20.9846 95.4677 20.8328 95.524 20.7539 95.5595C20.8328 95.5729 20.9675 95.5891 21.2043 95.6006C21.7242 95.626 22.6564 95.6317 24.3954 95.6023C27.8664 95.5435 34.497 95.3452 47.3445 94.895C73.0341 93.9948 123.552 92.0847 149.838 91.2069C162.979 90.768 169.694 90.6013 173.126 90.6047C174.829 90.6064 175.762 90.6495 176.275 90.7315C176.515 90.7698 176.762 90.8291 176.948 90.9694C177.059 91.0529 177.148 91.1635 177.2 91.2986C177.224 91.36 177.237 91.418 177.244 91.4671L177.252 91.5811L177.25 91.6789C177.242 91.7813 177.219 91.8983 177.162 92.0242C177.09 92.1833 176.979 92.3243 176.84 92.4563C176.572 92.711 176.131 92.9974 175.425 93.3615C173.999 94.0966 171.316 95.2371 166.271 97.1264C161.221 99.0177 153.785 101.662 146.188 104.361C138.587 107.062 130.823 109.819 125.108 111.939C113.654 116.185 111.084 117.645 109.743 118.668C109.039 119.206 108.795 119.54 108.734 119.746C108.697 119.868 108.699 120.029 108.992 120.372C109.568 121.046 110.919 121.962 114.028 122.761C117.132 123.559 121.865 124.192 129.741 124.945C137.109 125.649 147.103 126.441 156.997 127.79L158.973 128.068L159.031 128.079C159.311 128.149 159.498 128.421 159.456 128.712C159.413 129.004 159.157 129.212 158.869 129.2L158.811 129.195L156.841 128.918C146.981 127.574 137.025 126.786 129.633 126.079C121.765 125.327 116.947 124.687 113.745 123.864C110.548 123.042 108.927 122.048 108.127 121.111C107.731 120.649 107.443 120.088 107.642 119.42C107.817 118.835 108.336 118.309 109.052 117.763C110.551 116.619 113.287 115.107 124.712 110.871C130.436 108.748 138.209 105.988 145.807 103.288C153.408 100.587 160.833 97.947 165.872 96.0599C170.916 94.1707 173.543 93.0501 174.903 92.349C175.336 92.1256 175.623 91.9533 175.813 91.8218C175.334 91.7756 174.516 91.7448 173.124 91.7434C169.717 91.74 163.023 91.906 149.877 92.3451C123.589 93.223 73.0817 95.1327 47.384 96.0332C34.5383 96.4834 27.8973 96.6821 24.4143 96.7411C22.6763 96.7705 21.7103 96.7657 21.1487 96.7383C20.5914 96.711 20.3567 96.66 20.1378 96.5481C19.8391 96.3953 19.5345 96.1243 19.4995 95.6985C19.4671 95.3026 19.6898 94.9852 19.901 94.7771C20.0932 94.5878 20.3197 94.4767 20.9608 94.2884C21.6167 94.0957 22.8051 93.7985 25.0287 93.2914C29.4835 92.2756 38.1457 90.4057 55.1417 86.8276C89.136 79.6708 154.506 66.0875 186.862 59.3507C190.742 58.5429 194.146 57.8328 197.074 57.2194C193.438 57.7793 189.072 58.4574 183.972 59.25C149.159 64.6605 82.1974 75.0601 15.2364 85.4597C14.9257 85.5079 14.6347 85.2955 14.5864 84.9849C14.5382 84.6741 14.7511 84.3831 15.0618 84.3349L183.798 58.1246C192.5 56.7722 199.069 55.7512 203.521 55.0854C205.746 54.7525 207.446 54.508 208.62 54.3553C209.207 54.279 209.668 54.2247 209.999 54.194C210.164 54.1788 210.305 54.1688 210.416 54.1651C210.471 54.1633 210.526 54.1628 210.578 54.1651Z" fill="white"/>
</svg>
