<svg width="96" height="56" viewBox="0 0 96 56" fill="none" xmlns="http://www.w3.org/2000/svg">
<path d="M47.9727 0.447266C25.3334 0.447266 5.38575 16.1391 0.0937611 36.7012C-0.104115 37.472 0.012306 38.2898 0.417414 38.9747C0.822522 39.6597 1.48313 40.1556 2.25392 40.3535C3.0247 40.5514 3.84252 40.435 4.52747 40.0299C5.21242 39.6248 5.70838 38.9641 5.90626 38.1934C10.4663 20.4754 28.1319 6.44727 47.9727 6.44727C67.8134 6.44727 85.535 20.4804 90.0938 38.1934C90.2916 38.9641 90.7876 39.6248 91.4725 40.0299C92.1575 40.435 92.9753 40.5514 93.7461 40.3535C94.5169 40.1556 95.1775 39.6597 95.5826 38.9747C95.9877 38.2898 96.1041 37.472 95.9063 36.7012C90.613 16.1342 70.6119 0.447266 47.9727 0.447266ZM48.0039 16.4473C37.3638 16.4473 28.6758 25.1353 28.6758 35.7754C28.6758 46.4155 37.3638 55.1074 48.0039 55.1074C58.6441 55.1074 67.3359 46.4155 67.3359 35.7754C67.3359 25.1353 58.6441 16.4473 48.0039 16.4473Z" fill="white"/>
</svg>
