<svg width="16" height="17" viewBox="0 0 16 17" fill="none" xmlns="http://www.w3.org/2000/svg">
<path d="M11.8551 0.852051H13.6903V10.8863C13.6903 11.9223 13.4461 12.8473 12.9577 13.6613C12.4743 14.4704 11.791 15.1092 10.9079 15.5779C10.0249 16.0416 8.9889 16.2735 7.79998 16.2735C6.61106 16.2735 5.57507 16.0416 4.69201 15.5779C3.80896 15.1092 3.12323 14.4704 2.63484 13.6613C2.15137 12.8473 1.90964 11.9223 1.90964 10.8863V0.852051H3.74482V10.7383C3.74482 11.4783 3.90762 12.1369 4.23322 12.7141C4.55882 13.2864 5.02254 13.7378 5.6244 14.0683C6.2312 14.3939 6.95639 14.5567 7.79998 14.5567C8.64357 14.5567 9.36876 14.3939 9.97556 14.0683C10.5824 13.7378 11.0461 13.2864 11.3667 12.7141C11.6923 12.1369 11.8551 11.4783 11.8551 10.7383V0.852051Z" fill="white"/>
<path d="M0.0744629 8.56489H15.5977V10.0533H0.0744629V8.56489Z" fill="white"/>
</svg>
