<svg width="25" height="26" viewBox="0 0 25 26" fill="none" xmlns="http://www.w3.org/2000/svg">
<path fill-rule="evenodd" clip-rule="evenodd" d="M17.5371 12.375C21.27 12.375 24.2967 15.4009 24.2969 19.1338C24.2969 22.8668 21.2701 25.8936 17.5371 25.8936C13.8043 25.8933 10.7783 22.8667 10.7783 19.1338C10.7785 15.4011 13.8044 12.3752 17.5371 12.375ZM21.0098 15.6602C20.7265 15.3762 20.2665 15.3764 19.9824 15.6602C19.8707 15.7719 17.5953 18.0483 17.5898 18.0537C17.5898 18.0537 15.3082 15.7713 15.1963 15.6602C14.9129 15.3764 14.4529 15.3762 14.1689 15.6602C13.885 15.9434 13.8852 16.4034 14.1689 16.6875L16.5625 19.0811C16.5571 19.0865 14.28 21.3619 14.1689 21.4736C13.8852 21.757 13.885 22.217 14.1689 22.501C14.4522 22.7849 14.9122 22.7848 15.1963 22.501C15.3081 22.3892 17.5844 20.1138 17.5898 20.1084C17.6252 20.1437 19.8714 22.3907 19.9824 22.501C20.2658 22.7848 20.7258 22.785 21.0098 22.501C21.2938 22.2177 21.2936 21.7578 21.0098 21.4736L18.6172 19.0811C18.6226 19.0756 20.8987 16.7993 21.0098 16.6875C21.2936 16.4041 21.2937 15.9442 21.0098 15.6602Z" fill="#69B0B2"/>
<path d="M10.8125 14.833C10.0163 16.0753 9.54889 17.5487 9.54883 19.1338C9.54883 21.2673 10.3916 23.2008 11.7539 24.6338C11.4332 24.6534 11.1082 24.6641 10.7783 24.6641C5.2652 24.6641 0.946413 21.8842 0.946289 18.335V17.5977C0.946423 16.0732 2.18745 14.833 3.71191 14.833H10.8125Z" fill="#69B0B2"/>
<path d="M10.7783 0.0849609C14.1664 0.0850727 16.9227 2.84143 16.9229 6.22949C16.9229 9.61772 14.1665 12.3749 10.7783 12.375C7.39003 12.375 4.63281 9.61779 4.63281 6.22949C4.63301 2.84136 7.39015 0.0849609 10.7783 0.0849609Z" fill="#69B0B2"/>
</svg>
