<svg width="29" height="31" viewBox="0 0 29 31" fill="none" xmlns="http://www.w3.org/2000/svg">
<path d="M14.5367 0.269531L8.19058 4.07722L14.5367 7.88492V5.34645C20.8234 5.34645 25.9598 10.4829 25.9598 16.7695C25.9598 23.0562 20.8234 28.1926 14.5367 28.1926C8.25007 28.1926 3.11366 23.0562 3.11366 16.7695C3.11366 13.656 4.23415 10.9688 6.28673 8.91617L4.50188 7.13131C1.98325 9.64994 0.575195 13.0313 0.575195 16.7695C0.575195 24.4444 6.86185 30.7311 14.5367 30.7311C22.2116 30.7311 28.4983 24.4444 28.4983 16.7695C28.4983 9.09465 22.2116 2.80799 14.5367 2.80799V0.269531ZM11.8793 8.59886L9.5788 9.70944L12.7915 16.0556C12.7023 16.2737 12.6329 16.5216 12.6329 16.7695C12.6329 16.7943 12.6329 16.8241 12.6329 16.8489L8.54755 20.9342L10.3721 22.7587L14.4574 18.6734C14.4822 18.6734 14.5119 18.6734 14.5367 18.6734C15.5878 18.6734 16.4406 17.8206 16.4406 16.7695C16.4406 15.892 15.8605 15.1681 15.0524 14.945L11.8793 8.59886Z" fill="white"/>
</svg>
