<svg width="35" height="34" viewBox="0 0 35 34" fill="none" xmlns="http://www.w3.org/2000/svg">
<path d="M17.796 1.55273C9.26534 1.55273 2.34888 8.4692 2.34888 16.9998C2.34888 25.5305 9.26534 32.447 17.796 32.447C26.3266 32.447 33.2431 25.5305 33.2431 16.9998C33.2431 8.4692 26.3266 1.55273 17.796 1.55273ZM21.0141 25.4947C20.2173 25.8063 19.5839 26.0464 19.1088 26.2099C18.6337 26.3733 18.0872 26.4551 17.4589 26.4551C16.4985 26.4551 15.7476 26.2201 15.2113 25.7502C14.68 25.2853 14.4144 24.6876 14.4144 23.9623C14.4144 23.6813 14.4348 23.3953 14.4757 23.1041C14.5114 22.8078 14.5778 22.4809 14.6647 22.108L15.6608 18.5936C15.7476 18.2565 15.8242 17.9398 15.8855 17.6384C15.9468 17.337 15.9724 17.0611 15.9724 16.8108C15.9724 16.3664 15.8804 16.0497 15.6965 15.8761C15.5075 15.6973 15.1551 15.6104 14.634 15.6104C14.3786 15.6104 14.113 15.6513 13.8423 15.7279C13.5715 15.8096 13.3417 15.8863 13.1476 15.9578L13.4132 14.8748C14.0619 14.6092 14.6851 14.3845 15.2828 14.1955C15.8753 14.0065 16.4423 13.9094 16.9685 13.9094C17.9237 13.9094 18.6644 14.1444 19.1803 14.6041C19.6962 15.0639 19.9567 15.6666 19.9567 16.4022C19.9567 16.5554 19.9414 16.8262 19.9057 17.2093C19.8699 17.5924 19.8035 17.9449 19.7064 18.2718L18.7155 21.776C18.6337 22.0569 18.5622 22.3788 18.4958 22.7363C18.4345 23.0939 18.4039 23.3697 18.4039 23.5536C18.4039 24.0185 18.506 24.3403 18.7155 24.5089C18.9198 24.6774 19.2825 24.7592 19.7984 24.7592C20.0385 24.7592 20.3092 24.7183 20.6157 24.6366C20.9171 24.5497 21.1367 24.4782 21.2747 24.4118L21.0141 25.4947ZM20.8354 11.2685C20.3756 11.6976 19.8188 11.9121 19.1701 11.9121C18.5214 11.9121 17.9595 11.6976 17.4946 11.2685C17.0298 10.8394 16.7999 10.3184 16.7999 9.71049C16.7999 9.10261 17.0349 8.57647 17.4946 8.14228C17.9595 7.70808 18.5214 7.49354 19.1701 7.49354C19.8188 7.49354 20.3756 7.70808 20.8354 8.14228C21.3002 8.57647 21.5301 9.10261 21.5301 9.71049C21.5301 10.3184 21.3002 10.8394 20.8354 11.2685Z" fill="white"/>
</svg>
