<svg width="87" height="87" viewBox="0 0 87 87" fill="none" xmlns="http://www.w3.org/2000/svg">
<path d="M43.6333 0.619629C19.8658 0.619629 0.595703 19.8898 0.595703 43.6572C0.595703 67.4247 19.8658 86.6948 43.6333 86.6948C67.4008 86.6948 86.6709 67.4247 86.6709 43.6572C86.6709 19.8898 67.4008 0.619629 43.6333 0.619629ZM52.5995 67.3251C50.3793 68.1932 48.6145 68.8621 47.2909 69.3175C45.9674 69.773 44.4445 70.0007 42.694 70.0007C40.0184 70.0007 37.9263 69.346 36.4319 68.0367C34.9518 66.7415 34.2117 65.0764 34.2117 63.0555C34.2117 62.2727 34.2686 61.4757 34.3825 60.6645C34.4821 59.839 34.6671 58.9282 34.9091 57.8892L37.6843 48.0976C37.9263 47.1583 38.1397 46.2759 38.3105 45.4362C38.4813 44.5965 38.5525 43.828 38.5525 43.1306C38.5525 41.8925 38.2963 41.0101 37.7839 40.5262C37.2574 40.0281 36.2754 39.7861 34.8237 39.7861C34.1121 39.7861 33.372 39.9 32.6177 40.1135C31.8634 40.3412 31.223 40.5546 30.6822 40.7539L31.4222 37.7367C33.2297 36.9966 34.966 36.3704 36.6312 35.8439C38.2821 35.3173 39.8618 35.0469 41.3277 35.0469C43.9891 35.0469 46.0527 35.7015 47.4902 36.9824C48.9276 38.2633 49.6534 39.9427 49.6534 41.9921C49.6534 42.419 49.6107 43.1733 49.5111 44.2407C49.4115 45.3081 49.2265 46.2901 48.9561 47.201L46.1951 56.9642C45.9674 57.7469 45.7681 58.6435 45.5831 59.6398C45.4123 60.636 45.3269 61.4045 45.3269 61.9169C45.3269 63.212 45.6115 64.1086 46.1951 64.5783C46.7643 65.0479 47.7748 65.2757 49.2122 65.2757C49.8812 65.2757 50.6354 65.1618 51.4894 64.9341C52.3291 64.6921 52.941 64.4929 53.3253 64.3079L52.5995 67.3251ZM52.1013 27.6889C50.8205 28.8844 49.2692 29.4821 47.4617 29.4821C45.6542 29.4821 44.0887 28.8844 42.7936 27.6889C41.4985 26.4934 40.8581 25.0418 40.8581 23.3481C40.8581 21.6545 41.5127 20.1886 42.7936 18.9789C44.0887 17.7692 45.6542 17.1715 47.4617 17.1715C49.2692 17.1715 50.8205 17.7692 52.1013 18.9789C53.3965 20.1886 54.0369 21.6545 54.0369 23.3481C54.0369 25.0418 53.3965 26.4934 52.1013 27.6889Z" fill="#69B0B2"/>
</svg>
