<svg width="30" height="30" viewBox="0 0 30 30" fill="none" xmlns="http://www.w3.org/2000/svg">
<path d="M8.84465 0.36084C4.13126 0.36084 0.286133 4.20597 0.286133 8.91935V21.2876C0.286133 26.0009 4.13126 29.8461 8.84465 29.8461H21.2129C25.9262 29.8461 29.7714 26.0009 29.7714 21.2876V8.91935C29.7714 4.20597 25.9262 0.36084 21.2129 0.36084H8.84465ZM8.84465 2.62893H21.2129C24.6992 2.62893 27.5033 5.42861 27.5033 8.91935V21.2876C27.5033 24.7739 24.7036 27.578 21.2129 27.578H8.84465C5.35834 27.578 2.55423 24.7783 2.55423 21.2876V8.91935C2.55423 5.43304 5.35391 2.62893 8.84465 2.62893ZM23.5341 4.89703C22.595 4.89703 21.833 5.65897 21.833 6.5981C21.833 7.53723 22.595 8.29917 23.5341 8.29917C24.4732 8.29917 25.2352 7.53723 25.2352 6.5981C25.2352 5.65897 24.4732 4.89703 23.5341 4.89703ZM15.0287 7.16512C10.6565 7.16512 7.09042 10.7312 7.09042 15.1035C7.09042 19.4757 10.6565 23.0418 15.0287 23.0418C19.401 23.0418 22.9671 19.4757 22.9671 15.1035C22.9671 10.7312 19.401 7.16512 15.0287 7.16512ZM15.0287 9.43322C18.174 9.43322 20.699 11.9582 20.699 15.1035C20.699 18.2487 18.174 20.7737 15.0287 20.7737C11.8835 20.7737 9.35851 18.2487 9.35851 15.1035C9.35851 11.9582 11.8835 9.43322 15.0287 9.43322Z" fill="#69B0B2"/>
</svg>
