<svg width="38" height="24" viewBox="0 0 38 24" fill="none" xmlns="http://www.w3.org/2000/svg">
<path d="M19.0516 0.307617C16.3099 0.307617 14.0516 2.56593 14.0516 5.30762C14.0516 8.0493 16.3099 10.3076 19.0516 10.3076C21.7933 10.3076 24.0516 8.0493 24.0516 5.30762C24.0516 2.56593 21.7933 0.307617 19.0516 0.307617ZM7.38493 3.64095C6.50087 3.64095 5.65303 3.99214 5.02791 4.61726C4.40278 5.24238 4.0516 6.09023 4.0516 6.97428C4.0516 7.85834 4.40278 8.70618 5.02791 9.33131C5.65303 9.95643 6.50087 10.3076 7.38493 10.3076C8.26898 10.3076 9.11683 9.95643 9.74195 9.33131C10.3671 8.70618 10.7183 7.85834 10.7183 6.97428C10.7183 6.09023 10.3671 5.24238 9.74195 4.61726C9.11683 3.99214 8.26898 3.64095 7.38493 3.64095ZM30.7183 3.64095C29.8342 3.64095 28.9864 3.99214 28.3612 4.61726C27.7361 5.24238 27.3849 6.09023 27.3849 6.97428C27.3849 7.85834 27.7361 8.70618 28.3612 9.33131C28.9864 9.95643 29.8342 10.3076 30.7183 10.3076C31.6023 10.3076 32.4502 9.95643 33.0753 9.33131C33.7004 8.70618 34.0516 7.85834 34.0516 6.97428C34.0516 6.09023 33.7004 5.24238 33.0753 4.61726C32.4502 3.99214 31.6023 3.64095 30.7183 3.64095ZM7.38493 13.641C3.74326 13.641 0.718262 15.1556 0.718262 17.3356V20.3076H5.71826V19.0023C5.71826 16.9106 6.59657 15.1033 8.1499 13.68C7.89657 13.665 7.6466 13.641 7.38493 13.641ZM19.0516 13.641C13.1649 13.641 9.0516 15.8456 9.0516 19.0023V23.641H29.0516V19.0023C29.0516 15.8456 24.9383 13.641 19.0516 13.641ZM30.7183 13.641C30.4566 13.641 30.2066 13.665 29.9533 13.68C31.5066 15.1033 32.3849 16.9123 32.3849 19.0023V20.3076H37.3849V17.3356C37.3849 15.1556 34.3599 13.641 30.7183 13.641Z" fill="#68B0AB"/>
</svg>
