<svg width="46" height="37" viewBox="0 0 46 37" fill="none" xmlns="http://www.w3.org/2000/svg">
<path d="M5.50123 0.936523C3.60409 0.936523 2.06749 2.47312 2.06749 4.37026V30.1233H26.1037V26.6896H35.3888L36.4049 28.4064L35.3888 30.1233H43.2724V4.37026C43.2724 2.47312 41.7358 0.936523 39.8386 0.936523H5.50123ZM32.9711 7.804C33.4102 7.804 33.8494 7.97134 34.185 8.30699C34.8563 8.97829 34.8563 10.0635 34.185 10.7348L25.6007 19.3191C24.9294 19.9904 23.8442 19.9904 23.1729 19.3191L19.2362 15.3824L11.8657 22.7528C11.5309 23.0876 11.0914 23.2558 10.6518 23.2558C10.2123 23.2558 9.77275 23.0876 9.43796 22.7528C8.76666 22.0815 8.76666 20.9964 9.43796 20.3251L18.0223 11.7407C18.6936 11.0694 19.7788 11.0694 20.4501 11.7407L24.3868 15.6775L31.7573 8.30699C32.0929 7.97134 32.5321 7.804 32.9711 7.804ZM2.06749 33.557C1.83999 33.5538 1.61411 33.5959 1.40299 33.6807C1.19187 33.7655 0.999717 33.8915 0.837697 34.0512C0.675676 34.211 0.547021 34.4013 0.459207 34.6112C0.371393 34.8211 0.326172 35.0464 0.326172 35.2739C0.326172 35.5014 0.371393 35.7267 0.459207 35.9366C0.547021 36.1465 0.675676 36.3369 0.837697 36.4966C0.999717 36.6563 1.19187 36.7823 1.40299 36.8671C1.61411 36.952 1.83999 36.994 2.06749 36.9908H43.2724C43.4999 36.994 43.7257 36.952 43.9369 36.8671C44.148 36.7823 44.3401 36.6563 44.5022 36.4966C44.6642 36.3369 44.7928 36.1465 44.8806 35.9366C44.9685 35.7267 45.0137 35.5014 45.0137 35.2739C45.0137 35.0464 44.9685 34.8211 44.8806 34.6112C44.7928 34.4013 44.6642 34.211 44.5022 34.0512C44.3401 33.8915 44.148 33.7655 43.9369 33.6807C43.7257 33.5959 43.4999 33.5538 43.2724 33.557H2.06749Z" fill="white"/>
</svg>
