<svg width="24" height="27" viewBox="0 0 24 27" fill="none" xmlns="http://www.w3.org/2000/svg">
<path d="M7.8151 0.661133V3.09234H15.1087V0.661133H7.8151ZM19.9213 2.84067L18.3495 4.69494L21.9346 7.73395L23.5063 5.87968L19.9213 2.84067ZM11.4619 4.30794C5.4113 4.30794 0.521484 9.19776 0.521484 15.2484C0.521484 21.299 5.4113 26.1888 11.4619 26.1888C17.5125 26.1888 22.4023 21.299 22.4023 15.2484C22.4023 9.19776 17.5125 4.30794 11.4619 4.30794ZM11.4619 6.73915C16.2156 6.73915 19.9711 10.4947 19.9711 15.2484C19.9711 20.002 16.2156 23.7576 11.4619 23.7576C6.70824 23.7576 2.95269 20.002 2.95269 15.2484C2.95269 10.4947 6.70824 6.73915 11.4619 6.73915ZM10.2463 9.17035V16.464H12.6775V9.17035H10.2463Z" fill="white"/>
</svg>
