<svg width="37" height="38" viewBox="0 0 37 38" fill="none" xmlns="http://www.w3.org/2000/svg">
<path d="M18.7778 0.162109C8.75619 0.162109 0.632812 8.43055 0.632812 18.6311C0.632812 28.8317 8.75619 37.1001 18.7778 37.1001C28.7994 37.1001 36.9228 28.8317 36.9228 18.6311C36.9228 8.43055 28.7994 0.162109 18.7778 0.162109ZM18.7778 5.84488C19.9154 5.84488 20.5225 6.09351 20.5225 6.09351L20.1736 16.5001H17.382L17.0331 6.09351C17.0331 6.09351 17.6403 5.84488 18.7778 5.84488ZM26.7616 26.5444C24.6959 28.6896 21.7438 29.9541 18.7778 29.9612C15.8118 29.9541 12.8598 28.6896 10.794 26.5444C8.71432 24.3991 7.55583 21.3944 7.61166 18.418C7.63957 15.4417 8.89577 12.515 10.9685 10.4692C11.6315 9.79441 12.3852 9.21903 13.1947 8.7431L14.0113 11.6768C13.6553 11.9397 13.3204 12.2309 13.0133 12.5506C11.5198 14.1133 10.7033 16.2728 10.7521 18.418C10.787 20.5704 11.6943 22.6375 13.1878 24.1079C14.6673 25.5925 16.7121 26.4307 18.7778 26.4094C20.8436 26.4307 22.8884 25.5925 24.3679 24.1079C25.8613 22.6375 26.7686 20.5704 26.8035 18.418C26.8523 16.2728 26.0358 14.1133 24.5423 12.5506C24.2353 12.2309 23.9003 11.9397 23.5444 11.6768L24.3609 8.7431C25.1704 9.21903 25.9242 9.79441 26.5871 10.4692C28.6599 12.515 29.9161 15.4417 29.944 18.418C29.9998 21.3944 28.8413 24.3991 26.7616 26.5444Z" fill="#69B0B2"/>
</svg>
