<svg width="38" height="39" viewBox="0 0 38 39" fill="none" xmlns="http://www.w3.org/2000/svg">
<path fill-rule="evenodd" clip-rule="evenodd" d="M8.12256 0.4375V1.75H21.2476V0.4375H23.8726V1.75H29.1226V13.2773C28.2757 13.0693 27.398 12.94 26.4976 12.8975V9.625H2.87256V28H12.2026C12.2949 28.9039 12.4756 29.7817 12.7349 30.625H0.247559V1.75H5.49756V0.4375H8.12256ZM2.87256 4.375V7H26.4976V4.375H23.8726V5.6875H21.2476V4.375H8.12256V5.6875H5.49756V4.375H2.87256Z" fill="#69B0B2"/>
<path d="M8.12256 22.75V25.375H5.49756V22.75H8.12256Z" fill="#69B0B2"/>
<path d="M12.6782 22.75C12.4323 23.5943 12.2644 24.4719 12.1851 25.375H10.7476V22.75H12.6782Z" fill="#69B0B2"/>
<path d="M8.12256 17.5V20.125H5.49756V17.5H8.12256Z" fill="#69B0B2"/>
<path d="M13.3726 17.5V20.125H10.7476V17.5H13.3726Z" fill="#69B0B2"/>
<path d="M13.3726 12.25V14.875H10.7476V12.25H13.3726Z" fill="#69B0B2"/>
<path d="M18.6226 12.25V14.875H15.9976V12.25H18.6226Z" fill="#69B0B2"/>
<path d="M23.8726 12.25V13.0225C22.9658 13.1528 22.0879 13.3721 21.2476 13.6709V12.25H23.8726Z" fill="#69B0B2"/>
<path fill-rule="evenodd" clip-rule="evenodd" d="M25.8403 14.8818C32.3071 14.8818 37.5502 20.1241 37.5503 26.5908C37.5503 33.0576 32.3072 38.3008 25.8403 38.3008C19.3736 38.3006 14.1313 33.0576 14.1313 26.5908C14.1315 20.1242 19.3737 14.882 25.8403 14.8818ZM30.5532 20.5771C30.2843 20.3111 29.8376 20.3113 29.563 20.5771L25.8403 24.1865L22.1216 20.5771C21.8471 20.3111 21.4002 20.3112 21.1284 20.5771L19.6392 22.0215C19.3674 22.2823 19.3675 22.7154 19.6392 22.9844L23.3579 26.5908L19.6392 30.2002C19.3646 30.4664 19.3647 30.8968 19.6392 31.1631L21.1284 32.6055C21.4002 32.8715 21.8471 32.8715 22.1216 32.6055L25.8403 28.998L29.563 32.6055C29.8376 32.8713 30.2815 32.8715 30.5532 32.6055L32.0425 31.1631C32.3168 30.8968 32.317 30.4664 32.0425 30.2002L28.3228 26.5908L32.0454 22.9844C32.3168 22.7182 32.3166 22.2857 32.0425 22.0195L30.5532 20.5771Z" fill="#69B0B2"/>
</svg>
