<svg width="31" height="34" viewBox="0 0 31 34" fill="none" xmlns="http://www.w3.org/2000/svg">
<path d="M10.2674 0.140381V3.3166H19.7961V0.140381H10.2674ZM26.0834 2.98782L24.03 5.41031L28.7137 9.38058L30.7671 6.95809L26.0834 2.98782ZM15.0318 4.90472C7.12702 4.90472 0.73877 11.293 0.73877 19.1977C0.73877 27.1025 7.12702 33.4907 15.0318 33.4907C22.9365 33.4907 29.3248 27.1025 29.3248 19.1977C29.3248 11.293 22.9365 4.90472 15.0318 4.90472ZM15.0318 8.08094C21.2422 8.08094 26.1486 12.9873 26.1486 19.1977C26.1486 25.4081 21.2422 30.3145 15.0318 30.3145C8.82139 30.3145 3.91499 25.4081 3.91499 19.1977C3.91499 12.9873 8.82139 8.08094 15.0318 8.08094ZM13.4437 11.2572V20.7858H16.6199V11.2572H13.4437Z" fill="white"/>
</svg>
