<svg width="45" height="46" viewBox="0 0 45 46" fill="none" xmlns="http://www.w3.org/2000/svg">
<path d="M39.3525 11.9128V22.959C42.4026 22.959 44.8756 20.486 44.8756 17.4359C44.8756 14.3858 42.4026 11.9128 39.3525 11.9128Z" fill="#69B0B2"/>
<path d="M19.4628 29.8738H10.3567C10.231 29.8738 10.1109 29.8586 9.98664 29.8545L15.0513 42.3104C15.7361 44.0115 17.3806 45.0484 19.1135 45.0484C19.6547 45.0484 20.2043 44.9476 20.7373 44.7336C22.9644 43.8333 24.0511 41.2844 23.1577 39.0531L19.4628 29.8738Z" fill="#69B0B2"/>
<path d="M35.7973 1.00894C35.3113 0.783879 34.7383 0.85706 34.3282 1.19811C34.2481 1.26438 26.3391 7.78297 20.0235 7.78297H10.3568C5.02839 7.78159 0.691406 12.1172 0.691406 17.4469C0.691406 22.7767 5.02839 27.1123 10.3568 27.1123H20.0221C26.3377 27.1123 34.2481 33.6309 34.3268 33.6971C34.5795 33.907 34.8929 34.0161 35.2105 34.0161C35.4107 34.0161 35.6095 33.9733 35.7973 33.8849C36.282 33.6571 36.5913 33.1697 36.5913 32.6353V2.25853C36.5913 1.7228 36.2806 1.23677 35.7973 1.00894Z" fill="#69B0B2"/>
</svg>
