<svg width="32" height="32" viewBox="0 0 32 32" fill="none" xmlns="http://www.w3.org/2000/svg">
<path d="M16.2668 0.0400391C7.72452 0.0400391 0.800293 7.08791 0.800293 15.7827C0.800293 24.4775 7.72452 31.5254 16.2668 31.5254C24.809 31.5254 31.7333 24.4775 31.7333 15.7827C31.7333 7.08791 24.809 0.0400391 16.2668 0.0400391ZM16.2668 4.88394C17.2364 4.88394 17.7539 5.09586 17.7539 5.09586L17.4565 13.9663H15.0771L14.7796 5.09586C14.7796 5.09586 15.2972 4.88394 16.2668 4.88394ZM23.072 22.5278C21.3112 24.3564 18.795 25.4342 16.2668 25.4402C13.7386 25.4342 11.2223 24.3564 9.46153 22.5278C7.68883 20.6993 6.70135 18.1381 6.74894 15.6011C6.77274 13.0641 7.84349 10.5695 9.61024 8.82566C10.1754 8.25045 10.8178 7.76 11.5079 7.35433L12.2039 9.85499C11.9005 10.079 11.6149 10.3273 11.3532 10.5997C10.0802 11.9318 9.38419 13.7725 9.42583 15.6011C9.45558 17.4357 10.2289 19.1977 11.5019 20.451C12.763 21.7165 14.506 22.431 16.2668 22.4128C18.0276 22.431 19.7705 21.7165 21.0316 20.451C22.3047 19.1977 23.078 17.4357 23.1077 15.6011C23.1494 13.7725 22.4534 11.9318 21.1804 10.5997C20.9186 10.3273 20.6331 10.079 20.3297 9.85499L21.0257 7.35433C21.7157 7.76 22.3582 8.25045 22.9233 8.82566C24.6901 10.5695 25.7608 13.0641 25.7846 15.6011C25.8322 18.1381 24.8447 20.6993 23.072 22.5278Z" fill="#FF0000"/>
</svg>
