<svg width="34" height="34" viewBox="0 0 34 34" fill="none" xmlns="http://www.w3.org/2000/svg">
<path d="M9.80957 2.96094C9.05057 2.96094 8.43457 3.57694 8.43457 4.33594V7.08594C8.43457 7.84494 9.05057 8.46094 9.80957 8.46094H23.5596C24.3186 8.46094 24.9346 7.84494 24.9346 7.08594V4.33594C24.9346 3.57694 24.3186 2.96094 23.5596 2.96094H9.80957ZM7.05957 11.2109C4.79082 11.2109 2.93457 13.0672 2.93457 15.3359V20.8359C2.93457 22.3553 4.1652 23.5859 5.68457 23.5859H8.43457V26.3359C8.43457 27.8553 9.6652 29.0859 11.1846 29.0859H22.1846C23.7039 29.0859 24.9346 27.8553 24.9346 26.3359V23.5859H27.6846C29.2039 23.5859 30.4346 22.3553 30.4346 20.8359V15.3359C30.4346 13.0672 28.5783 11.2109 26.3096 11.2109H7.05957ZM26.3096 13.9609C27.1346 13.9609 27.6846 14.5109 27.6846 15.3359C27.6846 16.1609 27.1346 16.7109 26.3096 16.7109C25.4846 16.7109 24.9346 16.1609 24.9346 15.3359C24.9346 14.5109 25.4846 13.9609 26.3096 13.9609ZM11.8721 19.4609H21.4971C21.8766 19.4609 22.1846 19.7689 22.1846 20.1484V25.6484C22.1846 26.0279 21.8766 26.3359 21.4971 26.3359H11.8721C11.4926 26.3359 11.1846 26.0279 11.1846 25.6484V20.1484C11.1846 19.7689 11.4926 19.4609 11.8721 19.4609Z" fill="white"/>
</svg>
