<svg width="47" height="47" viewBox="0 0 47 47" fill="none" xmlns="http://www.w3.org/2000/svg">
<path d="M23.9414 0.963867C11.2598 0.963867 0.941406 11.2822 0.941406 23.9639C0.941406 36.6455 11.2598 46.9639 23.9414 46.9639C36.623 46.9639 46.9414 36.6455 46.9414 23.9639C46.9414 11.2822 36.623 0.963867 23.9414 0.963867ZM23.9414 12.4639C27.9032 12.4639 31.1289 15.6896 31.1289 19.6514C31.1289 23.6131 27.9032 26.8389 23.9414 26.8389C19.9797 26.8389 16.7539 23.6131 16.7539 19.6514C16.7539 15.6896 19.9797 12.4639 23.9414 12.4639ZM23.9414 41.2139C19.5657 41.2139 15.5809 39.5636 12.5363 36.8697C15.1813 33.3392 19.3242 31.1514 23.9414 31.1514C28.5587 31.1514 32.7044 33.3392 35.3465 36.8697C32.3019 39.5636 28.3143 41.2139 23.9414 41.2139Z" fill="#69B0B2"/>
</svg>
