<svg width="68" height="27" viewBox="0 0 68 27" fill="none" xmlns="http://www.w3.org/2000/svg">
<path d="M49.8074 21.5851L51.7427 16.6912H57.3306L54.6787 9.26728L57.9954 0.879883L67.4951 26.1026H60.4894L58.8661 21.5851H49.8074Z" fill="black"/>
<path d="M43.8307 26.1027L54.0003 0.879924L47.2582 0.879957L40.3016 17.1795L35.3547 0.879991H30.1724L24.8608 17.1795L21.1149 9.75212L17.725 20.1957L21.1668 26.1027H27.8019L32.6017 11.4855L37.1781 26.1027H43.8307Z" fill="#69B0B2"/>
<path d="M6.90275 17.4441H11.0555C12.3135 17.4441 13.4337 17.3037 14.416 17.0229L18.4916 4.46684C18.2629 4.10433 18.0018 3.76159 17.7083 3.43865C16.1671 1.73278 13.9123 0.879883 10.9438 0.879883H0.50293V26.1026H6.90275V17.4441ZM12.3996 6.68262C13.0016 7.28847 13.3025 8.09921 13.3025 9.1149C13.3025 10.1384 13.0378 10.9501 12.5084 11.5501C11.9281 12.2168 10.8595 12.5501 9.30266 12.5501H6.90275V5.7738H9.3203C10.7712 5.7738 11.7977 6.07674 12.3996 6.68262Z" fill="black"/>
</svg>
