<svg width="39" height="39" viewBox="0 0 39 39" fill="none" xmlns="http://www.w3.org/2000/svg">
<path d="M28.5259 11.3839C28.3161 11.381 28.1078 11.4197 27.9131 11.498C27.7184 11.5762 27.5411 11.6924 27.3917 11.8397C27.2423 11.987 27.1237 12.1626 27.0427 12.3561C26.9617 12.5497 26.92 12.7574 26.92 12.9673C26.92 13.1771 26.9617 13.3849 27.0427 13.5784C27.1237 13.772 27.2423 13.9475 27.3917 14.0949C27.5411 14.2422 27.7184 14.3583 27.9131 14.4366C28.1078 14.5148 28.3161 14.5536 28.5259 14.5506H31.8286L24.1717 22.2075L15.7912 13.827C15.4942 13.5302 15.0916 13.3634 14.6717 13.3634C14.2518 13.3634 13.8492 13.5302 13.5522 13.827L2.86474 24.5145C2.71278 24.6604 2.59146 24.8351 2.50788 25.0285C2.42431 25.2219 2.38015 25.43 2.37801 25.6406C2.37587 25.8513 2.41578 26.0602 2.4954 26.2553C2.57503 26.4503 2.69277 26.6275 2.84172 26.7764C2.99068 26.9254 3.16786 27.0431 3.36289 27.1227C3.55793 27.2024 3.76688 27.2423 3.97753 27.2401C4.18818 27.238 4.39628 27.1938 4.58965 27.1103C4.78302 27.0267 4.95777 26.9054 5.10367 26.7534L14.6717 17.1854L23.0522 25.5659C23.3492 25.8627 23.7518 26.0295 24.1717 26.0295C24.5916 26.0295 24.9942 25.8627 25.2912 25.5659L34.0675 16.7895V20.0923C34.0646 20.3021 34.1033 20.5104 34.1816 20.7051C34.2598 20.8998 34.376 21.077 34.5233 21.2264C34.6706 21.3758 34.8461 21.4945 35.0397 21.5755C35.2333 21.6565 35.441 21.6982 35.6509 21.6982C35.8607 21.6982 36.0684 21.6565 36.262 21.5755C36.4556 21.4945 36.6311 21.3758 36.7785 21.2264C36.9258 21.077 37.0419 20.8998 37.1202 20.7051C37.1984 20.5104 37.2372 20.3021 37.2342 20.0923V12.9673C37.2342 12.5474 37.0673 12.1447 36.7704 11.8477C36.4735 11.5508 36.0708 11.384 35.6509 11.3839H28.5259Z" fill="#68B0AB"/>
</svg>
