<svg width="28" height="29" viewBox="0 0 28 29" fill="none" xmlns="http://www.w3.org/2000/svg">
<path d="M11.0968 0.145508C5.0818 0.145508 0.216797 5.01051 0.216797 11.0255C0.216797 17.0405 5.0818 21.9055 11.0968 21.9055C13.2443 21.9055 15.2318 21.2755 16.9168 20.2055L24.7768 28.0655L27.4968 25.3455L19.7368 17.6055C21.1318 15.7755 21.9768 13.508 21.9768 11.0255C21.9768 5.01051 17.1118 0.145508 11.0968 0.145508ZM11.0968 2.70551C15.7043 2.70551 19.4168 6.41801 19.4168 11.0255C19.4168 15.633 15.7043 19.3455 11.0968 19.3455C6.4893 19.3455 2.7768 15.633 2.7768 11.0255C2.7768 6.41801 6.4893 2.70551 11.0968 2.70551Z" fill="#69B0B2"/>
</svg>
