<svg width="45" height="44" viewBox="0 0 45 44" fill="none" xmlns="http://www.w3.org/2000/svg">
<path d="M25.1357 0.0615234L27.2559 5.36133C28.7151 5.75392 30.0962 6.32627 31.374 7.06445L36.6162 4.81836L39.9346 8.13672L37.6875 13.3789C38.4258 14.6584 39.0005 16.0377 39.3916 17.4971L44.6914 19.6172V24.3096L39.3916 26.4297C38.999 27.8891 38.4258 29.2699 37.6875 30.5479L39.9346 35.79L36.6162 39.1084L31.374 36.8613C30.0945 37.5996 28.7152 38.1744 27.2559 38.5654L25.1357 43.8652H20.4434L18.3232 38.5654C16.8639 38.1728 15.483 37.5996 14.2051 36.8613L8.96289 39.1084L5.64453 35.79L7.89062 30.5479C7.15245 29.2685 6.57853 27.8889 6.1875 26.4297L0.887695 24.3096V19.6172L6.1875 17.4971C6.58008 16.0378 7.15245 14.6567 7.89062 13.3789L5.64453 8.13672L8.96289 4.81836L14.2051 7.06445C15.4845 6.32628 16.864 5.75235 18.3232 5.36133L20.4434 0.0615234H25.1357ZM22.791 14.1416C18.4716 14.1417 14.9699 17.6434 14.9697 21.9629C14.9697 26.2825 18.4714 29.785 22.791 29.7852C27.1107 29.7852 30.6123 26.2826 30.6123 21.9629C30.6121 17.6434 27.1106 14.1416 22.791 14.1416Z" fill="#69B0B2"/>
</svg>
