<svg width="52" height="66" viewBox="0 0 52 66" fill="none" xmlns="http://www.w3.org/2000/svg">
<path d="M27.0819 19.3744C28.6473 10.6092 34.2092 4.04964 43.0726 0.515949C44.1164 0.099636 44.2836 0.0665594 44.2006 0.292124C44.1696 0.37668 44.144 7.27817 44.144 15.6293V30.8125L43.3288 31.0249C39.6067 31.9936 34.9257 35.1052 32.3599 38.3169C25.7799 46.5524 26.8286 58.6876 34.5903 64.128C34.951 64.381 35.2861 64.6224 35.335 64.6645C35.4263 64.7433 34.6752 65.6147 34.5159 65.6147C34.3034 65.6147 32.1283 63.8378 31.4838 63.1375C29.6134 61.1054 27.838 57.4049 27.1862 54.1795C26.841 52.4725 26.8053 50.5419 26.8358 35.2567L26.8651 20.5875L27.0819 19.3744Z" fill="black"/>
<path d="M47.3817 10.696C48.103 10.2048 49.1561 9.67782 50.0606 9.35526C50.4703 9.20903 50.8792 9.08618 50.9688 9.08245C51.1234 9.07623 51.132 9.78924 51.132 22.7492V36.4223L49.8974 36.4368C39.5067 36.5576 30.534 46.2211 32.3902 55.2915C33.055 58.5399 35.1504 61.8261 37.4216 63.1818C37.5554 63.2618 37.5306 63.3208 37.2322 63.6346L36.889 63.9957L36.3566 63.6152C28.1753 57.766 28.2638 44.7359 36.5319 37.8177C39.303 35.4989 43.5716 33.3927 46.4501 32.924L46.846 32.8595V21.9601V11.0608L47.3817 10.696Z" fill="black"/>
<path d="M35.3715 48.9035C37.6696 43.8794 42.0136 40.5504 47.6665 39.4815C48.6523 39.295 50.9381 39.248 51.0945 39.4111C51.1301 39.4482 51.084 40.0475 50.9925 40.7434L50.826 42.0082L50.4897 42.0097C44.9977 42.0346 39.0175 45.8819 37.0559 50.6521C35.5239 54.3775 36.4253 58.8851 39.1912 61.3302L39.6253 61.714L39.3042 62.0614C38.8553 62.5471 38.8427 62.5411 37.6339 61.2676C34.5042 57.9699 33.5671 52.8483 35.3715 48.9035Z" fill="black"/>
<path d="M38.9116 52.8928C40.1188 48.8849 43.5499 46.0843 48.3833 45.1619C48.742 45.0933 49.2157 45.0333 49.4359 45.0286L49.8361 45.0199L49.7717 45.384C49.5258 46.7779 49.2281 47.4439 48.8493 47.4472C47.9563 47.4549 45.2486 48.4459 44.0911 49.1888C40.4923 51.4979 39.2102 55.8321 41.1718 59.0572L41.454 59.521L41.1451 59.8709C40.9753 60.0634 40.8217 60.2434 40.8038 60.2705C40.6612 60.4882 39.2038 58.2671 38.913 57.3889C38.5896 56.4121 38.5887 53.9649 38.9116 52.8928Z" fill="black"/>
<path d="M24.1837 19.3744C22.6183 10.6092 17.0564 4.04964 8.19302 0.515949C7.14925 0.099636 6.98204 0.0665594 7.06505 0.292124C7.09606 0.37668 7.12158 7.27817 7.12158 15.6293V30.8125L7.93684 31.0249C11.659 31.9936 16.3399 35.1052 18.9057 38.3169C25.4858 46.5524 24.437 58.6876 16.6753 64.128C16.3146 64.381 15.9795 64.6224 15.9306 64.6645C15.8393 64.7433 16.5904 65.6147 16.7497 65.6147C16.9622 65.6147 19.1373 63.8378 19.7818 63.1375C21.6523 61.1054 23.4276 57.4049 24.0795 54.1795C24.4246 52.4725 24.4604 50.5419 24.4298 35.2567L24.4005 20.5875L24.1837 19.3744Z" fill="black"/>
<path d="M3.8839 10.696C3.16261 10.2048 2.10954 9.67782 1.20507 9.35526C0.795294 9.20903 0.386467 9.08618 0.296783 9.08245C0.142221 9.07623 0.133635 9.78924 0.133635 22.7492V36.4223L1.36822 36.4368C11.7589 36.5576 20.7316 46.2211 18.8754 55.2915C18.2107 58.5399 16.1152 61.8261 13.8441 63.1818C13.7102 63.2618 13.735 63.3208 14.0334 63.6346L14.3767 63.9957L14.909 63.6152C23.0903 57.766 23.0018 44.7359 14.7337 37.8177C11.9626 35.4989 7.69403 33.3927 4.81556 32.924L4.41962 32.8595V21.9601V11.0608L3.8839 10.696Z" fill="black"/>
<path d="M15.8941 48.9035C13.596 43.8794 9.25205 40.5504 3.5991 39.4815C2.6133 39.295 0.327549 39.248 0.17108 39.4111C0.13554 39.4482 0.181578 40.0475 0.27317 40.7434L0.439655 42.0082L0.77597 42.0097C6.26791 42.0346 12.2481 45.8819 14.2097 50.6521C15.7417 54.3775 14.8404 58.8851 12.0745 61.3302L11.6404 61.714L11.9614 62.0614C12.4103 62.5471 12.4229 62.5411 13.6318 61.2676C16.7614 57.9699 17.6985 52.8483 15.8941 48.9035Z" fill="black"/>
<path d="M12.354 52.8928C11.1469 48.8849 7.71573 46.0843 2.88235 45.1619C2.52361 45.0933 2.04991 45.0333 1.82976 45.0286L1.42952 45.0199L1.49392 45.384C1.73983 46.7779 2.03751 47.4439 2.41628 47.4472C3.30931 47.4549 6.01698 48.4459 7.17453 49.1888C10.7733 51.4979 12.0554 55.8321 10.0938 59.0572L9.81162 59.521L10.1205 59.8709C10.2903 60.0634 10.4439 60.2434 10.4618 60.2705C10.6045 60.4882 12.0618 58.2671 12.3526 57.3889C12.676 56.4121 12.677 53.9649 12.354 52.8928Z" fill="black"/>
</svg>
