<svg width="26" height="31" viewBox="0 0 26 31" fill="none" xmlns="http://www.w3.org/2000/svg">
<path d="M6.91374 0.654426C6.59162 0.659233 6.28874 0.789041 6.06278 1.015L1.1397 5.93808C0.817583 6.24577 0.687775 6.70731 0.803159 7.1352C0.913736 7.56789 1.25028 7.90443 1.68297 8.015C2.11085 8.13039 2.57239 8.00058 2.88008 7.67846L5.7022 4.85635V20.3467H8.16374V4.85635L10.9859 7.67846C11.2935 8.00058 11.7551 8.13039 12.183 8.015C12.6157 7.90443 12.9522 7.56789 13.0628 7.1352C13.1782 6.70731 13.0484 6.24577 12.7262 5.93808L7.80316 1.015C7.56758 0.779426 7.24547 0.649618 6.91374 0.654426ZM18.0099 0.654426V3.11596H20.4714V0.654426H18.0099ZM18.0099 5.5775V8.03904H20.4714V5.5775H18.0099ZM18.0099 10.5006V25.991L15.1878 23.1688C14.957 22.9285 14.6397 22.7987 14.3032 22.7938C13.8032 22.7987 13.356 23.1015 13.1637 23.5631C12.9762 24.0294 13.0868 24.5583 13.4474 24.9092L18.3705 29.8323C18.8512 30.3131 19.6301 30.3131 20.1109 29.8323L25.0339 24.9092C25.356 24.6015 25.4858 24.14 25.3705 23.7121C25.2599 23.2794 24.9234 22.9429 24.4907 22.8323C24.0628 22.7169 23.6012 22.8467 23.2935 23.1688L20.4714 25.991V10.5006H18.0099ZM5.7022 22.8083V25.2698H8.16374V22.8083H5.7022ZM5.7022 27.7313V30.1929H8.16374V27.7313H5.7022Z" fill="white"/>
</svg>
