<svg width="35" height="35" viewBox="0 0 35 35" fill="none" xmlns="http://www.w3.org/2000/svg">
<g clip-path="url(#clip0_1329_161)">
<path d="M17.6004 0.71875C10.2957 0.71875 3.53764 5.26503 4.80957 16.0841C4.58481 16.2629 4.36516 16.457 4.19659 16.6971C3.53764 17.6268 3.21582 18.8323 3.21582 20.1298C3.21582 21.7593 4.17616 23.0108 5.17736 23.9303C5.91294 24.6046 6.65873 25.0745 7.50669 25.3197C8.23715 27.695 9.66744 29.5799 11.3072 30.8365C11.8844 31.2758 12.7068 31.1686 13.1461 30.5913C13.5854 30.0141 13.4781 29.1917 12.9009 28.7524C11.4298 27.6235 10.1527 26.0553 9.71342 23.9712C9.5806 23.3786 9.05446 22.9546 8.44659 22.9495C8.61005 22.9495 7.60374 22.6226 6.93457 22.0096C6.2654 21.3966 5.8312 20.6304 5.8312 20.1298C5.8312 19.5219 5.97934 19.0162 6.15813 18.6178C6.52081 19.0315 7.10314 19.1695 7.61907 18.9703C8.12988 18.771 8.46191 18.2704 8.44659 17.7188V16.6154C8.44659 16.5745 8.44659 16.5337 8.44659 16.4928C8.49767 15.558 8.62027 14.7049 8.81438 13.9183C10.6176 13.3002 12.1194 14.3065 13.6774 9.70913C15.736 15.7879 21.8607 11.8239 26.4274 14.0817C26.601 14.8275 26.7032 15.6193 26.7543 16.4928C26.7543 16.5337 26.7543 16.5745 26.7543 16.6154V17.7188C26.7543 18.439 27.3417 19.0264 28.062 19.0264V22.2548C27.495 22.6992 26.8667 22.9495 26.7543 22.9495C26.1464 22.9546 25.6203 23.3786 25.4875 23.9712C25.2014 25.3197 24.5782 26.4639 23.7711 27.4038C23.3727 27.7359 23.2092 28.2773 23.3573 28.7728C23.5004 29.2734 23.9295 29.6361 24.4454 29.7025C24.9613 29.7689 25.467 29.5237 25.7326 29.0793C26.6164 28.0526 27.2906 26.7755 27.7351 25.3197C28.4808 25.1103 29.1602 24.7629 29.7783 24.2572H29.9826C29.6966 25.3606 29.2369 26.5048 28.7567 27.4856C28.062 28.8954 27.5052 29.7332 27.3673 29.9375C27.2651 29.9886 26.9484 30.1623 25.8961 30.4279C25.0839 30.6373 23.955 30.8468 22.5043 30.9591C22.208 29.4165 20.5683 28.2212 18.5403 28.2212C16.303 28.2212 14.4947 29.6719 14.4947 31.4495C14.4947 33.2272 16.303 34.6779 18.5403 34.6779C20.0013 34.6779 21.263 34.0496 21.973 33.125C23.8835 33.0177 25.3649 32.7419 26.4274 32.4712C27.7963 32.1238 28.5524 31.7356 28.5524 31.7356C28.7056 31.6436 28.8282 31.521 28.9201 31.3678C28.9201 31.3678 29.7936 30.1418 30.6365 28.4255C31.275 27.128 31.9084 25.5598 32.1894 23.9303C33.5635 23.3326 34.4778 21.9585 34.4778 20.3341V17.7188C34.4778 15.5529 32.8432 13.7957 30.6774 13.7957H30.473C30.4781 4.64693 24.3688 0.71875 17.6004 0.71875ZM12.3697 16.4111C10.9241 16.4111 9.75428 17.5808 9.75428 19.0264C9.75428 20.4721 10.9241 21.6418 12.3697 21.6418C13.8153 21.6418 14.9851 20.4721 14.9851 19.0264C14.9851 17.5808 13.8153 16.4111 12.3697 16.4111ZM22.8312 16.4111C21.3856 16.4111 20.2158 17.5808 20.2158 19.0264C20.2158 20.4721 21.3856 21.6418 22.8312 21.6418C24.2768 21.6418 25.4466 20.4721 25.4466 19.0264C25.4466 17.5808 24.2768 16.4111 22.8312 16.4111Z" fill="white"/>
</g>
<defs>
<clipPath id="clip0_1329_161">
<rect width="34" height="34" fill="white" transform="translate(0.600342 0.71875)"/>
</clipPath>
</defs>
</svg>
