<svg width="378" height="35" viewBox="0 0 378 35" fill="none" xmlns="http://www.w3.org/2000/svg">
<rect x="275.646" y="0.615723" width="1" height="33.6502" rx="0.5" fill="black"/>
<rect x="114.525" y="0.615723" width="1" height="33.6502" rx="0.5" fill="black"/>
<path d="M365.731 11.1375C366.49 7.04794 369.187 3.98746 373.484 2.33876C373.99 2.14452 374.071 2.12908 374.031 2.23433C374.016 2.27378 374.003 5.4938 374.003 9.39018V16.4742L373.608 16.5733C371.803 17.0252 369.534 18.477 368.29 19.9755C365.1 23.8179 365.608 29.4799 369.371 32.0182C369.546 32.1362 369.709 32.2489 369.732 32.2685C369.777 32.3052 369.413 32.7118 369.335 32.7118C369.232 32.7118 368.178 31.8828 367.865 31.556C366.958 30.6079 366.098 28.8813 365.781 27.3765C365.614 26.5801 365.597 25.6793 365.612 18.5477L365.626 11.7035L365.731 11.1375Z" fill="black"/>
<path d="M375.573 7.08844C375.923 6.85927 376.433 6.6134 376.872 6.46291C377.071 6.39468 377.269 6.33736 377.312 6.33562C377.387 6.33272 377.391 6.66538 377.391 12.7121V19.0916L376.793 19.0983C371.755 19.1547 367.405 23.6634 368.305 27.8953C368.627 29.4109 369.643 30.9442 370.744 31.5767C370.809 31.614 370.797 31.6415 370.652 31.788L370.486 31.9564L370.228 31.7789C366.261 29.0498 366.304 22.9704 370.313 19.7426C371.656 18.6607 373.726 17.678 375.121 17.4593L375.313 17.4293V12.3439V7.25866L375.573 7.08844Z" fill="black"/>
<path d="M369.75 24.9149C370.864 22.5708 372.97 21.0176 375.711 20.5189C376.189 20.4319 377.297 20.4099 377.373 20.486C377.39 20.5033 377.368 20.783 377.324 21.1076L377.243 21.6978L377.08 21.6985C374.417 21.7101 371.518 23.5051 370.567 25.7307C369.824 27.4689 370.261 29.572 371.602 30.7128L371.812 30.8919L371.657 31.0539C371.439 31.2806 371.433 31.2778 370.847 30.6836C369.33 29.145 368.875 26.7554 369.75 24.9149Z" fill="black"/>
<path d="M371.466 26.7762C372.052 24.9062 373.715 23.5995 376.059 23.1692C376.233 23.1372 376.462 23.1092 376.569 23.107L376.763 23.1029L376.732 23.2728C376.613 23.9232 376.468 24.2339 376.285 24.2354C375.852 24.239 374.539 24.7014 373.978 25.048C372.233 26.1253 371.611 28.1476 372.562 29.6523L372.699 29.8687L372.549 30.0319C372.467 30.1217 372.393 30.2057 372.384 30.2184C372.315 30.3199 371.608 29.2836 371.467 28.8739C371.31 28.4182 371.31 27.2764 371.466 26.7762Z" fill="black"/>
<path d="M364.325 11.1375C363.566 7.04794 360.869 3.98746 356.572 2.33876C356.066 2.14452 355.985 2.12908 356.025 2.23433C356.04 2.27378 356.052 5.4938 356.052 9.39018V16.4742L356.448 16.5733C358.252 17.0252 360.522 18.477 361.766 19.9755C364.956 23.8179 364.448 29.4799 360.684 32.0182C360.509 32.1362 360.347 32.2489 360.323 32.2685C360.279 32.3052 360.643 32.7118 360.72 32.7118C360.823 32.7118 361.878 31.8828 362.19 31.556C363.097 30.6079 363.958 28.8813 364.274 27.3765C364.442 26.5801 364.459 25.6793 364.444 18.5477L364.43 11.7035L364.325 11.1375Z" fill="black"/>
<path d="M354.483 7.08844C354.133 6.85927 353.622 6.6134 353.184 6.46291C352.985 6.39468 352.787 6.33736 352.743 6.33562C352.668 6.33272 352.664 6.66538 352.664 12.7121V19.0916L353.263 19.0983C358.301 19.1547 362.651 23.6634 361.751 27.8953C361.429 29.4109 360.413 30.9442 359.312 31.5767C359.247 31.614 359.259 31.6415 359.403 31.788L359.57 31.9564L359.828 31.7789C363.795 29.0498 363.752 22.9704 359.743 19.7426C358.399 18.6607 356.33 17.678 354.934 17.4593L354.742 17.4293V12.3439V7.25866L354.483 7.08844Z" fill="black"/>
<path d="M360.306 24.9149C359.191 22.5708 357.085 21.0176 354.344 20.5189C353.866 20.4319 352.758 20.4099 352.682 20.486C352.665 20.5033 352.688 20.783 352.732 21.1076L352.813 21.6978L352.976 21.6985C355.638 21.7101 358.538 23.5051 359.489 25.7307C360.232 27.4689 359.795 29.572 358.454 30.7128L358.243 30.8919L358.399 31.0539C358.616 31.2806 358.623 31.2778 359.209 30.6836C360.726 29.145 361.18 26.7554 360.306 24.9149Z" fill="black"/>
<path d="M358.589 26.7762C358.004 24.9062 356.34 23.5995 353.997 23.1692C353.823 23.1372 353.593 23.1092 353.487 23.107L353.293 23.1029L353.324 23.2728C353.443 23.9232 353.587 24.2339 353.771 24.2354C354.204 24.239 355.517 24.7014 356.078 25.048C357.823 26.1253 358.444 28.1476 357.493 29.6523L357.357 29.8687L357.506 30.0319C357.589 30.1217 357.663 30.2057 357.672 30.2184C357.741 30.3199 358.448 29.2836 358.589 28.8739C358.745 28.4182 358.746 27.2764 358.589 26.7762Z" fill="black"/>
<path fill-rule="evenodd" clip-rule="evenodd" d="M305.687 15.071C305.452 15.0787 305.251 15.0865 305.085 15.0942L305.056 16.8325L306.881 16.8035L306.904 16.3284C306.927 15.9189 306.939 15.691 306.939 15.6446C306.939 15.4747 306.885 15.3356 306.777 15.2275C306.669 15.1193 306.529 15.0652 306.36 15.0652C306.151 15.0652 305.927 15.0671 305.687 15.071Z" fill="black"/>
<path fill-rule="evenodd" clip-rule="evenodd" d="M322.99 7.58479C323.229 7.57706 323.432 7.56934 323.598 7.56161L323.627 5.82332L321.802 5.8523L321.779 6.32743C321.755 6.73689 321.744 6.9648 321.744 7.01115C321.744 7.18112 321.798 7.32018 321.906 7.42834C322.014 7.5365 322.153 7.59058 322.323 7.59058C322.532 7.59058 322.754 7.58865 322.99 7.58479Z" fill="black"/>
<path d="M300.038 21.4679V23.8436C300.038 24.9136 300.067 25.6668 300.125 26.1033C299.778 26.3196 299.364 26.4954 298.885 26.6306C298.41 26.7619 297.954 26.8276 297.518 26.8276C296.842 26.8276 296.374 26.6209 296.116 26.2076C295.949 26.4124 295.71 26.5669 295.397 26.6712C295.088 26.7755 294.762 26.8276 294.418 26.8276C294.12 26.8276 293.873 26.7755 293.676 26.6712C293.692 27.3588 293.717 27.8744 293.752 28.2182C293.176 28.4925 292.527 28.7146 291.805 28.8846C291.082 29.0584 290.437 29.1453 289.869 29.1453C289.255 29.1453 288.718 29.0391 288.259 28.8266C287.803 28.6142 287.449 28.3109 287.198 27.9169C286.951 27.5229 286.827 27.0632 286.827 26.5379C286.827 26.2057 286.897 25.4872 287.036 24.3824C287.109 23.8493 287.146 23.5249 287.146 23.409V22.7137L288.768 22.5398C288.865 22.8296 288.913 23.1193 288.913 23.409C288.913 23.4785 288.902 23.6118 288.879 23.8088C288.855 24.0019 288.83 24.2105 288.803 24.4346C288.745 24.902 288.701 25.2883 288.67 25.5934C288.639 25.8947 288.624 26.142 288.624 26.3351C288.624 26.5321 288.674 26.7059 288.774 26.8566C288.879 27.0111 289.027 27.1308 289.22 27.2158C289.417 27.3047 289.653 27.3491 289.927 27.3491C290.681 27.3491 291.376 27.2332 292.013 27.0014C291.955 26.9165 291.907 26.7832 291.868 26.6016C291.83 26.4162 291.81 26.2501 291.81 26.1033V21.9894L293.462 21.8445L293.665 22.0473V24.2781C293.665 24.5562 293.724 24.7513 293.844 24.8633C293.964 24.9754 294.174 25.0314 294.476 25.0314C294.793 25.0314 295.063 24.9831 295.287 24.8865L295.316 22.7426L296.938 22.5978L297.141 22.8006V24.5389C297.141 24.6972 297.188 24.8189 297.28 24.9039C297.373 24.9889 297.5 25.0314 297.663 25.0314C297.79 25.0314 297.923 25.0198 298.062 24.9966C298.202 24.9734 298.31 24.9464 298.387 24.9155C298.333 24.8189 298.285 24.6702 298.242 24.4693C298.203 24.2646 298.184 24.085 298.184 23.9305V21.41L299.836 21.2651L300.038 21.4679Z" fill="black"/>
<path d="M303.429 22.0473V26.3351C303.429 26.8836 303.307 27.3761 303.064 27.8126C302.82 28.2491 302.488 28.5891 302.067 28.8324C301.65 29.0797 301.186 29.2033 300.677 29.2033C300.441 29.2033 300.182 29.184 299.9 29.1453C299.618 29.1067 299.41 29.0623 299.274 29.0121L299.112 28.7687L299.344 27.2912C299.576 27.3452 299.823 27.3877 300.086 27.4186C300.344 27.4495 300.561 27.465 300.735 27.465C300.862 27.465 300.991 27.4128 301.123 27.3085C301.254 27.2081 301.362 27.071 301.447 26.8971C301.532 26.7272 301.575 26.5398 301.575 26.3351V21.9894L303.226 21.8445L303.429 22.0473Z" fill="black"/>
<path d="M306.675 18.6287L306.618 25.8716L306.704 26.6248L305.082 26.8856C304.989 26.6538 304.922 26.4394 304.879 26.2424C304.841 26.0415 304.821 25.802 304.821 25.5239V18.5708L306.473 18.4259L306.675 18.6287Z" fill="black"/>
<path fill-rule="evenodd" clip-rule="evenodd" d="M314.401 26.8276C314.401 26.8276 314.401 26.8276 314.401 26.8276C314.399 26.8276 314.403 26.8276 314.401 26.8276Z" fill="black"/>
<path fill-rule="evenodd" clip-rule="evenodd" d="M342.286 26.8276C342.286 26.8276 342.287 26.8276 342.286 26.8276C343.41 26.8276 344.158 26.5514 344.529 25.999C344.159 26.5507 343.408 26.8269 342.286 26.8276Z" fill="black"/>
<path fill-rule="evenodd" clip-rule="evenodd" d="M314.401 26.8276C313.806 26.8276 313.358 26.7581 313.045 26.619C312.736 26.4761 312.524 26.2656 312.408 25.9874C312.176 26.2385 311.871 26.4413 311.492 26.5958C311.118 26.7504 310.756 26.8276 310.409 26.8276C310.022 26.8276 309.675 26.7561 309.366 26.6132C309.057 26.4703 308.815 26.2791 308.641 26.0396C308.468 25.8001 308.381 25.5413 308.381 25.2632C308.381 25.155 308.396 24.958 308.427 24.6721L308.45 24.3708C308.462 24.2704 308.468 24.1912 308.468 24.1333V23.7856L310.003 23.6118C310.034 23.689 310.061 23.7721 310.084 23.8609C310.107 23.9498 310.119 24.0212 310.119 24.0753C310.119 24.1873 310.113 24.3052 310.102 24.4288L310.09 24.7127C310.09 24.8131 310.127 24.8923 310.2 24.9503C310.277 25.0043 310.376 25.0314 310.496 25.0314C310.7 25.0314 310.899 24.9966 311.092 24.9271C311.286 24.8537 311.442 24.7629 311.562 24.6548C311.682 24.5466 311.741 24.4404 311.741 24.3361C311.741 24.1545 311.691 23.6465 311.591 22.8122C311.494 21.9739 311.409 21.2844 311.336 20.7436L312.987 20.396L313.19 20.5988L313.538 24.3071C313.561 24.5659 313.634 24.7513 313.758 24.8633C313.885 24.9754 314.102 25.0314 314.407 25.0314H316.14H317.883H319.626H321.369H323.111H324.854H326.597H328.34H330.083H331.825H333.568H335.311H337.054H338.797H340.539H342.282C342.587 25.0314 342.843 25.0024 343.04 24.9445C343.094 24.7977 343.168 24.4616 343.26 23.9363C343.326 23.5577 343.384 23.2467 343.434 23.0034C343.484 22.7562 343.546 22.534 343.619 22.337C343.728 22.0319 343.921 21.7789 344.199 21.578C344.481 21.3771 344.875 21.2149 345.381 21.0913C345.891 20.9677 346.549 20.8711 347.357 20.8016L348.4 21.7286V24.2492C348.4 24.5427 348.409 24.8518 348.429 25.1762C348.448 25.5007 348.477 25.7615 348.516 25.9585L347.212 26.8856C346.663 26.8044 346.155 26.6866 345.688 26.5321C345.221 26.3776 344.834 26.1999 344.529 25.999C344.158 26.5514 343.41 26.8276 342.286 26.8276L340.539 26.8276H338.797H337.054H335.311H333.568H331.825H330.083H328.34H326.597H324.854H323.111H321.369H319.626H317.883H316.14L314.401 26.8276ZM346.586 24.9503C345.976 24.7842 345.45 24.5775 345.01 24.3303C345.045 24.1449 345.082 23.9575 345.12 23.7682C345.163 23.5789 345.203 23.4206 345.242 23.2931C345.281 23.154 345.337 23.0478 345.41 22.9744C345.487 22.8972 345.617 22.8334 345.798 22.7832C345.98 22.733 346.254 22.6886 346.621 22.6499C346.571 23.0864 346.546 23.6388 346.546 24.3071C346.546 24.5582 346.559 24.7726 346.586 24.9503Z" fill="black"/>
<path d="M320.415 14.0802C319.345 14.0802 318.59 13.7924 318.15 13.2168C317.871 13.267 317.578 13.3076 317.269 13.3385C316.964 13.3694 316.713 13.3849 316.516 13.3849C316.183 13.3849 315.853 13.2844 315.525 13.0836C315.2 12.8827 314.934 12.6258 314.725 12.3129C314.52 11.9962 314.418 11.6756 314.418 11.3511C314.418 11.1348 314.437 10.8933 314.476 10.6268C314.519 10.3564 314.584 9.98942 314.673 9.52587C314.773 9.01598 314.839 8.63355 314.87 8.3786L317.692 7.73544V7.09807L319.343 6.95321L319.546 7.15601V11.5597C319.546 11.7567 319.571 11.9073 319.621 12.0116C319.675 12.1121 319.764 12.1835 319.888 12.226C320.01 12.2643 320.184 12.2836 320.409 12.2839C320.964 12.2837 321.42 12.2741 321.779 12.255C322.146 12.2318 322.424 12.1932 322.613 12.1391C322.555 12.0387 322.507 11.8957 322.468 11.7103C322.429 11.521 322.41 11.3453 322.41 11.183V8.66252L324.015 8.51767L324.264 8.72047V11.0961C324.264 12.1661 324.293 12.9773 324.351 13.5297C323.872 13.7036 323.289 13.8388 322.601 13.9353C321.918 14.0319 321.192 14.0802 320.415 14.0802ZM316.272 11.0672C316.272 11.2101 316.326 11.3337 316.435 11.438C316.547 11.5384 316.676 11.5886 316.823 11.5886C317.012 11.5886 317.302 11.5616 317.692 11.5075V9.5027L316.452 9.76923L316.377 10.2617C316.307 10.7021 316.272 10.9706 316.272 11.0672Z" fill="black"/>
<path d="M328.47 14.0802C327.825 14.0802 327.313 14.0068 326.934 13.86C326.556 13.7093 326.279 13.4698 326.106 13.1415C325.932 12.8093 325.841 12.3593 325.833 11.7914L325.746 5.82332L327.398 5.67847L327.601 5.88127V11.6466C327.601 11.8243 327.626 11.9575 327.676 12.0464C327.73 12.1352 327.817 12.197 327.937 12.2318C328.06 12.2666 328.238 12.284 328.47 12.284C328.775 12.284 329.025 12.255 329.222 12.197C329.276 12.0502 329.35 11.7142 329.442 11.1888C329.508 10.8103 329.566 10.4993 329.616 10.256C329.666 10.0087 329.728 9.78662 329.801 9.58961C329.91 9.28444 330.103 9.03143 330.381 8.83056C330.663 8.62969 331.057 8.46745 331.563 8.34384C332.073 8.22023 332.731 8.12366 333.539 8.05412L334.582 8.98121V11.5017C334.582 11.7953 334.591 12.1043 334.611 12.4288C334.63 12.7533 334.659 13.014 334.698 13.211L333.394 14.1381C332.845 14.057 332.337 13.9392 331.87 13.7847C331.403 13.6302 331.016 13.4525 330.711 13.2516C330.34 13.804 329.594 14.0802 328.47 14.0802ZM331.192 11.5828C331.632 11.8301 332.158 12.0367 332.768 12.2028C332.741 12.0251 332.728 11.8108 332.728 11.5597C332.728 10.8914 332.753 10.339 332.803 9.9025C332.436 9.94113 332.162 9.98555 331.98 10.0358C331.799 10.086 331.669 10.1497 331.592 10.227C331.519 10.3004 331.462 10.4066 331.424 10.5457C331.385 10.6731 331.345 10.8315 331.302 11.0208C331.264 11.2101 331.227 11.3974 331.192 11.5828Z" fill="black"/>
<path d="M338.813 14.0802C338.168 14.0802 337.656 14.0068 337.278 13.86C336.899 13.7093 336.623 13.4698 336.449 13.1415C336.276 12.8093 336.185 12.3593 336.177 11.7914L336.09 5.82332L337.741 5.67847L337.944 5.88127V11.6466C337.944 11.8243 337.969 11.9575 338.02 12.0464C338.074 12.1352 338.161 12.197 338.28 12.2318C338.404 12.2666 338.582 12.284 338.813 12.284C339.281 12.284 339.61 12.2608 339.803 12.2144C339.996 12.1681 340.124 12.0812 340.186 11.9537C340.251 11.8223 340.296 11.5944 340.319 11.27L340.464 9.32887L342.086 9.18401L342.26 9.38681L342.15 11.5249C342.138 11.7103 342.119 11.8726 342.092 12.0116C342.185 12.1932 342.415 12.284 342.782 12.284C343.156 12.284 343.456 12.2357 343.68 12.1391L343.709 9.99521L345.331 9.85035L345.534 10.0532V11.7914C345.534 11.9498 345.58 12.0715 345.673 12.1565C345.766 12.2415 345.893 12.284 346.055 12.284C346.183 12.284 346.316 12.2724 346.455 12.2492C346.594 12.226 346.702 12.199 346.78 12.1681C346.726 12.0715 346.677 11.9228 346.635 11.7219C346.596 11.5172 346.577 11.3376 346.577 11.183V8.66252L348.228 8.51767L348.431 8.72047V11.0961C348.431 12.1661 348.46 12.9194 348.518 13.3559C348.17 13.5722 347.757 13.748 347.278 13.8832C346.803 14.0145 346.347 14.0802 345.91 14.0802C345.234 14.0802 344.767 13.8735 344.508 13.4602C344.338 13.6688 344.093 13.8252 343.772 13.9295C343.452 14.03 343.102 14.0802 342.724 14.0802C341.997 14.0802 341.464 13.8948 341.124 13.5239C340.58 13.8948 339.81 14.0802 338.813 14.0802Z" fill="black"/>
<path fill-rule="evenodd" clip-rule="evenodd" d="M295.187 13.2516C294.816 13.804 294.073 14.0802 292.949 14.0802C292.3 14.0802 291.786 14.0667 291.408 14.0396C291.029 14.0126 290.732 13.9701 290.515 13.9121C290.299 13.8542 290.117 13.7692 289.971 13.6572C289.577 13.7422 289.227 13.8272 288.922 13.9121C288.621 13.9971 288.408 14.0725 288.285 14.1381C288.215 14.3158 288.163 14.4974 288.128 14.6828C288.097 14.8721 288.082 15.0382 288.082 15.1811C288.082 15.3626 288.138 15.523 288.25 15.662C288.366 15.8049 288.526 15.915 288.731 15.9923C288.939 16.0696 289.177 16.1082 289.443 16.1082C290.332 16.1082 291.162 16.0696 291.935 15.9923L292.167 16.253L292.08 17.7596C291.717 17.7982 291.251 17.831 290.683 17.8581C290.119 17.889 289.677 17.9044 289.356 17.9044C288.715 17.9044 288.159 17.7963 287.688 17.5799C287.216 17.3675 286.855 17.0604 286.604 16.6586C286.353 16.2569 286.228 15.7837 286.228 15.239C286.228 14.9261 286.266 14.6094 286.343 14.2888C286.421 13.9682 286.525 13.6823 286.656 13.4312C286.788 13.1763 286.934 12.987 287.097 12.8634C287.193 12.7938 287.303 12.7301 287.427 12.6722C287.176 12.3825 286.998 12.0116 286.894 11.5597L286.488 9.76344L287.56 8.31487H290.689C290.905 8.31487 291.122 8.40178 291.338 8.57561C291.554 8.74558 291.732 8.96383 291.871 9.23036C292.01 9.4969 292.08 9.76151 292.08 10.0242C292.08 10.2791 292.031 10.6191 291.935 11.044C291.842 11.4689 291.717 11.8822 291.558 12.284H292.949C293.254 12.284 293.501 12.255 293.698 12.197C293.752 12.0502 293.826 11.7142 293.918 11.1888C293.984 10.8103 294.042 10.4993 294.092 10.256C294.142 10.0087 294.204 9.78662 294.278 9.58961C294.386 9.28444 294.579 9.03143 294.857 8.83056C295.139 8.62969 295.533 8.46745 296.039 8.34384C296.549 8.22023 297.207 8.12366 298.015 8.05412L299.058 8.98121V11.5017C299.058 11.7953 299.067 12.1043 299.087 12.4288C299.106 12.7533 299.135 13.014 299.174 13.211L297.87 14.1381C297.321 14.057 296.813 13.9392 296.346 13.7847C295.879 13.6302 295.492 13.4525 295.187 13.2516ZM295.668 11.5828C296.109 11.8301 296.634 12.0367 297.244 12.2028C297.217 12.0251 297.204 11.8108 297.204 11.5597C297.204 10.8914 297.229 10.339 297.279 9.9025C296.912 9.94113 296.638 9.98555 296.456 10.0358C296.275 10.086 296.145 10.1497 296.068 10.227C295.995 10.3004 295.939 10.4066 295.9 10.5457C295.861 10.6731 295.821 10.8315 295.778 11.0208C295.74 11.2101 295.703 11.3974 295.668 11.5828ZM288.806 11.7972C288.744 11.6504 288.686 11.4457 288.632 11.183L288.4 10.0532H290.301C290.274 10.3583 290.226 10.6789 290.156 11.015C290.087 11.3511 290.003 11.6678 289.907 11.9653L289.073 12.1739C288.961 12.0657 288.872 11.9402 288.806 11.7972Z" fill="black"/>
<path d="M303.289 14.0802C302.644 14.0802 302.133 14.0068 301.754 13.86C301.375 13.7093 301.099 13.4698 300.925 13.1415C300.752 12.8093 300.661 12.3593 300.653 11.7914L300.566 5.82332L302.218 5.67847L302.42 5.88127V11.6466C302.42 11.8243 302.445 11.9575 302.496 12.0464C302.55 12.1352 302.637 12.197 302.756 12.2318C302.88 12.2666 303.058 12.284 303.289 12.284H304.737C305.328 12.284 305.809 12.255 306.18 12.197C306.555 12.1391 306.895 12.0387 307.2 11.8957C307.505 11.7489 307.849 11.5346 308.231 11.2526C308.1 10.9049 307.984 10.65 307.883 10.4877C307.787 10.3255 307.681 10.2135 307.565 10.1517C307.449 10.0898 307.289 10.0474 307.084 10.0242L306.122 9.91988C306.103 10.3062 306.066 10.6693 306.012 11.0092L305.78 11.183L304.129 11.0092C304.171 10.8238 304.21 10.5225 304.245 10.1053C304.283 9.68425 304.303 9.32887 304.303 9.03915L305.403 8.05412L307.374 8.25692C307.853 8.30328 308.221 8.3786 308.48 8.4829C308.739 8.58334 308.961 8.7591 309.147 9.01018C309.336 9.26127 309.527 9.64562 309.72 10.1632C309.925 10.0435 310.112 9.96624 310.282 9.93147C310.452 9.89671 310.68 9.87932 310.966 9.87932L311.117 10.0647L310.966 11.6176C310.742 11.6408 310.568 11.6717 310.444 11.7103C310.325 11.7451 310.18 11.8204 310.01 11.9363C309.844 12.0483 309.573 12.2511 309.199 12.5447C308.677 12.958 308.212 13.2728 307.802 13.4892C307.393 13.7016 306.952 13.8542 306.481 13.9469C306.014 14.0358 305.432 14.0802 304.737 14.0802H303.289Z" fill="black"/>
<path d="M254.367 19.2515C254.323 19.3034 253.927 19.8724 253.298 20.7848C253.182 20.9531 252.692 21.6601 252.208 22.3559C251.725 23.0515 251.329 23.6404 251.329 23.6643C251.329 23.6882 251.487 23.9363 251.68 24.2157C251.873 24.4951 252.151 24.8981 252.298 25.1115C252.444 25.3247 252.737 25.7471 252.949 26.0502C253.161 26.3533 253.423 26.7298 253.531 26.8869C256.443 31.101 256.301 30.9243 256.975 31.1766L257.237 31.2749H260.027C262.737 31.2749 262.815 31.2727 262.775 31.1987C262.753 31.1568 262.572 30.8912 262.374 30.6083C262.176 30.3256 261.912 29.9457 261.788 29.7643C261.664 29.5828 261.479 29.3164 261.378 29.1723C261.276 29.0281 261.113 28.7948 261.016 28.6537C260.918 28.5127 259.838 26.9554 258.615 25.1931C257.393 23.4308 256.247 21.7777 256.068 21.5195C255.89 21.2613 255.667 20.9399 255.573 20.8052C255.23 20.3162 254.887 19.8188 254.679 19.51C254.451 19.1713 254.441 19.1626 254.367 19.2515Z" fill="black"/>
<path d="M255.008 18.3158L254.77 18.6633L256.526 21.195C257.491 22.5874 258.386 23.8776 258.515 24.0619C258.643 24.2463 258.827 24.5125 258.925 24.6535C259.022 24.7946 259.185 25.0278 259.286 25.1719C259.388 25.3158 259.775 25.8757 260.147 26.416C260.52 26.9561 261.011 27.6647 261.24 27.9905C261.468 28.3162 261.797 28.789 261.97 29.0411C262.143 29.2931 262.476 29.7749 262.71 30.1116C263.573 31.3521 263.88 31.8018 263.88 31.825C263.88 31.8379 262.352 31.8434 260.486 31.837L257.092 31.8253L256.825 31.7267C256.02 31.4286 255.912 31.3157 254.569 29.371C254.31 28.9953 253.937 28.4573 253.741 28.1753C253.545 27.8933 253.264 27.488 253.118 27.2748C252.793 26.8015 251.881 25.4884 251.368 24.7543C251.119 24.3981 251.027 24.2465 250.945 24.2518C250.881 24.2559 250.822 24.3586 250.696 24.536C250.582 24.698 250.51 24.7772 250.499 24.8638C250.484 24.9919 250.602 25.1363 250.916 25.5884C251.163 25.9435 251.463 26.3771 251.583 26.5521C251.703 26.727 251.884 26.9882 251.985 27.1325C252.087 27.2766 252.25 27.51 252.347 27.651C252.444 27.7921 252.693 28.1504 252.9 28.4475C253.277 28.9871 254.432 30.6524 254.768 31.14C255.267 31.8655 255.951 32.3615 256.77 32.5909C257.144 32.6959 265.479 32.7632 265.479 32.6612C265.479 32.636 265.107 32.0796 264.651 31.4248C263.754 30.1342 263.382 29.5978 263.034 29.0911C262.631 28.5051 262.148 27.8106 261.545 26.9482C261.427 26.7799 261.211 26.4676 261.065 26.2544C260.919 26.041 260.611 25.5963 260.381 25.266C259.708 24.2997 259.676 24.2532 258.758 22.9282C258.276 22.2319 257.556 21.194 257.158 20.6215C256.219 19.2681 255.99 18.9369 255.628 18.4077C255.438 18.1303 255.358 18.0005 255.281 18.0026C255.213 18.0045 255.147 18.1127 255.008 18.3158Z" fill="black"/>
<path fill-rule="evenodd" clip-rule="evenodd" d="M236.412 4.68218C235.791 3.78419 235.145 2.85154 234.977 2.60964L234.672 2.16968L238.951 2.18101L243.229 2.19235L243.565 2.30571C244.459 2.60707 244.912 2.97388 245.587 3.94289C245.802 4.25056 246.143 4.73971 246.346 5.02996C246.549 5.3202 246.82 5.70968 246.948 5.89544C247.307 6.41689 247.772 7.08571 248.332 7.88638C248.45 8.05471 248.666 8.36698 248.812 8.58033C248.958 8.79358 249.224 9.179 249.403 9.43673C249.583 9.69456 249.73 9.92599 249.73 9.95101C249.73 9.97614 249.374 10.5091 248.939 11.1355C248.504 11.7618 248.02 12.458 247.865 12.6824C247.71 12.907 247.315 13.4764 246.988 13.9478C246.172 15.1236 246.092 15.2398 245.785 15.6826C245.638 15.8958 245.42 16.2081 245.301 16.3764C245.183 16.5449 245.056 16.733 245.019 16.7946C244.982 16.8562 244.933 16.9065 244.911 16.9065C244.888 16.9065 244.839 16.8562 244.802 16.7946C244.765 16.733 244.593 16.4806 244.42 16.2336C244.247 15.9866 243.985 15.6101 243.839 15.3968C243.693 15.1836 243.476 14.8713 243.358 14.7029C243.24 14.5346 242.981 14.1613 242.783 13.8734C242.585 13.5857 242.305 13.1815 242.162 12.9754C241.514 12.0446 241.145 11.512 240.501 10.5804C240.121 10.0304 239.647 9.34615 239.448 9.05997C239.249 8.7739 238.899 8.2687 238.669 7.9375C238.439 7.6063 238.092 7.10571 237.897 6.82509C237.702 6.54447 237.034 5.58017 236.412 4.68218Z" fill="black"/>
<path fill-rule="evenodd" clip-rule="evenodd" d="M256.992 2.2163C256.488 2.3148 255.872 2.6029 255.492 2.91838C255.121 3.22659 255.02 3.35203 254.242 4.47813C254.149 4.61277 253.903 4.96654 253.695 5.26416C253.488 5.56178 253.152 6.04462 252.949 6.33711C252.746 6.6296 252.392 7.13918 252.163 7.46952C251.474 8.46141 251.436 8.51574 250.585 9.74354C250.133 10.3946 249.682 11.0467 249.581 11.1926C249.379 11.4869 248.827 12.2827 248.171 13.2271C247.934 13.5681 247.496 14.2005 247.197 14.6322C246.897 15.064 246.55 15.5642 246.425 15.7438C245.899 16.4991 243.706 19.6601 243.395 20.1113C243.21 20.3807 242.961 20.7388 242.844 20.9072C242.726 21.0756 242.423 21.5126 242.17 21.8784C241.918 22.2441 241.545 22.7812 241.342 23.0719C241.139 23.3625 240.811 23.8348 240.612 24.1212C238.95 26.5205 237.247 28.977 236.551 29.978C236.364 30.2477 236.094 30.6368 235.89 30.9297L235.764 31.1107C235.561 31.4032 235.244 31.8582 235.058 32.122C234.873 32.3857 234.721 32.6245 234.72 32.6525C234.718 32.7207 242.54 32.727 243.03 32.6592C244.159 32.503 244.802 32.0418 245.709 30.7386C246.935 28.9753 247.144 28.6733 247.986 27.4584C248.468 26.7626 249.055 25.9176 249.29 25.5808C249.524 25.2441 249.88 24.7298 250.081 24.438C250.281 24.1461 250.707 23.5308 251.028 23.0706C251.348 22.6103 251.727 22.0631 251.87 21.8545C252.012 21.6459 252.175 21.413 252.232 21.3367C252.288 21.2606 252.497 20.9629 252.695 20.6752C253.085 20.1098 255.406 16.76 255.985 15.9275C256.18 15.6469 256.562 15.0958 256.834 14.7029C257.106 14.3101 257.463 13.7958 257.626 13.56C257.789 13.3243 258.031 12.9741 258.164 12.7817C258.296 12.5893 258.558 12.2127 258.745 11.945C259.115 11.4167 261.01 8.68471 261.529 7.93216C261.705 7.67667 261.969 7.29564 262.116 7.08539C262.263 6.87503 262.545 6.46876 262.744 6.18237L263.006 5.80494C263.222 5.4932 263.498 5.09589 263.729 4.76388C264.541 3.59479 264.822 3.18905 265.209 2.63113L265.526 2.17192L261.35 2.17642C259.053 2.17887 257.092 2.19684 256.992 2.2163ZM261.707 6.19242C262.997 4.3452 263.88 3.05837 263.88 3.02532C263.88 2.95774 257.469 2.9849 257.133 3.05388C256.436 3.19697 255.866 3.60901 255.377 4.32264C255.226 4.54283 254.978 4.90141 254.826 5.11947C254.673 5.33752 254.444 5.66819 254.315 5.85427C254.186 6.04024 253.648 6.81696 253.119 7.58021C252.589 8.34356 252.061 9.10585 251.944 9.27417C251.633 9.72333 250.7 11.0678 249.62 12.6213C249.269 13.1263 248.81 13.7876 248.601 14.0906C248.392 14.3937 247.75 15.3213 247.174 16.152C246.597 16.9826 246.046 17.7776 245.949 17.9186C245.852 18.0597 245.689 18.2929 245.587 18.4369C245.486 18.5808 245.135 19.0858 244.808 19.559C244.481 20.0321 243.986 20.7449 243.708 21.1428C243.431 21.5409 243.065 22.0685 242.896 22.3155C242.727 22.5624 242.416 23.0124 242.204 23.3155C241.993 23.6186 241.699 24.041 241.553 24.2542C241.406 24.4676 241.19 24.7798 241.073 24.9482C240.955 25.1165 240.738 25.4288 240.591 25.6421C240.23 26.1638 239.839 26.7267 238.677 28.3973C237.298 30.382 236.318 31.8049 236.318 31.8243C236.318 31.8377 237.845 31.8435 239.712 31.8372L243.106 31.8256L243.361 31.7333C244.116 31.4602 244.339 31.2357 245.456 29.6218C246.431 28.2137 246.572 28.0093 246.941 27.4789C247.073 27.2881 247.258 27.0217 247.351 26.887C247.445 26.7523 247.875 26.1327 248.308 25.5099C249.763 23.4147 250.142 22.8687 251.103 21.4786C251.297 21.198 251.629 20.7205 251.841 20.4175C252.053 20.1144 252.364 19.6644 252.533 19.4173C252.703 19.1704 252.956 18.8031 253.097 18.601C253.237 18.399 253.614 17.8571 253.934 17.3969C254.254 16.9367 254.637 16.3856 254.784 16.1724C255.037 15.8074 258.138 11.3341 258.506 10.8048C258.936 10.1865 259.228 9.76493 260.204 8.35575C260.78 7.52513 261.456 6.55164 261.707 6.19242Z" fill="black"/>
<path d="M183.369 28.9776L181.336 32.3561C181.257 32.488 181.114 32.5687 180.96 32.5687H179.019L182.21 27.2894L179.091 22.1245H181.265L183.369 25.6011L185.344 22.3361C185.423 22.2048 185.566 22.1245 185.719 22.1245H187.661L184.513 27.2894L187.718 32.5687H185.543L183.369 28.9776Z" fill="black"/>
<path d="M164.827 22.1245H167.03L171.551 29.2351V22.1245H173.058C173.3 22.1245 173.497 22.3209 173.497 22.5632V32.5687H171.422L166.772 25.2291V32.5687H165.265C165.023 32.5687 164.827 32.3723 164.827 32.13V22.1245Z" fill="black"/>
<path d="M175.484 22.1245H176.991C177.233 22.1245 177.43 22.3209 177.43 22.5632V32.5687H175.922C175.68 32.5687 175.484 32.3723 175.484 32.13V22.1245Z" fill="black"/>
<path d="M157.851 22.416C157.913 22.2412 158.078 22.1245 158.264 22.1245H159.914L163.634 32.5687H161.915C161.728 32.5687 161.562 32.4502 161.501 32.2735L160.959 30.7088H156.91L156.266 32.5687H154.235L157.851 22.416ZM157.568 28.8488H160.315L158.942 24.8858L157.568 28.8488Z" fill="black"/>
<path d="M149.499 32.7117C148.698 32.7117 147.963 32.5734 147.296 32.2968C146.638 32.0107 146.075 31.6292 145.607 31.1523C145.14 30.6658 144.778 30.0983 144.52 29.4497C144.263 28.7916 144.134 28.0906 144.134 27.3466C144.134 26.5645 144.272 25.8491 144.549 25.2005C144.825 24.5424 145.202 23.9749 145.679 23.498C146.165 23.0211 146.733 22.6491 147.381 22.382C148.04 22.115 148.745 21.9814 149.499 21.9814C149.985 21.9814 150.453 22.0434 150.901 22.1674C151.359 22.2914 151.783 22.4679 152.174 22.6968C152.575 22.9162 152.933 23.188 153.247 23.5123C153.572 23.8271 153.848 24.18 154.077 24.571L152.766 25.4084C152.554 25.5441 152.273 25.4714 152.126 25.2662C151.868 24.904 151.564 24.6055 151.216 24.3707C150.748 24.056 150.176 23.8986 149.499 23.8986C149.003 23.8986 148.545 23.9892 148.125 24.1704C147.706 24.3421 147.343 24.5853 147.038 24.9001C146.733 25.2053 146.494 25.5677 146.323 25.9874C146.151 26.4071 146.065 26.8602 146.065 27.3466C146.065 27.8235 146.151 28.2718 146.323 28.6915C146.494 29.1016 146.728 29.464 147.024 29.7788C147.329 30.084 147.687 30.3272 148.097 30.5085C148.517 30.6801 148.97 30.766 149.456 30.766C150.181 30.766 150.791 30.5848 151.287 30.2223C151.671 29.9399 151.989 29.5998 152.241 29.202C152.373 28.9926 152.642 28.9012 152.862 29.0163L154.235 29.7359C154.006 30.1746 153.724 30.58 153.39 30.952C153.066 31.3144 152.699 31.6292 152.289 31.8962C151.888 32.1538 151.449 32.3541 150.973 32.4971C150.505 32.6402 150.014 32.7117 149.499 32.7117Z" fill="black"/>
<path d="M135.813 32.5687V22.5632C135.813 22.3209 136.009 22.1245 136.252 22.1245H139.161C139.781 22.1245 140.329 22.2151 140.806 22.3963C141.293 22.568 141.703 22.816 142.037 23.1403C142.37 23.4551 142.623 23.8366 142.795 24.2849C142.976 24.7236 143.067 25.2148 143.067 25.7585C143.067 26.388 142.914 26.9794 142.609 27.5326C142.313 28.0763 141.879 28.5007 141.307 28.8059L143.396 32.5687H141.178L139.504 29.3782H137.759V32.13C137.759 32.3723 137.562 32.5687 137.32 32.5687H135.813ZM138.989 27.5898C139.39 27.5898 139.724 27.5421 139.991 27.4467C140.267 27.3418 140.487 27.2035 140.649 27.0318C140.82 26.8506 140.94 26.6455 141.006 26.4166C141.083 26.1877 141.121 25.9445 141.121 25.687C141.121 25.1528 140.949 24.7284 140.606 24.4136C140.272 24.0989 139.733 23.9415 138.989 23.9415H137.759V27.5898H138.989Z" fill="black"/>
<path d="M128.723 22.416C128.786 22.2412 128.951 22.1245 129.137 22.1245H130.787L134.507 32.5687H132.788C132.601 32.5687 132.435 32.4502 132.373 32.2735L131.832 30.7088H127.783L127.139 32.5687H125.107L128.723 22.416ZM128.441 28.8488H131.188L129.814 24.8858L128.441 28.8488Z" fill="black"/>
<path d="M188.109 22.1888V22.1119H188.645V22.1888H188.42V22.8272H188.334V22.1888H188.109Z" fill="black"/>
<path d="M188.779 22.1119H188.882L189.125 22.7057H189.134L189.377 22.1119H189.48V22.8272H189.399V22.2838H189.392L189.169 22.8272H189.091L188.867 22.2838H188.86V22.8272H188.779V22.1119Z" fill="black"/>
<path d="M194.439 23.9843H191.649V22.1244H199.189V23.5456C199.189 23.7879 198.993 23.9843 198.751 23.9843H196.385V32.5685H194.878C194.636 32.5685 194.439 32.3721 194.439 32.1298V23.9843Z" fill="black"/>
<path d="M218.361 22.1244H220.292L223.454 26.5166L226.745 22.1244H228.152C228.394 22.1244 228.59 22.3208 228.59 22.563V32.5685H226.644V25.2433L223.44 29.564L220.306 25.3148V32.5685H218.799C218.557 32.5685 218.361 32.3721 218.361 32.1298V22.1244Z" fill="black"/>
<path d="M200.381 22.1244H206.138C206.38 22.1244 206.576 22.3208 206.576 22.563V23.9843H202.327V26.3879H206.576V28.2478H202.327V30.7086H206.576V32.5685H200.82C200.578 32.5685 200.381 32.3721 200.381 32.1298V22.1244Z" fill="black"/>
<path d="M211.385 22.4158C211.447 22.2411 211.612 22.1244 211.798 22.1244H213.449L217.168 32.5685H215.449C215.262 32.5685 215.096 32.45 215.035 32.2733L214.493 30.7086H210.444L209.8 32.5685H207.769L211.385 22.4158ZM211.102 28.8487H213.849L212.476 24.8856L211.102 28.8487Z" fill="black"/>
<path fill-rule="evenodd" clip-rule="evenodd" d="M145.426 13.5537H145.494C145.47 13.5498 145.447 13.5498 145.426 13.5537Z" fill="black"/>
<path fill-rule="evenodd" clip-rule="evenodd" d="M163.666 19.9462H161.669V17.9321H163.666V19.9462ZM166.59 19.9462H164.576V17.9321H166.59V19.9462Z" fill="black"/>
<path fill-rule="evenodd" clip-rule="evenodd" d="M173.158 7.47637H171.144V5.46228H173.158V7.47637Z" fill="black"/>
<path d="M190.945 20.2965L190.35 18.4926L192.872 17.6694C193.316 17.5176 193.666 17.2549 193.923 16.8813C194.191 16.5077 194.326 16.0932 194.326 15.6378V9.57803H196.252V15.4452C196.252 15.9005 196.182 16.3384 196.042 16.7587C195.902 17.1907 195.703 17.5819 195.446 17.9321C195.201 18.2824 194.898 18.586 194.536 18.8428C194.185 19.1114 193.794 19.3216 193.362 19.4733L190.945 20.2965Z" fill="black"/>
<path d="M200.392 15.8305H198.465V5.19957H200.392V15.8305ZM196.084 4.76173V3.83349C196.084 3.2964 196.253 2.88775 196.591 2.60752C196.93 2.31563 197.31 2.16968 197.73 2.16968H201.355V3.83349H197.94C197.823 3.83349 197.73 3.87436 197.66 3.95609C197.601 4.02614 197.572 4.10788 197.572 4.20128V4.76173H196.084Z" fill="black"/>
<path fill-rule="evenodd" clip-rule="evenodd" d="M219.098 19.9462H217.101V17.9321H219.098V19.9462ZM222.022 19.9462H220.008V17.9321H222.022V19.9462Z" fill="black"/>
<path fill-rule="evenodd" clip-rule="evenodd" d="M225.665 7.47637H223.651V5.46228H225.665V7.47637ZM228.59 7.47637H226.576V5.46228H228.59V7.47637Z" fill="black"/>
<path d="M189.491 13.5537H178.674H177.851C177.617 13.5537 177.419 13.4719 177.255 13.3085C177.092 13.145 177.01 12.9465 177.01 12.713V3.83349H175.083V12.7655C175.083 13.1859 175.165 13.5829 175.329 13.9565C175.492 14.3301 175.714 14.657 175.994 14.9373C176.274 15.2175 176.601 15.4393 176.975 15.6028C177.349 15.7546 177.746 15.8305 178.166 15.8305H178.674H189.158C189.544 15.8305 189.911 15.7604 190.262 15.6203C190.624 15.4685 190.939 15.2642 191.208 15.0073C191.488 14.7504 191.704 14.4469 191.856 14.0966C192.019 13.7463 192.101 13.361 192.101 12.9407V11.6447C192.101 11.2477 192.025 10.8741 191.873 10.5238C191.721 10.1735 191.511 9.86993 191.243 9.61306C190.986 9.35619 190.682 9.15186 190.332 9.00007C189.993 8.84829 189.625 8.77239 189.228 8.77239H182.556L185.918 4.81427L184.535 3.51824L179.386 9.543L180.769 10.8741H189.404C189.614 10.8741 189.795 10.9499 189.947 11.1017C190.098 11.2418 190.174 11.417 190.174 11.6271V12.8706C190.174 13.0808 190.104 13.2501 189.964 13.3785C189.824 13.4953 189.666 13.5537 189.491 13.5537Z" fill="black"/>
<path d="M145.494 13.5537H156.311C156.486 13.5537 156.643 13.4895 156.784 13.361C156.924 13.2326 156.994 13.0691 156.994 12.8706V11.6271C156.994 11.417 156.918 11.2418 156.766 11.1017C156.614 10.9499 156.433 10.8741 156.223 10.8741H147.589L146.205 9.543L151.354 3.51824L152.738 4.81427L149.375 8.77239H156.048C156.445 8.77239 156.813 8.84829 157.151 9.00007C157.502 9.15186 157.805 9.35619 158.062 9.61306C158.331 9.86993 158.541 10.1735 158.693 10.5238C158.844 10.8741 158.92 11.2477 158.92 11.6447V12.713C158.92 12.9465 159.002 13.145 159.165 13.3085C159.329 13.4719 159.527 13.5537 159.761 13.5537H160.847H162.352C162.586 13.5537 162.79 13.4836 162.965 13.3435C163.14 13.2034 163.298 12.9986 163.298 12.7831V9.63057H165.312V12.6079C165.312 12.8843 165.306 13.075 165.47 13.2734C165.633 13.4603 165.843 13.5537 166.1 13.5537H167.414H170.391C170.624 13.5537 170.823 13.4719 170.986 13.3085C171.15 13.1333 171.232 12.929 171.232 12.6955V9.07013H173.158V12.6955C173.158 13.1275 173.076 13.5362 172.913 13.9215C172.749 14.2951 172.522 14.6279 172.23 14.9197C171.95 15.2 171.617 15.4218 171.232 15.5853C170.858 15.7487 170.455 15.8305 170.023 15.8305H167.414H166.083C165.709 15.8305 165.335 15.7312 164.962 15.5327C164.588 15.3226 164.337 15.0774 164.209 14.7972C164.127 14.9373 164.01 15.0715 163.858 15.2C163.706 15.3167 163.537 15.4277 163.35 15.5327C163.175 15.6261 162.983 15.702 162.772 15.7604C162.574 15.8071 162.375 15.8305 162.177 15.8305H160.847H160.094C159.685 15.8305 159.306 15.7604 158.955 15.6203C158.605 15.4685 158.296 15.2642 158.027 15.0073C157.758 15.2642 157.443 15.4685 157.081 15.6203C156.731 15.7604 156.363 15.8305 155.978 15.8305H145.494H145.073C144.665 15.8305 144.273 15.7487 143.9 15.5853C143.538 15.4218 143.217 15.1591 142.937 14.7972C142.656 15.1591 142.312 15.4277 141.903 15.6028C141.506 15.7663 141.098 15.848 140.677 15.848C140.304 15.848 139.953 15.7663 139.626 15.6028C139.299 15.4277 139.019 15.1591 138.786 14.7972C138.517 15.1708 138.219 15.4393 137.893 15.6028C137.566 15.7546 137.204 15.8305 136.807 15.8305C136.608 15.8305 136.392 15.8013 136.159 15.7429C135.937 15.6728 135.744 15.5211 135.581 15.2875V15.7429C135.581 16.1866 135.487 16.5952 135.3 16.9689C135.114 17.3542 134.857 17.6869 134.53 17.9672C134.203 18.2591 133.823 18.4867 133.391 18.6502C132.971 18.8137 132.533 18.8954 132.078 18.8954H129.031C128.493 18.8954 127.986 18.7903 127.507 18.5801C127.028 18.3817 126.608 18.1014 126.246 17.7395C125.896 17.3892 125.615 16.9747 125.405 16.496C125.207 16.0173 125.107 15.5094 125.107 14.9723V9.85825H127.034V14.6921C127.034 14.9606 127.081 15.2116 127.174 15.4452C127.279 15.6787 127.419 15.883 127.594 16.0581C127.77 16.2333 127.974 16.3676 128.207 16.461C128.441 16.5661 128.692 16.6186 128.96 16.6186H132.095C132.539 16.6186 132.913 16.4668 133.216 16.1632C133.52 15.8597 133.672 15.486 133.672 15.0423V9.56052H135.598V12.748C135.598 12.9699 135.68 13.1625 135.843 13.326C136.019 13.4778 136.217 13.5537 136.439 13.5537H136.947C137.18 13.5537 137.385 13.4836 137.56 13.3435C137.735 13.2034 137.893 13.0229 137.893 12.7831V9.56052L139.889 9.543V12.6079C139.889 12.8667 139.883 13.0925 140.047 13.291C140.222 13.4778 140.432 13.5712 140.677 13.5712H141.15C141.384 13.5712 141.582 13.4953 141.746 13.3435C141.909 13.18 141.991 12.9816 141.991 12.748L141.973 9.543H143.9L143.917 12.7305C143.917 12.964 143.999 13.1625 144.162 13.326C144.326 13.4778 144.524 13.5537 144.758 13.5537H145.426H145.494Z" fill="black"/>
<path d="M209.146 15.5678C209.508 15.7429 209.905 15.8305 210.337 15.8305H212.369C212.661 15.8305 212.929 15.7779 213.175 15.6728C213.42 15.5561 213.642 15.3634 213.84 15.0949C214.097 15.3634 214.377 15.5561 214.681 15.6728C214.996 15.7779 215.323 15.8305 215.662 15.8305H216.275H217.609C217.807 15.8305 218.006 15.8071 218.204 15.7604C218.415 15.702 218.607 15.6261 218.782 15.5327C218.969 15.4277 219.138 15.3167 219.29 15.2C219.442 15.0715 219.559 14.9373 219.641 14.7972C219.769 15.0774 220.02 15.3226 220.394 15.5327C220.767 15.7312 221.141 15.8305 221.515 15.8305H222.846H225.455C225.887 15.8305 226.29 15.7487 226.664 15.5853C227.049 15.4218 227.382 15.2 227.662 14.9197C227.954 14.6279 228.181 14.2951 228.345 13.9215C228.508 13.5362 228.59 13.1275 228.59 12.6955V9.07013H226.664V12.6955C226.664 12.929 226.582 13.1333 226.418 13.3085C226.255 13.4719 226.056 13.5537 225.823 13.5537H222.846H221.532C221.275 13.5537 221.065 13.4603 220.902 13.2734C220.738 13.075 220.686 12.8531 220.744 12.6079L221.269 9.96333L219.378 9.63057L218.73 12.7831C218.683 13.0166 218.572 13.2034 218.397 13.3435C218.222 13.4836 218.018 13.5537 217.784 13.5537H216.275H215.346C215.113 13.5537 214.914 13.4719 214.751 13.3085C214.587 13.1333 214.506 12.929 214.506 12.6955V11.6447C214.506 11.2477 214.43 10.8799 214.278 10.5413C214.126 10.191 213.916 9.88744 213.648 9.63057C213.391 9.36203 213.087 9.15186 212.737 9.00007C212.387 8.84829 212.013 8.77239 211.616 8.77239H207.465C207.033 8.77239 206.624 8.85412 206.239 9.01759C205.866 9.18105 205.533 9.40873 205.241 9.70063C204.961 9.98085 204.739 10.3136 204.575 10.6989C204.412 11.0725 204.33 11.4754 204.33 11.9074V20.314H206.257V11.8023C206.257 11.5688 206.338 11.3703 206.502 11.2068C206.665 11.0434 206.864 10.9616 207.097 10.9616H207.956L207.658 12.5729C207.576 12.9932 207.588 13.4019 207.693 13.7989C207.81 14.1958 207.991 14.5461 208.236 14.8497C208.481 15.1416 208.785 15.3809 209.146 15.5678ZM209.672 13.361C209.567 13.2326 209.532 13.0808 209.567 12.9057L209.935 10.9616H211.896C212.083 10.9616 212.241 11.0258 212.369 11.1543C212.509 11.2827 212.579 11.4403 212.579 11.6271V13.5537H210.11C209.935 13.5537 209.789 13.4895 209.672 13.361Z" fill="black"/>
<path d="M74.3511 18.8418C74.3511 18.4962 74.6293 18.216 74.9726 18.216H81.4857C85.426 18.216 88.6203 21.4613 88.6203 25.4645V32.0872C88.6203 32.4329 88.342 32.7131 87.9988 32.7131H81.4857C77.5453 32.7131 74.3511 29.4678 74.3511 25.4645V18.8418Z" fill="black"/>
<path d="M104.407 18.8418C104.407 18.4962 104.128 18.216 103.785 18.216H97.272C93.3317 18.216 90.1374 21.4613 90.1374 25.4645V32.0872C90.1374 32.4329 90.4156 32.7131 90.7589 32.7131H97.272C101.212 32.7131 104.407 29.4678 104.407 25.4645V18.8418Z" fill="black"/>
<path d="M88.6203 2.79307C88.6203 2.44743 88.342 2.16724 87.9988 2.16724H81.4857C77.5453 2.16724 74.3511 5.41253 74.3511 9.4158V16.0385C74.3511 16.3842 74.6293 16.6644 74.9726 16.6644H81.4857C85.426 16.6644 88.6203 13.4191 88.6203 9.4158V2.79307Z" fill="black"/>
<path d="M90.1374 2.79307C90.1374 2.44743 90.4156 2.16724 90.7589 2.16724H97.272C101.212 2.16724 104.407 5.41253 104.407 9.4158V16.0385C104.407 16.3842 104.128 16.6644 103.785 16.6644H97.272C93.3317 16.6644 90.1374 13.4191 90.1374 9.4158V2.79307Z" fill="black"/>
<path d="M27.8673 5.32178H26.8866C26.4352 5.32178 26.0693 5.68769 26.0693 6.13906V16.5184H27.0501C27.5014 16.5184 27.8673 16.1525 27.8673 15.7011V5.32178Z" fill="black"/>
<path d="M33.4139 12.3176C33.3376 12.3721 33.2614 12.4484 33.1851 12.5465C33.1197 12.6336 33.087 12.759 33.087 12.9224V13.6089C33.087 13.7179 33.1088 13.8323 33.1524 13.9522C33.2069 14.072 33.2777 14.1865 33.3649 14.2954C33.463 14.3935 33.5774 14.4807 33.7081 14.557C33.8389 14.6223 33.9915 14.655 34.1658 14.655H34.9177C35.1138 14.655 35.2828 14.6169 35.4244 14.5406C35.5661 14.4534 35.675 14.3554 35.7513 14.2464C35.8385 14.1374 35.8984 14.0285 35.9311 13.9195C35.9747 13.7996 35.9965 13.7124 35.9965 13.658V12.9715C35.9965 12.8516 35.9638 12.7317 35.8984 12.6119C35.8439 12.492 35.7568 12.3939 35.6369 12.3176C35.5933 12.2958 35.5061 12.2414 35.3754 12.1542C35.2555 12.067 35.1193 11.9798 34.9667 11.8927C34.9504 11.8828 34.9338 11.8728 34.9171 11.8627C34.6197 11.6819 34.2414 11.6904 33.964 11.9006L33.4139 12.3176ZM32.3925 9.00946C32.6396 8.6264 33.1524 8.51958 33.5319 8.77206L36.6013 10.8139C37.059 11.119 37.3695 11.4731 37.533 11.8763C37.7073 12.2795 37.7945 12.6718 37.7945 13.0532V13.6089C37.7945 13.9685 37.7291 14.3336 37.5984 14.7041C37.4785 15.0637 37.2878 15.3906 37.0263 15.6848C36.7647 15.979 36.4378 16.2242 36.0455 16.4203C35.6641 16.6056 35.2119 16.6982 34.6889 16.6982H34.3456C33.8552 16.6982 33.4194 16.6056 33.038 16.4203C32.6566 16.2242 32.3351 15.979 32.0736 15.6848C31.8121 15.3797 31.6159 15.0473 31.4852 14.6877C31.3544 14.3172 31.289 13.9576 31.289 13.6089V13.1022C31.289 12.8407 31.3217 12.5901 31.3871 12.3503C31.4634 12.1106 31.5614 11.8927 31.6813 11.6965C31.8012 11.4895 31.9319 11.3097 32.0736 11.1571C32.2262 11.0046 32.3842 10.8847 32.5476 10.7975C32.6348 10.743 32.7056 10.7049 32.7601 10.6831C32.8146 10.6504 32.8582 10.6232 32.8909 10.6014C32.9236 10.5905 32.9454 10.5796 32.9562 10.5687L31.8611 9.83313L32.3925 9.00946Z" fill="black"/>
<path d="M45.8497 16.1752C45.8497 16.6001 45.7844 17.0088 45.6536 17.4011C45.5228 17.8043 45.3376 18.1693 45.0979 18.4962C44.869 18.834 44.5857 19.1282 44.2479 19.3789C43.921 19.6295 43.5505 19.8256 43.1364 19.9673L41.6836 20.4657C41.2514 20.614 40.7817 20.3791 40.6409 19.9444L40.3413 19.0193L42.646 18.251C43.0601 18.1094 43.3925 17.8805 43.6431 17.5645C43.9046 17.2485 44.0354 16.8726 44.0354 16.4367V16.3223C43.9155 16.3768 43.7684 16.4258 43.5941 16.4694C43.4197 16.5021 43.2454 16.5184 43.071 16.5184H41.9759C41.5727 16.5184 41.2022 16.4367 40.8644 16.2732C40.5266 16.0989 40.2378 15.87 39.9981 15.5867C39.7692 15.3034 39.6058 14.9819 39.5077 14.6223C39.4096 14.2518 39.3987 13.8705 39.475 13.4782L39.7529 11.9907C39.8074 11.6965 39.9109 11.4241 40.0635 11.1735C40.2269 10.9119 40.4176 10.6885 40.6355 10.5033C40.8535 10.318 41.0987 10.1764 41.3711 10.0783C41.6544 9.96934 41.9486 9.91486 42.2537 9.91486H43.1691C43.5396 9.91486 43.8883 9.98568 44.2152 10.1273C44.5421 10.269 44.8254 10.4652 45.0652 10.7158C45.3049 10.9555 45.4956 11.2388 45.6372 11.5657C45.7789 11.8927 45.8497 12.2414 45.8497 12.6119V16.1752ZM43.2345 14.3935C43.6858 14.3935 44.0517 14.0276 44.0517 13.5762V12.5955C44.0517 12.4212 43.9918 12.274 43.8719 12.1542C43.7521 12.0234 43.605 11.958 43.4306 11.958H42.1066C41.9541 11.958 41.8233 12.0071 41.7143 12.1051C41.6054 12.2032 41.5345 12.3285 41.5019 12.4811L41.2403 13.7887C41.2076 13.9413 41.2403 14.0829 41.3384 14.2137C41.4474 14.3336 41.5836 14.3935 41.747 14.3935H43.2345Z" fill="black"/>
<path fill-rule="evenodd" clip-rule="evenodd" d="M57.6091 4.88638L54.3477 8.70529L54.6959 8.97673C55.0406 9.24549 55.5358 9.19544 55.8197 8.86312L59.0552 5.0766L58.7975 4.82844C58.4585 4.50205 57.9147 4.52856 57.6091 4.88638Z" fill="black"/>
<path d="M65.1521 14.3935H53.6617H52.4685C52.2724 14.3935 52.0926 14.3336 51.9291 14.2137C51.7656 14.0829 51.6839 13.9195 51.6839 13.7233V10.6667H50.7032C50.2518 10.6667 49.8859 11.0327 49.8859 11.484V16.3223C49.8859 16.7473 49.7606 17.1341 49.51 17.4828C49.2702 17.8424 48.9433 18.0876 48.5292 18.2183L46.1755 18.9866L46.4726 19.8867C46.6151 20.3182 47.0821 20.5507 47.5122 20.4042L48.9869 19.9019C49.3792 19.7712 49.7388 19.5859 50.0657 19.3462C50.3926 19.1173 50.6759 18.8449 50.9157 18.5289C51.1554 18.2129 51.3407 17.8642 51.4714 17.4828C51.6131 17.1123 51.6839 16.72 51.6839 16.3059V16.0117C51.8038 16.2188 51.9672 16.355 52.1743 16.4203C52.3813 16.4857 52.5775 16.5184 52.7627 16.5184H53.6617H64.7598C65.1194 16.5184 65.4626 16.453 65.7895 16.3223C66.1273 16.1806 66.4215 15.9899 66.6722 15.7502C66.9337 15.5104 67.1353 15.2271 67.277 14.9002C67.4295 14.5733 67.5058 14.2137 67.5058 13.8214V12.6119C67.5058 12.2414 67.435 11.8927 67.2933 11.5657C67.1516 11.2388 66.9555 10.9555 66.7049 10.7158C66.4651 10.476 66.1818 10.2854 65.8549 10.1437C65.5389 10.002 65.1956 9.9312 64.8251 9.9312H58.5975L61.7359 6.23713L61.0688 5.61232C60.7288 5.29377 60.1916 5.32358 59.8888 5.67781L55.639 10.6504L56.9303 11.8927H64.9886C65.1847 11.8927 65.3536 11.9635 65.4953 12.1051C65.637 12.2359 65.7078 12.3994 65.7078 12.5955V13.756C65.7078 13.9413 65.6424 14.0938 65.5117 14.2137C65.3918 14.3336 65.2719 14.3935 65.1521 14.3935Z" fill="black"/>
<path d="M3.96019 16.5184H3.48617C3.09388 16.5184 2.72339 16.4476 2.37468 16.3059C2.02598 16.1534 1.72087 15.9463 1.45934 15.6848C1.19781 15.4233 0.990769 15.1182 0.838211 14.7695C0.685654 14.4207 0.609375 14.0503 0.609375 13.658V6.13906C0.609375 5.68769 0.97528 5.32178 1.42665 5.32178H2.40737V13.6089C2.40737 13.8269 2.48365 14.0121 2.63621 14.1647C2.78877 14.3172 2.97402 14.3935 3.19196 14.3935H3.96019H4.4775C4.69544 14.3935 4.88069 14.3281 5.03324 14.1974C5.1967 14.0666 5.30022 13.8922 5.34381 13.6743L5.67072 11.9907C5.7252 11.6965 5.82872 11.4241 5.98128 11.1735C6.14474 10.9119 6.33543 10.694 6.55337 10.5196C6.77131 10.3344 7.01649 10.1927 7.28892 10.0947C7.57224 9.98569 7.86646 9.9312 8.17157 9.9312H9.08692C9.45741 9.9312 9.80612 10.002 10.133 10.1437C10.4599 10.2854 10.7433 10.476 10.983 10.7158C11.2227 10.9555 11.4134 11.2388 11.5551 11.5657C11.6967 11.8927 11.7676 12.2414 11.7676 12.6119V13.6089C11.7676 13.8269 11.8438 14.0121 11.9964 14.1647C12.149 14.3172 12.3342 14.3935 12.5522 14.3935H13.1733H13.9326C14.1505 14.3935 14.3358 14.3118 14.4883 14.1483C14.6409 13.9849 14.7172 13.7942 14.7172 13.5762V11.484C14.7172 11.0327 15.0831 10.6667 15.5344 10.6667H16.5152V13.5926C16.5152 13.8105 16.5914 14.0012 16.744 14.1647C16.8965 14.3172 17.0818 14.3935 17.2997 14.3935H17.7738C17.9917 14.3935 18.1824 14.3281 18.3458 14.1974C18.5093 14.0666 18.6128 13.8922 18.6564 13.6743L19.1005 11.5018C19.1897 11.0654 19.612 10.7808 20.05 10.8619L21.0265 11.0427L20.5361 13.4945C20.4816 13.7233 20.5307 13.9304 20.6832 14.1156C20.8467 14.3009 21.0428 14.3935 21.2717 14.3935H22.4812V11.0427C22.4812 10.5913 22.8471 10.2254 23.2985 10.2254H24.2792V14.5243C24.2792 14.7967 24.2248 15.0582 24.1158 15.3089C24.0177 15.5486 23.8761 15.7611 23.6908 15.9463C23.5165 16.1207 23.304 16.2623 23.0533 16.3713C22.8136 16.4694 22.5575 16.5184 22.2851 16.5184H21.2717C20.923 16.5184 20.5961 16.4421 20.291 16.2896C19.9858 16.137 19.7243 15.8864 19.5064 15.5377C19.2557 15.8864 18.967 16.137 18.6401 16.2896C18.3132 16.4421 17.9699 16.5184 17.6103 16.5184C17.218 16.5184 16.8475 16.4421 16.4988 16.2896C16.161 16.1261 15.8668 15.8809 15.6162 15.554C15.3546 15.8809 15.0495 16.1261 14.7008 16.2896C14.363 16.4421 13.998 16.5184 13.6057 16.5184H13.1733H12.8627C12.5467 16.5184 12.2416 16.4639 11.9474 16.355C11.664 16.246 11.4025 16.0662 11.1628 15.8156C10.8141 16.2841 10.3564 16.5184 9.78977 16.5184H7.8937C7.56679 16.5184 7.25623 16.4476 6.96201 16.3059C6.66779 16.1643 6.40081 15.9191 6.16108 15.5704C5.91045 15.9191 5.63258 16.1643 5.32746 16.3059C5.02235 16.4476 4.69544 16.5184 4.34674 16.5184H3.96019ZM7.66486 14.3935H9.1523C9.60366 14.3935 9.96957 14.0276 9.96957 13.5762V12.5955C9.96957 12.4212 9.90964 12.274 9.78977 12.1542C9.6699 12.0343 9.52279 11.9744 9.34844 11.9744H8.02446C7.8719 11.9744 7.74114 12.0234 7.63217 12.1215C7.5232 12.2087 7.45237 12.3285 7.41968 12.4811L7.15815 13.7887C7.12546 13.9413 7.15815 14.0829 7.25623 14.2137C7.3652 14.3336 7.50141 14.3935 7.66486 14.3935Z" fill="black"/>
<path d="M3.19026 23.2925C3.24825 23.1297 3.4024 23.021 3.57524 23.021H4.69786L7.37546 30.5388H6.20408C6.0299 30.5388 5.87487 30.4284 5.81789 30.2638L5.44965 29.2H2.53519L2.07176 30.5388H0.609375L3.19026 23.2925ZM3.00892 27.8612H4.98622L3.99757 25.0086L3.00892 27.8612Z" fill="black"/>
<path d="M10.7772 30.6418C10.0975 30.6418 9.52426 30.5148 9.0574 30.2608C8.59053 29.9999 8.18546 29.6772 7.84218 29.2927L8.74994 28.5753C8.9449 28.4212 9.22842 28.479 9.39166 28.6664C9.52318 28.8173 9.66922 28.9437 9.82978 29.0455C10.1113 29.2172 10.4237 29.303 10.7669 29.303C11.1377 29.303 11.4192 29.2 11.6114 28.9941C11.8105 28.7881 11.9101 28.5547 11.9101 28.2938C11.9101 28.1359 11.8654 28.002 11.7762 27.8921C11.6869 27.7823 11.5702 27.6896 11.426 27.6141C11.2819 27.5317 11.1137 27.4596 10.9214 27.3978C10.736 27.336 10.5438 27.2742 10.3447 27.2124C10.0907 27.13 9.83665 27.0408 9.58262 26.9447C9.32859 26.8485 9.09859 26.7215 8.89262 26.5636C8.69352 26.3988 8.52874 26.1997 8.3983 25.9663C8.27471 25.726 8.21292 25.4274 8.21292 25.0703C8.21292 24.7683 8.27471 24.4868 8.3983 24.2259C8.52188 23.965 8.69352 23.7384 8.91322 23.5462C9.13978 23.3471 9.40411 23.1926 9.7062 23.0827C10.0152 22.9729 10.3481 22.918 10.7051 22.918C11.0072 22.918 11.2784 22.9454 11.5187 23.0004C11.7659 23.0553 11.989 23.1308 12.1881 23.2269C12.3941 23.323 12.5795 23.4398 12.7442 23.5771C12.9159 23.7075 13.0772 23.8517 13.2283 24.0096L12.4198 24.6232C12.2326 24.7652 11.9682 24.7144 11.7942 24.5565C11.5056 24.2949 11.146 24.1641 10.7154 24.1641C10.3722 24.1641 10.1113 24.2465 9.93276 24.4112C9.75426 24.576 9.665 24.7786 9.665 25.0189C9.665 25.1699 9.7062 25.2969 9.78859 25.3999C9.87097 25.5029 9.98082 25.5956 10.1181 25.678C10.2623 25.7535 10.4271 25.8221 10.6125 25.8839C10.7978 25.9457 10.9935 26.0109 11.1995 26.0796C11.4535 26.162 11.7075 26.2581 11.9616 26.3679C12.2225 26.4709 12.4559 26.6082 12.6619 26.7799C12.8747 26.9447 13.0463 27.1506 13.1768 27.3978C13.3072 27.6381 13.3725 27.9402 13.3725 28.3041C13.3725 28.5993 13.3141 28.8876 13.1974 29.1691C13.0807 29.4506 12.9125 29.7012 12.6928 29.9209C12.4731 30.1338 12.2019 30.3088 11.8792 30.4461C11.5565 30.5766 11.1892 30.6418 10.7772 30.6418Z" fill="black"/>
<path d="M14.6003 23.021H15.9906L18.2666 26.1826L20.6352 23.021H21.555C21.7807 23.021 21.9637 23.2039 21.9637 23.4296V30.5388H20.5631V25.266L18.2563 28.3761L16.0009 25.3175V30.5388H15.009C14.7833 30.5388 14.6003 30.3559 14.6003 30.1302V23.021Z" fill="black"/>
<path d="M25.4886 23.021H26.6112C26.784 23.021 26.9382 23.1297 26.9962 23.2925L29.577 30.5388H28.1147L27.6512 29.2H24.7368L24.2733 30.5388H23.3903C23.1079 30.5388 22.9106 30.2591 23.0053 29.993L25.4886 23.021ZM25.2105 27.8612H27.1878L26.1991 25.0086L25.2105 27.8612Z" fill="black"/>
<path d="M36.5452 30.6418C35.9616 30.6418 35.4295 30.5388 34.9489 30.3329C34.4683 30.1269 34.0564 29.8488 33.7131 29.4987C33.3698 29.1417 33.1055 28.7297 32.9201 28.2629C32.7348 27.796 32.6421 27.3017 32.6421 26.7799C32.6421 26.2444 32.7382 25.7432 32.9304 25.2763C33.1227 24.8026 33.387 24.3941 33.7234 24.0508C34.0667 23.7007 34.4718 23.426 34.9386 23.2269C35.4124 23.021 35.9273 22.918 36.4834 22.918C36.8747 22.918 37.2421 22.966 37.5853 23.0621C37.9286 23.1514 38.2444 23.2818 38.5328 23.4535C38.828 23.6251 39.0889 23.8311 39.3155 24.0714C39.5489 24.3048 39.7446 24.5623 39.9025 24.8438L39.0334 25.3652C38.8336 25.4851 38.577 25.4113 38.4384 25.2239C38.2477 24.9662 38.0252 24.7606 37.7707 24.6069C37.4137 24.3872 36.988 24.2774 36.4937 24.2774C36.1436 24.2774 35.8174 24.346 35.5153 24.4833C35.2201 24.6138 34.9592 24.7923 34.7327 25.0189C34.513 25.2454 34.3413 25.5097 34.2177 25.8118C34.0942 26.1139 34.0324 26.4366 34.0324 26.7799C34.0324 27.13 34.0942 27.4562 34.2177 27.7582C34.3413 28.0603 34.513 28.3247 34.7327 28.5512C34.9592 28.7778 35.227 28.9563 35.5359 29.0867C35.8449 29.2172 36.1813 29.2824 36.5452 29.2824C37.1082 29.2824 37.575 29.1348 37.9458 28.8396C38.3234 28.5444 38.5809 28.1496 38.7182 27.6553H36.7273C36.5016 27.6553 36.3186 27.4723 36.3186 27.2466V26.3165H40.2217V26.8726C40.2217 27.3806 40.1359 27.8647 39.9643 28.3247C39.7926 28.7778 39.5455 29.176 39.2228 29.5193C38.907 29.8626 38.5225 30.1372 38.0694 30.3432C37.6162 30.5423 37.1082 30.6418 36.5452 30.6418Z" fill="black"/>
<path d="M41.3251 30.5388V23.4296C41.3251 23.2039 41.5081 23.021 41.7338 23.021H43.735C44.1812 23.021 44.576 23.0862 44.9193 23.2166C45.2694 23.3402 45.5647 23.5187 45.805 23.7521C46.0453 23.9787 46.2272 24.2533 46.3508 24.576C46.4812 24.8918 46.5465 25.2454 46.5465 25.6368C46.5465 26.0899 46.4366 26.5156 46.2169 26.9138C46.0041 27.3051 45.6917 27.6106 45.2797 27.8303L46.7833 30.5388H45.1871L43.9821 28.2423H42.7257V30.1302C42.7257 30.3559 42.5428 30.5388 42.3171 30.5388H41.3251ZM43.6114 26.955C43.8997 26.955 44.14 26.9206 44.3323 26.852C44.5314 26.7765 44.6893 26.6769 44.806 26.5533C44.9296 26.4229 45.0154 26.2753 45.0635 26.1105C45.1184 25.9457 45.1459 25.7706 45.1459 25.5853C45.1459 25.2008 45.0223 24.8953 44.7751 24.6687C44.5348 24.4421 44.1469 24.3289 43.6114 24.3289H42.7257V26.955H43.6114Z" fill="black"/>
<path d="M51.0333 30.6418C50.4978 30.6418 49.9966 30.5423 49.5297 30.3432C49.0629 30.1372 48.6544 29.8626 48.3042 29.5193C47.9609 29.1691 47.6897 28.7606 47.4906 28.2938C47.2915 27.82 47.192 27.3154 47.192 26.7799C47.192 26.2444 47.2915 25.7432 47.4906 25.2763C47.6897 24.8095 47.9609 24.4009 48.3042 24.0508C48.6544 23.7007 49.0629 23.426 49.5297 23.2269C49.9966 23.021 50.4978 22.918 51.0333 22.918C51.5688 22.918 52.07 23.021 52.5369 23.2269C53.0037 23.426 53.4122 23.7007 53.7624 24.0508C54.1125 24.4009 54.3872 24.8095 54.5863 25.2763C54.7854 25.7432 54.8849 26.2444 54.8849 26.7799C54.8849 27.3154 54.7854 27.82 54.5863 28.2938C54.3872 28.7606 54.1125 29.1691 53.7624 29.5193C53.4122 29.8626 53.0037 30.1372 52.5369 30.3432C52.07 30.5423 51.5688 30.6418 51.0333 30.6418ZM51.0333 29.2618C51.3766 29.2618 51.6958 29.1966 51.9911 29.0661C52.2931 28.9357 52.554 28.7606 52.7737 28.5409C53.0003 28.3144 53.1754 28.05 53.299 27.7479C53.4294 27.4459 53.4946 27.1232 53.4946 26.7799C53.4946 26.4366 53.4294 26.1139 53.299 25.8118C53.1754 25.5097 53.0003 25.2489 52.7737 25.0292C52.554 24.8026 52.2931 24.6241 51.9911 24.4936C51.6958 24.3632 51.3766 24.298 51.0333 24.298C50.69 24.298 50.3673 24.3632 50.0652 24.4936C49.77 24.6241 49.5126 24.8026 49.2929 25.0292C49.0732 25.2489 48.8981 25.5097 48.7676 25.8118C48.6441 26.1139 48.5823 26.4366 48.5823 26.7799C48.5823 27.1232 48.6441 27.4459 48.7676 27.7479C48.8981 28.05 49.0732 28.3144 49.2929 28.5409C49.5126 28.7606 49.77 28.9357 50.0652 29.0661C50.3673 29.1966 50.69 29.2618 51.0333 29.2618Z" fill="black"/>
<path d="M58.4925 30.5903C58.1011 30.5903 57.7407 30.532 57.4111 30.4152C57.0816 30.2985 56.7932 30.1269 56.5461 29.9003C56.3058 29.6738 56.117 29.3923 55.9797 29.0559C55.8492 28.7194 55.784 28.3315 55.784 27.8921V22.9695H56.7759C57.0016 22.9695 57.1846 23.1524 57.1846 23.3781V27.9745C57.1846 28.1599 57.2155 28.335 57.2773 28.4997C57.3459 28.6576 57.4386 28.795 57.5553 28.9117C57.672 29.0284 57.8094 29.1211 57.9673 29.1897C58.1252 29.2584 58.2968 29.2927 58.4822 29.2927C58.6676 29.2927 58.8392 29.2584 58.9971 29.1897C59.155 29.1211 59.2923 29.0284 59.409 28.9117C59.5326 28.795 59.6288 28.6576 59.6974 28.4997C59.7661 28.335 59.8004 28.1599 59.8004 27.9745V23.3781C59.8004 23.1524 59.9834 22.9695 60.2091 22.9695H61.201V27.8921C61.201 28.3315 61.1323 28.7194 60.995 29.0559C60.8577 29.3923 60.6689 29.6738 60.4286 29.9003C60.1883 30.1269 59.9034 30.2985 59.5738 30.4152C59.2443 30.532 58.8838 30.5903 58.4925 30.5903Z" fill="black"/>
<path d="M62.2227 23.4296C62.2227 23.2039 62.4057 23.021 62.6314 23.021H64.7973C65.1886 23.021 65.5491 23.093 65.8786 23.2372C66.2082 23.3745 66.4931 23.5633 66.7334 23.8036C66.9737 24.0439 67.1625 24.3289 67.2998 24.6584C67.4371 24.9811 67.5058 25.3278 67.5058 25.6985C67.5058 26.0693 67.4371 26.4194 67.2998 26.749C67.1625 27.0785 66.9737 27.3635 66.7334 27.6038C66.4931 27.8441 66.2048 28.0363 65.8683 28.1805C65.5388 28.3178 65.1783 28.3865 64.787 28.3865H63.6233V30.1302C63.6233 30.3559 63.4403 30.5388 63.2146 30.5388H62.2227V23.4296ZM63.6233 24.3186V27.0888H64.6943C64.9003 27.0888 65.0891 27.0545 65.2607 26.9859C65.4324 26.9103 65.58 26.8108 65.7036 26.6872C65.8271 26.5568 65.9233 26.4091 65.9919 26.2444C66.0606 26.0727 66.0949 25.8908 66.0949 25.6985C66.0949 25.5063 66.0606 25.3278 65.9919 25.163C65.9233 24.9914 65.8271 24.8438 65.7036 24.7202C65.58 24.5966 65.4324 24.5005 65.2607 24.4318C65.0891 24.3563 64.9003 24.3186 64.6943 24.3186H63.6233Z" fill="black"/>
</svg>
