<svg width="562" height="320" viewBox="0 0 562 320" fill="none" xmlns="http://www.w3.org/2000/svg">
<path d="M409.593 16.5059C325.788 16.5059 257.846 84.4486 257.846 168.253C257.846 252.057 325.788 320 409.593 320C493.397 320 561.34 252.057 561.34 168.253C561.34 84.4486 493.397 16.5059 409.593 16.5059ZM297.779 168.253C297.779 106.5 347.84 56.4393 409.593 56.4393C433.257 56.4393 455.165 63.835 473.231 76.3741L317.714 231.891C305.175 213.825 297.779 191.917 297.779 168.253ZM409.593 280.067C385.928 280.067 364.021 272.671 345.955 260.132L501.472 104.615C514.011 122.681 521.406 144.588 521.406 168.253C521.406 230.006 471.346 280.067 409.593 280.067Z" fill="white"/>
<path d="M315.247 10.5488C261.693 42.6575 225.846 101.27 225.846 168.253C225.846 231.284 257.588 286.902 305.956 320H32.6982C15.0182 320 0.698242 305.68 0.698242 288V16L16.6982 0L32.6982 16L48.6982 0L64.6982 16L80.6982 0L96.6982 16L112.698 0L128.698 16L144.698 0L160.698 16L176.698 0L192.698 16L208.698 0L224.698 16L240.698 0L256.698 16L272.698 0L288.698 16L304.698 0L315.247 10.5488ZM409.593 16.5059C411.975 16.5059 414.343 16.5633 416.698 16.6719V56.6631C414.713 56.5379 412.714 56.464 410.701 56.4443L409.593 56.4395C384.977 56.4395 362.219 64.3935 343.749 77.8721L336.698 80H304.698V102.608C286.778 107.216 275.738 119.728 275.738 137.072C275.738 151.952 283.21 162.261 297.783 167.505C297.782 167.754 297.779 168.003 297.779 168.253L297.784 169.361C297.834 174.421 298.221 179.398 298.925 184.272H273.466C273.85 201.616 285.53 213.552 304.698 217.696V240H336.698L355.77 250.316L345.955 260.132C364.021 272.671 385.928 280.066 409.593 280.066C411.979 280.066 414.349 279.991 416.698 279.844V288C416.698 302.994 406.399 315.568 392.485 319.044C316.734 310.544 257.846 246.273 257.846 168.253C257.846 84.4486 325.788 16.5059 409.593 16.5059ZM206.73 208C191.13 208 179.882 218.544 172.49 229.232C166.73 226.096 159.69 224 151.307 224C143.963 224 137.755 226.16 132.555 229.6C124.971 216.912 113.098 208 96.6982 208C62.1062 208 50.2665 247.568 48.7305 270.944C48.1547 279.744 54.8105 287.328 63.6104 287.936C63.9782 287.968 64.346 287.968 64.7139 287.968C73.0339 287.968 80.074 281.504 80.666 273.088C81.29 264.256 86.2663 240 96.6982 240C109.034 240 110.842 268.08 110.858 268.32C111.115 276.448 117.403 283.104 125.515 283.792C133.482 284.464 140.938 278.976 142.538 270.992C143.69 265.2 148.186 256 151.322 256C158.474 256 161.322 260.864 161.866 262C164.362 268.176 170.458 272.096 177.114 271.968C183.786 271.808 189.658 267.488 191.834 261.184C195.61 250.272 203.418 240 206.73 240C215.578 240 222.73 232.832 222.73 224C222.73 215.168 215.562 208 206.73 208ZM416.711 234.628C416.743 239.442 416.821 243.806 416.718 247.752C416.711 247.753 416.705 247.752 416.698 247.753V234.642L416.711 234.628ZM416.698 189.389L397.085 209.001C386.873 201.708 373.944 194.306 361.479 188.124L416.698 132.906V189.389ZM64.6982 144C55.8662 144 48.6982 151.168 48.6982 160C48.6982 168.832 55.8662 176 64.6982 176H160.698C169.53 176 176.698 168.832 176.698 160C176.698 151.168 169.53 144 160.698 144H64.6982ZM64.6982 80C55.8662 80 48.6982 87.168 48.6982 96C48.6982 104.832 55.8662 112 64.6982 112H192.698C201.53 112 208.698 104.832 208.698 96C208.698 87.168 201.53 80 192.698 80H64.6982Z" fill="white"/>
</svg>