<svg width="34" height="35" viewBox="0 0 34 35" fill="none" xmlns="http://www.w3.org/2000/svg">
<path d="M26.3158 0.743317C25.9845 0.748491 25.6689 0.884926 25.4382 1.12265C25.2075 1.36038 25.0806 1.67995 25.0853 2.01119V4.59902C22.432 2.21714 18.9266 0.76122 15.0856 0.76122C6.81611 0.76122 0.0859375 7.49139 0.0859375 15.7609C0.0859375 23.2591 5.60879 29.494 12.8151 30.5896C12.9775 30.6142 13.143 30.6065 13.3024 30.5671C13.4618 30.5277 13.6119 30.4573 13.744 30.3599C13.8762 30.2625 13.9879 30.14 14.0727 29.9994C14.1575 29.8589 14.2138 29.703 14.2384 29.5406C14.263 29.3783 14.2554 29.2127 14.216 29.0533C14.1765 28.894 14.1061 28.7439 14.0087 28.6117C13.9113 28.4796 13.7888 28.3679 13.6483 28.2831C13.5077 28.1982 13.3518 28.1419 13.1895 28.1173C7.18612 27.2046 2.58588 22.034 2.58588 15.7609C2.58588 8.84236 8.16708 3.26116 15.0856 3.26116C18.364 3.26116 21.3191 4.53405 23.544 6.59441H20.5021C20.3365 6.59207 20.172 6.62267 20.0183 6.68444C19.8646 6.7462 19.7247 6.8379 19.6068 6.9542C19.4888 7.07051 19.3951 7.20909 19.3312 7.36191C19.2673 7.51473 19.2343 7.67873 19.2343 7.84438C19.2343 8.01003 19.2673 8.17403 19.3312 8.32685C19.3951 8.47967 19.4888 8.61826 19.6068 8.73456C19.7247 8.85086 19.8646 8.94256 20.0183 9.00433C20.172 9.06609 20.3365 9.09669 20.5021 9.09435H26.3239H26.3353C26.3467 9.09396 26.3581 9.09342 26.3695 9.09272C26.3999 9.09221 26.4303 9.09058 26.4606 9.08784C26.4983 9.08412 26.5358 9.07869 26.5729 9.07157C26.6052 9.06524 26.6373 9.05764 26.669 9.04878C26.6771 9.04669 26.6853 9.04452 26.6934 9.04227C26.6972 9.0412 26.701 9.04012 26.7048 9.03901C26.719 9.03384 26.7331 9.02842 26.7471 9.02274C26.7723 9.01431 26.7973 9.00509 26.8219 8.99507C26.8568 8.98036 26.8911 8.96406 26.9245 8.94624C26.9277 8.94463 26.931 8.943 26.9342 8.94136C26.9677 8.92332 27.0003 8.90377 27.0319 8.88277C27.0352 8.88061 27.0384 8.87844 27.0417 8.87626C27.0725 8.85483 27.1024 8.83202 27.1312 8.8079C27.1345 8.8052 27.1377 8.80249 27.1409 8.79976C27.1698 8.77553 27.1975 8.75 27.224 8.72327C27.2267 8.72057 27.2294 8.71785 27.2321 8.71513C27.2583 8.68806 27.2833 8.65982 27.307 8.6305C27.3097 8.62725 27.3124 8.624 27.3151 8.62073C27.3217 8.6116 27.3282 8.60237 27.3346 8.59306C27.3529 8.56928 27.3702 8.54485 27.3867 8.51982C27.4091 8.48453 27.4298 8.44814 27.4486 8.41078C27.4658 8.37732 27.4816 8.34311 27.4958 8.30824C27.4974 8.30445 27.499 8.30065 27.5006 8.29684C27.5142 8.2616 27.5261 8.22575 27.5364 8.18942C27.5375 8.18563 27.5386 8.18184 27.5397 8.17803C27.5501 8.14155 27.5587 8.10463 27.5657 8.06736C27.5663 8.06356 27.5668 8.05977 27.5674 8.05597C27.5679 8.05271 27.5685 8.04946 27.569 8.0462C27.5751 8.00844 27.5794 7.97043 27.582 7.93227C27.5827 7.92305 27.5832 7.91383 27.5836 7.9046C27.5847 7.88454 27.5852 7.86447 27.5853 7.84438V7.81997V2.01119C27.5877 1.84389 27.5565 1.67781 27.4935 1.52279C27.4305 1.36778 27.3371 1.22698 27.2187 1.10874C27.1003 0.990506 26.9594 0.897239 26.8043 0.834469C26.6492 0.771698 26.4831 0.740702 26.3158 0.743317ZM20.1034 17.4275C18.2626 17.4275 16.7522 18.9199 16.7522 20.7607V30.7605C16.7522 32.6029 18.2479 34.0962 20.0903 34.0937L30.0852 34.0791C31.926 34.0766 33.4161 32.5834 33.4136 30.7426L33.4185 20.7607C33.416 18.9216 31.9243 17.4275 30.0852 17.4275H20.1034ZM30.0852 21.5794C30.2983 21.5794 30.5115 21.6606 30.6744 21.8235C31.0002 22.1494 31.0002 22.6761 30.6744 23.0019L24.0079 29.6684C23.8454 29.8309 23.632 29.9125 23.4187 29.9125C23.2054 29.9125 22.992 29.8309 22.8295 29.6684L19.4963 26.3351C19.1705 26.0093 19.1705 25.4826 19.4963 25.1568C19.8221 24.831 20.3488 24.831 20.6746 25.1568L23.4187 27.9009L29.496 21.8235C29.6589 21.6606 29.8721 21.5794 30.0852 21.5794Z" fill="white"/>
</svg>
