<svg width="30" height="30" viewBox="0 0 30 30" fill="none" xmlns="http://www.w3.org/2000/svg">
<path d="M26.7878 0.673828H2.78776C1.31443 0.673828 0.121094 1.83733 0.121094 3.27383V26.6738C0.121094 28.1103 1.31443 29.2738 2.78776 29.2738H26.7878C28.2611 29.2738 29.4544 28.1103 29.4544 26.6738V3.27383C29.4544 1.83733 28.2611 0.673828 26.7878 0.673828ZM4.12109 25.3738C3.38509 25.3738 2.78776 24.7914 2.78776 24.0738C2.78776 23.3562 3.38509 22.7738 4.12109 22.7738C4.85709 22.7738 5.45443 23.3562 5.45443 24.0738C5.45443 24.7914 4.85709 25.3738 4.12109 25.3738ZM4.12109 20.1738C3.38509 20.1738 2.78776 19.5914 2.78776 18.8738C2.78776 18.1562 3.38509 17.5738 4.12109 17.5738C4.85709 17.5738 5.45443 18.1562 5.45443 18.8738C5.45443 19.5914 4.85709 20.1738 4.12109 20.1738ZM9.45443 25.3738C8.71843 25.3738 8.12109 24.7914 8.12109 24.0738C8.12109 23.3562 8.71843 22.7738 9.45443 22.7738C10.1904 22.7738 10.7878 23.3562 10.7878 24.0738C10.7878 24.7914 10.1904 25.3738 9.45443 25.3738ZM9.45443 20.1738C8.71843 20.1738 8.12109 19.5914 8.12109 18.8738C8.12109 18.1562 8.71843 17.5738 9.45443 17.5738C10.1904 17.5738 10.7878 18.1562 10.7878 18.8738C10.7878 19.5914 10.1904 20.1738 9.45443 20.1738ZM9.45443 14.9738C8.71843 14.9738 8.12109 14.3914 8.12109 13.6738C8.12109 12.9562 8.71843 12.3738 9.45443 12.3738C10.1904 12.3738 10.7878 12.9562 10.7878 13.6738C10.7878 14.3914 10.1904 14.9738 9.45443 14.9738ZM14.7878 25.3738C14.0518 25.3738 13.4544 24.7914 13.4544 24.0738C13.4544 23.3562 14.0518 22.7738 14.7878 22.7738C15.5238 22.7738 16.1211 23.3562 16.1211 24.0738C16.1211 24.7914 15.5238 25.3738 14.7878 25.3738ZM14.7878 20.1738C14.0518 20.1738 13.4544 19.5914 13.4544 18.8738C13.4544 18.1562 14.0518 17.5738 14.7878 17.5738C15.5238 17.5738 16.1211 18.1562 16.1211 18.8738C16.1211 19.5914 15.5238 20.1738 14.7878 20.1738ZM14.7878 14.9738C14.0518 14.9738 13.4544 14.3914 13.4544 13.6738C13.4544 12.9562 14.0518 12.3738 14.7878 12.3738C15.5238 12.3738 16.1211 12.9562 16.1211 13.6738C16.1211 14.3914 15.5238 14.9738 14.7878 14.9738ZM20.1211 25.3738C19.3851 25.3738 18.7878 24.7914 18.7878 24.0738C18.7878 23.3562 19.3851 22.7738 20.1211 22.7738C20.8571 22.7738 21.4544 23.3562 21.4544 24.0738C21.4544 24.7914 20.8571 25.3738 20.1211 25.3738ZM20.1211 20.8238C19.0171 20.8238 18.1211 19.9502 18.1211 18.8738C18.1211 17.7974 19.0171 16.9238 20.1211 16.9238C21.2251 16.9238 22.1211 17.7974 22.1211 18.8738C22.1211 19.9502 21.2251 20.8238 20.1211 20.8238ZM18.7878 13.6738C18.7878 12.9562 19.3851 12.3738 20.1211 12.3738C20.8571 12.3738 21.4544 12.9562 21.4544 13.6738C21.4544 14.3914 20.8571 14.9738 20.1211 14.9738C19.3851 14.9738 18.7878 14.3914 18.7878 13.6738ZM25.4544 20.1738C24.7184 20.1738 24.1211 19.5914 24.1211 18.8738C24.1211 18.1562 24.7184 17.5738 25.4544 17.5738C26.1904 17.5738 26.7878 18.1562 26.7878 18.8738C26.7878 19.5914 26.1904 20.1738 25.4544 20.1738ZM25.4544 14.9738C24.7184 14.9738 24.1211 14.3914 24.1211 13.6738C24.1211 12.9562 24.7184 12.3738 25.4544 12.3738C26.1904 12.3738 26.7878 12.9562 26.7878 13.6738C26.7878 14.3914 26.1904 14.9738 25.4544 14.9738ZM26.7878 8.47383H2.78776V3.27383H26.7878V8.47383Z" fill="#68B0AB"/>
</svg>
